<svg width="32" height="32" viewBox="0 0 32 32" fill="none" xmlns="http://www.w3.org/2000/svg">
<path d="M8.4707 8.15681L16.0001 3.76465L23.5295 8.15681L16.0001 12.549L8.4707 8.15681Z" fill="#CDBEFF"/>
<path d="M16 19.7647L23.5294 15.3725V8.15686L16 12.549V19.7647Z" fill="#936DFF"/>
<path d="M8.4707 8.15686V15.3725L16.0001 19.7647V12.549L8.4707 8.15686Z" fill="#A080FF"/>
<path d="M15.3726 7.5293L17.9533 6.05456C18.3838 5.80857 18.9207 5.84961 19.3088 6.15817C19.9779 6.69013 19.9008 7.72893 19.1605 8.15632L17.2235 9.2747L15.3726 7.5293Z" fill="#BCAAFC"/>
<path fill-rule="evenodd" clip-rule="evenodd" d="M18.1959 6.43127H13.8037V8.30662C13.8037 8.30895 13.8037 8.31129 13.8037 8.31363C13.8037 9.00669 14.7869 9.56853 15.9998 9.56853C17.2127 9.56853 18.1959 9.00669 18.1959 8.31363L18.1959 8.31363V6.43127Z" fill="#9573FD"/>
<ellipse cx="15.9998" cy="6.43129" rx="2.19608" ry="1.2549" fill="#F7EEFF"/>
<path d="M16 12.549L23.5294 8.15686L31.0588 12.549L23.5294 16.9412L16 12.549Z" fill="#CDBEFF"/>
<path d="M23.5293 24.1569L31.0587 19.7648V12.5491L23.5293 16.9412V24.1569Z" fill="#936DFF"/>
<path d="M16 12.5491V19.7648L23.5294 24.1569V16.9412L16 12.5491Z" fill="#A080FF"/>
<path d="M22.9019 11.9215L25.4826 10.4468C25.9131 10.2008 26.45 10.2418 26.8381 10.5504C27.5072 11.0823 27.4301 12.1211 26.6898 12.5485L24.7527 13.6669L22.9019 11.9215Z" fill="#BCAAFC"/>
<path fill-rule="evenodd" clip-rule="evenodd" d="M25.7257 10.8235H21.3335V12.7058L21.3336 12.7058C21.3336 13.3989 22.3168 13.9607 23.5297 13.9607C24.7425 13.9607 25.7257 13.3989 25.7257 12.7058C25.7257 12.7022 25.7257 12.6985 25.7257 12.6949V10.8235Z" fill="#9573FD"/>
<ellipse cx="23.5296" cy="10.8235" rx="2.19608" ry="1.2549" fill="#F7EEFF"/>
<path d="M0.941406 12.549L8.47082 8.15686L16.0002 12.549L8.47082 16.9412L0.941406 12.549Z" fill="#FFB8B4"/>
<path d="M8.4707 24.1569L16.0001 19.7648V12.5491L8.4707 16.9412V24.1569Z" fill="#EA6463"/>
<path d="M0.941406 12.5491V19.7648L8.47082 24.1569V16.9412L0.941406 12.5491Z" fill="#F88887"/>
<path d="M7.84326 11.9215L10.424 10.4468C10.8545 10.2008 11.3914 10.2418 11.7795 10.5504C12.4486 11.0823 12.3715 12.1211 11.6312 12.5485L9.69415 13.6669L7.84326 11.9215Z" fill="#FBA39F"/>
<path fill-rule="evenodd" clip-rule="evenodd" d="M10.6671 10.8235H6.2749V12.7058L6.275 12.7058C6.275 13.3989 7.25822 13.9607 8.47108 13.9607C9.68394 13.9607 10.6672 13.3989 10.6672 12.7058C10.6672 12.7019 10.6671 12.6979 10.6671 12.694V10.8235Z" fill="#F88887"/>
<ellipse cx="8.47098" cy="10.8235" rx="2.19608" ry="1.2549" fill="#FFEDEF"/>
<path d="M8.4707 16.9411L16.0001 12.549L23.5295 16.9411L16.0001 21.3333L8.4707 16.9411Z" fill="#FFB8B4"/>
<path d="M16 28.549L23.5294 24.1568V16.9412L16 21.3333V28.549Z" fill="#EA6463"/>
<path d="M8.4707 16.9412V24.1568L16.0001 28.549V21.3333L8.4707 16.9412Z" fill="#F88887"/>
<path d="M15.3726 16.3136L17.9533 14.8389C18.3838 14.5929 18.9207 14.6339 19.3088 14.9425C19.9779 15.4744 19.9008 16.5132 19.1605 16.9406L17.2235 18.059L15.3726 16.3136Z" fill="#FBA39F"/>
<path fill-rule="evenodd" clip-rule="evenodd" d="M18.1959 15.2156H13.8037V17.0909C13.8037 17.0933 13.8037 17.0956 13.8037 17.0979C13.8037 17.791 14.7869 18.3528 15.9998 18.3528C17.2127 18.3528 18.1959 17.791 18.1959 17.0979L18.1959 17.0979V15.2156Z" fill="#F88887"/>
<ellipse cx="15.9998" cy="15.2156" rx="2.19608" ry="1.2549" fill="#FFEDEF"/>
</svg>
