<svg width="32" height="32" viewBox="0 0 32 32" fill="none" xmlns="http://www.w3.org/2000/svg">
<path d="M8.4707 11.6079L16.0001 7.2157L23.5295 11.6079L16.0001 16L8.4707 11.6079Z" fill="#CDBEFF"/>
<path d="M16 23.2158L23.5294 18.8236V11.6079L16 16.0001V23.2158Z" fill="#936DFF"/>
<path d="M8.4707 11.6079V18.8236L16.0001 23.2158V16.0001L8.4707 11.6079Z" fill="#A080FF"/>
<path d="M15.3726 10.9803L17.9533 9.50561C18.3838 9.25961 18.9207 9.30066 19.3088 9.60922C19.9779 10.1412 19.9008 11.18 19.1605 11.6074L17.2235 12.7257L15.3726 10.9803Z" fill="#BCAAFC"/>
<path fill-rule="evenodd" clip-rule="evenodd" d="M18.1959 9.88232H13.8037V11.7577C13.8037 11.76 13.8037 11.7623 13.8037 11.7647C13.8037 12.4577 14.7869 13.0196 15.9998 13.0196C17.2127 13.0196 18.1959 12.4577 18.1959 11.7647L18.1959 11.7647V9.88232Z" fill="#9573FD"/>
<ellipse cx="15.9998" cy="9.88234" rx="2.19608" ry="1.2549" fill="#F7EEFF"/>
<path d="M16 16.0001L23.5294 11.6079L31.0588 16.0001L23.5294 20.3922L16 16.0001Z" fill="#CDBEFF"/>
<path d="M23.5293 27.608L31.0587 23.2158V16.0001L23.5293 20.3923V27.608Z" fill="#936DFF"/>
<path d="M16 16.0001V23.2158L23.5294 27.608V20.3923L16 16.0001Z" fill="#A080FF"/>
<path d="M22.9019 15.3726L25.4826 13.8978C25.9131 13.6518 26.45 13.6929 26.8381 14.0014C27.5072 14.5334 27.4301 15.5722 26.6898 15.9996L24.7527 17.118L22.9019 15.3726Z" fill="#BCAAFC"/>
<path fill-rule="evenodd" clip-rule="evenodd" d="M25.7257 14.2745H21.3335V16.1569L21.3336 16.1569C21.3336 16.85 22.3168 17.4118 23.5297 17.4118C24.7425 17.4118 25.7257 16.85 25.7257 16.1569C25.7257 16.1532 25.7257 16.1496 25.7257 16.146V14.2745Z" fill="#9573FD"/>
<ellipse cx="23.5296" cy="14.2746" rx="2.19608" ry="1.2549" fill="#F7EEFF"/>
<path d="M0.941406 16.0001L8.47082 11.6079L16.0002 16.0001L8.47082 20.3922L0.941406 16.0001Z" fill="#FFB8B4"/>
<path d="M8.4707 27.608L16.0001 23.2158V16.0001L8.4707 20.3923V27.608Z" fill="#EA6463"/>
<path d="M0.941406 16.0001V23.2158L8.47082 27.608V20.3923L0.941406 16.0001Z" fill="#F88887"/>
<path d="M7.84326 15.3726L10.424 13.8978C10.8545 13.6518 11.3914 13.6929 11.7795 14.0014C12.4486 14.5334 12.3715 15.5722 11.6312 15.9996L9.69415 17.118L7.84326 15.3726Z" fill="#FBA39F"/>
<path fill-rule="evenodd" clip-rule="evenodd" d="M10.6671 14.2745H6.2749V16.1569L6.275 16.1569C6.275 16.85 7.25822 17.4118 8.47108 17.4118C9.68394 17.4118 10.6672 16.85 10.6672 16.1569C10.6672 16.1529 10.6671 16.149 10.6671 16.145V14.2745Z" fill="#F88887"/>
<ellipse cx="8.47098" cy="14.2746" rx="2.19608" ry="1.2549" fill="#FFEDEF"/>
<path d="M8.4707 20.3922L16.0001 16L23.5295 20.3922L16.0001 24.7843L8.4707 20.3922Z" fill="#FFB8B4"/>
<path d="M16 32.0001L23.5294 27.6079V20.3922L16 24.7844V32.0001Z" fill="#EA6463"/>
<path d="M8.4707 20.3922V27.6079L16.0001 32.0001V24.7844L8.4707 20.3922Z" fill="#F88887"/>
<path d="M15.3726 19.7646L17.9533 18.2899C18.3838 18.0439 18.9207 18.085 19.3088 18.3935C19.9779 18.9255 19.9008 19.9643 19.1605 20.3917L17.2235 21.51L15.3726 19.7646Z" fill="#FBA39F"/>
<path fill-rule="evenodd" clip-rule="evenodd" d="M18.1959 18.6666H13.8037V20.542C13.8037 20.5443 13.8037 20.5466 13.8037 20.549C13.8037 21.242 14.7869 21.8039 15.9998 21.8039C17.2127 21.8039 18.1959 21.242 18.1959 20.549L18.1959 20.549V18.6666Z" fill="#F88887"/>
<ellipse cx="15.9998" cy="18.6666" rx="2.19608" ry="1.2549" fill="#FFEDEF"/>
<path d="M8.4707 4.39216L16.0001 0L23.5295 4.39216L16.0001 8.78431L8.4707 4.39216Z" fill="#99D4FF"/>
<path d="M16 16.0001L23.5294 11.6079V4.39221L16 8.78437V16.0001Z" fill="#2F83FF"/>
<path d="M8.4707 4.39221V11.6079L16.0001 16.0001V8.78437L8.4707 4.39221Z" fill="#2FA9FF"/>
<path d="M15.3726 3.76465L17.9533 2.28991C18.3838 2.04392 18.9207 2.08496 19.3088 2.39352C19.9779 2.92548 19.9008 3.96428 19.1605 4.39167L17.2235 5.51005L15.3726 3.76465Z" fill="#83C0FF"/>
<path fill-rule="evenodd" clip-rule="evenodd" d="M18.1959 2.66663H13.8037V4.54197C13.8037 4.54431 13.8037 4.54664 13.8037 4.54898C13.8037 5.24204 14.7869 5.80388 15.9998 5.80388C17.2127 5.80388 18.1959 5.24204 18.1959 4.54898L18.1959 4.54898V2.66663Z" fill="#2FA9FF"/>
<ellipse cx="15.9998" cy="2.66665" rx="2.19608" ry="1.2549" fill="#EFF8FF"/>
</svg>
