<svg width="32" height="32" viewBox="0 0 32 32" fill="none" xmlns="http://www.w3.org/2000/svg">
<path d="M4.70605 10.353L12.2355 5.96082L19.7649 10.353L12.2355 14.7451L4.70605 10.353Z" fill="#FFB8B4"/>
<path d="M12.2354 21.9609L19.7648 17.5687V10.353L12.2354 14.7452V21.9609Z" fill="#EA6463"/>
<path d="M4.70605 10.353V17.5687L12.2355 21.9609V14.7452L4.70605 10.353Z" fill="#F88887"/>
<path d="M11.6079 9.72559L14.1887 8.25085C14.6192 8.00485 15.1561 8.0459 15.5442 8.35446V8.35446C16.2132 8.88642 16.1361 9.92522 15.3959 10.3526L13.4588 11.471L11.6079 9.72559Z" fill="#FBA39F"/>
<path fill-rule="evenodd" clip-rule="evenodd" d="M14.4317 8.62744H10.0396V10.5098H10.0396C10.0396 11.2029 11.0228 11.7647 12.2356 11.7647C13.4485 11.7647 14.4317 11.2028 14.4317 10.5098C14.4317 10.5085 14.4317 10.5072 14.4317 10.506V8.62744Z" fill="#F88887"/>
<ellipse cx="12.2356" cy="8.62746" rx="2.19608" ry="1.2549" fill="#FFEDEF"/>
<path d="M12.2354 14.7452L19.7648 10.353L27.2942 14.7452L19.7648 19.1373L12.2354 14.7452Z" fill="#FFB8B4"/>
<path d="M19.7646 26.353L27.2941 21.9608V14.7451L19.7646 19.1373V26.353Z" fill="#EA6463"/>
<path d="M12.2354 14.7451V21.9608L19.7648 26.353V19.1373L12.2354 14.7451Z" fill="#F88887"/>
<path d="M19.1372 14.1177L21.718 12.6429C22.1484 12.3969 22.6854 12.438 23.0735 12.7466V12.7466C23.7425 13.2785 23.6654 14.3173 22.9252 14.7447L20.9881 15.8631L19.1372 14.1177Z" fill="#FBA39F"/>
<path fill-rule="evenodd" clip-rule="evenodd" d="M21.961 13.0197H17.5688V14.902H17.5689C17.5689 14.902 17.5689 14.902 17.5689 14.902C17.5689 15.5951 18.5521 16.1569 19.7649 16.1569C20.9778 16.1569 21.961 15.5951 21.961 14.902C21.961 14.9007 21.961 14.8995 21.961 14.8982V13.0197Z" fill="#F88887"/>
<ellipse cx="19.7649" cy="13.0197" rx="2.19608" ry="1.2549" fill="#FFEDEF"/>
</svg>
