<svg width="32" height="32" viewBox="0 0 32 32" fill="none" xmlns="http://www.w3.org/2000/svg">
<path d="M8.4707 12.549L16.0001 8.15686L23.5295 12.549L16.0001 16.9412L8.4707 12.549Z" fill="#99D4FF"/>
<path d="M16 24.1569L23.5294 19.7648V12.5491L16 16.9412V24.1569Z" fill="#2F83FF"/>
<path d="M8.4707 12.5491V19.7648L16.0001 24.1569V16.9412L8.4707 12.5491Z" fill="#2FA9FF"/>
<path d="M15.3726 11.9215L17.9533 10.4468C18.3838 10.2008 18.9207 10.2418 19.3088 10.5504C19.9779 11.0823 19.9008 12.1211 19.1605 12.5485L17.2235 13.6669L15.3726 11.9215Z" fill="#83C0FF"/>
<path fill-rule="evenodd" clip-rule="evenodd" d="M18.1964 10.8235H13.8042V12.6988C13.8042 12.7011 13.8042 12.7035 13.8042 12.7058C13.8042 13.3989 14.7874 13.9607 16.0003 13.9607C17.2131 13.9607 18.1963 13.3989 18.1964 12.7058H18.1964V10.8235Z" fill="#2FA9FF"/>
<ellipse cx="16.0003" cy="10.8235" rx="2.19608" ry="1.2549" fill="#EFF8FF"/>
</svg>
