<svg width="20" height="20" viewBox="0 0 20 20" fill="none" xmlns="http://www.w3.org/2000/svg">
<path fill-rule="evenodd" clip-rule="evenodd" d="M10 20C15.5228 20 20 15.5228 20 10C20 4.47715 15.5228 0 10 0C4.47715 0 0 4.47715 0 10C0 15.5228 4.47715 20 10 20ZM8.16602 14.5831C8.40923 14.5831 8.52038 14.4749 8.65471 14.3441L9.86706 13.1652L12.3663 15.0117C12.8261 15.2654 13.1581 15.1341 13.2726 14.5847L14.913 6.85449C15.081 6.18114 14.6563 5.87574 14.2164 6.07547L4.58391 9.78972C3.9264 10.0534 3.93023 10.4203 4.46406 10.5837L6.93597 11.3552L12.6587 7.74483C12.9289 7.58101 13.1768 7.66908 12.9733 7.8497L8.33663 12.034L8.16602 14.5831Z" fill="#00A3FF"/>
</svg>
