<svg width="200" height="84" viewBox="0 0 200 84" fill="none" xmlns="http://www.w3.org/2000/svg">
<path d="M90.18 49.75V35.17H93.46L100 44V35.17H103.27V49.75H99.84L93.46 41.07V49.75H90.18Z" fill="#7A8AA0"/>
<path d="M112.3 49.92C111.24 49.9241 110.186 49.7552 109.18 49.42C108.216 49.1387 107.362 48.5701 106.73 47.79C106.054 47.0638 105.5 46.233 105.09 45.33C104.768 44.3797 104.602 43.3834 104.6 42.38C104.573 41.3743 104.739 40.3728 105.09 39.43C105.421 38.4935 105.985 37.6571 106.73 37C107.451 36.3224 108.279 35.7683 109.18 35.36C111.204 34.6966 113.386 34.6966 115.41 35.36C116.374 35.6512 117.23 36.222 117.87 37C118.541 37.7238 119.092 38.5511 119.5 39.45C119.823 40.3934 119.992 41.3828 120 42.38C120.029 43.3857 119.862 44.3875 119.51 45.33C119.18 46.2729 118.62 47.1185 117.88 47.79C117.151 48.4595 116.321 49.0096 115.42 49.42C114.414 49.7562 113.36 49.9252 112.3 49.92ZM112.3 46.48C112.997 46.476 113.683 46.3045 114.3 45.98C114.859 45.614 115.31 45.1069 115.61 44.51C115.936 43.8472 116.105 43.1185 116.105 42.38C116.105 41.6415 115.936 40.9128 115.61 40.25C115.31 39.6531 114.859 39.146 114.3 38.78C113.701 38.4126 113.001 38.2413 112.3 38.29C111.603 38.2861 110.916 38.4544 110.3 38.78C109.745 39.1474 109.297 39.6544 109 40.25C108.674 40.9128 108.505 41.6415 108.505 42.38C108.505 43.1185 108.674 43.8472 109 44.51C109.302 45.1166 109.761 45.6312 110.33 46C110.925 46.3509 111.61 46.5179 112.3 46.48Z" fill="#7A8AA0"/>
<path d="M121.14 49.75V35.17H127.2C128.524 35.1522 129.828 35.4981 130.97 36.17C132.071 36.7774 132.978 37.6818 133.59 38.78C134.267 39.9193 134.614 41.2248 134.59 42.55C134.614 43.8752 134.267 45.1807 133.59 46.32C132.986 47.4135 132.089 48.3173 131 48.93C129.861 49.6073 128.555 49.9535 127.23 49.93H121.14V49.75ZM127.2 38.45H124.91V46.45H127.2C127.697 46.4928 128.197 46.411 128.654 46.2119C129.112 46.0129 129.513 45.7029 129.82 45.31C130.516 44.4892 130.873 43.4346 130.82 42.36C130.843 41.2898 130.489 40.2455 129.82 39.41C129.113 38.7439 128.171 38.3845 127.2 38.41V38.45Z" fill="#7A8AA0"/>
<path d="M135.72 49.75V35.17H146V38.29H139.32V40.74H145.22V43.85H139.49V46.64H146.37V49.75H135.72Z" fill="#7A8AA0"/>
<path fill-rule="evenodd" clip-rule="evenodd" d="M78.23 58.92H60.7C59.6901 58.9213 58.6899 58.7237 57.7564 58.3385C56.8229 57.9532 55.9744 57.3879 55.2594 56.6747C54.5444 55.9616 53.9769 55.1146 53.5892 54.1821C53.2015 53.2496 53.0013 52.2499 53 51.24V33.7C52.9987 32.6901 53.1963 31.6899 53.5815 30.7564C53.9668 29.8229 54.5321 28.9744 55.2453 28.2594C55.9584 27.5444 56.8054 26.9769 57.7379 26.5892C58.6704 26.2015 59.6701 26.0013 60.68 26H78.23C79.2399 25.9987 80.2401 26.1963 81.1736 26.5815C82.1071 26.9668 82.9556 27.5321 83.6706 28.2453C84.3856 28.9584 84.9531 29.8054 85.3408 30.7379C85.7285 31.6704 85.9287 32.6701 85.93 33.68V51.23C85.899 53.2616 85.0775 55.2011 83.6398 56.6369C82.2022 58.0726 80.2616 58.8916 78.23 58.92ZM65.29 49.92C64.2297 49.9241 63.1759 49.7552 62.17 49.42C61.2064 49.1388 60.3517 48.5701 59.72 47.79C59.0816 47.035 58.5313 46.2097 58.08 45.33C57.7579 44.3797 57.5924 43.3834 57.59 42.38C57.5628 41.3744 57.7291 40.3729 58.08 39.43C58.4108 38.4935 58.9753 37.6571 59.72 37C60.4395 36.3153 61.2673 35.7544 62.17 35.34C64.1937 34.6766 66.3763 34.6766 68.4 35.34C69.3667 35.6367 70.2231 36.2146 70.86 37C71.5314 37.7238 72.0818 38.5511 72.49 39.45C72.8168 40.3928 72.989 41.3822 73 42.38C73.0287 43.3857 72.8623 44.3875 72.51 45.33C72.1799 46.2729 71.6197 47.1185 70.88 47.79C70.1509 48.4595 69.3207 49.0096 68.42 49.42C67.4112 49.7573 66.3537 49.9263 65.29 49.92ZM68.56 44.51C68.8857 43.8472 69.055 43.1185 69.055 42.38C69.055 41.6415 68.8857 40.9128 68.56 40.25C68.2605 39.6531 67.8085 39.146 67.25 38.78C66.6505 38.4126 65.9514 38.2413 65.25 38.29C64.5531 38.2861 63.8661 38.4544 63.25 38.78C62.7135 39.1539 62.2829 39.6604 62 40.25C61.6743 40.9128 61.505 41.6415 61.505 42.38C61.505 43.1185 61.6743 43.8472 62 44.51C62.2994 45.1154 62.7551 45.6298 63.32 46C63.9202 46.3655 64.6188 46.5367 65.32 46.49C66.0169 46.4943 66.704 46.326 67.32 46L68.56 44.51ZM80.35 49.92H76.59V39.28L74.29 40.28L73.64 37L77.9 34.85H80.35V49.92Z" fill="#7A8AA0"/>
</svg>
