<svg width="105" height="27" viewBox="0 0 105 27" fill="none" xmlns="http://www.w3.org/2000/svg">
<path d="M39.9216 23.302C39.4053 23.302 38.9106 23.2375 38.4373 23.1084C37.9641 22.9937 37.5338 22.8359 37.1466 22.6351C36.7738 22.4344 36.4726 22.2193 36.2431 21.9898C36.028 21.7603 35.9205 21.5452 35.9205 21.3444C35.9205 21.1437 35.9492 20.9716 36.0065 20.8282C36.0782 20.6848 36.1786 20.5414 36.3077 20.3979C36.4798 20.2258 36.616 20.0968 36.7164 20.0107C36.8311 19.9247 36.9817 19.8817 37.1681 19.8817C37.3259 19.8817 37.4765 19.939 37.6199 20.0538C37.7776 20.1685 37.9569 20.2976 38.1577 20.441C38.3584 20.5844 38.6022 20.7134 38.8891 20.8282C39.1759 20.9429 39.5416 21.0003 39.9862 21.0003C40.359 21.0003 40.7032 20.9357 41.0187 20.8067C41.3342 20.6776 41.5995 20.484 41.8146 20.2258C42.0441 19.9821 42.2234 19.6881 42.3524 19.3439C42.4815 18.9997 42.546 18.6125 42.546 18.1822L42.5245 9.27646C42.5532 8.94662 42.6679 8.71716 42.8687 8.58809C43.0695 8.44468 43.3778 8.37297 43.7937 8.37297C44.1809 8.37297 44.4606 8.43034 44.6327 8.54507C44.8047 8.64545 44.9123 8.79603 44.9553 8.99681C44.9984 9.18324 45.0199 9.39119 45.0199 9.62064V18.3328C45.0199 19.1216 44.8836 19.8243 44.6111 20.441C44.3387 21.0576 43.9658 21.5739 43.4925 21.9898C43.0193 22.42 42.4743 22.7427 41.8577 22.9578C41.2553 23.1873 40.61 23.302 39.9216 23.302ZM39.685 18.72C39.011 18.72 38.38 18.591 37.792 18.3328C37.2183 18.0747 36.7092 17.709 36.2647 17.2357C35.8344 16.7625 35.4902 16.2175 35.2321 15.6009C34.9883 14.9699 34.8664 14.2887 34.8664 13.5573C34.8664 12.8402 34.9883 12.1734 35.2321 11.5567C35.4902 10.94 35.8344 10.3951 36.2647 9.92181C36.7092 9.44855 37.2183 9.08286 37.792 8.82472C38.38 8.55224 39.0038 8.416 39.6635 8.416C40.3088 8.416 40.8681 8.54507 41.3414 8.8032C41.829 9.047 42.2305 9.39836 42.546 9.85727C42.8615 10.3162 43.0982 10.8611 43.2559 11.4922C43.428 12.1232 43.5141 12.8187 43.5141 13.5788C43.5141 14.6257 43.3706 15.5363 43.0838 16.3107C42.797 17.0852 42.3739 17.6803 41.8146 18.0962C41.2553 18.5121 40.5455 18.72 39.685 18.72ZM39.9216 16.2892C40.4092 16.2892 40.8394 16.1745 41.2123 15.945C41.5995 15.7012 41.9007 15.3714 42.1158 14.9555C42.3453 14.5396 42.46 14.0735 42.46 13.5573C42.46 13.0266 42.3453 12.5606 42.1158 12.159C41.9007 11.7431 41.5995 11.4204 41.2123 11.191C40.8251 10.9615 40.3877 10.8468 39.9001 10.8468C39.4125 10.8468 38.9751 10.9687 38.5879 11.2125C38.215 11.442 37.921 11.7575 37.7059 12.159C37.4908 12.5606 37.3833 13.0266 37.3833 13.5573C37.3833 14.0879 37.4908 14.5611 37.7059 14.977C37.9354 15.3786 38.2365 15.7012 38.6094 15.945C38.9966 16.1745 39.434 16.2892 39.9216 16.2892Z" fill="#7A8AA0"/>
<path d="M48.6896 18.9997C48.3024 18.9997 48.0156 18.9352 47.8291 18.8061C47.6427 18.6914 47.528 18.5408 47.485 18.3543C47.4419 18.1536 47.4204 17.9313 47.4204 17.6875V9.68518C47.4204 9.45572 47.4419 9.24778 47.485 9.06134C47.5423 8.86057 47.657 8.70282 47.8291 8.58809C48.0156 8.47336 48.3096 8.416 48.7111 8.416C49.1127 8.416 49.3995 8.47336 49.5716 8.58809C49.758 8.70282 49.8727 8.86057 49.9158 9.06134C49.9588 9.26212 49.9803 9.4844 49.9803 9.7282V17.709C49.9803 17.9528 49.9588 18.1751 49.9158 18.3759C49.8727 18.5623 49.758 18.7129 49.5716 18.8276C49.3995 18.9423 49.1055 18.9997 48.6896 18.9997ZM48.6896 6.32937C48.2737 6.32937 47.9654 6.27201 47.7646 6.15728C47.5782 6.02821 47.4563 5.85612 47.3989 5.641C47.3559 5.42589 47.3344 5.18926 47.3344 4.93112C47.3344 4.65864 47.3559 4.42201 47.3989 4.22124C47.4563 4.02047 47.5853 3.86271 47.7861 3.74798C47.9869 3.61892 48.2952 3.55438 48.7111 3.55438C49.1413 3.55438 49.4497 3.61892 49.6361 3.74798C49.8225 3.87705 49.9444 4.04915 50.0018 4.26426C50.0592 4.46504 50.0879 4.70167 50.0879 4.97415C50.0879 5.21794 50.0592 5.4474 50.0018 5.66252C49.9444 5.87763 49.8225 6.04255 49.6361 6.15728C49.4497 6.27201 49.1342 6.32937 48.6896 6.32937Z" fill="#7A8AA0"/>
<path d="M53.6028 18.9997C53.2156 18.9997 52.9288 18.9352 52.7423 18.8061C52.5703 18.6914 52.4627 18.5336 52.4197 18.3328C52.3767 18.1321 52.3551 17.9098 52.3551 17.666V9.68518C52.3551 9.42704 52.3767 9.20475 52.4197 9.01832C52.4627 8.81755 52.5703 8.66697 52.7423 8.56658C52.9288 8.45185 53.2228 8.39449 53.6243 8.39449C54.0115 8.39449 54.2912 8.44468 54.4633 8.54507C54.6497 8.64545 54.7644 8.77452 54.8075 8.93227C54.8648 9.07568 54.8935 9.2191 54.8935 9.36251L54.7214 9.74971C54.7931 9.63498 54.8935 9.49874 55.0226 9.34099C55.1516 9.1689 55.3237 9.00398 55.5389 8.84623C55.754 8.67414 56.0121 8.53789 56.3133 8.43751C56.6144 8.32278 56.973 8.26542 57.3888 8.26542C57.5609 8.26542 57.7402 8.28693 57.9266 8.32995C58.1274 8.35863 58.321 8.40883 58.5074 8.48053C58.7082 8.53789 58.8875 8.61677 59.0452 8.71716C59.203 8.81755 59.3249 8.93944 59.4109 9.08285C59.497 9.21192 59.54 9.36251 59.54 9.5346C59.54 9.99351 59.4253 10.3807 59.1958 10.6962C58.9664 11.0117 58.6939 11.1695 58.3784 11.1695C58.1633 11.1695 58.0055 11.148 57.9051 11.1049C57.8047 11.0619 57.7187 11.0117 57.647 10.9544C57.5896 10.897 57.4964 10.8468 57.3673 10.8038C57.2526 10.7608 57.0662 10.7392 56.808 10.7392C56.5929 10.7392 56.3706 10.7751 56.1412 10.8468C55.9261 10.9185 55.7253 11.0261 55.5389 11.1695C55.3524 11.3129 55.2018 11.4993 55.0871 11.7288C54.9724 11.9439 54.915 12.1949 54.915 12.4817V17.709C54.915 17.9528 54.8935 18.1751 54.8505 18.3759C54.8075 18.5623 54.6927 18.7129 54.5063 18.8276C54.3199 18.9423 54.0187 18.9997 53.6028 18.9997Z" fill="#7A8AA0"/>
<path d="M62.531 18.9782C62.1437 18.9782 61.8569 18.9136 61.6705 18.7846C61.4984 18.6698 61.3908 18.5193 61.3478 18.3328C61.3048 18.1321 61.2833 17.9098 61.2833 17.666V9.62064C61.2833 9.39119 61.3048 9.18324 61.3478 8.99681C61.3908 8.81037 61.5056 8.66697 61.692 8.56658C61.8784 8.45185 62.1653 8.39449 62.5525 8.39449C62.8966 8.39449 63.1548 8.43751 63.3269 8.52355C63.499 8.6096 63.6137 8.71716 63.6711 8.84623C63.7284 8.9753 63.7571 9.10437 63.7571 9.23344C63.7715 9.3625 63.7858 9.46289 63.8001 9.5346L63.7141 10.223C63.8001 9.99351 63.9435 9.77123 64.1443 9.55611C64.3451 9.34099 64.5889 9.14739 64.8757 8.9753C65.1625 8.78886 65.4709 8.64545 65.8007 8.54507C66.1449 8.43034 66.4963 8.37297 66.8548 8.37297C67.5288 8.37297 68.1311 8.49487 68.6618 8.73867C69.1924 8.98247 69.6441 9.32665 70.017 9.77122C70.4042 10.2158 70.6982 10.7464 70.899 11.3631C71.0997 11.9654 71.2001 12.6466 71.2001 13.4067V17.6875C71.2001 17.9313 71.1714 18.1536 71.1141 18.3543C71.071 18.5408 70.9635 18.6914 70.7914 18.8061C70.6193 18.9208 70.3253 18.9782 69.9094 18.9782C69.5079 18.9782 69.2139 18.9136 69.0274 18.7846C68.841 18.6698 68.7263 18.5193 68.6833 18.3328C68.6402 18.1321 68.6187 17.9098 68.6187 17.666V13.3852C68.6187 12.8689 68.5255 12.4243 68.3391 12.0515C68.167 11.6786 67.9088 11.3918 67.5647 11.191C67.2348 10.9902 66.8118 10.8898 66.2955 10.8898C65.7935 10.8898 65.3561 10.9974 64.9833 11.2125C64.6104 11.4133 64.3236 11.7001 64.1228 12.073C63.922 12.4458 63.8216 12.8832 63.8216 13.3852V17.6875C63.8216 17.9313 63.8001 18.1536 63.7571 18.3543C63.7141 18.5408 63.5994 18.6914 63.4129 18.8061C63.2408 18.9208 62.9468 18.9782 62.531 18.9782Z" fill="#7A8AA0"/>
<path d="M82.1188 18.9567C81.7029 18.9567 81.3945 18.8778 81.1938 18.72C80.993 18.5623 80.8926 18.3472 80.8926 18.0747L81.0432 17.3648C80.9284 17.5512 80.7348 17.7735 80.4624 18.0317C80.1899 18.2755 79.8314 18.4978 79.3868 18.6985C78.9422 18.885 78.4044 18.9782 77.7734 18.9782C77.0994 18.9782 76.4612 18.8419 75.8589 18.5695C75.2709 18.2826 74.7474 17.8954 74.2885 17.4078C73.844 16.9059 73.4854 16.3394 73.213 15.7084C72.9548 15.0631 72.8257 14.3747 72.8257 13.6433C72.8257 12.9406 72.9548 12.2809 73.213 11.6642C73.4854 11.0332 73.8511 10.4739 74.31 9.98634C74.769 9.49875 75.2924 9.11871 75.8804 8.84623C76.4827 8.55941 77.1137 8.416 77.7734 8.416C78.3614 8.416 78.8562 8.49487 79.2577 8.65262C79.6736 8.81038 80.025 9.01115 80.3118 9.25495C80.5986 9.4844 80.8352 9.7282 81.0217 9.98634L80.8926 9.36251C80.8926 9.047 80.993 8.81038 81.1938 8.65262C81.3945 8.48053 81.71 8.39449 82.1403 8.39449C82.5418 8.39449 82.8286 8.45902 83.0007 8.58809C83.1728 8.70282 83.2804 8.86774 83.3234 9.08285C83.3664 9.28363 83.3879 9.51309 83.3879 9.77122V17.6445C83.3879 17.8883 83.3664 18.1105 83.3234 18.3113C83.2804 18.5121 83.1656 18.6698 82.9792 18.7846C82.8071 18.8993 82.5203 18.9567 82.1188 18.9567ZM78.1606 16.4613C78.6482 16.4613 79.0856 16.3394 79.4728 16.0956C79.86 15.8518 80.1684 15.522 80.3978 15.1061C80.6416 14.6759 80.7635 14.2026 80.7635 13.6863C80.7635 13.127 80.6416 12.6394 80.3978 12.2235C80.154 11.8077 79.8314 11.485 79.4298 11.2555C79.0426 11.0117 78.6052 10.8898 78.1176 10.8898C77.587 10.8898 77.1137 11.0189 76.6978 11.277C76.2819 11.5208 75.9521 11.8578 75.7083 12.2881C75.4788 12.704 75.3641 13.1772 75.3641 13.7078C75.3641 14.2241 75.486 14.6902 75.7298 15.1061C75.9736 15.522 76.3035 15.8518 76.7193 16.0956C77.1496 16.3394 77.63 16.4613 78.1606 16.4613Z" fill="#7A8AA0"/>
<path d="M94.3661 18.9567C93.9502 18.9567 93.6418 18.8778 93.4411 18.72C93.2403 18.5623 93.1399 18.3472 93.1399 18.0747L93.2905 17.3648C93.1758 17.5512 92.9821 17.7735 92.7097 18.0317C92.4372 18.2755 92.0787 18.4978 91.6341 18.6985C91.1895 18.885 90.6517 18.9782 90.0207 18.9782C89.3467 18.9782 88.7085 18.8419 88.1062 18.5695C87.5182 18.2826 86.9948 17.8954 86.5358 17.4078C86.0913 16.9059 85.7327 16.3394 85.4603 15.7084C85.2021 15.0631 85.0731 14.3747 85.0731 13.6433C85.0731 12.9406 85.2021 12.2809 85.4603 11.6642C85.7327 11.0332 86.0984 10.4739 86.5574 9.98634C87.0163 9.49875 87.5397 9.11871 88.1277 8.84623C88.73 8.55941 89.361 8.416 90.0207 8.416C90.6087 8.416 91.1035 8.49487 91.505 8.65262C91.9209 8.81038 92.2723 9.01115 92.5591 9.25495C92.8459 9.4844 93.0825 9.7282 93.269 9.98634L93.1399 9.36251C93.1399 9.047 93.2403 8.81038 93.4411 8.65262C93.6418 8.48053 93.9573 8.39449 94.3876 8.39449C94.7891 8.39449 95.0759 8.45902 95.248 8.58809C95.4201 8.70282 95.5277 8.86774 95.5707 9.08285C95.6137 9.28363 95.6352 9.51309 95.6352 9.77122V17.6445C95.6352 17.8883 95.6137 18.1105 95.5707 18.3113C95.5277 18.5121 95.413 18.6698 95.2265 18.7846C95.0544 18.8993 94.7676 18.9567 94.3661 18.9567ZM90.4079 16.4613C90.8955 16.4613 91.3329 16.3394 91.7201 16.0956C92.1073 15.8518 92.4157 15.522 92.6451 15.1061C92.8889 14.6759 93.0108 14.2026 93.0108 13.6863C93.0108 13.127 92.8889 12.6394 92.6451 12.2235C92.4013 11.8077 92.0787 11.485 91.6771 11.2555C91.2899 11.0117 90.8525 10.8898 90.3649 10.8898C89.8343 10.8898 89.361 11.0189 88.9451 11.277C88.5293 11.5208 88.1994 11.8578 87.9556 12.2881C87.7262 12.704 87.6114 13.1772 87.6114 13.7078C87.6114 14.2241 87.7333 14.6902 87.9771 15.1061C88.2209 15.522 88.5508 15.8518 88.9667 16.0956C89.3969 16.3394 89.8773 16.4613 90.4079 16.4613Z" fill="#7A8AA0"/>
<path d="M99.0628 18.9997C98.6756 18.9997 98.3888 18.9352 98.2023 18.8061C98.0302 18.6914 97.9227 18.5336 97.8797 18.3328C97.8366 18.1321 97.8151 17.9098 97.8151 17.666V9.68518C97.8151 9.42704 97.8366 9.20475 97.8797 9.01832C97.9227 8.81755 98.0302 8.66697 98.2023 8.56658C98.3888 8.45185 98.6828 8.39449 99.0843 8.39449C99.4715 8.39449 99.7512 8.44468 99.9233 8.54507C100.11 8.64545 100.224 8.77452 100.267 8.93227C100.325 9.07568 100.353 9.2191 100.353 9.36251L100.181 9.74971C100.253 9.63498 100.354 9.49874 100.483 9.34099C100.612 9.1689 100.784 9.00398 100.999 8.84623C101.214 8.67414 101.472 8.53789 101.773 8.43751C102.074 8.32278 102.433 8.26542 102.849 8.26542C103.021 8.26542 103.2 8.28693 103.387 8.32995C103.587 8.35863 103.781 8.40883 103.967 8.48053C104.168 8.53789 104.347 8.61677 104.505 8.71716C104.663 8.81755 104.785 8.93944 104.871 9.08285C104.957 9.21192 105 9.36251 105 9.5346C105 9.99351 104.885 10.3807 104.656 10.6962C104.426 11.0117 104.154 11.1695 103.838 11.1695C103.623 11.1695 103.466 11.148 103.365 11.1049C103.265 11.0619 103.179 11.0117 103.107 10.9544C103.05 10.897 102.956 10.8468 102.827 10.8038C102.713 10.7608 102.526 10.7392 102.268 10.7392C102.053 10.7392 101.831 10.7751 101.601 10.8468C101.386 10.9185 101.185 11.0261 100.999 11.1695C100.812 11.3129 100.662 11.4993 100.547 11.7288C100.432 11.9439 100.375 12.1949 100.375 12.4817V17.709C100.375 17.9528 100.354 18.1751 100.31 18.3759C100.267 18.5623 100.153 18.7129 99.9663 18.8276C99.7799 18.9423 99.4787 18.9997 99.0628 18.9997Z" fill="#7A8AA0"/>
<path d="M26.0672 13.7148C25.9566 20.6012 20.3396 26.1496 13.4268 26.1496C6.44475 26.1496 0.784683 20.4896 0.784683 13.5075C0.784683 6.52548 6.44475 0.865417 13.4268 0.865417C16.8651 0.865417 19.9828 2.23803 22.2619 4.46518L19.3307 7.3964C17.802 5.9192 15.7205 5.01037 13.4268 5.01037C8.73394 5.01037 4.92964 8.81468 4.92964 13.5075C4.92964 18.2004 8.73394 22.0047 13.4268 22.0047C16.6427 22.0047 19.4414 20.2181 20.8844 17.5834H19.1606L15.292 13.7148L26.0672 13.7148Z" fill="#7A8AA0"/>
</svg>
