<svg width="114" height="50" viewBox="0 0 114 50" fill="none" xmlns="http://www.w3.org/2000/svg">
<path d="M45.1549 3.10512H47.6855V13.8433H60.8859V3.10512H63.4166V27.0437H60.8859V16.1003H47.6855V27.0437H45.1549V3.10512Z" fill="#7A8AA0"/>
<path d="M72.0459 24.7866C72.0459 23.5327 72.2739 22.4497 72.7299 21.5378C73.1859 20.6031 73.9154 19.7595 74.9186 19.0072L83.3996 12.5779C84.5852 11.7116 85.1779 10.6629 85.1779 9.43174V8.3374C85.1779 7.35706 84.8473 6.57051 84.1862 5.97775C83.525 5.38499 82.6473 5.0886 81.5529 5.0886H78.4067C77.1984 5.0886 76.2295 5.51038 75.4999 6.35393C74.7932 7.17468 74.4398 8.28041 74.4398 9.67112H71.9091C71.9091 7.59645 72.4905 5.94355 73.6532 4.71243C74.8388 3.4585 76.4005 2.83154 78.3383 2.83154H81.5529C83.3996 2.83154 84.8815 3.33311 85.9987 4.33625C87.1386 5.33939 87.7086 6.67311 87.7086 8.3374V9.43174C87.7086 11.3468 86.7966 12.9769 84.9727 14.322L76.731 20.4435C75.9103 21.0362 75.3403 21.6518 75.0211 22.2902C74.7248 22.9057 74.5766 23.7379 74.5766 24.7866H88.0506V27.0437H72.0459V24.7866Z" fill="#7A8AA0"/>
<path d="M102.642 27.3172C101.274 27.3172 100.054 26.9981 98.9824 26.3597C97.9337 25.7213 97.1129 24.8208 96.5201 23.6581C95.9274 22.4953 95.631 21.1616 95.631 19.6569V10.4919C95.631 8.98716 95.9274 7.65345 96.5201 6.49072C97.1129 5.32799 97.9337 4.42745 98.9824 3.78908C100.054 3.15072 101.274 2.83154 102.642 2.83154H106.267C107.634 2.83154 108.843 3.15072 109.892 3.78908C110.94 4.42745 111.75 5.32799 112.32 6.49072C112.912 7.65345 113.209 8.98716 113.209 10.4919V19.6569C113.209 21.1616 112.912 22.4953 112.32 23.6581C111.75 24.8208 110.94 25.7213 109.892 26.3597C108.843 26.9981 107.634 27.3172 106.267 27.3172H102.642ZM106.198 25.0602C107.543 25.0602 108.626 24.57 109.447 23.5897C110.268 22.5865 110.678 21.2756 110.678 19.6569V10.4919C110.678 8.87317 110.268 7.57365 109.447 6.59331C108.626 5.59017 107.543 5.0886 106.198 5.0886H102.71C101.365 5.0886 100.271 5.59017 99.427 6.59331C98.5834 7.57365 98.1616 8.87317 98.1616 10.4919V19.6569C98.1616 21.2756 98.5834 22.5865 99.427 23.5897C100.271 24.57 101.365 25.0602 102.71 25.0602H106.198Z" fill="#7A8AA0"/>
<path d="M45.1549 30.2146H46.3366L55.1775 43.6292V30.2146H56.3373V45.533H55.1775L46.3147 32.1622V45.533H45.1549V30.2146Z" fill="#7A8AA0"/>
<path d="M64.6009 45.7081C63.6234 45.7081 62.7554 45.4892 61.9967 45.0516C61.2527 44.5993 60.6764 43.972 60.268 43.1696C59.8595 42.3526 59.6552 41.4189 59.6552 40.3685V35.3791C59.6552 34.3141 59.8595 33.3804 60.268 32.578C60.691 31.7756 61.2746 31.1556 62.0186 30.7179C62.7773 30.2657 63.6453 30.0396 64.6228 30.0396H66.8986C67.8761 30.0396 68.7368 30.2657 69.4809 30.7179C70.2395 31.1556 70.8231 31.7756 71.2315 32.578C71.64 33.3804 71.8443 34.3141 71.8443 35.3791V40.3685C71.8443 41.4189 71.6327 42.3526 71.2097 43.1696C70.8012 43.972 70.2176 44.5993 69.459 45.0516C68.715 45.4892 67.8542 45.7081 66.8767 45.7081H64.6009ZM66.8549 44.6139C67.9782 44.6139 68.89 44.2273 69.5903 43.4541C70.2906 42.6663 70.6407 41.6378 70.6407 40.3685V35.3791C70.6407 34.0953 70.2906 33.0668 69.5903 32.2935C68.9046 31.5057 68.0001 31.1118 66.8767 31.1118H64.6446C63.5067 31.1118 62.5876 31.5057 61.8873 32.2935C61.2016 33.0668 60.8588 34.0953 60.8588 35.3791V40.3685C60.8588 41.6378 61.2016 42.6663 61.8873 43.4541C62.5876 44.2273 63.4994 44.6139 64.6228 44.6139H66.8549Z" fill="#7A8AA0"/>
<path d="M76.2965 45.533C75.9464 45.533 75.6692 45.4382 75.465 45.2485C75.2753 45.0443 75.1805 44.7671 75.1805 44.417V30.2146H81.2422C82.2926 30.2146 83.219 30.4189 84.0214 30.8274C84.8238 31.2358 85.4438 31.8121 85.8815 32.5561C86.3191 33.3002 86.538 34.1536 86.538 35.1165V40.1716C86.538 41.9368 86.093 43.2717 85.2031 44.1762C84.3277 45.0808 83.0366 45.533 81.3297 45.533H76.2965ZM81.3078 44.4388C82.6354 44.4388 83.6348 44.0814 84.3059 43.3666C84.9915 42.6371 85.3344 41.5721 85.3344 40.1716V35.1165C85.3344 33.964 84.9551 33.0376 84.1964 32.3373C83.4524 31.637 82.4604 31.2869 81.2203 31.2869H76.3841V44.4388H81.3078Z" fill="#7A8AA0"/>
<path d="M90.8926 45.533C90.5425 45.533 90.2653 45.4309 90.061 45.2266C89.8714 45.0224 89.7765 44.7379 89.7765 44.3732V30.2146H99.646V31.265H90.9801V37.1735H98.9895V38.2239H90.9801V44.4607H99.646V45.533H90.8926Z" fill="#7A8AA0"/>
<path d="M106.469 45.7081C105.17 45.7081 104.134 45.3215 103.361 44.5483C102.603 43.775 102.223 42.7246 102.223 41.397H103.405C103.405 42.3891 103.682 43.1769 104.237 43.7605C104.791 44.3294 105.542 44.6139 106.491 44.6139H108.941C109.861 44.6139 110.597 44.4024 111.152 43.9793C111.721 43.5562 112.005 43.0018 112.005 42.3161V40.8281C112.005 40.2737 111.801 39.7996 111.392 39.4057C110.984 39.0118 110.415 38.7564 109.685 38.6397L105.768 37.9832C104.718 37.8082 103.894 37.4289 103.296 36.8453C102.712 36.2617 102.42 35.5323 102.42 34.657V33.3877C102.42 32.3811 102.8 31.5714 103.558 30.9587C104.317 30.3459 105.316 30.0396 106.556 30.0396H109.029C110.211 30.0396 111.159 30.397 111.874 31.1118C112.603 31.8267 112.968 32.7677 112.968 33.9348H111.786C111.786 33.0886 111.531 32.4103 111.02 31.8996C110.524 31.3744 109.861 31.1118 109.029 31.1118H106.556C105.666 31.1118 104.951 31.3234 104.412 31.7465C103.886 32.1549 103.624 32.702 103.624 33.3877V34.657C103.624 35.2405 103.821 35.7292 104.215 36.1231C104.609 36.517 105.163 36.7723 105.878 36.8891L109.773 37.5674C110.853 37.7571 111.691 38.1364 112.29 38.7054C112.902 39.2744 113.209 39.9819 113.209 40.8281V42.3161C113.209 43.3374 112.822 44.1616 112.049 44.789C111.276 45.4017 110.247 45.7081 108.963 45.7081H106.469Z" fill="#7A8AA0"/>
<path fill-rule="evenodd" clip-rule="evenodd" d="M19.4849 48.9476C29.3282 48.9476 37.3078 40.968 37.3078 31.1247C37.3078 28.712 36.5507 25.9573 35.276 23.0586C34.005 20.1685 32.2427 17.1876 30.288 14.3375C26.6373 9.0145 22.3582 4.20926 19.4798 1.38662C16.5614 4.20515 12.2818 9.01058 8.6418 14.3364C6.69419 17.1859 4.94203 20.1667 3.67934 23.0567C2.41299 25.9552 1.66195 28.7107 1.66195 31.1247C1.66195 40.968 9.64154 48.9476 19.4849 48.9476ZM19.4849 0.181396C13.5779 5.68429 0.79126 20.8005 0.79126 31.1247C0.79126 41.4489 9.16068 49.8183 19.4849 49.8183C29.8091 49.8183 38.1785 41.4489 38.1785 31.1247C38.1785 20.8005 25.2832 5.68429 19.4849 0.181396Z" fill="#7A8AA0"/>
<path fill-rule="evenodd" clip-rule="evenodd" d="M31.0602 25.934C30.9748 25.9541 30.8873 25.9642 30.7995 25.9642H30.2715C30.0595 25.9642 29.8748 26.1085 29.8234 26.3141C29.7923 26.4382 29.8142 26.5696 29.8837 26.677L30.064 26.9558C30.3405 27.3831 30.3244 27.9369 30.0233 28.3473L29.8167 28.6291C29.7924 28.6622 29.7724 28.6981 29.757 28.7361C29.7547 28.7417 29.7525 28.7474 29.7505 28.7531L29.5943 29.1825C29.5501 29.304 29.3976 29.3432 29.3003 29.258C29.1759 29.1492 28.9821 29.247 28.9958 29.4118L29.0727 30.3339C29.0863 30.4975 29.0272 30.6589 28.9111 30.775L28.2879 31.3982C28.1598 31.5263 28.128 31.722 28.2091 31.8841L28.2243 31.9145C28.3262 32.1184 28.2322 32.3658 28.0205 32.4505C27.9422 32.4818 27.8787 32.5364 27.836 32.6039C27.8156 32.6362 27.7999 32.6714 27.7897 32.7085C27.7754 32.7603 27.7716 32.8156 27.7802 32.8714L27.8345 33.2244C27.8545 33.3548 27.7777 33.4807 27.6525 33.5224C27.5388 33.5603 27.4138 33.519 27.3451 33.4208L27.055 33.0064C27.0501 32.9994 27.0453 32.9924 27.0406 32.9852C27.0398 32.9841 27.0391 32.9829 27.0383 32.9817C26.9991 32.9218 26.9668 32.8576 26.942 32.7904L26.6026 31.8692C26.5437 31.7093 26.4076 31.5904 26.2413 31.5534C26.0342 31.5074 25.8205 31.5969 25.708 31.7769L25.2376 32.5295C25.2226 32.5534 25.2051 32.5755 25.1852 32.5954C25.0227 32.7578 24.7533 32.7355 24.6198 32.5486L24.1943 31.953L23.8673 31.3457C23.7725 31.1697 23.6053 31.0441 23.4098 31.0022C23.0503 30.9252 22.6945 31.147 22.6053 31.5037L22.5693 31.6477C22.5201 31.8445 22.401 32.0166 22.2343 32.1321L21.8364 32.4075C21.6935 32.5064 21.6083 32.6691 21.6083 32.8429C21.6083 32.9711 21.6548 33.095 21.7393 33.1916L21.7573 33.2122C21.9473 33.4294 21.9566 33.7508 21.7795 33.9786L21.3748 34.4989C21.216 34.7031 21.1168 34.9473 21.0882 35.2044L20.9958 36.0362L20.7489 37.0239C20.6869 37.2716 20.5913 37.5097 20.4645 37.7315L20.2543 38.0994C20.1603 38.2639 20.0266 38.402 19.8653 38.5013L19.5847 38.6739C19.3676 38.8076 19.0915 38.7981 18.884 38.6499C18.7961 38.5871 18.7257 38.503 18.6795 38.4054L18.4217 37.8612C18.2346 37.4661 18.1375 37.0344 18.1375 36.5972V35.4165C18.1375 35.1093 18.0559 34.8075 17.9011 34.542L17.8164 34.3969C17.7148 34.2227 17.5681 34.079 17.3917 33.981C17.1696 33.8576 16.9122 33.8132 16.6616 33.8549L16.4377 33.8922C16.3017 33.9149 16.1627 33.9127 16.0275 33.8856C15.7234 33.8248 15.4573 33.6425 15.2908 33.3808L15.2683 33.3455C15.1421 33.1472 15.0751 32.917 15.0751 32.6819V32.4633C15.0751 32.1285 15.1597 31.7992 15.321 31.5058L15.7025 30.8122C15.7829 30.6661 15.8835 30.532 16.0015 30.4141L16.1017 30.3139C16.2104 30.2051 16.3345 30.1155 16.4685 30.0469C16.5464 30.0071 16.6277 29.9744 16.7114 29.9491C16.7412 29.9401 16.7714 29.9321 16.8018 29.925C16.9426 29.8922 17.0889 29.8802 17.2361 29.8907C17.4269 29.9043 17.6131 29.9554 17.7841 30.0409L17.8983 30.098C18.1899 30.2438 18.5114 30.3197 18.8374 30.3197H19.5703C19.6563 30.3197 19.74 30.2918 19.8087 30.2402C20.0248 30.0781 20.0197 29.7521 19.7984 29.5972C19.7703 29.5775 19.7453 29.5547 19.7238 29.5294C19.6391 29.4299 19.6073 29.2927 19.6444 29.1629L19.646 29.1574C19.6593 29.1106 19.6808 29.0673 19.7088 29.029C19.7326 28.9967 19.761 28.968 19.7933 28.9439C19.7991 28.9396 19.805 28.9354 19.811 28.9314C19.8376 28.9138 19.8664 28.8991 19.897 28.8879L20.2669 28.7534C20.3776 28.7132 20.4513 28.608 20.4513 28.4902C20.4513 28.3354 20.3259 28.21 20.1712 28.21H19.811C19.7584 28.21 19.7068 28.2164 19.6573 28.2287C19.6513 28.2302 19.6453 28.2317 19.6394 28.2334C19.4434 28.2879 19.2811 28.4339 19.2092 28.6315L19.1399 28.8221C19.118 28.8822 19.0853 28.9375 19.0437 28.9853C19.0423 28.9869 19.0408 28.9885 19.0394 28.9901C19.0203 29.0115 18.9994 29.0313 18.9769 29.0493C18.9137 29.0999 18.8407 29.134 18.7641 29.1507C18.67 29.1713 18.5705 29.1655 18.4769 29.1315L18.0014 28.9586L17.9119 28.9188C17.7273 28.8368 17.5278 28.8016 17.3306 28.8131C17.1811 28.8219 17.033 28.8575 16.8934 28.9198C16.886 28.9232 16.8785 28.9266 16.8711 28.9301L16.3477 29.1764C16.3112 29.1935 16.2715 29.2004 16.2326 29.1972C16.195 29.1941 16.1581 29.1815 16.1256 29.1599C15.9862 29.067 15.9924 28.8602 16.1371 28.7758L16.3736 28.6378C16.4646 28.5847 16.5281 28.4997 16.5555 28.4036C16.5658 28.3676 16.5711 28.3301 16.5708 28.2921C16.5706 28.2566 16.5656 28.2207 16.5555 28.1853L16.5042 28.0058C16.4262 27.6939 16.5907 27.3724 16.8892 27.253L16.9351 27.2346C17.0102 27.2046 17.0796 27.1617 17.1401 27.1079L17.1707 27.0807C17.465 26.8191 17.5637 26.4011 17.4174 26.0355L17.3889 25.9642C17.2604 25.5358 17.3409 25.0718 17.6062 24.7117L17.697 24.5885C17.9783 24.2068 18.4039 23.9574 18.8744 23.8986L19.2264 23.8546H20.8597L21.4022 23.7867C21.7602 23.742 22.1003 23.6046 22.389 23.3881L22.4914 23.3113C22.6716 23.1761 22.8798 23.083 23.1007 23.0389C23.3277 22.9935 23.5411 22.8965 23.7246 22.7553L23.9848 22.5552C24.2139 22.3789 24.468 22.2377 24.7387 22.1362L25.1153 21.995C25.3163 21.9196 25.5293 21.881 25.744 21.881C26.1505 21.881 26.545 22.0194 26.8625 22.2734L27.1174 22.4773C27.5196 22.7991 28.0049 23.0001 28.5168 23.0569L28.6652 23.0734C28.8597 23.095 29.0561 23.092 29.2498 23.0643C29.6817 23.0026 30.1223 23.0638 30.521 23.241L31.1358 23.5143L31.8324 23.732C32.0905 23.8126 32.3636 23.8332 32.6309 23.7921L33.0216 23.732C33.0791 23.7231 33.1331 23.699 33.1781 23.6622C33.2994 23.563 33.3329 23.3909 33.2549 23.2549C30.5216 18.4825 25.3787 15.2671 19.4849 15.2671C13.6201 15.2671 8.49902 18.4508 5.75552 23.1842C5.55576 23.5289 5.64122 23.964 5.94368 24.2233C6.12497 24.3787 6.36298 24.4512 6.60013 24.4233L6.93432 24.384C7.22811 24.3494 7.50496 24.2281 7.72956 24.0356L8.07847 23.7365C8.24037 23.5978 8.4611 23.5495 8.66613 23.6081C8.71651 23.6225 8.76829 23.6306 8.82029 23.6322C8.86869 23.6338 8.91727 23.6298 8.96509 23.6202L9.29733 23.5538C9.30605 23.552 9.31478 23.5503 9.32352 23.5487C9.37054 23.5399 9.41784 23.5328 9.46532 23.5274C9.54184 23.5187 9.61883 23.5143 9.69594 23.5143H10.1867C10.189 23.5143 10.1914 23.5143 10.1937 23.5143C10.4201 23.5154 10.6425 23.5701 10.843 23.6735C10.8704 23.6876 10.8973 23.7026 10.9238 23.7185L11.077 23.8104C11.1414 23.849 11.2106 23.878 11.2826 23.8969C11.3376 23.9113 11.3942 23.9198 11.4514 23.922C11.4616 23.9224 11.4719 23.9226 11.4822 23.9226C11.6839 23.9226 11.8775 23.8453 12.0236 23.7071C12.0289 23.7021 12.0341 23.6971 12.0392 23.6919L12.2039 23.5272C12.2993 23.4318 12.3529 23.3024 12.3529 23.1674C12.3529 22.9648 12.2328 22.7815 12.047 22.7007L11.9337 22.6515C11.4331 22.4338 11.3654 21.7513 11.8135 21.4396L12.1198 21.2265C12.2716 21.1209 12.452 21.0644 12.6369 21.0644H13.1662C13.3038 21.0644 13.4406 21.0438 13.5721 21.0033L13.8115 20.9297C14.0917 20.8435 14.3962 20.8993 14.6275 21.0792L14.7515 21.1756C14.8289 21.2358 14.9242 21.2685 15.0223 21.2685C15.3191 21.2685 15.5312 21.5557 15.4439 21.8393L15.3713 22.0753C15.3554 22.127 15.3328 22.1765 15.3041 22.2224L14.798 23.0322C14.7122 23.1693 14.6668 23.3278 14.6668 23.4896C14.6668 23.8349 14.461 24.1469 14.1437 24.2829L14.0393 24.3276C13.8284 24.418 13.6536 24.5759 13.5421 24.7764L13.1223 25.5322C13.0653 25.6347 12.9706 25.7109 12.8583 25.7446C12.5932 25.8241 12.3198 25.6476 12.2832 25.3732L12.2527 25.1444C12.2298 24.9723 12.1386 24.8167 11.9997 24.7125L11.8492 24.5997C11.7427 24.5198 11.6148 24.4739 11.4822 24.4678C11.472 24.4673 11.4617 24.467 11.4514 24.467H11.2826C11.1252 24.467 10.9827 24.5549 10.911 24.6918C10.903 24.707 10.8959 24.7229 10.8898 24.7393C10.8495 24.8468 10.7681 24.9304 10.6675 24.9752C10.6149 24.9987 10.557 25.0115 10.497 25.0115H10.4106C10.2417 25.0115 10.0992 24.8988 10.054 24.7445C10.0443 24.7114 10.0391 24.6763 10.0391 24.64C10.0391 24.5403 10.0003 24.451 9.93782 24.385C9.87558 24.3192 9.78991 24.2764 9.69594 24.2694C9.66506 24.2671 9.63328 24.2686 9.60115 24.2745L9.46014 24.3001C9.45578 24.3009 9.45143 24.3017 9.44711 24.3026C9.34246 24.3246 9.24771 24.3802 9.17739 24.461L8.27811 25.4952C8.0671 25.7379 8.02326 26.0838 8.16707 26.3714L8.19053 26.4184C8.28359 26.6045 8.45621 26.7382 8.65967 26.7818C9.01402 26.8577 9.3662 26.6445 9.46319 26.2954L9.57749 25.8839C9.60123 25.7984 9.65413 25.7254 9.72531 25.6762C9.75403 25.6563 9.78574 25.6404 9.81971 25.629C9.95417 25.5842 10.1024 25.6192 10.2026 25.7194L10.3165 25.8333C10.3336 25.8504 10.3517 25.8665 10.3706 25.8815C10.3978 25.9031 10.4267 25.9225 10.4571 25.9394L10.5493 25.9906C10.8082 26.1344 11.0136 26.357 11.1365 26.6248C11.1493 26.6526 11.1612 26.6808 11.1721 26.7096L11.5267 27.6404C11.533 27.6571 11.5363 27.6747 11.5363 27.6925C11.5363 27.834 11.3552 27.8929 11.2719 27.7784L11.1214 27.5715C11.049 27.4719 10.911 27.4473 10.8086 27.5155L10.7297 27.5681C10.7071 27.5832 10.6867 27.6009 10.6688 27.6205C10.6478 27.6436 10.6303 27.6696 10.6167 27.6975C10.5952 27.7416 10.5835 27.7906 10.5835 27.8412V28.018C10.5835 28.0881 10.5725 28.1561 10.5518 28.2201C10.5483 28.2312 10.5444 28.242 10.5403 28.2528C10.4626 28.4563 10.2862 28.614 10.0631 28.6618L10.0054 28.6742C9.77076 28.7244 9.57573 28.8866 9.48345 29.108L9.34275 29.4457C9.30801 29.5291 9.28124 29.6156 9.26282 29.704L8.97485 31.0863C8.95862 31.1642 8.92637 31.2378 8.88015 31.3025C8.72268 31.523 8.43234 31.603 8.18413 31.4944L7.82939 31.3392C7.63319 31.2534 7.40975 31.255 7.21479 31.3436L7.09393 31.3986C6.89819 31.4875 6.77253 31.6827 6.77253 31.8977C6.77253 31.9503 6.78007 32.0019 6.79438 32.051C6.80414 32.0845 6.81704 32.1169 6.83284 32.1477C6.88265 32.2449 6.96124 32.3268 7.06087 32.3804L7.32282 32.5215C7.37732 32.5508 7.42879 32.5848 7.47675 32.6228C7.61889 32.7355 7.73021 32.884 7.79834 33.0544C7.84674 33.1753 7.91695 33.2854 8.00467 33.3796C8.01147 33.3869 8.01837 33.3941 8.02537 33.4012C8.08678 33.4634 8.1561 33.5181 8.23198 33.5636L8.30291 33.6062C8.30583 33.6079 8.30876 33.6097 8.31169 33.6114C8.51053 33.7286 8.73716 33.7904 8.96808 33.7904H9.28797C9.5154 33.7904 9.74173 33.8221 9.96042 33.8846L10.3087 33.9841C10.4915 34.0364 10.6691 34.1054 10.8392 34.1905L11.1325 34.3371C11.3975 34.4696 11.6253 34.6661 11.7952 34.9088L11.8581 34.9988C11.96 35.1443 12.0914 35.2668 12.2438 35.3582L12.3601 35.428C12.5734 35.556 12.7271 35.7634 12.7874 36.0047C12.8569 36.2825 12.7956 36.5769 12.621 36.8039L11.5363 38.2139L10.8931 39.1976C10.5533 39.7173 10.3089 40.2933 10.1713 40.8987L10.1317 41.073L10.0463 41.4489C10.0415 41.4699 10.0391 41.4914 10.0391 41.5129C10.0391 41.7628 9.7431 41.8946 9.55734 41.7275L9.45028 41.6311C9.41341 41.5979 9.38421 41.5576 9.36423 41.5129C9.35203 41.4856 9.34327 41.4567 9.33829 41.4269L9.21704 40.6993C9.17553 40.4503 9.17258 40.1964 9.20828 39.9465L9.3051 39.2687C9.42898 38.4016 9.30599 37.5172 8.95025 36.7167L8.58296 36.0638C8.42508 35.7831 8.3764 35.454 8.44626 35.1397C8.48649 34.9586 8.48713 34.7745 8.45174 34.5986C8.40234 34.3531 8.28274 34.1234 8.10253 33.9401C8.0867 33.924 8.0704 33.9083 8.05363 33.8929L7.79333 33.6543L7.09595 33.1179C7.07381 33.1008 7.05102 33.0848 7.02765 33.0697C6.94368 33.0155 6.85214 32.974 6.75602 32.9466C6.72997 32.9392 6.70357 32.9328 6.6769 32.9274C6.41552 32.8752 6.18628 32.7222 6.03757 32.5033C6.02395 32.4833 6.011 32.4627 5.99877 32.4416L5.60488 31.7612C5.52728 31.6272 5.38414 31.5446 5.22926 31.5446C5.01949 31.5446 4.83974 31.3946 4.80222 31.1882L4.6347 30.2669C4.60824 30.1214 4.60267 29.9728 4.61815 29.8256L4.71766 28.8803C4.72646 28.7967 4.72564 28.7123 4.71521 28.6288L4.63309 27.9719C4.61122 27.7969 4.46247 27.6656 4.28612 27.6656C4.12226 27.6656 3.97996 27.7793 3.94723 27.9398C3.93903 27.98 3.93098 28.0203 3.92309 28.0606C3.90543 28.1508 3.88854 28.2413 3.87242 28.332C3.85803 28.413 3.84425 28.4942 3.8311 28.5757C3.697 29.4055 3.62731 30.2569 3.62731 31.1246C3.62731 39.8825 10.727 46.9822 19.4849 46.9822C25.2903 46.9822 30.3672 43.8625 33.1303 39.208C33.1988 39.0927 33.2659 38.9764 33.3315 38.8592C33.3686 38.7929 33.4052 38.7264 33.4414 38.6595C33.4624 38.6207 33.4832 38.5818 33.5039 38.5428C33.5409 38.473 33.5774 38.4029 33.6134 38.3325C33.6152 38.3291 33.6169 38.3257 33.6186 38.3223C33.6306 38.2989 33.6425 38.2754 33.6543 38.2519C33.7105 38.1404 33.6288 38.0098 33.5039 38.0098C33.502 38.0098 33.5002 38.0098 33.4983 38.0099C33.465 38.011 33.4327 38.0219 33.4055 38.0413L33.1368 38.2332C33.0424 38.3007 32.94 38.3527 32.8333 38.3894C32.7457 38.4194 32.6551 38.4391 32.5636 38.4484C32.3079 38.4743 32.0446 38.4189 31.8163 38.282L31.3267 37.943C31.0788 37.7714 30.7632 37.7301 30.4795 37.8323L30.1684 37.9442C29.7118 38.1086 29.2303 37.7702 29.2303 37.2849C29.2303 37.1368 29.2772 36.9925 29.3643 36.8727L29.5983 36.551C29.7152 36.3902 29.8563 36.2486 30.0166 36.1311L30.7304 35.6076C30.7735 35.576 30.8217 35.552 30.8729 35.5366L30.9528 35.5126C31.0815 35.474 31.2105 35.502 31.3083 35.5729C31.3104 35.5745 31.3124 35.576 31.3145 35.5776C31.4002 35.6422 31.4606 35.7405 31.4735 35.8557C31.4752 35.8708 31.4761 35.8863 31.4761 35.902V36.0725C31.4761 36.2028 31.5817 36.3084 31.712 36.3084C31.7784 36.3084 31.8418 36.2804 31.8865 36.2312L31.9766 36.1322C31.9965 36.1102 32.0178 36.0903 32.0401 36.0725C32.1279 36.0023 32.2315 35.9645 32.3363 35.9572C32.3398 35.9569 32.3433 35.9567 32.3468 35.9566C32.5471 35.9465 32.7498 36.0476 32.8529 36.2465L33.3595 37.2235C33.3936 37.2893 33.4436 37.3444 33.5039 37.3847C33.5449 37.4121 33.5907 37.4325 33.6396 37.4448C33.8017 37.4853 33.9686 37.429 34.0714 37.3071C34.0984 37.275 34.1211 37.2383 34.1379 37.1976C34.914 35.3271 35.3424 33.2759 35.3424 31.1246C35.3424 29.5177 35.1034 27.9667 34.659 26.505C34.5217 26.0534 34.061 25.7912 33.5966 25.8756C33.4388 25.9043 33.293 25.9713 33.1705 26.0679C33.1001 26.1235 33.0374 26.1888 32.9845 26.2624C32.9511 26.3089 32.9215 26.3587 32.8964 26.4114L32.4932 27.2582C32.4531 27.3424 32.3728 27.4004 32.2803 27.4119C32.0897 27.4358 31.9346 27.2607 31.9812 27.0744L32.0886 26.6448L32.2929 26.0318C32.3206 25.9485 32.3017 25.8596 32.2486 25.7955C32.2273 25.7697 32.2004 25.7479 32.1687 25.7321C32.1169 25.7062 32.0577 25.6993 32.0013 25.7125L31.0602 25.934ZM31.1513 26.8039C31.0929 26.8143 31.0342 26.8221 30.9751 26.8272C31.2484 27.4941 31.1624 28.2664 30.7255 28.8622L30.5505 29.1009L30.4126 29.48C30.3187 29.7383 30.1394 29.9318 29.9226 30.048L29.9404 30.2616C29.9753 30.6804 29.824 31.0934 29.5268 31.3906L29.1057 31.8117C29.2097 32.2713 29.0454 32.7517 28.6889 33.0523L28.695 33.092C28.7796 33.6418 28.4556 34.1725 27.9278 34.3484C27.4486 34.5081 26.9214 34.3339 26.6318 33.9201L26.3417 33.5058C26.252 33.3775 26.1791 33.2382 26.125 33.0914L26.0464 32.8781L25.9759 32.991C25.9261 33.0708 25.8673 33.1446 25.8008 33.2111C25.2579 33.754 24.3575 33.6794 23.9112 33.0547L23.4538 32.4142L23.312 32.151C23.1853 32.4299 22.9849 32.6714 22.7299 32.8479L22.6115 32.9299C22.8718 33.431 22.8263 34.051 22.4667 34.5132L22.0621 35.0335C22.0019 35.1108 21.9644 35.2032 21.9536 35.3006L21.8547 36.1906L21.5936 37.235C21.5123 37.5601 21.3868 37.8725 21.2205 38.1634L21.0102 38.5314C20.8439 38.8225 20.6071 39.0671 20.3216 39.2428L20.0411 39.4155C19.5256 39.7326 18.8704 39.7102 18.3779 39.3584C18.1694 39.2094 18.0023 39.0097 17.8926 38.7781L17.6349 38.2339C17.3925 37.7223 17.2668 37.1633 17.2668 36.5972V35.4165C17.2668 35.2634 17.2262 35.113 17.149 34.9808L17.0644 34.8356C17.0415 34.7965 17.0085 34.7642 16.9689 34.7421C16.9189 34.7144 16.861 34.7044 16.8047 34.7138L16.5808 34.7511C16.3408 34.7911 16.0954 34.7871 15.8568 34.7394C15.3199 34.632 14.8502 34.3102 14.5563 33.8483L14.5337 33.8129C14.3187 33.4749 14.2044 33.0826 14.2044 32.6819V32.4633C14.2044 31.9818 14.3261 31.5081 14.5581 31.0862L14.9396 30.3926C15.0596 30.1745 15.2098 29.9744 15.3858 29.7984L15.4559 29.7284C14.9988 29.2521 15.0641 28.4531 15.6299 28.0669C15.5301 27.3819 15.9109 26.7066 16.5658 26.4446L16.584 26.4373L16.5923 26.4299C16.6123 26.4122 16.619 26.3837 16.609 26.3589L16.5805 26.2876L17.3889 25.9642L16.555 26.2144C16.3477 25.5237 16.4775 24.7758 16.9053 24.1952L16.9961 24.072C17.4189 23.4981 18.059 23.123 18.7664 23.0346L19.1722 22.9839H20.8055L21.2942 22.9228C21.5019 22.8968 21.6992 22.8171 21.8666 22.6916L21.969 22.6147C22.2532 22.4016 22.5816 22.2548 22.9299 22.1851C23.0259 22.1659 23.1162 22.1249 23.1937 22.0652L23.4539 21.8651C23.7515 21.6362 24.0815 21.4528 24.433 21.321L24.8095 21.1797C25.1083 21.0677 25.4248 21.0103 25.744 21.0103C26.3482 21.0103 26.9345 21.216 27.4064 21.5935L27.6613 21.7974C27.9348 22.0162 28.2648 22.1529 28.6129 22.1916L28.7613 22.2081C28.8829 22.2216 29.0056 22.2196 29.1267 22.2023C29.7206 22.1175 30.3264 22.2017 30.8746 22.4454L31.4435 22.6982L31.9963 22.871C29.3134 18.8124 24.711 16.1378 19.4849 16.1378C13.9714 16.1378 9.15226 19.1145 6.54858 23.5526L6.83258 23.5192C6.95462 23.5049 7.06962 23.4545 7.16292 23.3745L7.51184 23.0755C7.88065 22.7593 8.37825 22.6413 8.84787 22.7557L9.12657 22.7C9.31404 22.6625 9.50476 22.6436 9.69594 22.6436H10.1867C10.4007 22.6436 10.6125 22.6734 10.8165 22.7314C10.4806 22.0732 10.6273 21.2041 11.3163 20.7249L11.6226 20.5118C11.9203 20.3047 12.2743 20.1937 12.6369 20.1937H13.1662C13.217 20.1937 13.2675 20.1861 13.316 20.1711L13.5555 20.0975C14.107 19.9278 14.7066 20.0377 15.1621 20.3919L15.1818 20.4073C15.979 20.5026 16.5197 21.3036 16.2761 22.0954L16.2035 22.3313C16.1653 22.4553 16.1112 22.5738 16.0424 22.6838L15.5375 23.4918C15.5366 24.1845 15.1235 24.8103 14.4867 25.0832L14.3823 25.1279C14.3488 25.1423 14.321 25.1674 14.3033 25.1993L13.8834 25.955C13.7162 26.2559 13.4382 26.4796 13.1085 26.5785C12.7092 26.6983 12.3035 26.6203 11.9886 26.4071L12.3404 27.3305C12.3844 27.4461 12.407 27.5688 12.407 27.6925C12.407 28.3538 11.8388 28.7558 11.2901 28.7073C11.0888 29.1055 10.7172 29.4077 10.2591 29.5102L10.1465 29.7806C10.1329 29.8132 10.1224 29.847 10.1152 29.8816L9.82724 31.2639C9.78637 31.46 9.70512 31.6455 9.58866 31.8086C9.31686 32.1891 8.88795 32.4036 8.44369 32.413C8.50746 32.5131 8.56216 32.6195 8.60676 32.731C8.62115 32.767 8.64697 32.7972 8.67995 32.817L8.75087 32.8596C8.81649 32.8989 8.89156 32.9197 8.96808 32.9197H9.28797C9.5963 32.9197 9.90314 32.9627 10.1996 33.0474L10.5479 33.1469C10.7825 33.2139 11.0104 33.3026 11.2286 33.4117L11.5219 33.5584C11.9164 33.7556 12.2555 34.0482 12.5085 34.4095L12.5714 34.4995C12.6032 34.5449 12.6442 34.5831 12.6917 34.6116L12.8081 34.6814C13.2194 34.9282 13.5158 35.3282 13.6321 35.7935C13.7661 36.3293 13.6478 36.897 13.3111 37.3347L12.2468 38.7183L11.6219 39.6741C11.3387 40.1071 11.135 40.5872 11.0204 41.0917L10.9075 41.5881C10.8722 42.1742 10.4257 42.5839 9.91802 42.6612C12.5135 44.816 15.8479 46.1115 19.4849 46.1115C24.7492 46.1115 29.3808 43.3974 32.0548 39.2892C31.8156 39.2443 31.5829 39.1573 31.3684 39.0286L31.8163 38.282L31.3207 38.9979L30.8311 38.6589C30.8145 38.6474 30.7934 38.6446 30.7744 38.6515L30.4634 38.7635C29.4393 39.1321 28.3596 38.3733 28.3596 37.2849C28.3596 36.9528 28.4648 36.6292 28.6602 36.3606L28.8942 36.0389C29.064 35.8054 29.2689 35.5996 29.5017 35.4289L30.2155 34.9054C30.3387 34.8151 30.4764 34.7465 30.6227 34.7026L30.7026 34.6787C31.234 34.5193 31.7675 34.7212 32.077 35.1162C32.668 34.99 33.3173 35.2505 33.6259 35.8457L33.6789 35.948C34.1928 34.4353 34.4717 32.8133 34.4717 31.1246C34.4717 29.6045 34.2457 28.1387 33.826 26.7583C33.8249 26.7548 33.8238 26.7526 33.8227 26.7511C33.8224 26.7506 33.8221 26.7502 33.8218 26.7498C33.8201 26.7478 33.8167 26.7443 33.8106 26.7407C33.7977 26.7332 33.7775 26.7277 33.7524 26.7323C33.7219 26.7378 33.6959 26.7577 33.6825 26.7857L33.2793 27.6325C33.1115 27.9849 32.7756 28.2275 32.3883 28.2759C31.5905 28.3756 30.9415 27.6431 31.1365 26.8632L31.1513 26.8039ZM8.42399 41.2373L8.35819 40.8425C8.30201 40.5054 8.29801 40.1617 8.34634 39.8233L8.44316 39.1456C8.54206 38.4533 8.44746 37.7474 8.17022 37.106L7.82408 36.4906C7.56101 36.023 7.47989 35.4746 7.5963 34.9508C7.6301 34.7987 7.58016 34.6401 7.46528 34.5348L7.23268 34.3215L6.56508 33.808C6.54775 33.7947 6.52758 33.7855 6.50615 33.7812C5.97562 33.6751 5.51633 33.346 5.24525 32.8778L4.96151 32.3877C4.80915 32.3558 4.66584 32.2973 4.53718 32.2167C4.78681 35.6831 6.21539 38.823 8.42399 41.2373ZM15.7087 28.2047L16.5042 28.0058L15.7039 28.2345C15.7052 28.2245 15.7068 28.2146 15.7087 28.2047ZM11.3872 25.5259C11.4028 25.54 11.4182 25.5542 11.4334 25.5687C11.4285 25.5437 11.4243 25.5184 11.4208 25.4927C11.4098 25.504 11.3986 25.5151 11.3872 25.5259ZM8.9693 26.029L8.96875 26.0279L8.9693 26.029Z" fill="#7A8AA0"/>
</svg>
