<svg width="133" height="38" viewBox="0 0 133 38" fill="none" xmlns="http://www.w3.org/2000/svg">
<path d="M38.2275 37.8054V23.1165H40.0921V31.2379L47.6748 23.0958H49.6844L43.7799 29.5805L50.0159 37.8054H47.9234L42.599 30.6992L40.0921 33.3097V37.8054H38.2275Z" fill="#7A8AA0"/>
<path d="M51.7426 37.8054V23.0958H53.6072V37.8054H51.7426Z" fill="#7A8AA0"/>
<path d="M67.7318 24.7532H62.656V37.8054H60.7914V24.7532H55.7156V23.0958H67.7318V24.7532Z" fill="#7A8AA0"/>
<path d="M68.7524 36.3552L78.2411 24.7532H68.9388V23.0958H80.4164V24.5461L71.0935 36.148H80.4164V37.8054H68.7524V36.3552Z" fill="#7A8AA0"/>
<path d="M88.9907 37.909C87.8167 37.909 86.8291 37.7087 86.028 37.3082C85.2269 36.8938 84.5847 36.3414 84.1013 35.6508C83.6179 34.9464 83.2657 34.1522 83.0447 33.2682C82.8237 32.3843 82.7132 31.4727 82.7132 30.5335V23.0958H84.5778V30.5335C84.5778 31.2517 84.6468 31.9561 84.785 32.6467C84.9369 33.3235 85.1786 33.9312 85.5101 34.4699C85.8416 35.0085 86.2905 35.4367 86.8567 35.7544C87.423 36.072 88.1274 36.2309 88.9699 36.2309C89.8263 36.2309 90.5376 36.072 91.1039 35.7544C91.6702 35.4229 92.119 34.9878 92.4505 34.4491C92.782 33.8967 93.0168 33.282 93.1549 32.6053C93.3069 31.9285 93.3828 31.2379 93.3828 30.5335V23.0958H95.2474V30.5335C95.2474 31.5279 95.13 32.474 94.8952 33.3718C94.6742 34.2558 94.3151 35.0361 93.8179 35.7129C93.3207 36.3897 92.6715 36.9284 91.8704 37.3289C91.0832 37.7156 90.1232 37.909 88.9907 37.909Z" fill="#7A8AA0"/>
<path d="M19.04 0.20853C30.8464 -0.60536 39.09 1.02674 50.0196 3.99639C50.3098 4.07526 50.4804 4.37168 50.4006 4.65847C50.3208 4.94526 50.0208 5.11382 49.7305 5.03495C38.8568 2.08048 30.748 0.481156 19.1159 1.28303C18.8156 1.30373 18.5552 1.07998 18.5342 0.783264C18.5133 0.48655 18.7397 0.229232 19.04 0.20853Z" fill="#7A8AA0"/>
<path d="M49.6992 6.13986C32.9706 3.1593 18.4307 4.51907 0.365857 10.739C0.0815836 10.8369 -0.0685573 11.1439 0.0305075 11.4248C0.129572 11.7057 0.440329 11.854 0.724602 11.7562C18.6351 5.58933 32.9844 4.25624 49.5058 7.19988C49.802 7.25266 50.0855 7.05816 50.1389 6.76544C50.1923 6.47273 49.9955 6.19265 49.6992 6.13986Z" fill="#7A8AA0"/>
<path d="M49.875 7.74687C37.8377 7.74691 26.0754 9.36824 17.0418 11.5319C16.7492 11.602 16.5695 11.8931 16.6404 12.1822C16.7114 12.4713 17.006 12.6488 17.2986 12.5787C26.2527 10.4341 37.9288 8.82402 49.875 8.82398C50.1761 8.82398 50.4201 8.58286 50.4201 8.28542C50.4201 7.98799 50.1761 7.74687 49.875 7.74687Z" fill="#7A8AA0"/>
<path d="M80.1865 9.29298C80.5992 9.11178 80.785 8.63438 80.6016 8.22668C80.4182 7.81898 79.935 7.63536 79.5224 7.81656C76.226 9.26407 73.724 10.3185 71.5874 10.9963L71.6065 10.9789C72.9953 9.71377 74.5599 7.97701 76.4519 5.87673C76.6938 5.60822 76.9413 5.33348 77.1942 5.05332C77.4947 4.72036 77.4652 4.2097 77.1282 3.91273C76.7912 3.61576 76.2744 3.64494 75.9738 3.97791C75.7337 4.24389 75.4997 4.50352 75.2715 4.75679L75.24 4.79173L75.2367 4.79543C73.3282 6.91355 71.823 8.5841 70.498 9.79111C69 11.1558 67.867 11.7971 66.8026 11.8902C65.7638 11.9812 64.5834 11.5646 62.9503 10.2827C61.3172 9.00068 59.3509 6.94904 56.7623 3.9876C56.4671 3.64994 55.9508 3.61261 55.609 3.90422C55.2673 4.19584 55.2295 4.70597 55.5247 5.04363C57.8919 7.75185 59.8113 9.78586 61.4718 11.1736C59.2622 10.5517 56.6471 9.53292 53.1931 8.08072C52.7776 7.90602 52.2974 8.09721 52.1206 8.50774C51.9438 8.91827 52.1373 9.39269 52.5528 9.56738C58.9349 12.2506 62.7711 13.6073 66.5835 13.5363C70.3905 13.4653 74.0897 11.9702 80.1865 9.29298Z" fill="#7A8AA0"/>
<path d="M83.125 7.74687C95.1623 7.74691 106.925 9.36824 115.958 11.5319C116.251 11.602 116.43 11.8931 116.36 12.1822C116.289 12.4713 115.994 12.6488 115.701 12.5787C106.747 10.4341 95.0712 8.82402 83.125 8.82398C82.8239 8.82398 82.5799 8.58286 82.5799 8.28542C82.5799 7.98799 82.8239 7.74687 83.125 7.74687Z" fill="#7A8AA0"/>
<path d="M132.634 10.739C114.569 4.51907 100.029 3.1593 83.3008 6.13986C83.0045 6.19265 82.8076 6.47273 82.8611 6.76544C82.9145 7.05816 83.198 7.25266 83.4942 7.19988C100.016 4.25624 114.365 5.58933 132.275 11.7562C132.56 11.854 132.87 11.7057 132.969 11.4248C133.069 11.1439 132.918 10.8369 132.634 10.739Z" fill="#7A8AA0"/>
<path d="M82.9804 3.99639C93.91 1.02674 102.154 -0.60536 113.96 0.20853C114.26 0.229232 114.487 0.48655 114.466 0.783264C114.445 1.07998 114.184 1.30373 113.884 1.28303C102.252 0.481156 94.1432 2.08048 83.2695 5.03495C82.9792 5.11382 82.6792 4.94526 82.5994 4.65847C82.5196 4.37168 82.6902 4.07526 82.9804 3.99639Z" fill="#7A8AA0"/>
</svg>
