<svg width="156" height="27" viewBox="0 0 156 27" fill="none" xmlns="http://www.w3.org/2000/svg">
<path d="M48.6652 2.40612V15.9222H45.3728V7.81642L42.35 15.9222H39.693L36.6509 7.79717V15.9222H33.3585V2.40612H37.2477L41.0407 11.7634L44.7952 2.40612H48.6652Z" fill="#7A8AA0"/>
<path d="M50.3782 10.5312C50.3782 9.42732 50.5836 8.45821 50.9943 7.62388C51.4179 6.78956 51.9891 6.14776 52.7079 5.69851C53.4267 5.24926 54.2289 5.02463 55.1146 5.02463C55.8719 5.02463 56.533 5.17866 57.0977 5.48672C57.6754 5.79478 58.1182 6.19911 58.4263 6.69971V5.17866H61.7186V15.9222H58.4263V14.4012C58.1054 14.9018 57.6561 15.3061 57.0785 15.6142C56.5137 15.9222 55.8527 16.0763 55.0954 16.0763C54.2225 16.0763 53.4267 15.8517 52.7079 15.4024C51.9891 14.9403 51.4179 14.2921 50.9943 13.4578C50.5836 12.6106 50.3782 11.6351 50.3782 10.5312ZM58.4263 10.5505C58.4263 9.72896 58.1952 9.08075 57.7331 8.60583C57.2839 8.1309 56.7319 7.89344 56.0773 7.89344C55.4227 7.89344 54.8643 8.1309 54.4022 8.60583C53.953 9.06792 53.7283 9.70971 53.7283 10.5312C53.7283 11.3527 53.953 12.0073 54.4022 12.4951C54.8643 12.97 55.4227 13.2075 56.0773 13.2075C56.7319 13.2075 57.2839 12.97 57.7331 12.4951C58.1952 12.0202 58.4263 11.3719 58.4263 10.5505Z" fill="#7A8AA0"/>
<path d="M70.0885 13.1305V15.9222H68.4134C67.2197 15.9222 66.2891 15.6334 65.6216 15.0558C64.9541 14.4654 64.6204 13.5091 64.6204 12.187V7.91269H63.3111V5.17866H64.6204V2.56015H67.9128V5.17866H70.0692V7.91269H67.9128V12.2255C67.9128 12.5464 67.9898 12.7775 68.1438 12.9187C68.2979 13.0599 68.5546 13.1305 68.914 13.1305H70.0885Z" fill="#7A8AA0"/>
<path d="M75.2148 6.96926C75.5998 6.37881 76.0812 5.91672 76.6588 5.58299C77.2364 5.23642 77.8782 5.06314 78.5842 5.06314V8.54807H77.6792C76.8577 8.54807 76.2416 8.72777 75.8309 9.08717C75.4201 9.43374 75.2148 10.0499 75.2148 10.9355V15.9222H71.9224V5.17866H75.2148V6.96926Z" fill="#7A8AA0"/>
<path d="M81.8137 4.06194C81.2361 4.06194 80.7611 3.89508 80.3889 3.56135C80.0295 3.21478 79.8498 2.7912 79.8498 2.2906C79.8498 1.77717 80.0295 1.35358 80.3889 1.01985C80.7611 0.673284 81.2361 0.5 81.8137 0.5C82.3785 0.5 82.8405 0.673284 83.2 1.01985C83.5722 1.35358 83.7583 1.77717 83.7583 2.2906C83.7583 2.7912 83.5722 3.21478 83.2 3.56135C82.8405 3.89508 82.3785 4.06194 81.8137 4.06194ZM83.4502 5.17866V15.9222H80.1579V5.17866H83.4502Z" fill="#7A8AA0"/>
<path d="M92.1899 15.9222L90.1298 12.9379L88.397 15.9222H84.835L88.3777 10.4349L84.7387 5.17866H88.4355L90.4956 8.14374L92.2285 5.17866H95.7904L92.1899 10.589L95.8867 15.9222H92.1899Z" fill="#7A8AA0"/>
<path d="M106.126 16.057C105.138 16.057 104.252 15.8966 103.469 15.5757C102.686 15.2548 102.057 14.7799 101.582 14.1509C101.12 13.5219 100.876 12.7646 100.85 11.879H104.355C104.406 12.3796 104.579 12.7646 104.874 13.0342C105.17 13.2909 105.555 13.4193 106.03 13.4193C106.517 13.4193 106.902 13.3102 107.185 13.0919C107.467 12.8609 107.608 12.5464 107.608 12.1485C107.608 11.8148 107.493 11.5388 107.262 11.3206C107.044 11.1024 106.768 10.9227 106.434 10.7815C106.113 10.6403 105.651 10.4799 105.048 10.3002C104.175 10.0306 103.462 9.76105 102.911 9.4915C102.359 9.22195 101.884 8.82404 101.486 8.29777C101.088 7.7715 100.889 7.08478 100.889 6.23762C100.889 4.9797 101.345 3.99776 102.256 3.29179C103.167 2.57299 104.355 2.21358 105.818 2.21358C107.307 2.21358 108.507 2.57299 109.418 3.29179C110.33 3.99776 110.817 4.98612 110.882 6.25687H107.32C107.294 5.82045 107.134 5.4803 106.838 5.23642C106.543 4.9797 106.164 4.85135 105.702 4.85135C105.304 4.85135 104.984 4.96045 104.74 5.17866C104.496 5.38403 104.374 5.68567 104.374 6.08359C104.374 6.52 104.579 6.86015 104.99 7.10403C105.401 7.34792 106.042 7.61105 106.915 7.89344C107.788 8.18866 108.494 8.47105 109.033 8.7406C109.585 9.01015 110.06 9.40165 110.458 9.91508C110.856 10.4285 111.055 11.0896 111.055 11.8982C111.055 12.6684 110.856 13.3679 110.458 13.9969C110.073 14.6258 109.508 15.1264 108.764 15.4987C108.019 15.8709 107.14 16.057 106.126 16.057Z" fill="#7A8AA0"/>
<path d="M119.069 13.1305V15.9222H117.394C116.2 15.9222 115.27 15.6334 114.602 15.0558C113.935 14.4654 113.601 13.5091 113.601 12.187V7.91269H112.292V5.17866H113.601V2.56015H116.893V5.17866H119.05V7.91269H116.893V12.2255C116.893 12.5464 116.97 12.7775 117.124 12.9187C117.278 13.0599 117.535 13.1305 117.894 13.1305H119.069Z" fill="#7A8AA0"/>
<path d="M120.248 10.5312C120.248 9.42732 120.454 8.45821 120.864 7.62388C121.288 6.78956 121.859 6.14776 122.578 5.69851C123.297 5.24926 124.099 5.02463 124.985 5.02463C125.742 5.02463 126.403 5.17866 126.968 5.48672C127.545 5.79478 127.988 6.19911 128.296 6.69971V5.17866H131.589V15.9222H128.296V14.4012C127.975 14.9018 127.526 15.3061 126.949 15.6142C126.384 15.9222 125.723 16.0763 124.965 16.0763C124.093 16.0763 123.297 15.8517 122.578 15.4024C121.859 14.9403 121.288 14.2921 120.864 13.4578C120.454 12.6106 120.248 11.6351 120.248 10.5312ZM128.296 10.5505C128.296 9.72896 128.065 9.08075 127.603 8.60583C127.154 8.1309 126.602 7.89344 125.947 7.89344C125.293 7.89344 124.734 8.1309 124.272 8.60583C123.823 9.06792 123.598 9.70971 123.598 10.5312C123.598 11.3527 123.823 12.0073 124.272 12.4951C124.734 12.97 125.293 13.2075 125.947 13.2075C126.602 13.2075 127.154 12.97 127.603 12.4951C128.065 12.0202 128.296 11.3719 128.296 10.5505Z" fill="#7A8AA0"/>
<path d="M140.536 15.9222L137.263 11.4169V15.9222H133.971V1.67448H137.263V9.54926L140.517 5.17866H144.579L140.113 10.5697L144.618 15.9222H140.536Z" fill="#7A8AA0"/>
<path d="M156 10.3772C156 10.6852 155.981 11.0061 155.942 11.3399H148.491C148.542 12.0073 148.754 12.5208 149.126 12.8802C149.511 13.2267 149.98 13.4 150.532 13.4C151.353 13.4 151.925 13.0534 152.246 12.3603H155.75C155.57 13.0663 155.243 13.7017 154.768 14.2664C154.306 14.8312 153.722 15.274 153.016 15.5949C152.31 15.9158 151.52 16.0763 150.647 16.0763C149.595 16.0763 148.658 15.8517 147.836 15.4024C147.015 14.9531 146.373 14.3114 145.911 13.477C145.449 12.6427 145.218 11.6672 145.218 10.5505C145.218 9.43374 145.443 8.45821 145.892 7.62388C146.354 6.78956 146.996 6.14776 147.817 5.69851C148.639 5.24926 149.582 5.02463 150.647 5.02463C151.687 5.02463 152.611 5.24284 153.42 5.67926C154.229 6.11568 154.858 6.73821 155.307 7.54687C155.769 8.35553 156 9.29896 156 10.3772ZM152.631 9.51075C152.631 8.94598 152.438 8.49672 152.053 8.16299C151.668 7.82926 151.187 7.66239 150.609 7.66239C150.057 7.66239 149.589 7.82284 149.203 8.14374C148.831 8.46463 148.6 8.9203 148.51 9.51075H152.631Z" fill="#7A8AA0"/>
<path d="M34.1816 22.5844V23.6132H35.5632V24.2658H34.1816V25.3535H35.7396V26.0237H33.3585V21.9141H35.7396V22.5844H34.1816Z" fill="#7A8AA0"/>
<path d="M41.9416 21.92V26.0237H41.1185V23.3545L40.0191 26.0237H39.3959L38.2906 23.3545V26.0237H37.4675V21.92H38.4023L39.7075 24.9713L41.0127 21.92H41.9416Z" fill="#7A8AA0"/>
<path d="M46.7278 23.1899C46.7278 23.4094 46.6749 23.6152 46.569 23.8072C46.4671 23.9993 46.3045 24.1541 46.0811 24.2717C45.8616 24.3893 45.5833 24.4481 45.2462 24.4481H44.5583V26.0237H43.7352V21.92H45.2462C45.5637 21.92 45.8341 21.9749 46.0575 22.0846C46.281 22.1944 46.4475 22.3453 46.5573 22.5373C46.671 22.7294 46.7278 22.9469 46.7278 23.1899ZM45.2109 23.7837C45.4383 23.7837 45.6068 23.7328 45.7165 23.6309C45.8263 23.525 45.8812 23.3781 45.8812 23.1899C45.8812 22.7901 45.6578 22.5902 45.2109 22.5902H44.5583V23.7837H45.2109Z" fill="#7A8AA0"/>
<path d="M50.1969 26.0649C49.8128 26.0649 49.4601 25.9747 49.1387 25.7944C48.8173 25.6141 48.5625 25.3652 48.3744 25.0478C48.1862 24.7264 48.0922 24.3638 48.0922 23.9601C48.0922 23.5603 48.1862 23.2017 48.3744 22.8842C48.5625 22.5628 48.8173 22.3119 49.1387 22.1317C49.4601 21.9514 49.8128 21.8612 50.1969 21.8612C50.585 21.8612 50.9377 21.9514 51.2552 22.1317C51.5766 22.3119 51.8294 22.5628 52.0136 22.8842C52.2018 23.2017 52.2958 23.5603 52.2958 23.9601C52.2958 24.3638 52.2018 24.7264 52.0136 25.0478C51.8294 25.3652 51.5766 25.6141 51.2552 25.7944C50.9338 25.9747 50.581 26.0649 50.1969 26.0649ZM50.1969 25.33C50.4439 25.33 50.6614 25.2751 50.8495 25.1654C51.0377 25.0517 51.1846 24.891 51.2905 24.6833C51.3963 24.4755 51.4492 24.2345 51.4492 23.9601C51.4492 23.6857 51.3963 23.4466 51.2905 23.2428C51.1846 23.0351 51.0377 22.8764 50.8495 22.7666C50.6614 22.6569 50.4439 22.602 50.1969 22.602C49.95 22.602 49.7305 22.6569 49.5385 22.7666C49.3503 22.8764 49.2033 23.0351 49.0975 23.2428C48.9917 23.4466 48.9388 23.6857 48.9388 23.9601C48.9388 24.2345 48.9917 24.4755 49.0975 24.6833C49.2033 24.891 49.3503 25.0517 49.5385 25.1654C49.7305 25.2751 49.95 25.33 50.1969 25.33Z" fill="#7A8AA0"/>
<path d="M59.3734 21.92L58.227 26.0237H57.2569L56.4867 23.1017L55.6812 26.0237L54.717 26.0296L53.6117 21.92H54.4936L55.2168 25.1066L56.0516 21.92H56.9688L57.7566 25.0889L58.4856 21.92H59.3734Z" fill="#7A8AA0"/>
<path d="M61.7138 22.5844V23.6132H63.0955V24.2658H61.7138V25.3535H63.2718V26.0237H60.8907V21.9141H63.2718V22.5844H61.7138Z" fill="#7A8AA0"/>
<path d="M67.1162 26.0237L66.2108 24.4246H65.8228V26.0237H64.9997V21.92H66.5401C66.8576 21.92 67.128 21.9768 67.3514 22.0905C67.5748 22.2002 67.7414 22.3511 67.8512 22.5432C67.9648 22.7313 68.0217 22.943 68.0217 23.1782C68.0217 23.4486 67.9433 23.6936 67.7865 23.9131C67.6297 24.1286 67.3965 24.2776 67.0868 24.3599L68.0687 26.0237H67.1162ZM65.8228 23.8072H66.5107C66.7341 23.8072 66.9007 23.7543 67.0104 23.6485C67.1202 23.5388 67.175 23.3879 67.175 23.1958C67.175 23.0077 67.1202 22.8626 67.0104 22.7607C66.9007 22.6549 66.7341 22.602 66.5107 22.602H65.8228V23.8072Z" fill="#7A8AA0"/>
<path d="M70.5691 21.92V26.0237H69.746V21.92H70.5691Z" fill="#7A8AA0"/>
<path d="M75.8721 26.0237H75.049L73.1853 23.2076V26.0237H72.3622V21.9141H73.1853L75.049 24.7362V21.9141H75.8721V26.0237Z" fill="#7A8AA0"/>
<path d="M80.5227 23.1546C80.4286 22.9822 80.2993 22.8509 80.1347 22.7607C79.9701 22.6706 79.778 22.6255 79.5585 22.6255C79.3155 22.6255 79.0999 22.6804 78.9118 22.7901C78.7237 22.8999 78.5767 23.0567 78.4708 23.2605C78.365 23.4643 78.3121 23.6995 78.3121 23.966C78.3121 24.2403 78.365 24.4794 78.4708 24.6833C78.5806 24.8871 78.7315 25.0438 78.9235 25.1536C79.1156 25.2633 79.339 25.3182 79.5938 25.3182C79.9073 25.3182 80.1641 25.2359 80.364 25.0713C80.5639 24.9027 80.6952 24.6695 80.7579 24.3717H79.3469V23.7426H81.5692V24.4598C81.5143 24.746 81.3968 25.0105 81.2165 25.2535C81.0362 25.4965 80.803 25.6925 80.5168 25.8415C80.2346 25.9865 79.9171 26.059 79.5644 26.059C79.1685 26.059 78.8099 25.9708 78.4885 25.7944C78.171 25.6141 77.9202 25.3652 77.7359 25.0478C77.5556 24.7303 77.4655 24.3697 77.4655 23.966C77.4655 23.5623 77.5556 23.2017 77.7359 22.8842C77.9202 22.5628 78.171 22.3139 78.4885 22.1375C78.8099 21.9572 79.1666 21.8671 79.5585 21.8671C80.021 21.8671 80.4228 21.9808 80.7638 22.2081C81.1048 22.4315 81.3399 22.747 81.4693 23.1546H80.5227Z" fill="#7A8AA0"/>
<path d="M86.9734 21.92C87.4045 21.92 87.7828 22.0043 88.1081 22.1728C88.4373 22.3413 88.6901 22.5824 88.8665 22.896C89.0468 23.2056 89.137 23.5662 89.137 23.9777C89.137 24.3893 89.0468 24.7499 88.8665 25.0595C88.6901 25.3652 88.4373 25.6024 88.1081 25.7709C87.7828 25.9395 87.4045 26.0237 86.9734 26.0237H85.5389V21.92H86.9734ZM86.944 25.3241C87.3751 25.3241 87.7083 25.2065 87.9435 24.9713C88.1786 24.7362 88.2962 24.405 88.2962 23.9777C88.2962 23.5505 88.1786 23.2174 87.9435 22.9783C87.7083 22.7353 87.3751 22.6138 86.944 22.6138H86.3619V25.3241H86.944Z" fill="#7A8AA0"/>
<path d="M91.5561 22.5844V23.6132H92.9377V24.2658H91.5561V25.3535H93.1141V26.0237H90.733V21.9141H93.1141V22.5844H91.5561Z" fill="#7A8AA0"/>
<path d="M94.642 23.966C94.642 23.5623 94.7322 23.2017 94.9125 22.8842C95.0967 22.5628 95.3456 22.3139 95.6592 22.1375C95.9766 21.9572 96.3314 21.8671 96.7233 21.8671C97.1819 21.8671 97.5836 21.9847 97.9286 22.2198C98.2735 22.455 98.5145 22.7803 98.6517 23.1958H97.7051C97.6111 22.9998 97.4778 22.8528 97.3054 22.7549C97.1368 22.6569 96.9408 22.6079 96.7174 22.6079C96.4783 22.6079 96.2647 22.6647 96.0766 22.7784C95.8924 22.8881 95.7473 23.0449 95.6415 23.2487C95.5396 23.4525 95.4887 23.6916 95.4887 23.966C95.4887 24.2364 95.5396 24.4755 95.6415 24.6833C95.7473 24.8871 95.8924 25.0458 96.0766 25.1595C96.2647 25.2692 96.4783 25.3241 96.7174 25.3241C96.9408 25.3241 97.1368 25.2751 97.3054 25.1771C97.4778 25.0752 97.6111 24.9263 97.7051 24.7303H98.6517C98.5145 25.1497 98.2735 25.477 97.9286 25.7121C97.5876 25.9434 97.1858 26.059 96.7233 26.059C96.3314 26.059 95.9766 25.9708 95.6592 25.7944C95.3456 25.6141 95.0967 25.3652 94.9125 25.0478C94.7322 24.7303 94.642 24.3697 94.642 23.966Z" fill="#7A8AA0"/>
<path d="M101.158 22.5844V23.6132H102.539V24.2658H101.158V25.3535H102.716V26.0237H100.335V21.9141H102.716V22.5844H101.158Z" fill="#7A8AA0"/>
<path d="M107.954 26.0237H107.13L105.267 23.2076V26.0237H104.444V21.9141H105.267L107.13 24.7362V21.9141H107.954V26.0237Z" fill="#7A8AA0"/>
<path d="M112.539 21.92V22.5844H111.446V26.0237H110.623V22.5844H109.529V21.92H112.539Z" fill="#7A8AA0"/>
<path d="M116.236 26.0237L115.331 24.4246H114.943V26.0237H114.12V21.92H115.66C115.978 21.92 116.248 21.9768 116.472 22.0905C116.695 22.2002 116.862 22.3511 116.971 22.5432C117.085 22.7313 117.142 22.943 117.142 23.1782C117.142 23.4486 117.063 23.6936 116.907 23.9131C116.75 24.1286 116.517 24.2776 116.207 24.3599L117.189 26.0237H116.236ZM114.943 23.8072H115.631C115.854 23.8072 116.021 23.7543 116.131 23.6485C116.24 23.5388 116.295 23.3879 116.295 23.1958C116.295 23.0077 116.24 22.8626 116.131 22.7607C116.021 22.6549 115.854 22.602 115.631 22.602H114.943V23.8072Z" fill="#7A8AA0"/>
<path d="M121.382 25.2418H119.748L119.478 26.0237H118.613L120.089 21.9141H121.047L122.523 26.0237H121.653L121.382 25.2418ZM121.159 24.5833L120.565 22.8666L119.971 24.5833H121.159Z" fill="#7A8AA0"/>
<path d="M124.878 25.3711H126.23V26.0237H124.055V21.92H124.878V25.3711Z" fill="#7A8AA0"/>
<path d="M128.556 21.92V26.0237H127.733V21.92H128.556Z" fill="#7A8AA0"/>
<path d="M131.19 25.33H133.036V26.0237H130.237V25.3888L132.072 22.6138H130.237V21.92H133.036V22.555L131.19 25.33Z" fill="#7A8AA0"/>
<path d="M137.233 25.2418H135.598L135.328 26.0237H134.464L135.939 21.9141H136.898L138.373 26.0237H137.503L137.233 25.2418ZM137.009 24.5833L136.416 22.8666L135.822 24.5833H137.009Z" fill="#7A8AA0"/>
<path d="M142.697 21.92V22.5844H141.604V26.0237H140.781V22.5844H139.687V21.92H142.697Z" fill="#7A8AA0"/>
<path d="M145.101 21.92V26.0237H144.278V21.92H145.101Z" fill="#7A8AA0"/>
<path d="M148.799 26.0649C148.415 26.0649 148.062 25.9747 147.741 25.7944C147.419 25.6141 147.165 25.3652 146.976 25.0478C146.788 24.7264 146.694 24.3638 146.694 23.9601C146.694 23.5603 146.788 23.2017 146.976 22.8842C147.165 22.5628 147.419 22.3119 147.741 22.1317C148.062 21.9514 148.415 21.8612 148.799 21.8612C149.187 21.8612 149.54 21.9514 149.857 22.1317C150.179 22.3119 150.431 22.5628 150.616 22.8842C150.804 23.2017 150.898 23.5603 150.898 23.9601C150.898 24.3638 150.804 24.7264 150.616 25.0478C150.431 25.3652 150.179 25.6141 149.857 25.7944C149.536 25.9747 149.183 26.0649 148.799 26.0649ZM148.799 25.33C149.046 25.33 149.263 25.2751 149.452 25.1654C149.64 25.0517 149.787 24.891 149.892 24.6833C149.998 24.4755 150.051 24.2345 150.051 23.9601C150.051 23.6857 149.998 23.4466 149.892 23.2428C149.787 23.0351 149.64 22.8764 149.452 22.7666C149.263 22.6569 149.046 22.602 148.799 22.602C148.552 22.602 148.333 22.6569 148.14 22.7666C147.952 22.8764 147.805 23.0351 147.7 23.2428C147.594 23.4466 147.541 23.6857 147.541 23.9601C147.541 24.2345 147.594 24.4755 147.7 24.6833C147.805 24.891 147.952 25.0517 148.14 25.1654C148.333 25.2751 148.552 25.33 148.799 25.33Z" fill="#7A8AA0"/>
<path d="M156 26.0237H155.177L153.313 23.2076V26.0237H152.49V21.9141H153.313L155.177 24.7362V21.9141H156V26.0237Z" fill="#7A8AA0"/>
<path fill-rule="evenodd" clip-rule="evenodd" d="M10.4027 4.50671C9.50599 4.29005 8.57011 4.29403 7.67526 4.51832C6.78042 4.74261 5.9533 5.18052 5.26479 5.79453C4.57627 6.40853 4.0469 7.18032 3.72203 8.04375C3.39716 8.90718 3.28648 9.8365 3.39947 10.7521C3.51247 11.6677 3.84577 12.5422 4.37082 13.3007C4.89587 14.0593 5.597 14.6792 6.41414 15.1074C7.23127 15.5355 8.14004 15.7592 9.06256 15.7592H16.0273C16.9542 15.7592 17.7056 16.5106 17.7056 17.4375C17.7056 18.3644 16.9542 19.1157 16.0273 19.1157H9.06256C7.59738 19.1157 6.15404 18.7605 4.85624 18.0804C3.55843 17.4004 2.44487 16.4158 1.61097 15.2111C0.777071 14.0063 0.247706 12.6174 0.0682411 11.1632C-0.111224 9.70905 0.0645619 8.23307 0.580534 6.86174C1.09651 5.49041 1.93728 4.26463 3.0308 3.28945C4.12432 2.31426 5.43798 1.61876 6.8592 1.26253C8.28042 0.906302 9.76683 0.899977 11.191 1.2441C12.6152 1.58821 13.9348 2.27251 15.0365 3.23835C15.7335 3.84934 15.8032 4.90966 15.1923 5.60665C14.5813 6.30363 13.5209 6.37335 12.824 5.76236C12.1302 5.15424 11.2994 4.72338 10.4027 4.50671Z" fill="#7A8AA0"/>
<path fill-rule="evenodd" clip-rule="evenodd" d="M14.5193 22.9838C15.4161 23.2004 16.3519 23.1964 17.2468 22.9722C18.1416 22.7479 18.9688 22.31 19.6573 21.696C20.3458 21.0819 20.8752 20.3102 21.2 19.4467C21.5249 18.5833 21.6356 17.654 21.5226 16.7384C21.4096 15.8228 21.0763 14.9483 20.5512 14.1898C20.0262 13.4312 19.325 12.8113 18.5079 12.3831C17.6908 11.9549 16.782 11.7313 15.8595 11.7313H8.89474C7.96786 11.7313 7.21649 10.9799 7.21649 10.053C7.21649 9.12613 7.96786 8.37475 8.89474 8.37475H15.8595C17.3247 8.37475 18.768 8.73 20.0658 9.41006C21.3636 10.0901 22.4772 11.0747 23.3111 12.2794C24.145 13.4842 24.6743 14.8731 24.8538 16.3273C25.0333 17.7814 24.8575 19.2574 24.3415 20.6287C23.8255 22.0001 22.9848 23.2258 21.8913 24.201C20.7977 25.1762 19.4841 25.8717 18.0628 26.2279C16.6416 26.5842 15.1552 26.5905 13.731 26.2464C12.3068 25.9023 10.9873 25.218 9.88551 24.2521C9.18852 23.6411 9.11881 22.5808 9.7298 21.8838C10.3408 21.1868 11.4011 21.1171 12.0981 21.7281C12.7918 22.3362 13.6226 22.7671 14.5193 22.9838Z" fill="#7A8AA0"/>
</svg>
