<svg width="129" height="16" viewBox="0 0 129 16" fill="none" xmlns="http://www.w3.org/2000/svg">
<path d="M36.1211 1.63651V6.96418H42.6223V1.63651H44.6826V14.2154H42.6223V8.84232H36.1211V14.2154H34.0437V1.63651H36.1211Z" fill="#7A8AA0"/>
<path d="M66.904 9.23728L69.5568 14.2154H67.2077L64.7789 9.36516H61.0548V14.2154H58.9746V1.63651H65.7566C68.0858 1.63651 69.752 3.1453 69.752 5.50082C69.7884 6.35925 69.523 7.20317 69.0029 7.8858C68.4821 8.56843 67.74 9.04666 66.904 9.23728ZM61.0548 7.4955H65.5409C66.8504 7.4955 67.6749 6.72264 67.6749 5.5065C67.6749 4.29038 66.8504 3.51752 65.5409 3.51752H61.0548V7.4955Z" fill="#7A8AA0"/>
<path d="M76.8316 1.63651C80.1813 1.63651 81.9924 3.34135 81.9924 6.75103V9.09522C81.9924 12.5049 80.1813 14.2098 76.8316 14.2098H71.4016V1.63651H76.8316ZM73.4788 12.3287H76.8482C78.9458 12.3287 79.9318 11.2519 79.9318 9.16625V6.68001C79.9318 4.59725 78.9286 3.51752 76.8482 3.51752H73.4788V12.3287Z" fill="#7A8AA0"/>
<path d="M85.8808 1.63651V12.3287H93.4416V14.2154H83.8062V1.63651H85.8808Z" fill="#7A8AA0"/>
<path d="M113.626 1.63651C115.794 1.63651 117.31 2.9123 117.31 4.96095C117.31 6.77662 116.145 7.51822 115.229 7.78248V7.96148C115.862 8.11426 116.421 8.48336 116.81 9.00524C117.2 9.52706 117.396 10.1689 117.363 10.82C117.363 12.9396 115.802 14.2296 113.654 14.2296H106.699V1.63651H113.626ZM108.776 6.96418H113.41C114.575 6.96418 115.329 6.28221 115.329 5.23941C115.329 4.19662 114.558 3.53457 113.41 3.53457H108.776V6.96418ZM108.776 12.3372H113.447C114.646 12.3372 115.383 11.6553 115.383 10.5955C115.383 9.53561 114.646 8.83377 113.399 8.83377H108.776V12.3372Z" fill="#7A8AA0"/>
<path d="M27.5086 7.00067L26.9163 6.85861C25.2527 6.51479 24.2863 6.08574 24.2863 4.90656C24.2863 3.79272 25.2443 3.1534 26.9106 3.1534C28.7981 3.1534 29.7956 3.9348 29.7956 5.40948V5.73909H31.9268V5.40948C31.9268 2.96872 30.0054 1.4514 26.9106 1.4514C23.9689 1.4514 22.1552 2.80391 22.1552 4.97475C22.1552 7.24789 23.8867 8.05202 26.4883 8.57767L27.0779 8.70268C28.9511 9.09476 29.9657 9.52954 29.9657 10.7087C29.9657 11.9333 28.8321 12.6977 26.9843 12.6977C24.9212 12.6977 23.7847 11.7686 23.7847 10.0836V9.98696H21.6536V10.0893C21.6536 12.7517 23.6969 14.4082 26.9843 14.4082C30.0422 14.4082 32.0855 12.9023 32.0855 10.6633C32.0997 8.71972 30.7252 7.6258 27.5086 7.00067Z" fill="#7A8AA0"/>
<path d="M124.42 7.00067L123.831 6.85861C122.164 6.51479 121.2 6.08574 121.2 4.90656C121.2 3.79272 122.156 3.1534 123.825 3.1534C125.71 3.1534 126.707 3.9348 126.707 5.40948V5.73909H128.827V5.40948C128.827 2.96872 126.906 1.4514 123.814 1.4514C120.892 1.4514 119.07 2.80391 119.07 4.97475C119.07 7.24789 120.801 8.05202 123.4 8.57767L123.992 8.70268C125.865 9.09476 126.88 9.52954 126.88 10.7087C126.88 11.9333 125.747 12.6977 123.899 12.6977C121.835 12.6977 120.699 11.7686 120.699 10.0836V9.98696H118.568V10.0893C118.568 12.7517 120.608 14.4082 123.899 14.4082C126.957 14.4082 129 12.9023 129 10.6633C129.011 8.71972 127.639 7.6258 124.42 7.00067Z" fill="#7A8AA0"/>
<path d="M49.5799 9.39924L51.8329 1.63651H49.7953L46.1025 14.2154H48.2366L49.0782 11.2859L49.5799 9.39924Z" fill="#7A8AA0"/>
<path d="M54.0802 9.39924L51.8271 1.63651H53.8648L57.5547 14.2154H55.4235L54.5818 11.2859L54.0802 9.39924Z" fill="#7A8AA0"/>
<path d="M97.5258 9.39924L99.7784 1.63651H97.7408L94.051 14.2154H96.1825L97.0242 11.2859L97.5258 9.39924Z" fill="#7A8AA0"/>
<path d="M102.026 9.39924L99.7727 1.63651H101.81L105.503 14.2154H103.369L102.528 11.2859L102.026 9.39924Z" fill="#7A8AA0"/>
<path fill-rule="evenodd" clip-rule="evenodd" d="M12.4515 0.428757L0.72998 6.11441V12.1808H6.78059L12.4515 0.428757ZM7.49761 15.4229L15.9486 11.3256V6.95269H11.5871L7.49761 15.4229Z" fill="#7A8AA0"/>
</svg>
