<svg width="200" height="84" viewBox="0 0 200 84" fill="none" xmlns="http://www.w3.org/2000/svg">
<path d="M53.9425 39.2349C55.0359 39.2349 55.9128 39.5108 56.5732 40.0627C57.2335 40.6145 57.6449 41.3503 57.8073 42.2701H55.6638C55.5772 41.8373 55.3823 41.491 55.0792 41.2313C54.7761 40.9716 54.381 40.8418 53.8938 40.8418C53.5041 40.8418 53.201 40.9337 52.9845 41.1177C52.768 41.3016 52.6597 41.5505 52.6597 41.8643C52.6597 42.1132 52.7463 42.3133 52.9195 42.4648C53.0927 42.6164 53.3092 42.7353 53.5691 42.8219C53.8289 42.9085 54.2024 43.0112 54.6895 43.1303C55.3715 43.2818 55.9236 43.4441 56.3458 43.6173C56.7788 43.7796 57.1469 44.0446 57.4501 44.4125C57.7639 44.7697 57.921 45.2566 57.921 45.8733C57.921 46.6417 57.6179 47.2638 57.0116 47.7399C56.4162 48.216 55.6097 48.4541 54.5921 48.4541C53.4229 48.4541 52.4865 48.1944 51.7828 47.6749C51.0792 47.1447 50.6516 46.3927 50.5 45.4189H52.6922C52.7463 45.8625 52.9412 46.2142 53.2768 46.4738C53.6124 46.7228 54.0508 46.8472 54.5921 46.8472C54.9818 46.8472 55.2795 46.7552 55.4852 46.5713C55.6909 46.3765 55.7937 46.1276 55.7937 45.8247C55.7937 45.565 55.7017 45.354 55.5177 45.1916C55.3445 45.0293 55.1225 44.9049 54.8519 44.8184C54.5921 44.7318 54.2186 44.629 53.7314 44.51C53.0603 44.3584 52.5136 44.207 52.0914 44.0555C51.68 43.8932 51.3227 43.6389 51.0196 43.2926C50.7273 42.9464 50.5812 42.4703 50.5812 41.8643C50.5812 41.0852 50.8789 40.4522 51.4743 39.9653C52.0697 39.4784 52.8925 39.2349 53.9425 39.2349Z" fill="#7A8AA0"/>
<path d="M64.2072 46.3765V48.3405H63.0056C61.9989 48.3405 61.2248 48.0969 60.6835 47.6101C60.153 47.1231 59.8879 46.3115 59.8879 45.1754V41.28H58.6375V39.3485H59.8879V37.1249H62.1774V39.3485H64.191V41.28H62.1774V45.2079C62.1774 45.6407 62.264 45.9437 62.4372 46.1168C62.6105 46.2899 62.9028 46.3765 63.3141 46.3765H64.2072Z" fill="#7A8AA0"/>
<path d="M69.153 39.2349C69.9108 39.2349 70.5603 39.4134 71.1016 39.7705C71.6428 40.1276 72.0272 40.6091 72.2545 41.2151V39.3485H74.5279V48.3405H72.2545V46.4577C72.0272 47.0636 71.6428 47.5505 71.1016 47.9185C70.5603 48.2755 69.9108 48.4541 69.153 48.4541C68.3952 48.4541 67.7132 48.2701 67.1069 47.9022C66.5007 47.5344 66.0244 47.004 65.678 46.3115C65.3424 45.6083 65.1746 44.7859 65.1746 43.8445C65.1746 42.903 65.3424 42.0862 65.678 41.3936C66.0244 40.6903 66.5007 40.1547 67.1069 39.7867C67.7132 39.4188 68.3952 39.2349 69.153 39.2349ZM69.8674 41.2313C69.153 41.2313 68.5792 41.4639 68.1462 41.9292C67.7132 42.3946 67.4966 43.033 67.4966 43.8445C67.4966 44.6561 67.7132 45.2945 68.1462 45.7597C68.5792 46.2142 69.153 46.4415 69.8674 46.4415C70.5603 46.4415 71.1287 46.2088 71.5725 45.7435C72.0272 45.2674 72.2545 44.6343 72.2545 43.8445C72.2545 43.0437 72.0272 42.4107 71.5725 41.9455C71.1287 41.4694 70.5603 41.2313 69.8674 41.2313Z" fill="#7A8AA0"/>
<path d="M81.6386 48.3405L78.6669 44.4125V48.3405H76.3773V36.3296H78.6669V43.0816L81.6223 39.3485H84.3341L80.5506 43.8282L84.4315 48.3405H81.6386Z" fill="#7A8AA0"/>
<path d="M93.7778 43.5036C93.7778 43.7309 93.7507 43.9905 93.6966 44.2827H87.1038C87.1362 45.0834 87.3528 45.6731 87.7533 46.0519C88.1539 46.4306 88.6519 46.6199 89.2472 46.6199C89.7778 46.6199 90.2161 46.4901 90.5626 46.2304C90.9198 45.9708 91.1472 45.619 91.2446 45.1754H93.6641C93.545 45.8031 93.2906 46.3656 92.9009 46.8635C92.5112 47.3612 92.0077 47.7507 91.3907 48.0321C90.7845 48.3134 90.1079 48.4541 89.3609 48.4541C88.484 48.4541 87.7046 48.2701 87.0226 47.9022C86.3406 47.5235 85.8101 46.9879 85.4313 46.2954C85.0523 45.6029 84.8629 44.7859 84.8629 43.8445C84.8629 42.903 85.0523 42.0862 85.4313 41.3936C85.8101 40.6903 86.3406 40.1547 87.0226 39.7867C87.7046 39.4188 88.484 39.2349 89.3609 39.2349C90.2486 39.2349 91.0226 39.4188 91.683 39.7867C92.3542 40.1547 92.8684 40.6632 93.2256 41.3125C93.5937 41.9509 93.7778 42.6812 93.7778 43.5036ZM91.472 43.2764C91.5044 42.5406 91.3095 41.9833 90.8873 41.6046C90.476 41.2259 89.9672 41.0365 89.3609 41.0365C88.7438 41.0365 88.2243 41.2259 87.8021 41.6046C87.3799 41.9833 87.1471 42.5406 87.1038 43.2764H91.472Z" fill="#7A8AA0"/>
<path d="M108.055 39.3485L105.635 48.3405H103.102L101.17 41.7994L99.1884 48.3405H96.6553L94.252 39.3485H96.5416L98.003 46.2954L100 39.3485H102.42L104.433 46.2954L105.911 39.3485H108.055Z" fill="#7A8AA0"/>
<path d="M111.26 39.3485V48.3405H108.97V39.3485H111.26Z" fill="#7A8AA0"/>
<path d="M117.912 46.3765V48.3405H116.711C115.704 48.3405 114.93 48.0969 114.389 47.6101C113.858 47.1231 113.593 46.3115 113.593 45.1754V41.28H112.343V39.3485H113.593V37.1249H115.882V39.3485H117.896V41.28H115.882V45.2079C115.882 45.6407 115.969 45.9437 116.142 46.1168C116.315 46.2899 116.608 46.3765 117.019 46.3765H117.912Z" fill="#7A8AA0"/>
<path d="M124.693 39.2187C125.732 39.2187 126.56 39.5595 127.177 40.2412C127.794 40.9229 128.103 41.8805 128.103 43.1141V48.3405H125.83V43.3737C125.83 42.6596 125.646 42.1078 125.278 41.7182C124.909 41.3179 124.406 41.1177 123.767 41.1177C123.118 41.1177 122.598 41.3287 122.208 41.7507C121.819 42.1726 121.624 42.7787 121.624 43.5686V48.3405H119.334V36.3296H121.624V41.1501C121.862 40.5442 122.252 40.0735 122.793 39.7381C123.345 39.3918 123.978 39.2187 124.693 39.2187Z" fill="#7A8AA0"/>
<path d="M129.096 47.1719C129.096 46.8472 129.215 46.5713 129.454 46.344C129.692 46.106 129.962 45.987 130.266 45.987C130.547 45.987 130.807 46.106 131.045 46.344C131.283 46.5713 131.402 46.8472 131.402 47.1719C131.402 47.5073 131.283 47.7885 131.045 48.0158C130.818 48.2323 130.558 48.3405 130.266 48.3405C129.962 48.3405 129.692 48.2323 129.454 48.0158C129.215 47.7994 129.096 47.5181 129.096 47.1719Z" fill="#7A8AA0"/>
<path d="M141.064 39.3485V48.3405H138.774V46.5226C138.536 47.1285 138.141 47.6046 137.589 47.9509C137.047 48.2864 136.42 48.4541 135.705 48.4541C134.666 48.4541 133.838 48.1132 133.221 47.4315C132.604 46.7498 132.295 45.7976 132.295 44.5749V39.3485H134.568V44.3152C134.568 45.0293 134.752 45.5866 135.121 45.987C135.489 46.3765 135.987 46.5713 136.614 46.5713C137.275 46.5713 137.8 46.3603 138.19 45.9383C138.579 45.5163 138.774 44.9104 138.774 44.1204V39.3485H141.064Z" fill="#7A8AA0"/>
<path d="M146.022 39.2349C147.115 39.2349 147.992 39.5108 148.652 40.0627C149.313 40.6145 149.724 41.3503 149.886 42.2701H147.743C147.656 41.8373 147.461 41.491 147.158 41.2313C146.855 40.9716 146.46 40.8418 145.973 40.8418C145.583 40.8418 145.28 40.9337 145.064 41.1177C144.847 41.3016 144.739 41.5505 144.739 41.8643C144.739 42.1132 144.825 42.3133 144.999 42.4648C145.172 42.6164 145.388 42.7353 145.648 42.8219C145.908 42.9085 146.281 43.0112 146.769 43.1303C147.451 43.2818 148.003 43.4441 148.425 43.6173C148.858 43.7796 149.226 44.0446 149.529 44.4125C149.843 44.7697 150 45.2566 150 45.8733C150 46.6417 149.697 47.2638 149.091 47.7399C148.495 48.216 147.689 48.4541 146.671 48.4541C145.502 48.4541 144.566 48.1944 143.862 47.6749C143.158 47.1447 142.731 46.3927 142.579 45.4189H144.771C144.825 45.8625 145.02 46.2142 145.356 46.4738C145.691 46.7228 146.13 46.8472 146.671 46.8472C147.061 46.8472 147.359 46.7552 147.564 46.5713C147.77 46.3765 147.873 46.1276 147.873 45.8247C147.873 45.565 147.781 45.354 147.597 45.1916C147.424 45.0293 147.202 44.9049 146.931 44.8184C146.671 44.7318 146.298 44.629 145.81 44.51C145.139 44.3584 144.593 44.207 144.17 44.0555C143.759 43.8932 143.402 43.6389 143.099 43.2926C142.806 42.9464 142.66 42.4703 142.66 41.8643C142.66 41.0852 142.958 40.4522 143.553 39.9653C144.149 39.4784 144.972 39.2349 146.022 39.2349Z" fill="#7A8AA0"/>
<path d="M108.954 36.7308C108.954 36.4062 109.073 36.1303 109.311 35.903C109.55 35.665 109.82 35.546 110.123 35.546C110.405 35.546 110.665 35.665 110.903 35.903C111.141 36.1303 111.26 36.4062 111.26 36.7308C111.26 37.0663 111.141 37.3476 110.903 37.5748C110.675 37.7912 110.416 37.8994 110.123 37.8994C109.82 37.8994 109.55 37.7912 109.311 37.5748C109.073 37.3584 108.954 37.0771 108.954 36.7308Z" fill="#7A8AA0"/>
</svg>
