<svg xmlns="http://www.w3.org/2000/svg" width="400" height="400" fill="#7A8AA0"><path d="M221.94 166.625h30.292v3.746c0 30.033-24.266 54.433-54.302 54.587-28.192.135-64.095.227-99.587.074-30.443-.114-55.053-24.855-55.053-55.297v-5.008c0-28.516 23.108-51.623 51.622-51.623h23.513c8.674 0 15.714 7.028 15.714 15.71 0 8.679-7.04 15.708-15.714 15.708H93.628c-10.24 0-18.545 8.311-18.545 18.542v8.413c0 12.642 10.256 22.901 22.896 22.901h101.232c12.598 0 22.792-10.229 22.744-22.829l-.015-4.924z"/><path d="M178.059 171.591H147.76v-3.745c0-30.042 24.272-54.433 54.311-54.578 28.188-.141 64.09-.232 99.582-.092 30.45.124 55.058 24.863 55.058 55.307v5.007c0 28.504-23.125 51.62-51.623 51.62h-23.515c-8.671 0-15.706-7.027-15.706-15.715 0-8.673 7.035-15.702 15.706-15.702h24.803c10.237 0 18.54-8.31 18.54-18.539v-8.415c0-12.642-10.25-22.891-22.899-22.891H200.784c-12.59 0-22.792 10.22-22.744 22.818l.019 4.925zM71.703 278.785c.349 0 .65.135.904.404l2.521 2.734a13.854 13.854 0 01-5.149 3.973c-2.037.92-4.483 1.379-7.337 1.379-2.553 0-4.848-.436-6.885-1.309-2.038-.871-3.778-2.084-5.22-3.639-1.443-1.553-2.549-3.408-3.318-5.564s-1.153-4.512-1.153-7.064c0-2.584.428-4.949 1.284-7.098.856-2.148 2.061-4 3.615-5.555 1.554-1.553 3.413-2.762 5.577-3.627 2.164-.863 4.554-1.295 7.17-1.295 2.553 0 4.784.408 6.695 1.225s3.547 1.898 4.911 3.246l-2.14 2.973c-.127.189-.29.357-.488.5s-.472.213-.82.213c-.365 0-.737-.143-1.118-.428-.38-.285-.864-.594-1.451-.928-.586-.332-1.328-.643-2.224-.928-.896-.285-2.033-.428-3.413-.428-1.618 0-3.104.281-4.459.844a9.95 9.95 0 00-3.496 2.414c-.975 1.047-1.736 2.32-2.283 3.818s-.821 3.184-.821 5.053c0 1.936.274 3.656.821 5.162s1.288 2.773 2.224 3.805 2.037 1.82 3.306 2.367 2.632.82 4.091.82c.872 0 1.661-.049 2.367-.143a10.059 10.059 0 001.95-.453 8.546 8.546 0 001.688-.797 10.508 10.508 0 001.582-1.201c.158-.143.325-.256.5-.344.172-.086.362-.129.569-.129zM79.622 286.895v-35.342h5.875v13.58c.951-.902 1.998-1.633 3.14-2.188s2.481-.832 4.019-.832c1.332 0 2.513.227 3.544.678a6.994 6.994 0 012.58 1.902c.69.816 1.213 1.793 1.57 2.926.357 1.133.535 2.383.535 3.746v15.529H95.01v-15.529c0-1.49-.345-2.645-1.035-3.461-.689-.816-1.724-1.225-3.104-1.225-1.015 0-1.966.23-2.854.689-.888.461-1.728 1.086-2.521 1.879v17.646h-5.874zM125.784 286.895h-2.64c-.555 0-.991-.082-1.308-.25-.317-.166-.555-.502-.713-1.01l-.523-1.736c-.618.555-1.225 1.043-1.819 1.463s-1.209.773-1.843 1.059a9.439 9.439 0 01-2.021.641c-.713.145-1.506.215-2.378.215-1.031 0-1.982-.139-2.854-.418-.872-.277-1.621-.695-2.248-1.252s-1.114-1.248-1.462-2.076c-.349-.828-.523-1.789-.523-2.887 0-.924.242-1.834.726-2.732.483-.898 1.288-1.711 2.414-2.434 1.125-.725 2.624-1.324 4.495-1.803 1.871-.477 4.194-.715 6.969-.715v-1.439c0-1.645-.345-2.863-1.035-3.654-.689-.791-1.693-1.186-3.008-1.186-.952 0-1.745.111-2.378.332a9.29 9.29 0 00-1.653.75c-.468.277-.9.527-1.296.748a2.622 2.622 0 01-1.308.334c-.396 0-.737-.104-1.022-.309a2.438 2.438 0 01-.69-.762l-1.07-1.879c2.807-2.568 6.191-3.854 10.155-3.854 1.427 0 2.7.234 3.817.703 1.118.467 2.065 1.117 2.842 1.949.776.832 1.367 1.828 1.771 2.984.404 1.158.606 2.426.606 3.807v15.411zm-11.415-3.663c.602 0 1.157-.055 1.665-.164s.987-.273 1.439-.492a7.495 7.495 0 001.308-.807c.42-.32.844-.699 1.272-1.137v-4.084c-1.712 0-3.144.107-4.293.324-1.15.215-2.073.49-2.771.826-.698.336-1.193.727-1.487 1.174s-.44.934-.44 1.461c0 1.039.305 1.781.916 2.229.61.448 1.407.67 2.391.67zM138.699 255.383c0 .508-.104.982-.31 1.426a3.894 3.894 0 01-2.021 1.963c-.46.199-.951.297-1.475.297-.507 0-.987-.098-1.438-.297a3.772 3.772 0 01-1.177-.797 3.827 3.827 0 01-.797-1.166 3.453 3.453 0 01-.297-1.426c0-.523.099-1.016.297-1.475s.464-.855.797-1.189a3.841 3.841 0 011.177-.797 3.56 3.56 0 011.438-.297c.523 0 1.015.1 1.475.297.46.199.86.465 1.201.797.341.334.614.73.82 1.189s.31.951.31 1.475zm-.88 7.111v24.4h-5.875v-24.4h5.875zM144.454 286.895v-24.4h3.591c.761 0 1.261.355 1.499 1.07l.404 1.926c.491-.508 1.011-.967 1.558-1.379s1.125-.77 1.736-1.07c.61-.301 1.264-.531 1.962-.689s1.458-.238 2.283-.238c1.332 0 2.513.227 3.544.678a6.994 6.994 0 012.58 1.902c.69.816 1.213 1.793 1.57 2.926.357 1.133.535 2.383.535 3.746v15.529h-5.875v-15.529c0-1.49-.345-2.645-1.035-3.461-.689-.816-1.724-1.225-3.104-1.225-1.015 0-1.966.23-2.854.689-.888.461-1.728 1.086-2.521 1.879v17.646h-5.873zM181.912 262.113c1.823 0 3.476.293 4.959.879 1.482.588 2.747 1.42 3.793 2.498s1.855 2.395 2.426 3.947c.571 1.555.856 3.291.856 5.209 0 1.936-.285 3.68-.856 5.232-.571 1.555-1.379 2.877-2.426 3.973-1.046 1.094-2.311 1.934-3.793 2.52-1.483.588-3.136.881-4.959.881s-3.48-.293-4.971-.881c-1.49-.586-2.763-1.426-3.817-2.52-1.055-1.096-1.871-2.418-2.45-3.973-.579-1.553-.868-3.297-.868-5.232 0-1.918.289-3.654.868-5.209.579-1.553 1.395-2.869 2.45-3.947 1.054-1.078 2.327-1.91 3.817-2.498 1.49-.586 3.147-.879 4.971-.879zm0 20.619c2.029 0 3.532-.682 4.507-2.045s1.463-3.361 1.463-5.994c0-2.631-.488-4.637-1.463-6.016-.975-1.381-2.478-2.07-4.507-2.07-2.061 0-3.583.695-4.566 2.082s-1.474 3.389-1.474 6.004c0 2.617.491 4.611 1.474 5.982s2.505 2.057 4.566 2.057zM215.707 286.895c-.761 0-1.261-.355-1.498-1.07l-.476-2.354a14.63 14.63 0 01-1.594 1.545 9.968 9.968 0 01-1.796 1.189 9.251 9.251 0 01-2.068.773 9.962 9.962 0 01-2.391.273c-1.332 0-2.553-.277-3.662-.832-1.11-.555-2.066-1.359-2.866-2.414-.801-1.055-1.419-2.359-1.855-3.912-.437-1.555-.654-3.33-.654-5.328 0-1.807.246-3.488.737-5.041.491-1.555 1.197-2.902 2.117-4.045a9.853 9.853 0 013.306-2.674c1.284-.643 2.728-.965 4.329-.965 1.363 0 2.528.219 3.496.654a9.228 9.228 0 012.592 1.748v-12.891h5.875v35.342h-3.592zm-7.824-4.305c1.221 0 2.26-.254 3.115-.76.856-.508 1.665-1.229 2.426-2.166v-10.939c-.666-.809-1.391-1.379-2.176-1.713a6.434 6.434 0 00-2.533-.498c-.889 0-1.692.166-2.414.498-.722.334-1.332.838-1.831 1.512s-.884 1.529-1.153 2.568c-.27 1.037-.404 2.264-.404 3.674 0 1.428.115 2.637.345 3.627s.56 1.799.987 2.426.951 1.078 1.569 1.355 1.307.416 2.069.416zM235.732 262.113c1.537 0 2.952.246 4.245.736a9.35 9.35 0 013.342 2.152c.935.943 1.664 2.102 2.188 3.473s.785 2.938.785 4.697c0 .445-.021.813-.06 1.105-.04.295-.111.523-.214.691a.864.864 0 01-.416.355 1.762 1.762 0 01-.666.107h-15.079c.175 2.506.849 4.344 2.021 5.518 1.174 1.174 2.728 1.76 4.662 1.76.951 0 1.771-.111 2.461-.332.69-.223 1.292-.469 1.808-.738s.967-.516 1.355-.736c.389-.223.766-.334 1.13-.334.238 0 .444.049.618.143.175.096.325.23.452.404l1.713 2.141c-.65.762-1.38 1.4-2.188 1.914-.809.516-1.653.928-2.533 1.238-.88.309-1.775.525-2.688.652-.911.127-1.795.191-2.651.191-1.697 0-3.274-.281-4.732-.844-1.459-.563-2.728-1.396-3.806-2.498s-1.927-2.465-2.545-4.09-.928-3.508-.928-5.648c0-1.666.27-3.23.809-4.697s1.313-2.744 2.319-3.83 2.235-1.945 3.687-2.58c1.45-.633 3.087-.95 4.911-.95zm.119 4.209c-1.712 0-3.052.484-4.019 1.451-.968.967-1.586 2.34-1.855 4.115h11.035c0-.762-.104-1.479-.309-2.152a4.98 4.98 0 00-.951-1.773 4.55 4.55 0 00-1.618-1.201c-.65-.293-1.411-.44-2.283-.44zM284.819 252.504v5.258h-10.346v29.133h-6.397v-29.133h-10.394v-5.258h27.137zM293.786 262.113c1.537 0 2.952.246 4.245.736a9.35 9.35 0 013.342 2.152c.935.943 1.664 2.102 2.188 3.473s.785 2.938.785 4.697c0 .445-.021.813-.06 1.105-.04.295-.111.523-.214.691a.864.864 0 01-.416.355 1.762 1.762 0 01-.666.107h-15.079c.175 2.506.849 4.344 2.021 5.518 1.174 1.174 2.728 1.76 4.662 1.76.951 0 1.771-.111 2.461-.332.69-.223 1.292-.469 1.808-.738s.967-.516 1.355-.736c.389-.223.766-.334 1.13-.334.238 0 .444.049.618.143.175.096.325.23.452.404l1.713 2.141c-.65.762-1.38 1.4-2.188 1.914-.809.516-1.653.928-2.533 1.238-.88.309-1.775.525-2.688.652-.911.127-1.795.191-2.651.191-1.697 0-3.274-.281-4.732-.844-1.459-.563-2.728-1.396-3.806-2.498s-1.927-2.465-2.545-4.09-.928-3.508-.928-5.648c0-1.666.27-3.23.809-4.697s1.313-2.744 2.319-3.83 2.235-1.945 3.687-2.58c1.45-.633 3.087-.95 4.911-.95zm.118 4.209c-1.712 0-3.052.484-4.019 1.451-.968.967-1.586 2.34-1.855 4.115h11.035c0-.762-.104-1.479-.309-2.152a4.98 4.98 0 00-.951-1.773 4.55 4.55 0 00-1.618-1.201c-.649-.293-1.411-.44-2.283-.44zM326.272 267.654a2.901 2.901 0 01-.512.523c-.166.127-.408.189-.726.189a1.61 1.61 0 01-.88-.273c-.285-.182-.626-.387-1.022-.617s-.868-.436-1.415-.619c-.547-.182-1.225-.273-2.033-.273-1.031 0-1.935.188-2.712.559a5.151 5.151 0 00-1.938 1.605c-.516.699-.9 1.543-1.154 2.533-.253.992-.38 2.113-.38 3.365 0 1.301.139 2.459.416 3.473.277 1.016.678 1.867 1.201 2.557s1.157 1.213 1.902 1.57c.745.355 1.586.535 2.521.535.935 0 1.692-.115 2.271-.346.579-.23 1.066-.482 1.463-.762.396-.277.741-.529 1.035-.76.293-.23.622-.346.986-.346.476 0 .833.184 1.07.547l1.688 2.141c-.65.762-1.355 1.4-2.116 1.914a11.463 11.463 0 01-4.899 1.89 17.97 17.97 0 01-2.593.191c-1.506 0-2.925-.281-4.257-.844s-2.493-1.385-3.484-2.463-1.775-2.396-2.354-3.959-.868-3.342-.868-5.34c0-1.791.258-3.451.773-4.982.515-1.529 1.272-2.854 2.271-3.971.998-1.119 2.235-1.994 3.71-2.629s3.171-.951 5.089-.951c1.823 0 3.421.293 4.793.879a11.753 11.753 0 013.698 2.521l-1.544 2.143zM331.813 286.895v-35.342h5.874v13.58c.951-.902 1.998-1.633 3.14-2.188s2.481-.832 4.02-.832c1.331 0 2.513.227 3.543.678a6.998 6.998 0 012.581 1.902c.689.816 1.213 1.793 1.569 2.926s.535 2.383.535 3.746v15.529h-5.874v-15.529c0-1.49-.346-2.645-1.035-3.461s-1.724-1.225-3.104-1.225c-1.015 0-1.966.23-2.854.689-.889.461-1.729 1.086-2.521 1.879v17.646h-5.874z"/></svg>
