<svg width="90" height="44" fill="none" xmlns="http://www.w3.org/2000/svg"><path d="M8.636 23.7a4.908 4.908 0 00-1.302-.756c-.515-.21-1.06-.424-1.635-.606-.301-.09-.574-.182-.818-.275a3.446 3.446 0 01-.575-.273 1.29 1.29 0 01-.363-.333.608.608 0 01-.121-.393.56.56 0 01.12-.393.663.663 0 01.304-.273 1.75 1.75 0 01.424-.15c.17-.038.341-.058.514-.062.176-.002.35.03.515.091.169.052.331.122.484.21l.454.273c.133.085.255.187.364.302l.06.061c.077.053.147.114.21.182a.438.438 0 00.21.061.42.42 0 00.273-.15l1.273-1.36c.06-.091.12-.151.15-.21a.438.438 0 00.062-.21.49.49 0 00-.121-.272 2.741 2.741 0 00-.303-.333 2.974 2.974 0 00-.455-.364l-.545-.363a6.04 6.04 0 00-1.393-.545 5.789 5.789 0 00-1.452-.182 6.993 6.993 0 00-1.847.242c-.507.133-.982.37-1.392.697a3.131 3.131 0 00-.91 1.09 3.16 3.16 0 00-.303 1.422c-.001.454.08.905.242 1.33.185.405.441.774.756 1.09a5.27 5.27 0 001.272.91c.569.29 1.156.543 1.76.753.178.07.36.13.545.182.212.065.415.157.605.272.172.107.334.228.484.364a.779.779 0 01.21.454 2.337 2.337 0 01-.06.454.77.77 0 01-.243.363c-.13.116-.285.199-.454.242a2.363 2.363 0 01-.726.091 2.813 2.813 0 01-.878-.15 3.863 3.863 0 01-.848-.455c-.181-.121-.363-.272-.514-.393-.151-.121-.272-.242-.363-.303-.091-.061-.151-.122-.21-.152a.513.513 0 00-.151-.06.42.42 0 00-.273.12L.22 27.334a1.429 1.429 0 00-.152.424c0 .09.061.182.182.333h.028l.03.03h.033l.03.03.03.03c.09.091.21.21.363.394.172.183.365.345.575.484a7.977 7.977 0 001.726.938c.609.23 1.256.344 1.907.334a5.48 5.48 0 001.907-.303 4.186 4.186 0 001.544-.818 3.747 3.747 0 001.03-1.267 3.83 3.83 0 00.363-1.665 3.164 3.164 0 00-.3-1.485 3.405 3.405 0 00-.88-1.092zM20.984 19.55c-.117-.04-.24-.06-.363-.06h-2.147a.57.57 0 00-.636.454l-2.331 6.751-2.392-6.75a.784.784 0 00-.21-.334.455.455 0 00-.333-.121h-2.09a.615.615 0 00-.576.242.638.638 0 000 .575l3.997 9.808-1.33 3.421a.372.372 0 00-.06.091c-.031.03-.031.091-.031.182a.599.599 0 00.151.425c.147.112.33.166.515.15h1.937a.501.501 0 00.363-.15.727.727 0 00.21-.364l-.03.03c.09-.21.182-.514.333-.91.151-.395.333-.847.545-1.362.212-.514.424-1.09.666-1.695.243-.605.515-1.271.757-1.937.272-.666.545-1.362.818-2.058.272-.697.545-1.393.817-2.058.272-.666.545-1.33.787-1.938.242-.635.485-1.21.697-1.725a.933.933 0 00.06-.242.665.665 0 00-.03-.242c.09-.092 0-.152-.094-.182zM30.703 20.7a4.045 4.045 0 00-1.271-.998 3.868 3.868 0 00-1.696-.364c-.408 0-.815.05-1.21.151a4.037 4.037 0 00-.969.364 3.2 3.2 0 00-.696.514c-.17.15-.304.337-.394.545l-.182-.726c-.03-.091-.06-.151-.09-.242a.491.491 0 00-.122-.21.803.803 0 00-.182-.151.604.604 0 00-.272-.061h-1.27a.752.752 0 00-.485.15l.06-.03a.708.708 0 00-.21.21.498.498 0 00-.06.304v9.384a.84.84 0 00.151.485.666.666 0 00.514.182h1.908a.448.448 0 00.21-.03c.067-.036.137-.067.21-.091a.544.544 0 00.15-.21.882.882 0 00.061-.273v-5.452c.024-.243.095-.48.21-.696.125-.211.278-.405.455-.575.172-.15.366-.272.575-.364.192-.08.398-.122.605-.12.24.006.476.057.697.15.225.091.43.225.605.394.184.157.329.354.424.575.11.215.163.455.152.697v5.479a.485.485 0 00.605.605h1.937a.63.63 0 00.454-.15.77.77 0 00.151-.485V24a5.994 5.994 0 00-.272-1.82 4.049 4.049 0 00-.753-1.48zM41.573 29.084a.388.388 0 00.12-.303.181.181 0 00-.03-.12c-.03-.062-.06-.092-.09-.152l-.939-1.423c-.09-.121-.151-.21-.242-.242a.722.722 0 00-.272-.061.328.328 0 00-.151.03.64.64 0 00-.21.091c-.246.17-.51.313-.788.424a2.213 2.213 0 01-.91.182 2.068 2.068 0 01-.968-.21 2.853 2.853 0 01-.757-.545 2.584 2.584 0 01-.484-.848 3.009 3.009 0 010-2.058c.106-.31.27-.598.484-.847.203-.25.462-.447.757-.576.302-.144.634-.216.968-.21.31.004.617.055.91.151.277.1.541.233.788.394.077.046.158.087.242.12.057.026.12.036.182.031a.707.707 0 00.575-.424l.757-1.272a.676.676 0 00.09-.303.483.483 0 00-.12-.363.826.826 0 00-.303-.242l.03.03a5.446 5.446 0 00-1.453-.727 6.037 6.037 0 00-1.695-.242 5.622 5.622 0 00-1.453.182 4.941 4.941 0 00-1.302.545c-.405.238-.78.523-1.12.848a4.373 4.373 0 00-.847 1.12 4.741 4.741 0 00-.546 1.33 6.053 6.053 0 00-.21 1.483 4.885 4.885 0 00.21 1.483c.119.466.302.914.546 1.33a5.121 5.121 0 001.968 1.967c.405.244.844.427 1.301.546.475.123.963.184 1.453.181a4.71 4.71 0 001.725-.303 6.439 6.439 0 001.514-.756c.083-.088.173-.169.27-.24zM43.146 30.147h2.392a.403.403 0 00.303-.091.37.37 0 00.09-.272v-7.206a552.85 552.85 0 012.21 3.663 537.111 537.111 0 002.211 3.664c.053.076.114.146.182.21a.223.223 0 00.182.06h2.694a.37.37 0 00.273-.09.3.3 0 00.09-.243V18.038a.297.297 0 00-.12-.273.511.511 0 00-.303-.09h-2.392a.343.343 0 00-.242.09.313.313 0 00-.121.242v6.72c-.727-1.151-1.423-2.271-2.12-3.39-.696-1.12-1.392-2.24-2.119-3.391a.514.514 0 00-.454-.272h-2.755a.295.295 0 00-.272.12.37.37 0 00-.09.273v11.747c-.003.09.03.176.09.242a.37.37 0 00.271.09z" fill="#7A8AA0"/><path d="M64.396 20.913a4.964 4.964 0 00-.757-.636 39.81 39.81 0 001.12-9.687 19.081 19.081 0 00-.817-5.48 9.88 9.88 0 00-1.272-2.603A5.233 5.233 0 0060.252.603a4.935 4.935 0 00-3.03-.063 8.22 8.22 0 00-2.543 1.21 18.758 18.758 0 00-3.905 3.664 40.405 40.405 0 00-5.419 8.958 39.61 39.61 0 016.024-8.38 16.988 16.988 0 013.935-3.15c1.423-.817 3.088-1.21 4.33-.635 1.24.575 1.967 1.998 2.33 3.542.346 1.6.448 3.243.304 4.874a37.603 37.603 0 01-1.696 8.749h-.06c-.5-.002-.999.06-1.484.181a5.137 5.137 0 00-1.33.546 5.121 5.121 0 00-1.967 1.968 4.743 4.743 0 00-.545 1.33 6.052 6.052 0 00-.21 1.483 4.884 4.884 0 00.21 1.483c.119.466.302.914.545 1.33.23.41.516.786.848 1.12.105.097.216.188.333.271a41.733 41.733 0 01-3.118 5.994 23.89 23.89 0 01-5.055 5.934 7.41 7.41 0 01-3.33 1.604 3.449 3.449 0 01-3.179-1.241 8.115 8.115 0 01-1.635-3.542 22.193 22.193 0 01-.514-4.027 20.854 20.854 0 00.09 4.118 9.18 9.18 0 001.394 3.965 4.615 4.615 0 001.664 1.483 4.48 4.48 0 002.24.485 9.087 9.087 0 004.178-1.453 25.778 25.778 0 006.145-5.873 45.657 45.657 0 004.027-6.146c.22.026.443.036.666.03.49.004.979-.058 1.453-.181a4.94 4.94 0 001.302-.546 5.12 5.12 0 001.967-1.968c.243-.415.427-.863.545-1.33.131-.483.202-.981.21-1.483a5.71 5.71 0 00-.424-2.179c-.25-.68-.642-1.3-1.152-1.815zm-1.725 4.965c-.106.31-.27.598-.484.847-.205.24-.464.428-.757.545-.312.148-.654.22-.999.21a2.11 2.11 0 01-.998-.21 2.853 2.853 0 01-.757-.545 2.585 2.585 0 01-.484-.848 3.01 3.01 0 010-2.058c.106-.31.27-.598.484-.847.203-.25.462-.447.756-.576a2.46 2.46 0 011.999 0c.288.14.545.335.756.576.44.523.668 1.193.636 1.877.026.35-.026.701-.152 1.029zM77.322 16.493a.757.757 0 00-.21-.121.712.712 0 00-.243-.061h-1.877a.596.596 0 00-.484.182c-.1.13-.152.29-.151.454v3.511a2.41 2.41 0 00-.515-.454 2.301 2.301 0 00-.575-.363 4.706 4.706 0 00-.696-.242 3.64 3.64 0 00-.848-.091c-.727 0-1.448.144-2.119.424a4.926 4.926 0 00-1.665 1.18 5.713 5.713 0 00-1.485 3.937c-.01.745.124 1.485.393 2.18.261.643.63 1.236 1.09 1.756a5.18 5.18 0 001.665 1.18c.67.286 1.391.43 2.12.425.277.008.553-.032.817-.122.25-.067.493-.158.726-.272.219-.12.43-.251.635-.393.182-.151.364-.303.515-.454l.151.393c.061.121.091.21.121.272a.49.49 0 00.121.21.302.302 0 00.151.121c.088.029.18.04.273.03h1.635c.454 0 .666-.21.666-.635V16.947a.885.885 0 00-.061-.273.804.804 0 00-.15-.181zm-2.755 8.446a2.691 2.691 0 01-.242.999 2.52 2.52 0 01-.576.787 3.85 3.85 0 01-.817.545 2.782 2.782 0 01-.999.182 2.192 2.192 0 01-.999-.21 2.853 2.853 0 01-.756-.545 2.586 2.586 0 01-.484-.848 3.01 3.01 0 010-2.058c.106-.31.27-.598.484-.847.203-.25.462-.447.757-.576.311-.147.653-.22.998-.21a2.55 2.55 0 011.06.21c.315.138.603.333.847.576.237.243.422.531.545.847.131.328.202.677.21 1.03v.12l-.028-.002zM88.859 23.062a4.19 4.19 0 00-.545-1.18 6.776 6.776 0 00-.82-1.03 7.036 7.036 0 00-1.06-.817 5.637 5.637 0 00-1.24-.514 4.94 4.94 0 00-1.362-.182 4.56 4.56 0 00-1.453.21c-.45.129-.878.323-1.272.575a4.96 4.96 0 00-1.06.878 6.276 6.276 0 00-.817 1.12c-.22.412-.393.849-.515 1.301a5.554 5.554 0 00-.181 1.423c-.008.75.147 1.494.454 2.18a5.458 5.458 0 001.24 1.755c.52.49 1.126.88 1.787 1.15.693.278 1.432.422 2.179.425a4.863 4.863 0 001.967-.393 5.37 5.37 0 001.665-1.06.708.708 0 00.21-.21.51.51 0 00.091-.303.384.384 0 00-.03-.182 1.741 1.741 0 00-.12-.21L87.097 27a1.324 1.324 0 00-.242-.21.327.327 0 00-.21-.09.56.56 0 00-.21.06 2.79 2.79 0 00-.242.152 2.272 2.272 0 01-.939.545c-.21.06-.393.12-.605.182-.21.035-.422.055-.635.06a3.387 3.387 0 01-.727-.09 2.476 2.476 0 01-.726-.303 2.695 2.695 0 01-.605-.576 2.03 2.03 0 01-.334-.91h6.055c.264.003.527-.017.787-.06.15-.026.289-.1.394-.21a.677.677 0 00.12-.455v-.73c.052-.438.011-.881-.12-1.302zm-7.084.363c.106-.2.228-.393.363-.575a2.45 2.45 0 01.485-.484c.173-.15.366-.272.575-.364.201-.083.418-.125.636-.12.267-.012.535.029.787.12.217.081.421.193.605.334.177.145.339.308.485.484.148.19.28.392.393.605h-4.329z" fill="#7A8AA0"/></svg>
