<svg version="1.0" xmlns="http://www.w3.org/2000/svg" width="933.333" height="266.667" viewBox="0 0 700 200" fill="#7A8AA0"><path d="M12 100v88h676V12H12v88zm666 0v78H22V22h656v78z"/><path d="M203.3 56.7c-1.5.3-2.3 1.2-2.3 2.4 0 1.4.7 1.9 3 1.9 1.7 0 3.9.9 5 2 1.9 1.9 2 3.3 2 33.8 0 23.4-.3 32.1-1.2 33-.7.7-3.5 1.2-6.3 1.2-8.2 0-8.3-.4-8.7-21.7l-.3-18.2-2.9-3c-8.5-8.9-30.4-5.1-33.1 5.6-.9 3.7 1.8 7.3 5.5 7.3 3.9 0 6.3-3.5 5.4-7.9-.8-4 .5-5.1 6.4-5.1 6.5 0 9.4 3.3 9 10.3l-.3 5.2-10.2 3.6c-11.9 4.2-14.7 5.8-16.9 10.1-2.3 4.4-1.4 12.1 1.6 15.3 5.4 5.7 15.7 5.4 23.3-.6 2.6-2.1 3.7-2.6 3.7-1.5 0 .8 1.2 2.4 2.8 3.6 2.3 1.9 3.5 2.1 8.2 1.6 3-.3 11.5-.5 18.8-.5 12.6 0 13.2-.1 13.2-2.1 0-1.2-.7-2-1.8-2-1 0-2.8-.7-4-1.6-1.9-1.3-2.2-2.4-2.2-8.7 0-6.3.3-7.4 2.1-8.5 2.7-1.7 3-1.5 12.4 12l7.2 10.3 19.1.3c16.2.2 19.2 0 19.2-1.2 0-.8-1.7-2.3-3.7-3.3l-3.8-1.8-.3-22.2-.2-22.2-20.3.2c-17.9.2-20.2.4-20.5 1.9-.2 1.1.8 2 3.2 2.8 2 .6 3.6 1.5 3.6 2 0 .4-4 5-9 10.1l-8.9 9.4-.1-27.3V56l-7.7.1c-4.3.1-8.8.4-10 .6zm58.2 35c1.9 2.4 2.1 36.3.3 38.1-1.3 1.3-5.6 1.6-8.3.6-1.5-.6-19.1-23.3-20.1-25.9-.7-1.6 9.7-11.1 15-13.8 5.4-2.7 10.6-2.4 13.1 1zM185 116.9v9l-3.2 2.3c-4.3 3-11.3 3.2-13.4.4-1.9-2.7-1.8-9.6.2-12.5 1.6-2.2 12.6-8.1 15.2-8.1.9 0 1.2 2.5 1.2 8.9zM610.3 56.7c-3.3.6-3.1 4.3.1 4.3 4.8 0 7.4 1.7 8.5 5.7.9 3.2 1.6 19.3.9 19.3-.2 0-2.1-.7-4.3-1.5-13.5-4.8-27.9 3.2-32 17.7-4.4 15.7 3.8 31.1 18.2 34.2 4 .9 10-.7 14.7-3.9l3.6-2.4v2.4c0 2.4.3 2.5 6.4 2.5 8.8 0 12.8-.9 12.4-2.8-.2-.9-1.8-1.9-3.6-2.3-1.8-.4-3.6-1-4-1.4-.4-.4-.9-16.7-1.2-36.3l-.5-35.7-8.5-.1c-4.7-.1-9.5 0-10.7.3zm4.5 32.9c4.4 3 5.2 6.4 5.2 21.3v13.9l-3 2.6c-7.2 6-16.7 3.9-21.3-4.8-1.6-3.2-2.1-5.9-2.1-12.1-.1-14.4 5-22.5 14.3-22.5 2.6 0 5.6.7 6.9 1.6zM263 59c-2.6 2.6-2.6 8.1-.2 10.3 2.5 2.3 6.8 2.1 9.2-.3 4.1-4.1 1.2-12-4.5-12-1.4 0-3.4.9-4.5 2zM86.2 61.8C76.7 65.2 72 71.6 72 81.1c0 10.5 4 14.7 20.7 21.6 5.9 2.4 11.6 5.2 12.6 6.1 7 6.3 5.9 18.5-1.8 21.8-10.9 4.5-22.7-1.7-27.7-14.7-1.6-4.1-2.8-5.9-4-5.9-1.6 0-1.8 1.2-1.8 12.5 0 12.1.1 12.5 2.1 12.5 1.2 0 2.7-.6 3.3-1.4.9-1.3 2.1-1.1 8.1.9 8.1 2.8 13.2 3.1 20.1 1 13.4-4 20.2-18.1 14.4-30.1-2.6-5.3-7.1-8.4-19.5-13.3C85.9 87 82 83.3 82 76.4c0-8.7 8.4-13.4 17.6-9.9 5.4 2 9.1 6.7 11.9 14.9 1.4 4 2.4 5.6 3.7 5.6 1.6 0 1.8-1.1 1.8-12.5 0-12.1-.1-12.5-2.1-12.5-1.2 0-2.7.7-3.3 1.5-1 1.4-1.7 1.4-5.9-.5-6.8-3-13.2-3.4-19.5-1.2zM411.4 63.5c-.8 2-.8 1.9 4.5 3.6 3.8 1.2 4.6 1.9 5.4 4.8 1.2 5 .5 55.7-.9 57.1-.6.7-3 1.4-5.3 1.7-3.1.4-4.1 1-4.1 2.4 0 1.8 1 1.9 16 1.9s16-.1 16-1.9c0-1.4-1-2.1-3.5-2.5-6.1-1.2-6.5-2.2-6.5-17.2V100h5.9c3.3 0 7.1.4 8.5 1 2.7 1 5.6 5.6 5.6 9 0 1.5.6 2 2.5 2h2.5V84h-2.5c-2 0-2.5.5-2.5 2.6 0 1.5-1.2 3.8-2.9 5.5-2.7 2.7-3.5 2.9-10 2.9H433V67h10.8c12.6 0 13.8.6 18.4 8.6 2 3.7 3.6 5.4 4.7 5.2 1.3-.3 1.6-1.8 1.6-9.3v-9l-28.3-.3c-24.8-.2-28.3 0-28.8 1.3zM130 77v8h-4.5c-4.1 0-4.5.2-4.5 2.5s.4 2.5 4.5 2.5h4.5v40.2l2.9 2.9c2.6 2.6 3.6 2.9 8.8 2.8 7.3-.1 12.7-1.9 13.1-4.5.3-1.8-.3-2-5.8-1.9-8.9 0-9-.1-9-21.7V90h7c6.8 0 7-.1 7-2.5s-.2-2.5-7-2.5h-7V69h-10v8zM310.8 84c-1.6.5-4.6 2.3-6.8 4l-4 3.2V84h-5.9c-8.6 0-12.1.9-12.1 3.1 0 1.2.7 1.9 2 1.9 1.1 0 2.9.9 4 2 1.9 1.9 2 3.3 2 19.8 0 18.8-.3 20.2-4.7 20.2-1.6 0-2.3.6-2.3 2 0 1.9.7 2 12.5 2s12.5-.1 12.5-2c0-1.2-.7-2-1.8-2-1 0-2.8-.7-4-1.6-2.1-1.5-2.2-2.1-2.2-17.3 0-15.1.1-15.8 2.3-17.8 3.4-3.2 6.2-4.3 10.6-4.3 3.1 0 4.4.6 6 2.6 1.9 2.5 2.1 4 2.1 19.4 0 17.8-.2 18.5-5 19.2-1.4.1-2.6 1.1-2.8 2-.3 1.6.8 1.8 12.7 1.8 12.1 0 13.1-.1 13.1-1.9 0-1.3-.9-2-3-2.5-4.4-.8-5-3.5-5-21.4 0-12.9-.3-16.3-1.8-19.2-2.9-5.8-10.6-8.4-18.4-6z"/><path d="M352.5 84.8c-11.6 5.4-13.9 18.8-4.5 26.3l4 3.2-2.3 1.5c-3.5 2.3-4.7 4.3-4.7 7.7 0 3.5 2.7 7 6.2 8.1 2 .6 1.7.9-2.4 2.1-12 3.5-13.2 16.4-2 21.6 3.9 1.8 6.5 2.2 15.2 2.2 9.7 0 11-.2 16.5-3 4.8-2.4 6.4-3.9 8.3-7.5 3.9-7.5 1.7-15-5.6-19.3-2.2-1.3-6.1-2-13.9-2.4-13.9-.7-18.4-3.2-13.5-7.6 1.3-1.2 3.6-1.7 7.3-1.7 13.8 0 22.9-11.8 17.4-22.4-.8-1.5-1.5-3-1.5-3.2 0-.2 2.5-.4 5.5-.4 5.1 0 5.5-.2 5.5-2.4 0-2.4-.2-2.4-10.2-3-5.7-.3-12.8-.8-15.8-1.1-4.1-.4-6.5-.1-9.5 1.3zm14.5 5.7c3.6 3.8 4 12.8.8 17.5-2.7 4.1-7.4 5.1-11.3 2.6-4.8-3.2-5.7-15.9-1.4-20.5 2.9-3.1 8.8-2.9 11.9.4zm11.3 47.7c2.9 3.9 1.5 9.4-3.3 12.6-3.1 2.1-4.4 2.3-12.2 2-7.5-.3-9-.6-11.2-2.7-1.9-1.8-2.6-3.5-2.6-6.1 0-7.3 3.4-9 16.9-8.7 10 .2 10.5.3 12.4 2.9zM552.8 84c-1.6.5-4.6 2.3-6.8 4l-4 3.2V84h-5.9c-8.6 0-12.1.9-12.1 3.1 0 1.2.7 1.9 2 1.9 1.1 0 2.9.9 4 2 1.9 1.9 2 3.3 2 19.8 0 18.8-.3 20.2-4.7 20.2-1.6 0-2.3.6-2.3 2 0 1.9.7 2 12.5 2s12.5-.1 12.5-2c0-1.2-.7-2-1.8-2-1 0-2.8-.7-4-1.6-2.1-1.5-2.2-2.1-2.2-17.3 0-15.1.1-15.8 2.3-17.8 3.4-3.2 6.2-4.3 10.6-4.3 3.1 0 4.4.6 6 2.6 1.9 2.5 2.1 4 2.1 19.4 0 17.8-.2 18.5-5 19.2-1.4.1-2.6 1.1-2.8 2-.3 1.6.8 1.8 12.7 1.8 12.1 0 13.1-.1 13.1-1.9 0-1.3-.9-2-3-2.5-4.4-.8-5-3.5-5-21.4 0-12.9-.3-16.3-1.8-19.2-2.9-5.8-10.6-8.4-18.4-6zM468.8 84.7c-2.4.6-2.4 4.3 0 4.3 1.1 0 2.7.9 3.8 2.1 1.7 1.9 2 4.2 2.4 19.8.4 14.6.8 18 2.3 20.2 4.7 6.9 15.1 7.6 23.2 1.4l4.4-3.4.3 2.7c.3 2.5.7 2.7 5.8 3 7.9.5 12-.5 12-2.7 0-1.3-1-2-3-2.5-2-.4-3.4-1.4-4-3.1-.6-1.5-1-11.6-1-22.6V84h-6.4c-9.1 0-12.6.9-12.6 3.1 0 1.4.7 1.9 2.8 1.9 5.6 0 6.2 2 6.2 19.7v16.1l-3 2.5c-5.7 4.8-13.5 4.4-15.9-.9-.7-1.6-1.1-9.7-1.1-22.4V84l-7.2.1c-4 .1-8.1.3-9 .6z"/></svg>
