<svg width="148" height="26" fill="none" xmlns="http://www.w3.org/2000/svg"><path d="M46.402 14.711v.706c0 2.016-1.441 3.024-4.324 3.024h-5.344V5.971h4.88c2.945 0 4.417.978 4.417 2.933v.723c0 1.2-.6 1.992-1.8 2.375 1.447.36 2.171 1.262 2.171 2.71zm-2.19.316v-.538c0-.643-.216-1.07-.65-1.28-.432-.223-1.05-.335-1.855-.335h-2.783v3.73h2.802c.792 0 1.404-.111 1.837-.334.433-.223.65-.637.65-1.243zm-.37-5.159v-.575c0-.594-.223-.99-.669-1.187-.433-.21-1.057-.316-1.874-.316h-2.375v3.47h2.357c.84 0 1.478-.093 1.91-.278.434-.186.65-.557.65-1.114zM49.89 18.441V5.118a6.288 6.288 0 012.152 0v13.323a6.284 6.284 0 01-2.153 0zM64.957 11.706v3.97c0 1.992-1.534 2.988-4.602 2.988-3.068 0-4.602-.996-4.602-2.988v-3.97c0-1.09.396-1.862 1.188-2.32.804-.47 1.942-.705 3.414-.705 1.472 0 2.604.235 3.396.705.804.458 1.206 1.23 1.206 2.32zm-2.153 3.507v-3.08c0-.644-.21-1.07-.63-1.281-.421-.21-1.027-.316-1.82-.316-.779 0-1.385.106-1.818.316-.42.21-.63.637-.63 1.28v3.08c0 .631.21 1.052.63 1.262.433.21 1.04.316 1.819.316.792 0 1.398-.105 1.818-.316.42-.21.631-.63.631-1.261zM68.346 15.676v-3.99c0-1.088.37-1.86 1.113-2.319.755-.457 1.837-.686 3.247-.686 1.237 0 2.35.093 3.34.278a5.496 5.496 0 010 1.8 20.246 20.246 0 00-2.969-.223c-.519 0-.946.031-1.28.093a1.832 1.832 0 00-.91.464c-.259.248-.389.594-.389 1.04v3.061c0 .445.13.792.39 1.04.272.246.575.401.91.463.333.062.76.093 1.28.093.94 0 1.93-.093 2.968-.279a4.893 4.893 0 010 1.8 16.494 16.494 0 01-3.34.353c-2.907 0-4.36-.996-4.36-2.988zM86.292 18.441l-3.21-4.453-1.578.148v4.305a6.283 6.283 0 01-2.152 0V5.118a6.287 6.287 0 012.152 0V12.3l1.763-.167 2.858-3.266c.247-.049.643-.074 1.187-.074.545 0 .94.025 1.188.074l-3.637 4.175 3.804 5.4c-.26.05-.662.075-1.206.075-.532 0-.922-.025-1.17-.075zM104.985 18.441h-8.239V5.971a9.257 9.257 0 012.19 0v10.67h6.049a4.863 4.863 0 010 1.8zM116.761 11.706v3.97c0 1.992-1.534 2.988-4.602 2.988-3.068 0-4.602-.996-4.602-2.988v-3.97c0-1.09.396-1.862 1.188-2.32.804-.47 1.942-.705 3.414-.705 1.472 0 2.604.235 3.396.705.804.458 1.206 1.23 1.206 2.32zm-2.153 3.507v-3.08c0-.644-.21-1.07-.631-1.281-.42-.21-1.026-.316-1.818-.316-.78 0-1.386.106-1.819.316-.42.21-.631.637-.631 1.28v3.08c0 .631.211 1.052.631 1.262.433.21 1.039.316 1.819.316.792 0 1.398-.105 1.818-.316.421-.21.631-.63.631-1.261zM127.312 18.998v-.854l.112-1.373h-.093c-.346 1.04-1.522 1.559-3.526 1.559-1.125 0-2.016-.223-2.672-.668-.643-.445-.965-1.15-.965-2.115v-4.083c0-1.855 1.213-2.783 3.637-2.783 2.004 0 3.18.52 3.526 1.559h.093l.167-1.374a6.792 6.792 0 011.874 0v9.946c0 1.274-.415 2.202-1.243 2.784-.829.581-2.097.872-3.804.872-1.237 0-2.456-.087-3.656-.26-.025-.693.037-1.286.186-1.781 1.138.173 2.245.26 3.321.26.94 0 1.683-.124 2.227-.372.544-.235.816-.674.816-1.317zm0-3.971v-3.043c-.247-.57-.55-.953-.909-1.15-.359-.199-.946-.297-1.763-.297-.767 0-1.348.123-1.744.37-.383.236-.575.724-.575 1.466v2.283c0 .73.192 1.212.575 1.447.396.235.977.353 1.744.353.817 0 1.404-.1 1.763-.297.359-.198.662-.575.909-1.132zM133.475 18.441v-9.5a6.291 6.291 0 012.153 0v9.5a6.286 6.286 0 01-2.153 0zm2.264-13.082l-.055 1.837a8.813 8.813 0 01-2.283 0l-.037-1.837a7.645 7.645 0 012.375 0zM139.32 15.676v-3.99c0-1.088.371-1.86 1.114-2.319.754-.457 1.837-.686 3.247-.686 1.237 0 2.35.093 3.34.278a5.49 5.49 0 010 1.8 20.248 20.248 0 00-2.969-.223c-.519 0-.946.031-1.28.093a1.838 1.838 0 00-.91.464c-.259.248-.389.594-.389 1.04v3.061c0 .445.13.792.389 1.04.273.246.576.401.91.463.334.062.761.093 1.28.093.94 0 1.93-.093 2.969-.279a4.906 4.906 0 010 1.8 16.49 16.49 0 01-3.34.353c-2.907 0-4.361-.996-4.361-2.988z" fill="#7A8AA0"/><path d="M1.164 3.949L13.524.066l-.225 17.378-12.36 3.882.225-17.377z" fill="#0061A1"/><path d="M.94 21.326l12.359-3.883L26.71 21.29l-12.36 3.883L.94 21.326zM1.164 3.949L13.524.066l13.41 3.846-12.358 3.883L1.164 3.949z" fill="#005288"/><path d="M14.575 7.795l-.223 17.377L.939 21.328l.225-17.378 13.411 3.846z" fill="#545F6E"/><path d="M14.575 7.795l12.36-3.883-.224 17.377-12.36 3.883.224-17.377z" fill="#0061A1"/><path d="M14.618 7.752l12.36-3.883-.226 17.486-12.36 3.882.226-17.485z" fill="#7A8AA0"/><path d="M1.123 3.882L13.483 0l13.495 3.87L14.62 7.752 1.123 3.882z" fill="#677587"/><path d="M1.122 3.883l13.496 3.87-.225 17.486-13.497-3.87.226-17.486zm13.23 21.29l.223-17.378L1.164 3.949.939 21.326l13.412 3.846z" fill="#004370"/><path d="M16.38 9.572l3.448-1.023-.028 9.563 5.335-1.636-.024 3.111-8.73 2.705V9.572zM12.765 19.641c-.043 2.199-1.495 2.655-3.694 1.99l-6.22-1.885.137-12.793 5.901 1.675c2.289.65 3.74 1.92 3.698 4.06l-.017.834c-.026 1.307-.574 1.91-1.506 1.998 1.107.668 1.749 1.713 1.717 3.287l-.016.834zm-3.197-7.158c.01-.641-.475-.913-1.262-1.142l-2.345-.675-.03 2.2 2.341.681c.77.224 1.273.295 1.285-.365l.01-.699zm.232 4.889c.013-.756-.564-1.059-1.238-1.256L5.9 15.33l-.032 2.406 2.673.8c.719.214 1.238.198 1.25-.5l.01-.665z" fill="#fff"/></svg>
