<svg xmlns="http://www.w3.org/2000/svg" viewBox="0 0 700.43 134.53" fill="#7A8AA0"><g id="Layer_2" data-name="Layer 2"><g id="logo"><path d="M127.64 20.92h57.64v10.19h-46.59v31.74h39.57V73h-39.57v38.3h-11zM221.44 108.57a41.84 41.84 0 01-14.38-9.69 44.42 44.42 0 01-9.19-14.63 49.24 49.24 0 01-3.32-18.17 49.28 49.28 0 013.32-18.17 44 44 0 019.19-14.59 42.05 42.05 0 0114.38-9.66 49.33 49.33 0 0136.22-.19 41.43 41.43 0 0123.79 23.85 49.73 49.73 0 013.48 18.76 49.7 49.7 0 01-3.48 18.76 41.51 41.51 0 01-23.79 23.92 49.33 49.33 0 01-36.22-.19zM253 98.91a32.63 32.63 0 0010.69-7.27 33.45 33.45 0 007.11-11.27 40.42 40.42 0 000-28.58 33.55 33.55 0 00-7.11-11.27A32.4 32.4 0 00253 33.28a33.43 33.43 0 00-13.14-2.61 34.7 34.7 0 00-11.21 1.81 31 31 0 00-9.41 5.06 34.5 34.5 0 00-11.62 17.36A39.33 39.33 0 00206 66.08a38.42 38.42 0 002.48 13.82 35.14 35.14 0 006.87 11.28 31.65 31.65 0 0010.74 7.58 33.92 33.92 0 0013.76 2.79A33.1 33.1 0 00253 98.91zM355 111.3l-23.1-34.47H315v34.47h-11V20.92h32A39.18 39.18 0 01349.42 23a23.83 23.83 0 019.35 5.91 24.52 24.52 0 015.34 8.82 33.49 33.49 0 011.77 11.18q0 11.24-5.68 18t-15.87 8.91l-.06.13 24 35.34zm-40-44.66h18q10.75 0 16.06-4.87t5.31-13.08q0-8.5-5.22-13t-14.6-4.53H315zM437.39 66.45a23.62 23.62 0 016 4.7 20.33 20.33 0 014.1 6.83 25.06 25.06 0 011.5 8.85 25.44 25.44 0 01-1.87 9.91 21 21 0 01-5.53 7.7 25.33 25.33 0 01-9.47 5.06 45 45 0 01-13.32 1.8h-32.97V20.92h29.51a50.51 50.51 0 0112 1.31 27.78 27.78 0 019.16 3.94 17.25 17.25 0 015.9 6.9 22.51 22.51 0 012.05 9.9 22.5 22.5 0 01-3.66 12.61 20.22 20.22 0 01-10.75 8v.18a25.46 25.46 0 017.35 2.69zm-40.5-6.7h18.32a28.46 28.46 0 005.19-.47 19.53 19.53 0 004.85-1.58 16.41 16.41 0 004.07-2.7 11.23 11.23 0 002.76-4.16 15.07 15.07 0 001-5.65 13.94 13.94 0 00-1.08-5.85 11.84 11.84 0 00-3.55-4.34 16.86 16.86 0 00-6.25-2.86 37.33 37.33 0 00-9.16-1h-16.15zm34.6 37.48q5.83-3.87 5.84-11.39a14.3 14.3 0 00-9.57-14.2 30.78 30.78 0 00-11.61-2h-19.26v31.43h18.76q10.01.05 15.84-3.84zM488.46 108.57a41.84 41.84 0 01-14.38-9.69 44.26 44.26 0 01-9.19-14.63 49.24 49.24 0 01-3.32-18.17 49.28 49.28 0 013.32-18.17 43.87 43.87 0 019.19-14.59 42.05 42.05 0 0114.38-9.66 49.33 49.33 0 0136.22-.19 41.43 41.43 0 0123.79 23.85A49.73 49.73 0 01552 66.08a49.7 49.7 0 01-3.48 18.76 41.51 41.51 0 01-23.79 23.92 49.33 49.33 0 01-36.22-.19zm31.59-9.66a32.49 32.49 0 0010.68-7.27 33.32 33.32 0 007.12-11.27 40.42 40.42 0 000-28.58 33.42 33.42 0 00-7.12-11.27 32.26 32.26 0 00-10.68-7.24 33.43 33.43 0 00-13.14-2.61 34.7 34.7 0 00-11.21 1.81 31 31 0 00-9.41 5.06 34.09 34.09 0 00-7.08 7.64 34.72 34.72 0 00-4.57 9.72 39.33 39.33 0 00-1.58 11.18 38.42 38.42 0 002.48 13.82 35.14 35.14 0 006.87 11.28 31.65 31.65 0 0010.74 7.58 33.92 33.92 0 0013.76 2.79 33.1 33.1 0 0013.14-2.64zM571 20.92h11v80.2h44.72v10.18H571zM642.48 20.92h55.28v10.19h-44.17v30.25h36.28v10.19h-36.28v29.57h46.84v10.18h-57.95z"/><path d="M97.38 36.8c-.24 2.75-.3 4.48-.54 6.18-1.38 9.58-5.55 16.83-11.22 24.26C71 86.32 62.51 94.08 38.83 118.26c4.36 4.1 8.42 8.69 12.71 12.86 1.72 1.68 1.56 1.67 3.19 3.41 7.72-7.53 25.38-24.91 31.14-31.83 9.57-11.48 17.78-23.53 18.27-39.26a49.69 49.69 0 00-6.76-26.64z"/><path d="M28.3 13.94c-4.3 5.16-8.55 10.3-12.71 15.53-.9 1.14-2.13 3-1.76 4 2.45 6.61-.85 11.77-3.54 17.28C6.86 57.77 3.81 65 .62 72.12c-1.43 3.21-.37 5.49 2.91 6.51a103.56 103.56 0 0012.6 3.45c5.49 1 8.71-2.36 8.87-8A18.06 18.06 0 0126.72 67c3.41-7 9.62-8.89 16.75-7.77 5.36.84 9.33-.93 12.67-4.86 1.86-2.16 3.74-4.19 5.45-6.37C68 39.64 74.43 31.29 74.31 19.69a38.92 38.92 0 011.43 5.44c1.09 8.93-3.31 16.09-8.46 22.49-7.58 9.44-18.05 23.23-46.74 51.16.78.84 2.55 2.77 3.37 3.59 4.1 4.08 7.06 7.35 11.26 11.31 28.88-30.83 31.7-32.8 41.91-45.33a150.31 150.31 0 0014.79-21.13c4-7.17 4.5-15.35-.81-22.26C80.32 11 63.34 2 50 5.05c-1.32.53-2 1-3.06 2.93C42.27 2.73 38.48-.88 30.72.19l2.41 4.49-12.88-1.23c2.57 3.59 4.33 6.18 6.22 8.66a12.66 12.66 0 001.83 1.83"/></g></g></svg>
