<svg width="44" height="45" viewBox="0 0 44 45" fill="none" xmlns="http://www.w3.org/2000/svg">
<path d="M2.57812 0.993164C1.15427 0.993164 0 2.14743 0 3.57129V16.4619C0 17.8858 1.15427 19.04 2.57813 19.04H2.83594V21.862C2.83594 22.5722 3.58978 23.0288 4.21917 22.6998L10.7686 19.2762C10.8907 19.2124 10.9895 19.1317 11.0664 19.04H23.1172C24.541 19.04 25.6953 17.8858 25.6953 16.4619V3.57129C25.6953 2.14743 24.541 0.993164 23.1172 0.993164H2.57812Z" fill="#FF4E78"/>
<circle cx="5.92969" cy="10.0166" r="2.14844" fill="white"/>
<circle cx="12.8047" cy="10.0166" r="2.14844" fill="white"/>
<circle cx="19.6797" cy="10.0166" r="2.14844" fill="white"/>
<path d="M41.4219 6.06348C42.8457 6.06348 44 7.21774 44 8.6416V21.5322C44 22.9561 42.8457 24.1104 41.4219 24.1104H41.1641V26.9324C41.1641 27.6425 40.4102 28.0991 39.7808 27.7701L33.2314 24.3465C33.1093 24.2827 33.0105 24.202 32.9336 24.1104H20.8828C19.459 24.1104 18.3047 22.9561 18.3047 21.5322V8.6416C18.3047 7.21774 19.459 6.06348 20.8828 6.06348H41.4219Z" fill="#6853BA"/>
<circle r="2.14844" transform="matrix(-1 0 0 1 38.0703 15.0869)" fill="white"/>
<circle r="2.14844" transform="matrix(-1 0 0 1 31.1953 15.0869)" fill="white"/>
<circle r="2.14844" transform="matrix(-1 0 0 1 24.3203 15.0869)" fill="white"/>
<path d="M8.76562 22.5635C7.34177 22.5635 6.1875 23.7177 6.1875 25.1416V38.0322C6.1875 39.4561 7.34177 40.6104 8.76563 40.6104H14.8891C14.9038 40.6279 14.9192 40.6452 14.9355 40.6622L18.395 44.279C18.7673 44.6682 19.389 44.6682 19.7612 44.279L23.2208 40.6622C23.237 40.6452 23.2525 40.6279 23.2671 40.6104H29.3047C30.7285 40.6104 31.8828 39.4561 31.8828 38.0322V25.1416C31.8828 23.7177 30.7285 22.5635 29.3047 22.5635H8.76562Z" fill="#34CDFA"/>
<circle cx="12.1172" cy="31.5869" r="2.14844" fill="white"/>
<circle cx="18.9922" cy="31.5869" r="2.14844" fill="white"/>
<circle cx="25.8672" cy="31.5869" r="2.14844" fill="white"/>
</svg>
