<svg width="1129" height="1129" viewBox="0 0 1129 1129" fill="none" xmlns="http://www.w3.org/2000/svg">
<g filter="url(#filter0_f_13818_77928)">
<circle cx="564.5" cy="564.5" r="400.5" fill="url(#paint0_radial_13818_77928)"/>
</g>
<circle opacity="0.5" cx="564.5" cy="484.489" r="205.806" fill="url(#paint1_linear_13818_77928)"/>
<path opacity="0.2" d="M391.894 678.982C400.652 642.517 419.462 638.217 442.018 631.038C442.018 631.038 470.289 635.13 473.034 635.414C465.147 651.905 458.154 658.453 452.922 665.368L442.196 662.15L439.636 655.653L439.58 662.327L436.38 661.33L437.567 651.953L432.323 661.098C415.507 658.998 409.96 659.17 391.894 678.982Z" fill="black"/>
<path d="M386.953 614.864C412.079 597.401 441.557 604.434 482.225 617.008C484.226 629.212 483.415 651.925 464.172 645.151C444.929 638.376 422.94 634.946 414.351 634.078L414.592 626.042L411.762 633.645L408.324 633.897L409.288 623.458C408.667 624.425 406.343 627.793 402.007 633.53C396.025 632.642 383.278 634.211 377.652 635.107C374.95 639.107 367.109 651.032 357.366 666.732C365.018 634.374 361.826 632.327 386.953 614.864Z" fill="url(#paint2_linear_13818_77928)"/>
<mask id="mask0_13818_77928" style="mask-type:alpha" maskUnits="userSpaceOnUse" x="357" y="604" width="126" height="63">
<path d="M386.953 614.864C412.079 597.401 441.557 604.434 482.225 617.008C484.226 629.212 483.415 651.925 464.172 645.151C444.929 638.376 422.94 634.946 414.351 634.078L414.592 626.042L411.762 633.645L408.324 633.897L409.288 623.458C408.667 624.425 406.343 627.793 402.007 633.53C396.025 632.642 383.278 634.211 377.652 635.107C374.95 639.107 367.109 651.032 357.366 666.732C365.018 634.374 361.826 632.327 386.953 614.864Z" fill="#C4C4C4"/>
</mask>
<g mask="url(#mask0_13818_77928)">
<path d="M359.412 641.835C366.884 637.209 372.123 636.065 380.033 634.587L360.48 675.282L345.547 674.303C347.678 665.022 353.435 645.536 359.412 641.835Z" fill="url(#paint3_linear_13818_77928)"/>
</g>
<path d="M352.445 538.276C353.038 508.7 383.176 515.696 463.204 549.395L486.563 614.97C476.139 642.511 453.209 689.845 444.874 658.852C436.539 627.858 412.274 596.807 401.183 585.155L404.359 568.142L397.946 580.696L394.95 577.695L403.069 560.362L390.741 573.397C389.526 572.099 385.592 568.255 379.567 563.258C378.327 572.656 369.26 582.453 364.881 586.176C360.538 580.068 351.97 561.936 352.445 538.276Z" fill="url(#paint4_linear_13818_77928)"/>
<mask id="mask1_13818_77928" style="mask-type:alpha" maskUnits="userSpaceOnUse" x="352" y="519" width="135" height="151">
<path d="M352.445 538.276C353.038 508.7 383.176 515.696 463.204 549.395L486.563 614.97C476.139 642.511 453.209 689.845 444.874 658.852C436.539 627.858 412.274 596.807 401.183 585.155L404.359 568.142L397.946 580.696L394.95 577.695L403.069 560.362L390.741 573.397C389.526 572.099 385.592 568.255 379.567 563.258C378.327 572.656 369.26 582.453 364.881 586.176C360.538 580.068 351.97 561.936 352.445 538.276Z" fill="#C4C4C4"/>
</mask>
<g mask="url(#mask1_13818_77928)">
<path d="M384.911 568.368C378.273 561.474 366.13 548.498 343.784 528.221L342.29 567.438L369.241 603.44C376.677 594.047 390.222 573.883 384.911 568.368Z" fill="url(#paint5_linear_13818_77928)"/>
</g>
<path opacity="0.2" d="M790.882 602.376C747.588 567.536 721.632 579.525 688.673 591.529C688.673 591.529 659.219 621.93 656.256 624.749C680.441 636.95 658.418 684.73 670.817 688.104C683.975 651.01 716.639 628.184 716.639 628.184L713.758 618.245L719.866 626.022L722.717 621.955L712.833 612.031L727.267 618.009C745.089 600.318 751.75 595.497 790.882 602.376Z" fill="black"/>
<path d="M738.615 522.694C693.329 524.963 665.122 559.908 628.807 611.482C637.511 627.608 659.03 653.516 675.467 628.145C691.903 602.773 714.588 578.838 723.876 570.042L716.317 560.834L726.522 567.19L730.782 564.372L720.199 553C721.803 553.572 727.58 555.418 737.86 558.221C744.072 551.762 760.445 542.06 767.855 538.017C774.647 540.261 794.642 547.148 820.288 556.74C782.01 525.716 783.9 520.424 738.615 522.694Z" fill="url(#paint6_linear_13818_77928)"/>
<mask id="mask2_13818_77928" style="mask-type:alpha" maskUnits="userSpaceOnUse" x="628" y="522" width="193" height="117">
<path d="M738.615 522.693C693.329 524.962 665.122 559.907 628.807 611.481C637.511 627.607 659.03 653.515 675.467 628.144C691.903 602.772 714.588 578.837 723.876 570.041L716.317 560.833L726.522 567.189L730.782 564.371L720.199 552.999C721.803 553.571 727.58 555.417 737.86 558.22C744.072 551.761 760.445 542.059 767.855 538.016C774.647 540.26 794.642 547.147 820.288 556.739C782.01 525.715 783.9 520.423 738.615 522.693Z" fill="#C4C4C4"/>
</mask>
<g mask="url(#mask2_13818_77928)">
<path d="M795.341 529.391C782.388 530.732 775.207 534.134 764.59 539.563L824.376 569.59L841.006 554.918C830.102 545.962 805.704 528.319 795.341 529.391Z" fill="url(#paint7_linear_13818_77928)"/>
</g>
<path opacity="0.2" d="M743.198 677.733C732.479 640.762 729.556 643.347 706.086 637.06C697.527 643.518 685.193 659.922 679.111 670.15C689.956 666.339 690.819 662.874 690.819 662.874L693.135 656.09L693.51 662.93L696.743 661.755L695.079 652.197L700.893 661.324C718.034 658.369 723.729 658.281 743.198 677.733Z" fill="black"/>
<path d="M724.091 607.558C694.161 598.039 667.379 613.863 631.3 638.508C633.033 651.083 640.706 673.114 657.527 660.644C674.349 648.173 694.876 638.151 703.037 634.699L700.368 626.89L705.446 633.49L708.894 632.697L704.788 622.75C705.689 623.51 708.989 626.11 714.978 630.424C720.576 627.741 733.553 625.421 739.342 624.597C743.204 627.701 754.504 637.023 768.814 649.471C751.512 620.052 754.022 617.078 724.091 607.558Z" fill="url(#paint8_linear_13818_77928)"/>
<mask id="mask3_13818_77928" style="mask-type:alpha" maskUnits="userSpaceOnUse" x="631" y="604" width="138" height="61">
<path d="M724.091 607.558C694.161 598.039 667.379 613.863 631.3 638.508C633.033 651.083 640.706 673.114 657.527 660.644C674.349 648.173 694.876 638.151 703.037 634.699L700.368 626.89L705.446 633.49L708.894 632.697L704.788 622.75C705.689 623.51 708.989 626.11 714.978 630.424C720.576 627.741 733.553 625.421 739.342 624.597C743.204 627.701 754.504 637.023 768.814 649.471C751.512 620.052 754.022 617.078 724.091 607.558Z" fill="#C4C4C4"/>
</mask>
<g mask="url(#mask3_13818_77928)">
<path d="M759.268 625.674C750.539 623.4 745.055 623.864 736.849 624.809L768.348 658.802L782.698 653.319C777.798 644.863 766.252 627.494 759.268 625.674Z" fill="url(#paint9_linear_13818_77928)"/>
</g>
<path d="M567.859 301.797C560.552 301.797 554.574 307.775 554.574 315.082V332.087H581.144C581.144 332.087 581.144 318.536 581.144 315.082C581.144 307.642 575.166 301.797 567.859 301.797ZM567.859 322.654C563.741 322.654 560.42 319.333 560.42 315.215C560.42 311.097 563.741 307.775 567.859 307.775C571.977 307.775 575.299 311.097 575.299 315.215C575.299 319.333 571.977 322.654 567.859 322.654Z" fill="#D8626F"/>
<path d="M575.299 315.215C575.299 311.096 571.977 307.775 567.859 307.775C567.461 307.775 567.062 307.775 566.796 307.908C567.859 307.509 567.992 307.244 569.852 307.244C573.97 307.244 577.291 310.565 577.291 314.683C577.291 318.403 575.432 320.396 572.509 321.193C573.97 319.732 575.299 317.473 575.299 315.215ZM558.56 330.36V313.355C558.56 308.705 560.552 304.72 564.139 302.328C558.56 303.923 554.574 308.971 554.574 315.082V332.087H581.144C581.144 332.087 581.144 331.422 581.144 330.36H558.56Z" fill="#9E455F"/>
<rect x="440" y="332.913" width="249.812" height="355.605" rx="26.6704" fill="url(#paint10_linear_13818_77928)"/>
<g style="mix-blend-mode:multiply" opacity="0.2">
<rect x="453.335" y="346.248" width="223.142" height="328.935" rx="17.7802" fill="black"/>
</g>
<rect x="462.226" y="355.138" width="205.362" height="311.154" rx="10.6681" fill="white"/>
<path opacity="0.8" d="M565.24 400.59V480.212L633.76 510.283L565.24 400.59Z" fill="#454A75"/>
<path opacity="0.5" d="M565.249 400.594L496.719 510.287L565.249 480.216V400.594Z" fill="#454A75"/>
<path opacity="0.8" d="M565.24 561.879V615.981L633.806 522.813L565.24 561.879Z" fill="#454A75"/>
<path opacity="0.5" d="M565.249 615.981V561.87L496.719 522.813L565.249 615.981Z" fill="#454A75"/>
<path d="M565.24 549.368L633.76 510.293L565.24 480.24V549.368Z" fill="#454A75"/>
<path opacity="0.8" d="M496.719 510.293L565.249 549.368V480.24L496.719 510.293Z" fill="#454A75"/>
<path d="M645.708 338.729V352.014H484.828V338.729C484.828 337.799 484.961 336.869 485.227 335.939C486.422 332.087 490.009 329.43 494.128 329.43H636.276C641.59 329.43 645.708 333.548 645.708 338.729Z" fill="#D8626F"/>
<path d="M645.708 348.693V352.014H484.828V342.449C484.828 339.925 484.961 337.799 485.227 336.072C486.422 332.219 490.009 329.562 494.128 329.562H495.323C492.799 331.954 491.072 335.541 491.072 339.26V348.826H645.708V348.693Z" fill="#9E455F"/>
<defs>
<filter id="filter0_f_13818_77928" x="0.421753" y="0.421753" width="1128.16" height="1128.16" filterUnits="userSpaceOnUse" color-interpolation-filters="sRGB">
<feFlood flood-opacity="0" result="BackgroundImageFix"/>
<feBlend mode="normal" in="SourceGraphic" in2="BackgroundImageFix" result="shape"/>
<feGaussianBlur stdDeviation="81.7891" result="effect1_foregroundBlur_13818_77928"/>
</filter>
<radialGradient id="paint0_radial_13818_77928" cx="0" cy="0" r="1" gradientUnits="userSpaceOnUse" gradientTransform="translate(564.5 564.5) rotate(-90) scale(400.5)">
<stop offset="0.648854" stop-color="#FFEFBE"/>
<stop offset="1" stop-color="#FEA192" stop-opacity="0"/>
</radialGradient>
<linearGradient id="paint1_linear_13818_77928" x1="564.5" y1="278.682" x2="564.5" y2="690.295" gradientUnits="userSpaceOnUse">
<stop stop-color="white"/>
<stop offset="1" stop-color="white" stop-opacity="0"/>
</linearGradient>
<linearGradient id="paint2_linear_13818_77928" x1="403.501" y1="575.838" x2="437.79" y2="637.425" gradientUnits="userSpaceOnUse">
<stop stop-color="#8AD1DB"/>
<stop offset="1" stop-color="#639574"/>
</linearGradient>
<linearGradient id="paint3_linear_13818_77928" x1="373.823" y1="626.196" x2="384.196" y2="641.945" gradientUnits="userSpaceOnUse">
<stop offset="0.311694" stop-color="#639574"/>
<stop offset="1" stop-color="#8AD1DB"/>
</linearGradient>
<linearGradient id="paint4_linear_13818_77928" x1="356.894" y1="521.567" x2="432.114" y2="590.583" gradientUnits="userSpaceOnUse">
<stop stop-color="#8AD1DB"/>
<stop offset="1" stop-color="#639574"/>
</linearGradient>
<linearGradient id="paint5_linear_13818_77928" x1="339.028" y1="529.033" x2="374.748" y2="552.48" gradientUnits="userSpaceOnUse">
<stop stop-color="#8AD1DB"/>
<stop offset="1" stop-color="#639574"/>
</linearGradient>
<linearGradient id="paint6_linear_13818_77928" x1="749.164" y1="515.175" x2="699.587" y2="654.008" gradientUnits="userSpaceOnUse">
<stop stop-color="#8AD1DB"/>
<stop offset="1" stop-color="#2A7443"/>
</linearGradient>
<linearGradient id="paint7_linear_13818_77928" x1="764.276" y1="524.097" x2="766.37" y2="551.963" gradientUnits="userSpaceOnUse">
<stop offset="0.311694" stop-color="#639574"/>
<stop offset="1" stop-color="#8AD1DB"/>
</linearGradient>
<linearGradient id="paint8_linear_13818_77928" x1="732.76" y1="605.241" x2="666.898" y2="683.278" gradientUnits="userSpaceOnUse">
<stop stop-color="#8AD1DB"/>
<stop offset="1" stop-color="#2A7443"/>
</linearGradient>
<linearGradient id="paint9_linear_13818_77928" x1="740.399" y1="614.699" x2="734.994" y2="633.286" gradientUnits="userSpaceOnUse">
<stop offset="0.311694" stop-color="#639574"/>
<stop offset="1" stop-color="#8AD1DB"/>
</linearGradient>
<linearGradient id="paint10_linear_13818_77928" x1="564.907" y1="332.913" x2="564.907" y2="688.517" gradientUnits="userSpaceOnUse">
<stop stop-color="#F3827B"/>
<stop offset="1" stop-color="#EBC5A1"/>
</linearGradient>
</defs>
</svg>
