<svg width="36" height="29" fill="none" xmlns="http://www.w3.org/2000/svg"><path d="M28.537 7.041H.884a.35.35 0 0 1-.245-.594L6.717.362c.2-.196.468-.306.748-.307h27.653a.35.35 0 0 1 .245.594l-6.079 6.085c-.2.196-.468.306-.747.307Z" fill="url(#a)"/><path d="M28.537 28.001H.883a.35.35 0 0 1-.244-.594l6.078-6.085c.2-.196.468-.306.748-.307h27.653a.35.35 0 0 1 .245.594l-6.079 6.085c-.2.196-.468.306-.747.307Z" fill="url(#b)"/><path d="M35.118 17.521H7.465a1.076 1.076 0 0 1-.748-.307L.64 11.129a.35.35 0 0 1 .244-.594h27.654c.28.001.547.111.747.307l6.079 6.085a.348.348 0 0 1-.053.534.35.35 0 0 1-.192.06Z" fill="url(#c)"/><defs><linearGradient id="a" x1="3.089" y1="28.759" x2="32.535" y2="-1.011" gradientUnits="userSpaceOnUse"><stop stop-color="#CF41E8"/><stop offset="1" stop-color="#10F2B0"/></linearGradient><linearGradient id="b" x1="3.089" y1="28.759" x2="32.535" y2="-1.011" gradientUnits="userSpaceOnUse"><stop stop-color="#CF41E8"/><stop offset="1" stop-color="#10F2B0"/></linearGradient><linearGradient id="c" x1="3.089" y1="28.759" x2="32.535" y2="-1.011" gradientUnits="userSpaceOnUse"><stop stop-color="#CF41E8"/><stop offset="1" stop-color="#10F2B0"/></linearGradient></defs></svg>
