<svg width="44" height="44" fill="none" xmlns="http://www.w3.org/2000/svg"><g clip-path="url(#a)"><path d="M14.164 14.508a.723.723 0 0 1-.524-.224L8.045 8.447A.724.724 0 1 1 9.09 7.444l5.596 5.837a.725.725 0 0 1-.523 1.227ZM30.866 14.6a.725.725 0 0 1-.515-1.236l3.292-3.322a.725.725 0 0 1 1.03 1.02l-3.293 3.322a.725.725 0 0 1-.514.215ZM10.857 22.639H7.05a.725.725 0 0 1 0-1.45h3.806a.725.725 0 1 1 0 1.45ZM12.898 35.587a.725.725 0 0 1-.553-1.192l2.964-3.513a.725.725 0 0 1 1.108.935l-2.965 3.513a.722.722 0 0 1-.554.258ZM35.272 36.185a.723.723 0 0 1-.504-.204l-5.143-4.989a.725.725 0 1 1 1.01-1.04l5.142 4.988a.725.725 0 0 1-.505 1.245Z" fill="#F7CB15"/><path d="M39.081 33.658a4.921 4.921 0 1 1-.003 9.842 4.921 4.921 0 0 1 .003-9.842Z" fill="#00FFD1"/><path d="M37.691.646a5.557 5.557 0 1 1 0 11.114 5.557 5.557 0 0 1 0-11.114ZM22.44 10.291a11.556 11.556 0 1 1 .002 23.112 11.556 11.556 0 0 1-.002-23.112ZM12.899 34.863a4.874 4.874 0 1 1-6.712 7.069 4.874 4.874 0 0 1 6.712-7.069Z" fill="#FF4E78"/><path d="M5.466.51a4.364 4.364 0 1 1 0 8.728 4.364 4.364 0 0 1 0-8.728Z" fill="#00FFD1"/><path d="M3.503 18.342a3.504 3.504 0 1 1 .001 7.008 3.504 3.504 0 0 1-.001-7.008Z" fill="#6853BA"/></g><defs><clipPath id="a"><path fill="#fff" d="M0 0h44v44H0z"/></clipPath></defs></svg>
