<svg width="44" height="44" fill="none" xmlns="http://www.w3.org/2000/svg"><path d="M43.26 22.946 14.255 12.857c-.384-.164-.822-.055-1.151.274-.274.274-.384.713-.274 1.152l10.088 29.004c.165.439.494.713.932.713h.11c.384 0 .768-.22.987-.603l4.496-8.499 5.976 6.031c.22.22.494.33.768.33s.548-.11.767-.33l3.948-3.947c.22-.22.33-.494.33-.768s-.11-.548-.33-.767l-6.031-5.977 8.498-4.496c.384-.22.604-.603.604-1.042 0-.438-.33-.822-.713-.986Z" fill="#FF4E78"/><path d="M5.647 3.372c-.658-.658-1.7-.658-2.303 0-.658.658-.658 1.7 0 2.302L6.798 9.13c.33.329.768.493 1.152.493.384 0 .822-.164 1.151-.493.658-.658.658-1.7 0-2.303L5.647 3.372ZM15.297 7.264c.164.768.822 1.316 1.59 1.316.11 0 .22 0 .329-.054a1.667 1.667 0 0 0 1.316-1.92l-.987-5.263a1.667 1.667 0 0 0-1.92-1.316 1.667 1.667 0 0 0-1.315 1.92l.987 5.317ZM7.237 15.324l-5.263-.987a1.666 1.666 0 0 0-1.92 1.316 1.667 1.667 0 0 0 1.316 1.92l5.264.986c.11 0 .22.055.329.055.768 0 1.48-.548 1.59-1.316.164-.987-.439-1.81-1.316-1.974Z" fill="#3A2C51"/></svg>
