<svg width="36" height="44" fill="none" xmlns="http://www.w3.org/2000/svg"><path d="M35.517 8.604v16.389c0 3.908-2.614 8.844-5.84 11.042L18 44 6.323 36.035C3.097 33.837.483 28.878.483 24.993V8.579L18 0l17.517 8.604Z" fill="#6853BA"/><path d="M29.681 22c0 6.452-5.23 11.681-11.681 11.681-6.451 0-11.681-5.23-11.681-11.68 0-6.452 5.23-11.683 11.681-11.683 6.451 0 11.681 5.23 11.681 11.682Z" fill="#00FFD1"/><path d="M16.313 26.276c-.28 0-.547-.116-.737-.322L11.8 21.86a1.003 1.003 0 0 1 1.475-1.36l3.097 3.358 6.412-5.872a1.003 1.003 0 0 1 1.358 1.476l-.002.003-7.15 6.547a.999.999 0 0 1-.677.263Z" fill="#6853BA"/></svg>
