<svg width="44" height="44" fill="none" xmlns="http://www.w3.org/2000/svg"><path d="M42.167 11.917c-1.1 0-2.2-.183-2.75.917-1.467 2.566-4.95 3.483-7.517 2.016-.917-.55-1.467-1.1-2.017-2.016-.733-1.284-2.75-1.284-3.483 0-1.467 2.566-4.95 3.483-7.517 2.016-.916-.55-1.466-1.1-2.016-2.016-.55-1.284-2.384-1.1-3.117 0-1.467 2.566-4.95 3.483-7.517 2.016-1.466-.733-2.016-2.75-3.483-2.933C1.467 11.734 0 12.284 0 13.75v20.167c0 1.1.733 1.833 1.833 1.833h40.334c1.1 0 1.833-.733 1.833-1.833V13.75c0-1.1-.733-1.833-1.833-1.833Z" fill="#CCF2FE"/><path d="M42.167 24.75h-1.1c-.734 0-1.284.367-1.65.917-1.467 2.567-4.95 3.483-7.517 2.017-.917-.55-1.467-1.1-2.017-2.017-.733-1.283-2.75-1.283-3.483 0-1.467 2.567-4.95 3.483-7.517 2.017-1.283-.734-2.016-2.934-3.666-2.934.55 0-.367 0-.55.184-.367.183-.734.366-.917.733-1.467 2.567-4.95 3.483-7.517 2.017-1.466-.734-2.016-2.75-3.666-2.934C1.283 24.567 0 25.117 0 26.584V41.25c0 1.1.733 1.834 1.833 1.834h40.334c1.1 0 1.833-.734 1.833-1.834V26.584c0-1.1-.733-1.834-1.833-1.834Z" fill="#34CDFA"/><path d="M22 8.248a1.833 1.833 0 1 0 0-3.666 1.833 1.833 0 0 0 0 3.666ZM34.833 11.917a1.833 1.833 0 1 0 0-3.667 1.833 1.833 0 0 0 0 3.667ZM33 4.582a1.833 1.833 0 1 0 0-3.666 1.833 1.833 0 0 0 0 3.666Z" fill="#67D9FB"/></svg>
