<svg width="24" height="24" viewBox="0 0 24 24" fill="none" xmlns="http://www.w3.org/2000/svg">
<path d="M12 0C18.6271 0 24 5.37288 24 12C24 18.6271 18.6269 24 12 24C5.37312 24 0 18.6286 0 12C0 5.37144 5.37216 0 12 0Z" fill="white"/>
<path d="M14.7086 6.39678C14.7086 7.23724 13.5371 7.91856 12.092 7.91856C10.6469 7.91856 9.47545 7.23724 9.47545 6.39678C9.47545 5.55632 10.6469 4.875 12.092 4.875C13.5371 4.875 14.7086 5.55632 14.7086 6.39678Z" fill="url(#paint0_linear_17144_152736)"/>
<path d="M14.7086 17.863C14.7086 18.7034 13.5371 19.3847 12.092 19.3847C10.6469 19.3847 9.47545 18.7034 9.47545 17.863C9.47545 17.0225 10.6469 16.3412 12.092 16.3412C13.5371 16.3412 14.7086 17.0225 14.7086 17.863Z" fill="url(#paint1_linear_17144_152736)"/>
<path d="M8.44589 10.0251C9.16843 8.77362 9.16374 7.41823 8.43541 6.99772C7.70709 6.57721 6.53093 7.25081 5.80838 8.50225C5.08584 9.75369 5.09053 11.1091 5.81886 11.5296C6.54719 11.9501 7.72335 11.2765 8.44589 10.0251Z" fill="url(#paint2_linear_17144_152736)"/>
<path d="M18.3654 12.7306C19.0933 13.1508 19.0976 14.506 18.375 15.7574C17.6525 17.0089 16.4767 17.6827 15.7489 17.2625C15.021 16.8422 15.0168 15.4871 15.7393 14.2357C16.4618 12.9842 17.6376 12.3104 18.3654 12.7306Z" fill="url(#paint3_linear_17144_152736)"/>
<path d="M8.43566 17.2622C9.16399 16.8417 9.16867 15.4863 8.44613 14.2348C7.72359 12.9834 6.54743 12.3098 5.8191 12.7303C5.09078 13.1508 5.08609 14.5062 5.80863 15.7576C6.53117 17.0091 7.70733 17.6827 8.43566 17.2622Z" fill="url(#paint4_linear_17144_152736)"/>
<path d="M18.3755 8.50307C19.098 9.75451 19.0938 11.1097 18.3659 11.5299C17.6381 11.9501 16.4623 11.2763 15.7398 10.0248C15.0172 8.77341 15.0215 7.41825 15.7494 6.99802C16.4772 6.57779 17.653 7.25163 18.3755 8.50307Z" fill="url(#paint5_linear_17144_152736)"/>
<defs>
<linearGradient id="paint0_linear_17144_152736" x1="18.9146" y1="4.87441" x2="2.55003" y2="14.928" gradientUnits="userSpaceOnUse">
<stop stop-color="#00A3FF"/>
<stop offset="1" stop-color="#3ADCFF"/>
</linearGradient>
<linearGradient id="paint1_linear_17144_152736" x1="18.9146" y1="4.87441" x2="2.55003" y2="14.928" gradientUnits="userSpaceOnUse">
<stop stop-color="#00A3FF"/>
<stop offset="1" stop-color="#3ADCFF"/>
</linearGradient>
<linearGradient id="paint2_linear_17144_152736" x1="18.9146" y1="4.87441" x2="2.55003" y2="14.928" gradientUnits="userSpaceOnUse">
<stop stop-color="#00A3FF"/>
<stop offset="1" stop-color="#3ADCFF"/>
</linearGradient>
<linearGradient id="paint3_linear_17144_152736" x1="18.9146" y1="4.87441" x2="2.55003" y2="14.928" gradientUnits="userSpaceOnUse">
<stop stop-color="#00A3FF"/>
<stop offset="1" stop-color="#3ADCFF"/>
</linearGradient>
<linearGradient id="paint4_linear_17144_152736" x1="18.9146" y1="4.87441" x2="2.55003" y2="14.928" gradientUnits="userSpaceOnUse">
<stop stop-color="#00A3FF"/>
<stop offset="1" stop-color="#3ADCFF"/>
</linearGradient>
<linearGradient id="paint5_linear_17144_152736" x1="18.9146" y1="4.87441" x2="2.55003" y2="14.928" gradientUnits="userSpaceOnUse">
<stop stop-color="#00A3FF"/>
<stop offset="1" stop-color="#3ADCFF"/>
</linearGradient>
</defs>
</svg>
