<svg width="24" height="24" viewBox="0 0 24 24" fill="none" xmlns="http://www.w3.org/2000/svg">
<path d="M12 0C18.6271 0 24 5.37288 24 12C24 18.6271 18.6269 24 12 24C5.37312 24 0 18.6286 0 12C0 5.37144 5.37216 0 12 0Z" fill="white"/>
<path d="M19.096 7.53045C18.7961 7.26946 18.4628 7.07371 18.0629 7.00846C17.5631 6.94322 17.0632 7.26946 16.7299 7.49783C16.3967 7.7262 15.7302 8.31343 15.4636 8.5418C15.197 8.77017 14.5305 8.90067 13.4308 9.55316C12.3311 10.2056 8.06558 12.8808 8.06558 12.8808H9.16529L4.19994 15.3929H4.69981L4 15.9149C4.39989 16.0128 4.79979 15.9475 5.16636 15.7518V15.9149C5.16636 15.9149 11.0648 13.6312 12.1978 14.2184L11.498 14.4142C11.5646 14.4142 12.6644 14.4794 12.6644 14.4794C12.731 14.9362 12.9976 15.3603 13.3975 15.5886C14.064 16.0128 14.0973 16.2738 14.0973 16.2738C14.0973 16.2738 13.7641 16.4043 13.7641 16.6C14.3972 16.4043 15.0637 16.4043 15.6636 16.6C15.6636 16.6 15.6302 16.4043 15.1637 16.2738C14.6971 16.078 14.2973 15.7844 13.9973 15.3603C13.7307 15.0014 13.6308 14.5447 13.7974 14.1206C13.964 13.6964 14.5305 13.4681 15.6969 12.8808C17.0632 12.1957 17.3964 11.6737 17.5631 11.2496C17.7297 10.8255 18.0629 10.0425 18.1962 9.65103C18.3295 9.29216 18.5628 8.99854 18.8627 8.73755C19.2293 8.5418 19.6292 8.37868 19.9957 8.24819C20.0624 8.28081 19.3293 7.69357 19.096 7.53045Z" fill="url(#paint0_linear_17144_152751)"/>
<defs>
<linearGradient id="paint0_linear_17144_152751" x1="20" y1="6.99961" x2="7.906" y2="20.1675" gradientUnits="userSpaceOnUse">
<stop stop-color="#00A3FF"/>
<stop offset="1" stop-color="#3ADCFF"/>
</linearGradient>
</defs>
</svg>
