<svg width="24" height="24" viewBox="0 0 24 24" fill="none" xmlns="http://www.w3.org/2000/svg">
<mask id="mask0_17144_152731" style="mask-type:alpha" x="0" y="0" width="24" height="24">
<path d="M24 12C24 5.37288 18.6271 0 12 0C5.37216 0 0 5.37144 0 12C0 18.6286 5.37312 24 12 24C12.7343 24 13.4531 23.934 14.151 23.8077C13.4393 23.0856 13 22.0941 13 21V17C13 14.7909 14.7909 13 17 13H21C22.0941 13 23.0856 13.4393 23.8077 14.151C23.934 13.4531 24 12.7343 24 12Z" fill="black"/>
</mask>
<g mask="url(#mask0_17144_152731)">
<path d="M12 0C18.6271 0 24 5.37288 24 12C24 18.6271 18.6269 24 12 24C5.37312 24 0 18.6286 0 12C0 5.37144 5.37216 0 12 0Z" fill="#E6007A"/>
<path d="M12.0912 7.91856C13.5362 7.91856 14.7077 7.23724 14.7077 6.39678C14.7077 5.55632 13.5362 4.875 12.0912 4.875C10.6461 4.875 9.47461 5.55632 9.47461 6.39678C9.47461 7.23724 10.6461 7.91856 12.0912 7.91856Z" fill="white"/>
<path d="M12.0912 19.3847C13.5362 19.3847 14.7077 18.7034 14.7077 17.8629C14.7077 17.0225 13.5362 16.3412 12.0912 16.3412C10.6461 16.3412 9.47461 17.0225 9.47461 17.8629C9.47461 18.7034 10.6461 19.3847 12.0912 19.3847Z" fill="white"/>
<path d="M8.44578 10.0251C9.16832 8.77365 9.16363 7.41826 8.43531 6.99775C7.70698 6.57724 6.53082 7.25084 5.80828 8.50228C5.08574 9.75372 5.09043 11.1091 5.81875 11.5296C6.54708 11.9501 7.72324 11.2765 8.44578 10.0251Z" fill="white"/>
<path d="M18.3756 15.7575C19.0982 14.506 19.0939 13.1509 18.3661 12.7306C17.6382 12.3104 16.4625 12.9842 15.7399 14.2357C15.0174 15.4871 15.0217 16.8423 15.7495 17.2625C16.4773 17.6827 17.6531 17.0089 18.3756 15.7575Z" fill="white"/>
<path d="M8.43531 17.2622C9.16363 16.8417 9.16832 15.4863 8.44578 14.2348C7.72324 12.9834 6.54708 12.3098 5.81875 12.7303C5.09043 13.1508 5.08574 14.5062 5.80828 15.7576C6.53082 17.0091 7.70698 17.6827 8.43531 17.2622Z" fill="white"/>
<path d="M18.3661 11.5299C19.0939 11.1096 19.0982 9.75448 18.3756 8.50304C17.6531 7.2516 16.4773 6.57776 15.7495 6.99799C15.0217 7.41822 15.0174 8.77337 15.7399 10.0248C16.4625 11.2763 17.6382 11.9501 18.3661 11.5299Z" fill="white"/>
</g>
<path d="M14 17C14 15.3431 15.3431 14 17 14H21C22.6569 14 24 15.3431 24 17V21C24 22.6569 22.6569 24 21 24H17C15.3431 24 14 22.6569 14 21V17Z" fill="black"/>
<path d="M22.2949 18.1667C22.2974 18.1202 22.2987 18.0734 22.2987 18.0263C22.2987 16.6311 21.1677 15.5 19.7724 15.5C18.3772 15.5 17.2461 16.6311 17.2461 18.0263C17.2461 18.0734 17.2474 18.1202 17.2499 18.1667H22.2949Z" fill="#53CBC8"/>
<path d="M16.7544 18.7983C16.7544 18.682 16.8486 18.5877 16.9649 18.5877H22.5088C22.625 18.5877 22.7193 18.682 22.7193 18.7983C22.7193 18.9145 22.625 19.0088 22.5088 19.0088H16.9649C16.8486 19.0088 16.7544 18.9145 16.7544 18.7983Z" fill="#E1147B"/>
<path d="M16.7544 20.2018C16.7544 20.0855 16.8486 19.9912 16.9649 19.9912H21.9474C22.0636 19.9912 22.1579 20.0855 22.1579 20.2018C22.1579 20.318 22.0636 20.4123 21.9474 20.4123H16.9649C16.8486 20.4123 16.7544 20.318 16.7544 20.2018Z" fill="#E1147B"/>
<path d="M16.1228 20.693C16.0065 20.693 15.9123 20.7873 15.9123 20.9035C15.9123 21.0198 16.0065 21.1141 16.1228 21.1141H18.0175C18.1338 21.1141 18.2281 21.0198 18.2281 20.9035C18.2281 20.7873 18.1338 20.693 18.0175 20.693H16.1228Z" fill="#E1147B"/>
<path d="M19.2807 21.6053C19.2807 21.489 19.375 21.3948 19.4912 21.3948H22.0877C22.204 21.3948 22.2982 21.489 22.2982 21.6053C22.2982 21.7215 22.204 21.8158 22.0877 21.8158H19.4912C19.375 21.8158 19.2807 21.7215 19.2807 21.6053Z" fill="#E1147B"/>
<path d="M17.9474 22.0965C17.8311 22.0965 17.7368 22.1908 17.7368 22.307C17.7368 22.4233 17.8311 22.5176 17.9474 22.5176H20.5439C20.6601 22.5176 20.7544 22.4233 20.7544 22.307C20.7544 22.1908 20.6601 22.0965 20.5439 22.0965H17.9474Z" fill="#E1147B"/>
<path d="M18.4386 20.9035C18.4386 20.7873 18.5329 20.693 18.6491 20.693H22.7895C22.9057 20.693 23 20.7873 23 20.9035C23 21.0198 22.9057 21.1141 22.7895 21.1141H18.6491C18.5329 21.1141 18.4386 21.0198 18.4386 20.9035Z" fill="#E1147B"/>
<path d="M15.8421 19.2895C15.7258 19.2895 15.6316 19.3838 15.6316 19.5C15.6316 19.6163 15.7258 19.7105 15.8421 19.7105H19.8421C19.9584 19.7105 20.0526 19.6163 20.0526 19.5C20.0526 19.3838 19.9584 19.2895 19.8421 19.2895H15.8421Z" fill="#E1147B"/>
<path d="M16.5439 18.7983C16.5439 18.9145 16.4496 19.0088 16.3333 19.0088C16.2171 19.0088 16.1228 18.9145 16.1228 18.7983C16.1228 18.682 16.2171 18.5877 16.3333 18.5877C16.4496 18.5877 16.5439 18.682 16.5439 18.7983Z" fill="#E1147B"/>
<path d="M16.3333 20.4123C16.4496 20.4123 16.5439 20.318 16.5439 20.2018C16.5439 20.0855 16.4496 19.9912 16.3333 19.9912C16.2171 19.9912 16.1228 20.0855 16.1228 20.2018C16.1228 20.318 16.2171 20.4123 16.3333 20.4123Z" fill="#E1147B"/>
<path d="M15.7018 20.9035C15.7018 21.0198 15.6075 21.1141 15.4912 21.1141C15.375 21.1141 15.2807 21.0198 15.2807 20.9035C15.2807 20.7873 15.375 20.693 15.4912 20.693C15.6075 20.693 15.7018 20.7873 15.7018 20.9035Z" fill="#E1147B"/>
<path d="M18.8596 21.8158C18.9759 21.8158 19.0702 21.7215 19.0702 21.6053C19.0702 21.489 18.9759 21.3948 18.8596 21.3948C18.7434 21.3948 18.6491 21.489 18.6491 21.6053C18.6491 21.7215 18.7434 21.8158 18.8596 21.8158Z" fill="#E1147B"/>
<path d="M17.5263 22.307C17.5263 22.4233 17.4321 22.5176 17.3158 22.5176C17.1995 22.5176 17.1053 22.4233 17.1053 22.307C17.1053 22.1908 17.1995 22.0965 17.3158 22.0965C17.4321 22.0965 17.5263 22.1908 17.5263 22.307Z" fill="#E1147B"/>
<path d="M15.2105 19.7105C15.3268 19.7105 15.4211 19.6163 15.4211 19.5C15.4211 19.3838 15.3268 19.2895 15.2105 19.2895C15.0943 19.2895 15 19.3838 15 19.5C15 19.6163 15.0943 19.7105 15.2105 19.7105Z" fill="#E1147B"/>
</svg>
