<svg width="24" height="24" viewBox="0 0 24 24" fill="none" xmlns="http://www.w3.org/2000/svg">
<mask id="mask0_17144_152746" style="mask-type:alpha" x="0" y="0" width="24" height="24">
<path d="M24 12C24 5.37288 18.6271 0 12 0C5.37216 0 0 5.37144 0 12C0 18.6286 5.37312 24 12 24C12.7343 24 13.4531 23.934 14.151 23.8077C13.4393 23.0856 13 22.0941 13 21V17C13 14.7909 14.7909 13 17 13H21C22.0941 13 23.0856 13.4393 23.8077 14.151C23.934 13.4531 24 12.7343 24 12Z" fill="black"/>
</mask>
<g mask="url(#mask0_17144_152746)">
<path d="M12 0C18.6271 0 24 5.37288 24 12C24 18.6271 18.6269 24 12 24C5.37312 24 0 18.6286 0 12C0 5.37144 5.37216 0 12 0Z" fill="black"/>
<path d="M19.096 7.53045C18.7961 7.26946 18.4628 7.07371 18.0629 7.00846C17.5631 6.94322 17.0632 7.26946 16.7299 7.49783C16.3967 7.7262 15.7302 8.31343 15.4636 8.5418C15.197 8.77017 14.5305 8.90067 13.4308 9.55316C12.3311 10.2056 8.06558 12.8808 8.06558 12.8808H9.16529L4.19994 15.3929H4.69981L4 15.9149C4.39989 16.0128 4.79979 15.9475 5.16636 15.7518V15.9149C5.16636 15.9149 11.0648 13.6312 12.1978 14.2184L11.498 14.4142C11.5646 14.4142 12.6644 14.4794 12.6644 14.4794C12.731 14.9362 12.9976 15.3603 13.3975 15.5886C14.064 16.0128 14.0973 16.2738 14.0973 16.2738C14.0973 16.2738 13.7641 16.4043 13.7641 16.6C14.3972 16.4043 15.0637 16.4043 15.6636 16.6C15.6636 16.6 15.6302 16.4043 15.1637 16.2738C14.6971 16.078 14.2973 15.7844 13.9973 15.3603C13.7307 15.0014 13.6308 14.5447 13.7974 14.1206C13.964 13.6964 14.5305 13.4681 15.6969 12.8808C17.0632 12.1957 17.3964 11.6737 17.5631 11.2496C17.7297 10.8255 18.0629 10.0425 18.1962 9.65103C18.3295 9.29216 18.5628 8.99854 18.8627 8.73755C19.2293 8.5418 19.6292 8.37868 19.9957 8.24819C20.0624 8.28081 19.3293 7.69357 19.096 7.53045Z" fill="white"/>
</g>
<path d="M14 17C14 15.3431 15.3431 14 17 14H21C22.6569 14 24 15.3431 24 17V21C24 22.6569 22.6569 24 21 24H17C15.3431 24 14 22.6569 14 21V17Z" fill="black"/>
<path fill-rule="evenodd" clip-rule="evenodd" d="M21.7468 19.9159C21.8364 19.9159 21.9091 19.9886 21.9091 20.0782V20.8509C21.9091 20.9405 21.8364 21.0132 21.7468 21.0132C21.6572 21.0132 21.5845 20.9405 21.5845 20.8509V20.0782C21.5845 19.9886 21.6572 19.9159 21.7468 19.9159ZM20.2013 20.1367C20.2909 20.1367 20.3636 20.2094 20.3636 20.299V22.1756C20.3636 22.2652 20.2909 22.3379 20.2013 22.3379C20.1117 22.3379 20.0391 22.2652 20.0391 22.1756V20.299C20.0391 20.2094 20.1117 20.1367 20.2013 20.1367ZM20.9741 20.1367C21.0637 20.1367 21.1363 20.2094 21.1363 20.299V21.9548C21.1363 22.0445 21.0637 22.1171 20.9741 22.1171C20.8845 22.1171 20.8118 22.0445 20.8118 21.9548V20.299C20.8118 20.2094 20.8845 20.1367 20.9741 20.1367Z" fill="#53CBC8"/>
<path fill-rule="evenodd" clip-rule="evenodd" d="M17.2209 19.143C17.3105 19.143 17.3831 19.2156 17.3831 19.3052V21.1819C17.3831 21.2715 17.3105 21.3442 17.2209 21.3442C17.1312 21.3442 17.0586 21.2715 17.0586 21.1819V19.3052C17.0586 19.2156 17.1312 19.143 17.2209 19.143ZM17.9936 19.143C18.0832 19.143 18.1559 19.2156 18.1559 19.3052V22.8378C18.1559 22.9274 18.0832 23 17.9936 23C17.904 23 17.8313 22.9274 17.8313 22.8378V19.3052C17.8313 19.2156 17.904 19.143 17.9936 19.143ZM18.7663 19.4742C18.856 19.4742 18.9286 19.5468 18.9286 19.6364V20.8507C18.9286 20.9403 18.856 21.013 18.7663 21.013C18.6767 21.013 18.6041 20.9403 18.6041 20.8507V19.6364C18.6041 19.5468 18.6767 19.4742 18.7663 19.4742ZM19.5391 19.8053C19.6287 19.8053 19.7013 19.878 19.7013 19.9676V20.4092C19.7013 20.4988 19.6287 20.5714 19.5391 20.5714C19.4495 20.5714 19.3768 20.4988 19.3768 20.4092V19.9676C19.3768 19.878 19.4495 19.8053 19.5391 19.8053Z" fill="#53CBC8"/>
<path fill-rule="evenodd" clip-rule="evenodd" d="M16.4494 19.5847C16.539 19.5847 16.6116 19.6573 16.6116 19.7469V20.9613C16.6116 21.0509 16.539 21.1235 16.4494 21.1235C16.3598 21.1235 16.2871 21.0509 16.2871 20.9613V19.7469C16.2871 19.6573 16.3598 19.5847 16.4494 19.5847Z" fill="#53CBC8"/>
<path fill-rule="evenodd" clip-rule="evenodd" d="M17.3968 18.5836C16.9243 18.6759 16.5402 18.9258 16.3326 19.0988C16.2637 19.1562 16.1614 19.1469 16.104 19.078C16.0466 19.0092 16.056 18.9069 16.1248 18.8495C16.3587 18.6546 16.7915 18.3712 17.3346 18.2651C17.8847 18.1576 18.5408 18.2342 19.1991 18.7514C20.373 19.6737 21.4763 19.3161 21.8594 18.9649C21.9255 18.9044 22.0281 18.9088 22.0887 18.9749C22.1492 19.041 22.1448 19.1436 22.0787 19.2042C21.5786 19.6626 20.2975 20.0272 18.9986 19.0066C18.4206 18.5524 17.8623 18.4926 17.3968 18.5836Z" fill="#53CBC8"/>
<path d="M21.8982 16.9246C22.2591 17.9054 21.5775 18.9741 20.5324 18.9741C19.5389 18.9741 18.9869 17.8702 17.883 17.8702C16.7791 17.8702 16.0068 18.5325 16.0068 18.5325C15.7862 16.4351 17.2211 15 19.0978 15C20.4235 15 21.4738 15.7713 21.8982 16.9246Z" fill="#F2B705"/>
</svg>
