<svg width="37" height="30" viewBox="0 0 37 30" fill="none" xmlns="http://www.w3.org/2000/svg">
<path d="M27.2339 9.05657C26.568 8.68052 25.7024 8.68052 24.9701 9.05657L19.7762 11.9396L16.2471 13.8199L11.0534 16.7029C10.3875 17.079 9.52189 17.079 8.78944 16.7029L4.66107 14.4466C3.9952 14.0705 3.5291 13.3812 3.5291 12.6291V8.17911C3.5291 7.42701 3.92862 6.73759 4.66107 6.36153L8.72285 4.1679C9.38872 3.79185 10.2543 3.79185 10.9868 4.1679L15.0486 6.36153C15.7144 6.73759 16.1806 7.42701 16.1806 8.17911V11.0622L19.7096 9.11925V6.23619C19.7096 5.48408 19.3102 4.79465 18.5777 4.4186L11.0534 0.282039C10.3875 -0.0940129 9.52189 -0.0940129 8.78944 0.282039L1.13197 4.4186C0.39952 4.79465 0 5.48408 0 6.23619V14.572C0 15.3241 0.39952 16.0136 1.13197 16.3896L8.78944 20.5262C9.4553 20.9022 10.3209 20.9022 11.0534 20.5262L16.2471 17.7057L19.7762 15.7628L24.9701 12.9424C25.6359 12.5664 26.5015 12.5664 27.2339 12.9424L31.2957 15.1361C31.9615 15.5121 32.4277 16.2016 32.4277 16.9537V21.4035C32.4277 22.1558 32.0282 22.8451 31.2957 23.2211L27.2339 25.4775C26.568 25.8535 25.7024 25.8535 24.9701 25.4775L20.9083 23.2839C20.2423 22.9078 19.7762 22.2183 19.7762 21.4663V18.5833L16.2471 20.5262V23.4092C16.2471 24.1612 16.6467 24.8507 17.3791 25.2268L25.0366 29.3633C25.7024 29.7394 26.568 29.7394 27.3005 29.3633L34.9581 25.2268C35.6239 24.8507 36.09 24.1612 36.09 23.4092V15.0733C36.09 14.3213 35.6904 13.6319 34.9581 13.2559L27.2339 9.05657Z" fill="#8347E5"/>
</svg>
