<svg width="44" height="44" viewBox="0 0 44 44" fill="none" xmlns="http://www.w3.org/2000/svg">
<path d="M36.6936 7.22551C38.4049 8.06607 39.4893 9.80675 39.4893 11.7134V24.9881C39.4893 28.8965 36.8757 33.8322 33.6501 36.0305L24.79 42.0735C23.0906 43.2326 20.8547 43.2326 19.1553 42.0735L10.2952 36.0305C7.06964 33.8322 4.45605 28.8726 4.45605 24.9881V11.693C4.45605 9.78432 5.54267 8.04217 7.25678 7.20264L19.7703 1.0738C21.1595 0.393394 22.7854 0.394303 24.1738 1.07626L36.6936 7.22551Z" fill="#6853BA"/>
<path d="M32.0002 21.9952C32.0002 27.5332 27.5107 32.0226 21.9727 32.0226C16.4347 32.0226 11.9453 27.5332 11.9453 21.9952C11.9453 16.4572 16.4347 11.9674 21.9727 11.9674C27.5107 11.9674 32.0002 16.4572 32.0002 21.9952Z" fill="#00FFD1"/>
<path d="M20.525 25.6659C20.2846 25.6662 20.0549 25.5657 19.8918 25.3888L16.6511 21.8754C16.3323 21.5226 16.3595 20.9781 16.712 20.6593C17.0597 20.3445 17.5954 20.366 17.917 20.7077L20.5758 23.5909L26.0799 18.5499C26.43 18.2281 26.9748 18.251 27.2966 18.6011C27.6181 18.9512 27.5953 19.4956 27.2452 19.8175C27.2445 19.8182 27.2438 19.8188 27.2432 19.8198L21.1062 25.4399C20.9474 25.5855 20.7403 25.6662 20.525 25.6659Z" fill="#6853BA"/>
</svg>
