<svg width="44" height="44" viewBox="0 0 44 44" fill="none" xmlns="http://www.w3.org/2000/svg">
<path d="M42.1667 12.9165C41.0667 12.9165 39.9667 12.7332 39.4167 13.8332C37.95 16.3998 34.4667 17.3165 31.9 15.8498C30.9833 15.2998 30.4333 14.7498 29.8833 13.8331C29.15 12.5498 27.1333 12.5498 26.4 13.8331C24.9333 16.3998 21.45 17.3164 18.8833 15.8498C17.9666 15.2998 17.4166 14.7498 16.8666 13.8331C16.3166 12.5498 14.4833 12.7331 13.7499 13.8331C12.2832 16.3998 8.79991 17.3164 6.23322 15.8498C4.76652 15.1165 4.21652 13.0998 2.74991 12.9165C1.4667 12.7331 0 13.2831 0 14.7498V34.9165C0 36.0165 0.733305 36.7498 1.8333 36.7498H42.1666C43.2666 36.7498 43.9999 36.0165 43.9999 34.9165V14.7498C44 13.6498 43.2667 12.9165 42.1667 12.9165Z" fill="#CCF2FE"/>
<path d="M42.1667 25.6459H41.0667C40.3334 25.6459 39.7834 26.0126 39.4167 26.5626C37.95 29.1293 34.4667 30.0459 31.9 28.5793C30.9833 28.0293 30.4333 27.4793 29.8833 26.5626C29.15 25.2793 27.1333 25.2793 26.4 26.5626C24.9333 29.1293 21.45 30.0459 18.8833 28.5793C17.6 27.8459 16.8667 25.6459 15.2167 25.6459C15.7667 25.6459 14.85 25.6459 14.6667 25.8292C14.3 26.0125 13.9334 26.1959 13.75 26.5625C12.2833 29.1292 8.8 30.0458 6.2333 28.5792C4.76661 27.8459 4.21661 25.8292 2.56661 25.6459C1.2833 25.4626 0 26.0126 0 27.4792V42.1459C0 43.2459 0.733305 43.9792 1.8333 43.9792H42.1666C43.2666 43.9792 43.9999 43.2459 43.9999 42.1459V27.4792C44 26.3792 43.2667 25.6459 42.1667 25.6459Z" fill="#34CDFA"/>
<path d="M25 8.24766C26.0125 8.24766 26.8333 7.42687 26.8333 6.41436C26.8333 5.40185 26.0125 4.58105 25 4.58105C23.9875 4.58105 23.1667 5.40185 23.1667 6.41436C23.1667 7.42687 23.9875 8.24766 25 8.24766Z" fill="#67D9FB"/>
<path d="M34.8333 12.9161C35.8458 12.9161 36.6666 12.0953 36.6666 11.0828C36.6666 10.0703 35.8458 9.24951 34.8333 9.24951C33.8208 9.24951 33 10.0703 33 11.0828C33 12.0953 33.8208 12.9161 34.8333 12.9161Z" fill="#67D9FB"/>
<path d="M32.8333 3.66661C33.8458 3.66661 34.6666 2.84581 34.6666 1.8333C34.6666 0.820798 33.8458 0 32.8333 0C31.8208 0 31 0.820798 31 1.8333C31 2.84581 31.8208 3.66661 32.8333 3.66661Z" fill="#67D9FB"/>
</svg>
