<svg width="44" height="44" viewBox="0 0 44 44" fill="none" xmlns="http://www.w3.org/2000/svg">
<path d="M42.2674 22.8983L14.5812 13.2683C14.2149 13.1113 13.7961 13.216 13.4822 13.5299C13.2205 13.7916 13.1159 14.2103 13.2205 14.629L22.8504 42.3152C23.0073 42.734 23.3214 42.9956 23.7401 42.9956C23.7924 42.9956 23.7924 42.9956 23.8448 42.9956C24.2112 42.9956 24.5775 42.7863 24.7869 42.4199L29.0785 34.3077L34.7832 40.0647C34.9926 40.2741 35.2543 40.3787 35.5159 40.3787C35.7776 40.3787 36.0394 40.2741 36.2486 40.0647L40.0168 36.2965C40.2262 36.0871 40.3309 35.8254 40.3309 35.5638C40.3309 35.3021 40.2262 35.0405 40.0168 34.8311L34.2598 29.1264L42.3721 24.8347C42.7384 24.6253 42.9478 24.259 42.9478 23.8403C42.9478 23.4215 42.6337 23.0553 42.2674 22.8983Z" fill="#FF4E78"/>
<path d="M6.36424 4.21392C5.73623 3.58592 4.74178 3.58592 4.16607 4.21392C3.53807 4.84193 3.53807 5.83638 4.16607 6.41209L7.46327 9.70938C7.77732 10.0234 8.19596 10.1804 8.5623 10.1804C8.92864 10.1804 9.34738 10.0234 9.66133 9.70938C10.2893 9.08138 10.2893 8.08693 9.66133 7.51122L6.36424 4.21392Z" fill="#3A2C51"/>
<path d="M15.5756 7.92988C15.7325 8.66257 16.3606 9.18599 17.0933 9.18599C17.198 9.18599 17.3027 9.18599 17.4074 9.1337C18.2447 8.97672 18.8205 8.13925 18.6635 7.30188L17.7214 2.27755C17.5645 1.44018 16.727 0.864464 15.8896 1.02144C15.0522 1.17842 14.4765 2.01589 14.6335 2.85326L15.5756 7.92988Z" fill="#3A2C51"/>
<path d="M7.88199 15.6233L2.85765 14.6812C2.02028 14.5243 1.18291 15.1 1.02583 15.9373C0.868859 16.7747 1.44457 17.6121 2.28194 17.7692L7.30628 18.7112C7.41096 18.7112 7.51564 18.7635 7.62033 18.7635C8.35301 18.7635 9.03341 18.2402 9.13809 17.5074C9.29507 16.5653 8.71936 15.7804 7.88199 15.6233Z" fill="#3A2C51"/>
</svg>
