<svg width="44" height="45" viewBox="0 0 44 45" fill="none" xmlns="http://www.w3.org/2000/svg">
<path fill-rule="evenodd" clip-rule="evenodd" d="M22.141 0.994141C22.094 0.994141 22.047 0.994289 22 0.994586L22 22.9941L43.9996 22.9941C43.9998 22.9472 44 22.9002 44 22.8531C44 10.7807 34.2134 0.994141 22.141 0.994141Z" fill="#00FFD1"/>
<path fill-rule="evenodd" clip-rule="evenodd" d="M43.9996 22.9941C43.9998 23.0411 44 23.0881 44 23.1352C44 35.2075 34.2134 44.9941 22.141 44.9941C22.094 44.9941 22.047 44.994 22 44.9937L22 22.9941L29.0513 22.9941C29.0513 20.8133 30.8192 19.0454 33 19.0454C35.1808 19.0454 36.9487 20.8133 36.9487 22.9941L43.9996 22.9941Z" fill="#6853BA"/>
<path fill-rule="evenodd" clip-rule="evenodd" d="M22 44.9937C21.953 44.994 21.906 44.9941 21.859 44.9941C9.7866 44.9941 -4.27786e-07 35.2075 -9.55486e-07 23.1352C-9.57542e-07 23.0881 0.000147657 23.0411 0.000444443 22.9941L22 22.9941L22 30.0454C24.1808 30.0454 25.9487 31.8133 25.9487 33.9941C25.9487 36.175 24.1808 37.9429 22 37.9429L22 44.9937Z" fill="#FF4E78"/>
<path fill-rule="evenodd" clip-rule="evenodd" d="M0.000445381 22.9941C0.000148608 22.9472 0 22.9002 0 22.8531C0 10.7807 9.7866 0.994141 21.859 0.994141C21.906 0.994141 21.953 0.994289 22 0.994586V22.9941H14.9487C14.9487 25.175 13.1808 26.9429 11 26.9429C8.81918 26.9429 7.05128 25.175 7.05128 22.9941H0.000445381Z" fill="#34CDFA"/>
<circle cx="22" cy="11.9941" r="3.94872" transform="rotate(90 22 11.9941)" fill="#00FFD1"/>
</svg>
