<svg width="578" height="413" viewBox="0 0 578 413" fill="none" xmlns="http://www.w3.org/2000/svg">
<circle opacity="0.3" cx="289.656" cy="200" r="199.353" fill="url(#paint0_linear_13249_75411)"/>
<path d="M116.807 167.47L294.707 254.14L462.667 167.47" stroke="#F5F5F5" stroke-width="16" stroke-miterlimit="10"/>
<path opacity="0.1" d="M353.013 360.928C362.78 366.575 362.832 375.722 353.132 381.356L307.578 407.838C297.864 413.471 282.082 413.471 272.316 407.838L226.459 381.356C216.693 375.722 216.614 366.588 226.341 360.928L271.895 334.459C281.609 328.812 297.39 328.812 307.156 334.459L353.013 360.928Z" fill="#F5FBFF"/>
<path opacity="0.2" d="M353.013 328.372C362.78 334.019 362.832 343.167 353.132 348.8L307.578 375.282C297.864 380.916 282.082 380.916 272.316 375.282L226.459 348.8C216.693 343.167 216.614 334.032 226.341 328.372L271.895 301.903C281.609 296.257 297.39 296.257 307.156 301.903L353.013 328.372Z" fill="#F5FBFF"/>
<path opacity="0.3" d="M353.013 295.817C362.78 301.463 362.832 310.611 353.132 316.244L307.578 342.727C297.864 348.36 282.082 348.36 272.316 342.727L226.459 316.244C216.693 310.611 216.614 301.476 226.341 295.817L271.895 269.348C281.609 263.701 297.39 263.701 307.156 269.348L353.013 295.817Z" fill="#F5FBFF"/>
<path opacity="0.4" d="M353.013 263.261C362.78 268.908 362.832 278.055 353.132 283.689L307.578 310.171C297.864 315.804 282.082 315.804 272.316 310.171L226.459 283.689C216.693 278.055 216.614 268.921 226.341 263.261L271.895 236.792C281.609 231.145 297.39 231.145 307.156 236.792L353.013 263.261Z" fill="#F5FBFF"/>
<g filter="url(#filter0_f_13249_75411)">
<path d="M340.061 259.676C347.828 264.167 347.87 271.443 340.155 275.923L303.924 296.985C296.199 301.466 283.647 301.466 275.88 296.985L239.408 275.923C231.641 271.443 231.578 264.178 239.314 259.676L275.545 238.625C283.27 234.134 295.822 234.134 303.589 238.625L340.061 259.676Z" fill="#E9B260"/>
</g>
<path d="M353.132 251.689L307.578 278.171C297.864 283.804 282.083 283.804 272.316 278.171L226.459 251.689C221.537 248.846 219.088 245.108 219.102 241.409V246.674C219.102 250.399 221.55 254.124 226.472 256.954L272.329 283.436C282.096 289.069 297.877 289.069 307.578 283.436L353.145 256.954C357.962 254.163 360.384 250.491 360.384 246.819V241.554C360.371 245.226 357.949 248.885 353.132 251.689Z" fill="#E9B260"/>
<path d="M353.013 231.261C362.78 236.908 362.832 246.055 353.132 251.689L307.578 278.171C297.864 283.804 282.082 283.804 272.316 278.171L226.459 251.689C216.693 246.055 216.614 236.921 226.341 231.261L271.895 204.792C281.609 199.145 297.39 199.145 307.156 204.792L353.013 231.261Z" fill="#F5FBFF"/>
<path d="M280.105 224.769L277.62 245.718C277.568 246.156 278.485 246.397 279.022 246.087L289.685 239.931L296.532 250.66C296.837 251.138 298.055 251.041 298.124 250.533L301.144 228.454C301.204 228.014 300.282 227.769 299.742 228.081L287.94 234.894L281.702 224.644C281.406 224.157 280.166 224.254 280.105 224.769Z" fill="#E9B260"/>
<path opacity="0.1" d="M155.398 262.678C165.164 268.324 165.217 277.472 155.516 283.105L109.962 309.588C100.248 315.221 84.4667 315.221 74.7004 309.588L28.8435 283.105C19.0772 277.472 18.9982 268.338 28.725 262.678L74.2792 236.209C83.9929 230.562 99.7743 230.562 109.541 236.209L155.398 262.678Z" fill="white"/>
<path opacity="0.2" d="M155.398 230.539C165.164 236.185 165.217 245.333 155.516 250.967L109.962 277.449C100.248 283.082 84.4667 283.082 74.7004 277.449L28.8435 250.967C19.0772 245.333 18.9982 236.199 28.725 230.539L74.2792 204.07C83.9929 198.423 99.7743 198.423 109.541 204.07L155.398 230.539Z" fill="white"/>
<path opacity="0.3" d="M155.398 198.4C165.164 204.047 165.217 213.194 155.516 218.828L109.962 245.31C100.248 250.943 84.4667 250.943 74.7004 245.31L28.8435 218.828C19.0772 213.194 18.9982 204.06 28.725 198.4L74.2792 171.931C83.9929 166.284 99.7743 166.284 109.541 171.931L155.398 198.4Z" fill="white"/>
<path opacity="0.4" d="M155.398 166.261C165.164 171.908 165.217 181.055 155.516 186.689L109.962 213.171C100.248 218.804 84.4667 218.804 74.7004 213.171L28.8435 186.689C19.0772 181.055 18.9982 171.921 28.725 166.261L74.2792 139.792C83.9929 134.145 99.7743 134.145 109.541 139.792L155.398 166.261Z" fill="white"/>
<g filter="url(#filter1_f_13249_75411)">
<path d="M142.446 162.572C150.213 167.063 150.255 174.339 142.54 178.819L106.309 199.881C98.5836 204.362 86.0321 204.362 78.2647 199.881L41.7932 178.819C34.0257 174.339 33.9629 167.074 41.699 162.572L77.9297 141.521C85.6553 137.03 98.2067 137.03 105.974 141.521L142.446 162.572Z" fill="#00A3FF"/>
</g>
<path d="M155.516 154.585L109.962 181.067C100.248 186.701 84.4668 186.701 74.7005 181.067L28.8435 154.585C23.9209 151.742 21.4727 148.004 21.4859 144.305V149.57C21.4859 153.295 23.9341 157.02 28.8567 159.85L74.7136 186.332C84.48 191.965 100.261 191.965 109.962 186.332L155.529 159.85C160.347 157.059 162.768 153.387 162.768 149.715V144.45C162.755 148.122 160.333 151.781 155.516 154.585Z" fill="#00A3FF"/>
<path d="M155.398 134.157C165.164 139.804 165.217 148.952 155.516 154.585L109.962 181.067C100.248 186.701 84.4667 186.701 74.7004 181.067L28.8435 154.585C19.0772 148.952 18.9982 139.817 28.725 134.157L74.2792 107.688C83.9929 102.042 99.7743 102.042 109.541 107.688L155.398 134.157Z" fill="#F5FBFF"/>
<path fill-rule="evenodd" clip-rule="evenodd" d="M74.5227 133.648L95.2032 136.279L91.8396 143.645L79.0801 145.586L74.5227 133.648ZM80.9511 143.817L77.7889 135.533L92.1385 137.359L89.8046 142.47L80.9511 143.817Z" fill="#00A3FF"/>
<path d="M94.6017 145.253L79.7993 147.505L79.9437 147.883C81.572 152.149 88.1199 155.186 95.6863 155.186C104.59 155.185 111.809 151.018 111.81 145.878C111.81 141.51 106.549 137.73 99.1602 136.79L98.5049 136.706L94.6017 145.253Z" fill="#00A3FF"/>
<path opacity="0.1" d="M550.63 263.454C560.396 269.1 560.448 278.248 550.748 283.882L505.194 310.364C495.48 315.997 479.699 315.997 469.932 310.364L424.075 283.882C414.309 278.248 414.23 269.114 423.957 263.454L469.511 236.985C479.225 231.338 495.006 231.338 504.773 236.985L550.63 263.454Z" fill="#F5FBFF"/>
<path opacity="0.2" d="M550.63 231.022C560.396 236.668 560.448 245.816 550.748 251.449L505.194 277.932C495.48 283.565 479.699 283.565 469.932 277.932L424.075 251.449C414.309 245.816 414.23 236.681 423.957 231.022L469.511 204.553C479.225 198.906 495.006 198.906 504.773 204.553L550.63 231.022Z" fill="#F5FBFF"/>
<path opacity="0.3" d="M550.63 198.59C560.396 204.236 560.448 213.384 550.748 219.017L505.194 245.499C495.48 251.133 479.699 251.133 469.932 245.499L424.075 219.017C414.309 213.384 414.23 204.249 423.957 198.59L469.511 172.12C479.225 166.474 495.006 166.474 504.773 172.12L550.63 198.59Z" fill="#F5FBFF"/>
<path opacity="0.4" d="M550.63 166.157C560.396 171.804 560.448 180.952 550.748 186.585L505.194 213.067C495.48 218.701 479.699 218.701 469.932 213.067L424.075 186.585C414.309 180.952 414.23 171.817 423.957 166.157L469.511 139.688C479.225 134.042 495.006 134.042 504.773 139.688L550.63 166.157Z" fill="#F5FBFF"/>
<g filter="url(#filter2_f_13249_75411)">
<path d="M537.678 162.572C545.445 167.063 545.487 174.339 537.772 178.819L501.541 199.881C493.816 204.362 481.264 204.362 473.497 199.881L437.025 178.819C429.258 174.339 429.195 167.074 436.931 162.572L473.162 141.521C480.887 137.03 493.439 137.03 501.206 141.521L537.678 162.572Z" fill="#01DEFA"/>
</g>
<path d="M550.748 154.585L505.194 181.067C495.48 186.701 479.699 186.701 469.932 181.067L424.075 154.585C419.153 151.742 416.705 148.004 416.718 144.305V149.57C416.718 153.295 419.166 157.02 424.089 159.85L469.946 186.332C479.712 191.965 495.493 191.965 505.194 186.332L550.761 159.85C555.579 157.059 558 153.387 558 149.715V144.45C557.987 148.122 555.565 151.781 550.748 154.585Z" fill="#01DEFA"/>
<path d="M550.63 134.157C560.396 139.804 560.448 148.952 550.748 154.585L505.194 181.067C495.48 186.701 479.699 186.701 469.932 181.067L424.075 154.585C414.309 148.952 414.23 139.817 423.957 134.157L469.511 107.688C479.225 102.042 495.006 102.042 504.773 107.688L550.63 134.157Z" fill="#F5FBFF"/>
<path d="M501.579 126.688C498.391 124.661 493.829 124.729 489.663 125.372L498.029 132.183C499.151 131.459 500.183 131.384 500.606 131.385C501.135 131.385 502.592 131.464 503.06 132.649C504.445 131.543 505.43 129.136 501.579 126.688Z" fill="url(#paint1_linear_13249_75411)"/>
<path fill-rule="evenodd" clip-rule="evenodd" d="M467.331 132.907L463.229 132.901C465.933 130.906 474.542 126.492 487.345 124.799C488.007 125.029 488.671 125.565 488.671 125.565L489.663 125.375C491.053 125.518 494.351 126.299 496.424 128.288C498.497 130.277 498.489 131.64 498.227 132.072C497.171 132.682 495.985 134.071 498.111 135.968C500.236 137.866 499.711 138.848 499.183 139.102L487.699 145.885L475.532 147.701L465.058 142.95L464.317 140.007L465.028 135.921L466.673 133.67L467.331 132.907ZM484.914 127.217C484.935 127.821 484.712 128.245 484.645 128.364C481.018 129.724 478.393 129.452 478.393 129.452C481.197 127.813 484.414 126.731 487.412 126.31C487.412 126.31 486.077 126.704 484.914 127.217Z" fill="url(#paint2_linear_13249_75411)"/>
<path fill-rule="evenodd" clip-rule="evenodd" d="M498.009 136.028C496.965 137.792 495.116 139.532 492.51 141.037C485.183 145.267 474.64 146.039 468.962 142.761C464.768 140.34 464.401 136.386 467.449 132.78C459.12 138.176 459.118 146.375 467.879 151.433C477.99 157.27 495.358 156.89 506.476 150.472C514.778 145.679 516.876 138.911 514.049 133.107C510.195 136.623 502.183 138.793 498.009 136.028Z" fill="url(#paint3_linear_13249_75411)"/>
<path d="M36.6213 113.085C34.5152 114.301 32.6447 114.861 31.0097 114.765C29.3885 114.645 28.1208 113.913 27.2063 112.569C26.3058 111.201 25.8555 109.301 25.8556 106.869L25.856 95.7334C25.8561 93.3014 26.3065 90.8893 27.2072 88.4973C28.1218 86.0813 29.3897 83.8852 31.0109 81.9092C32.646 79.9091 34.5166 78.301 36.6227 77.085C38.7288 75.8689 40.5924 75.3208 42.2136 75.4407C43.8485 75.5367 45.1163 76.2686 46.0169 77.6366C46.9313 78.9806 47.3885 80.8686 47.3884 83.3006L47.388 94.4366C47.3879 96.8686 46.9306 99.2926 46.016 101.709C45.1153 104.101 43.8474 106.297 42.2123 108.297C40.5911 110.273 38.7275 111.869 36.6213 113.085ZM36.6215 107.589C37.6607 106.989 38.6099 106.153 39.469 105.081C40.342 104.001 41.0279 102.821 41.5267 101.541C42.0256 100.245 42.275 98.9967 42.2751 97.7967L42.2755 85.8207C42.2756 84.6207 42.0262 83.6688 41.5274 82.9648C41.0286 82.2448 40.3428 81.8488 39.4699 81.7769C38.6108 81.6809 37.6617 81.9329 36.6225 82.533C35.5833 83.133 34.6272 83.981 33.7542 85.0771C32.8951 86.1491 32.2162 87.3331 31.7173 88.6291C31.2184 89.9092 30.969 91.1492 30.9689 92.3492L30.9685 104.325C30.9684 105.525 31.2178 106.485 31.7166 107.205C32.2154 107.909 32.8943 108.301 33.7534 108.381C34.6263 108.453 35.5823 108.189 36.6215 107.589ZM63.5245 96.8311L58.4116 99.7833L58.4127 71.5353L52.8008 78.7355L52.801 72.3515L58.4129 65.2233L63.5258 62.2711L63.5245 96.8311Z" fill="white"/>
<path d="M226.473 217.001C224.367 218.217 222.497 218.777 220.862 218.681C219.241 218.561 217.973 217.829 217.058 216.485C216.158 215.117 215.708 213.217 215.708 210.785L215.708 199.649C215.708 197.217 216.159 194.805 217.059 192.413C217.974 189.997 219.242 187.801 220.863 185.825C222.498 183.825 224.369 182.217 226.475 181.001C228.581 179.785 230.444 179.237 232.066 179.357C233.701 179.453 234.968 180.185 235.869 181.553C236.783 182.897 237.241 184.785 237.24 187.217L237.24 198.353C237.24 200.785 236.783 203.209 235.868 205.625C234.967 208.017 233.699 210.213 232.064 212.213C230.443 214.189 228.58 215.785 226.473 217.001ZM226.474 211.505C227.513 210.905 228.462 210.069 229.321 208.997C230.194 207.917 230.88 206.737 231.379 205.457C231.878 204.161 232.127 202.913 232.127 201.713L232.128 189.737C232.128 188.537 231.878 187.585 231.379 186.881C230.881 186.161 230.195 185.765 229.322 185.693C228.463 185.597 227.514 185.849 226.475 186.449C225.435 187.049 224.479 187.897 223.606 188.993C222.747 190.065 222.068 191.249 221.569 192.545C221.07 193.825 220.821 195.065 220.821 196.265L220.821 208.241C220.821 209.441 221.07 210.401 221.569 211.121C222.067 211.825 222.746 212.217 223.605 212.297C224.478 212.369 225.434 212.105 226.474 211.505ZM249.989 197.207L262.834 189.791L262.833 195.239L242.236 207.132L242.236 202.092L255.04 181.523C255.982 180.003 256.661 178.667 257.077 177.515C257.493 176.363 257.701 175.339 257.701 174.443C257.701 173.307 257.486 172.407 257.056 171.743C256.641 171.055 256.045 170.679 255.269 170.615C254.507 170.527 253.641 170.763 252.671 171.323C251.66 171.907 250.745 172.715 249.927 173.747C249.124 174.755 248.5 175.843 248.057 177.011C247.613 178.179 247.406 179.283 247.433 180.323L242.279 183.3C242.279 181.028 242.722 178.771 243.609 176.531C244.496 174.291 245.729 172.243 247.309 170.387C248.902 168.523 250.724 166.999 252.775 165.815C254.673 164.719 256.385 164.227 257.909 164.339C259.447 164.427 260.652 165.099 261.525 166.355C262.398 167.595 262.834 169.327 262.834 171.551C262.834 173.135 262.647 174.595 262.273 175.931C261.899 177.251 261.372 178.547 260.693 179.819C260.014 181.091 259.003 182.795 257.659 184.931L249.989 197.207Z" fill="white"/>
<path d="M429.576 115.399C427.47 116.615 425.6 117.175 423.965 117.079C422.344 116.959 421.076 116.227 420.161 114.883C419.261 113.515 418.811 111.615 418.811 109.183L418.811 98.0469C418.811 95.6149 419.262 93.2029 420.162 90.8109C421.077 88.3948 422.345 86.1988 423.966 84.2227C425.601 82.2226 427.472 80.6146 429.578 79.3985C431.684 78.1824 433.548 77.6343 435.169 77.7543C436.804 77.8502 438.071 78.5822 438.972 79.9501C439.886 81.2941 440.344 83.1821 440.343 85.6141L440.343 96.7501C440.343 99.1821 439.886 101.606 438.971 104.022C438.07 106.414 436.802 108.61 435.167 110.61C433.546 112.586 431.683 114.182 429.576 115.399ZM429.577 109.902C430.616 109.302 431.565 108.466 432.424 107.394C433.297 106.314 433.983 105.134 434.482 103.854C434.981 102.558 435.23 101.31 435.23 100.11L435.231 88.1343C435.231 86.9343 434.981 85.9823 434.483 85.2783C433.984 84.5583 433.298 84.1624 432.425 84.0904C431.566 83.9944 430.617 84.2465 429.578 84.8465C428.538 85.4465 427.582 86.2946 426.709 87.3906C425.85 88.4626 425.171 89.6467 424.672 90.9427C424.174 92.2227 423.924 93.4627 423.924 94.6627L423.924 106.639C423.924 107.839 424.173 108.799 424.672 109.519C425.17 110.223 425.849 110.615 426.708 110.695C427.581 110.767 428.537 110.503 429.577 109.902ZM457.686 76.8486C459.182 76.3365 460.478 76.2845 461.572 76.6924C462.667 77.0844 463.498 77.8763 464.066 79.0683C464.648 80.2363 464.939 81.7003 464.939 83.4603C464.939 85.6043 464.482 87.8123 463.567 90.0843C462.653 92.3564 461.412 94.4484 459.847 96.3605C458.295 98.2485 456.59 99.7286 454.734 100.801C453.237 101.665 451.817 102.149 450.473 102.253C449.143 102.333 447.986 102.041 447.002 101.377C446.032 100.689 445.339 99.641 444.924 98.233L449.767 93.9249C450.099 95.0608 450.716 95.7528 451.616 96.0008C452.517 96.2328 453.535 96.0207 454.672 95.3647C455.641 94.8046 456.514 94.0446 457.29 93.0846C458.08 92.1005 458.704 91.0205 459.161 89.8445C459.618 88.6685 459.847 87.5205 459.847 86.4005C459.847 85.2805 459.625 84.3925 459.182 83.7365C458.753 83.0565 458.143 82.6805 457.353 82.6086C456.577 82.5286 455.697 82.7726 454.714 83.3407C453.841 83.8447 452.975 84.6167 452.116 85.6568L449.829 82.4169L458.476 68.8805L446.089 76.033L446.089 70.585L464.441 59.9883L464.441 65.4603L457.686 76.8486Z" fill="white"/>
<defs>
<filter id="filter0_f_13249_75411" x="199.547" y="201.256" width="180.367" height="133.089" filterUnits="userSpaceOnUse" color-interpolation-filters="sRGB">
<feFlood flood-opacity="0" result="BackgroundImageFix"/>
<feBlend mode="normal" in="SourceGraphic" in2="BackgroundImageFix" result="shape"/>
<feGaussianBlur stdDeviation="17" result="effect1_foregroundBlur_13249_75411"/>
</filter>
<filter id="filter1_f_13249_75411" x="1.93213" y="104.153" width="180.367" height="133.089" filterUnits="userSpaceOnUse" color-interpolation-filters="sRGB">
<feFlood flood-opacity="0" result="BackgroundImageFix"/>
<feBlend mode="normal" in="SourceGraphic" in2="BackgroundImageFix" result="shape"/>
<feGaussianBlur stdDeviation="17" result="effect1_foregroundBlur_13249_75411"/>
</filter>
<filter id="filter2_f_13249_75411" x="397.164" y="104.153" width="180.367" height="133.089" filterUnits="userSpaceOnUse" color-interpolation-filters="sRGB">
<feFlood flood-opacity="0" result="BackgroundImageFix"/>
<feBlend mode="normal" in="SourceGraphic" in2="BackgroundImageFix" result="shape"/>
<feGaussianBlur stdDeviation="17" result="effect1_foregroundBlur_13249_75411"/>
</filter>
<linearGradient id="paint0_linear_13249_75411" x1="289.656" y1="0.647339" x2="289.656" y2="399.353" gradientUnits="userSpaceOnUse">
<stop stop-color="white"/>
<stop offset="1" stop-color="white" stop-opacity="0"/>
</linearGradient>
<linearGradient id="paint1_linear_13249_75411" x1="494.923" y1="126.581" x2="501.571" y2="136.439" gradientUnits="userSpaceOnUse">
<stop stop-color="#01E8F7"/>
<stop offset="1" stop-color="#00C2FF"/>
</linearGradient>
<linearGradient id="paint2_linear_13249_75411" x1="467.129" y1="133.454" x2="495.347" y2="144.547" gradientUnits="userSpaceOnUse">
<stop stop-color="#01E8F7"/>
<stop offset="1" stop-color="#00B3EC"/>
</linearGradient>
<linearGradient id="paint3_linear_13249_75411" x1="481.007" y1="136.329" x2="497.445" y2="162.885" gradientUnits="userSpaceOnUse">
<stop stop-color="#01E8F7"/>
<stop offset="1" stop-color="#00C2FF"/>
</linearGradient>
</defs>
</svg>
