<svg xmlns="http://www.w3.org/2000/svg" width="48" height="48" fill="none"><path fill="#FFD15C" d="M48 24c0 13.255-10.745 24-24 24S0 37.255 0 24 10.745 0 24 0s24 10.745 24 24Z"/><path fill="#fff" stroke="#000" stroke-width="1.887" d="M16.237 30.664a.833.833 0 0 0 .333-.436.87.87 0 0 0-.005-.527c0-.004-.002-.008-.003-.011l.027-.156c.074.041.158.097.255.165l.09.064.123.087c.054.038.13.09.212.133 2.144 1.333 3.917 1.882 5.325 1.814 1.456-.07 2.477-.803 3.004-1.872.509-1.033.527-2.313.17-3.5a6.021 6.021 0 0 0-2.24-3.156c-1.897-1.353-3.634-3.41-4.513-5.159-.447-.888-.624-1.604-.577-2.072.021-.218.088-.35.168-.434.08-.085.225-.178.505-.224.594-.098 1.28-.312 1.977-.529.27-.084.543-.169.812-.248 1.004-.293 2.067-.54 3.184-.538 2.168.004 4.711.945 7.39 4.86 3.44 5.028 1.551 10.648-2.412 13.6-1.977 1.472-4.443 2.253-6.977 1.956-2.282-.267-4.672-1.416-6.848-3.817Zm.399-1.302s0 .002-.003.004l.003-.004Zm-.216.098.007.002a.03.03 0 0 1-.007-.002Z"/><path fill="#000" d="M18.206 15.637S24.352 14 25.698 14c1.345 0 6.722 2.611 8.291 7.383 2.225 6.764-3.826 11.2-4.51 10.764 6.51-5.382-4.145-15.331-9.382-14.583-.655.093-.29.655-.29.655l-.146 1.454-1.091-1.818-.364-2.218Zm-.726 8.556c-.82 1.387-2.5 1.283-2.468 2.936 1.5 3.334 1.51 3.095 1.51 3.095 2.78-1.561 1.637-5.01 1.225-6.024-.047-.114-.205-.113-.268-.007Z"/><path fill="#000" d="M11.178 27.259c1.597.208 2.55-1.18 3.832-.137 1.704 3.236 1.51 3.096 1.51 3.096-2.942 1.229-4.956-1.794-5.501-2.744-.062-.107.036-.231.16-.215Zm13.392-2.057s1.6 1.637.764 1.891c-1.043-.642-2.912-.143-3.828.166-.226.076-.447-.124-.366-.348.312-.857 1.081-2.444 2.557-2.655.873-.218.873.946.873.946Zm8.524-5.856c1.94 3.417 1.537 1.46 1.107 5.367.797-1.29 2.044-.325 2.559.169.092.088.244.033.24-.094-.02-.58-.186-1.832-1.145-3.175-1.315-1.841-2.761-2.267-2.761-2.267Z"/><path stroke="#000" stroke-width=".106" d="m34.2 24.713.19-.47m-.19.47c.431-3.906.835-1.95-1.106-5.367 0 0 1.446.426 2.761 2.267.96 1.343 1.125 2.595 1.145 3.175.004.127-.148.182-.24.094-.515-.494-1.762-1.46-2.56-.17Z"/><path fill="#fff" d="M25.552 17.2c-.182-.255-.545-.946.582-.946 1.128 0 2.85 1.277 3.2 1.75-.109.287-.836.351-1.2.323-.363-.028-.982-.088-1.454-.324-.473-.236-.946-.549-1.128-.803Z"/></svg>