<svg xmlns="http://www.w3.org/2000/svg" width="48" height="48" fill="none"><path fill="url(#a)" d="M24 48c13.255 0 24-10.745 24-24S37.255 0 24 0 0 10.745 0 24s10.745 24 24 24Z"/><path fill="url(#b)" d="M36.353 23.568h-3.135C33.218 17.179 28.02 12 21.608 12c-6.332 0-11.48 5.052-11.606 11.332-.13 6.49 5.981 12.127 12.496 12.127h.82c5.743 0 13.442-4.48 14.645-9.939.222-1.006-.576-1.952-1.61-1.952Zm-19.403.285a1.56 1.56 0 0 1-1.559 1.553 1.56 1.56 0 0 1-1.559-1.553V21.34a1.56 1.56 0 0 1 1.56-1.553 1.56 1.56 0 0 1 1.558 1.553v2.513Zm5.412 0a1.56 1.56 0 0 1-1.558 1.553 1.56 1.56 0 0 1-1.56-1.553V21.34a1.56 1.56 0 0 1 1.56-1.553 1.56 1.56 0 0 1 1.558 1.553v2.513Z"/><defs><linearGradient id="a" x1="24" x2="24" y1="0" y2="48" gradientUnits="userSpaceOnUse"><stop stop-color="#534BB1"/><stop offset="1" stop-color="#551BF9"/></linearGradient><linearGradient id="b" x1="24" x2="24" y1="12" y2="35.459" gradientUnits="userSpaceOnUse"><stop stop-color="#fff"/><stop offset="1" stop-color="#fff" stop-opacity=".82"/></linearGradient></defs></svg>