<svg xmlns="http://www.w3.org/2000/svg" width="48" height="49" fill="none"><rect width="48" height="48" y="1" fill="url(#a)" rx="24"/><path fill="#fff" d="M34.343 21.758v9.066l-10.084 5.82-10.09-5.82V19.176l10.09-5.826 7.75 4.476 1.17-.674L24.26 12 13 18.501V31.5L24.26 38l11.259-6.501V21.083l-1.176.675Z"/><path fill="#fff" d="M21.436 30.83H19.75v-5.658h5.624a2.024 2.024 0 0 0 1.853-2.786 1.929 1.929 0 0 0-.441-.645 1.95 1.95 0 0 0-1.412-.59H19.75v-1.722h5.63a3.746 3.746 0 0 1 3.723 3.724 3.616 3.616 0 0 1-.658 2.109c-.4.59-.962 1.051-1.62 1.327a6.496 6.496 0 0 1-2.013.304h-3.375v3.936Zm7.626-.141h-1.968l-1.519-2.65a6.414 6.414 0 0 0 1.76-.36l1.727 3.01Zm4.106-10.815 1.164.647 1.164-.647v-1.367l-1.164-.675-1.164.675v1.367Z"/><defs><linearGradient id="a" x1="48" x2="5.197" y1="1" y2="53.257" gradientUnits="userSpaceOnUse"><stop stop-color="#C200FB"/><stop offset=".481" stop-color="#3773FE"/><stop offset=".49" stop-color="#3772FF"/><stop offset="1" stop-color="#5AC4BE"/></linearGradient></defs></svg>