<svg xmlns="http://www.w3.org/2000/svg" width="48" height="48" fill="none"><path fill="#190921" d="M24 48c13.255 0 24-10.745 24-24S37.255 0 24 0 0 10.745 0 24s10.745 24 24 24Z"/><path fill="#fff" stroke="#fff" stroke-miterlimit="10" d="M27.65 17.707c-10.378 2.4-1.13 4.875-3.387 6.67a1.395 1.395 0 0 1-.86.295c-5.823.052-11.197 2.412-12.403 8.646 1-1.411 2.13-3.348 3.668-4.233l.668-.423c-1.68 1.744-2.515 4.553-3.194 6.823 1.193-2.09 2.706-4.592 4.502-6.195-.988 1.321-1.296 3.091-1.206 4.708.385-7.325 13.673-5.811 12.314-10.172a2.31 2.31 0 0 0-1.232-1.385c-1.103-.514-2.744-1.45-1.782-2.181.218-.167 1.782-.654 3.309-.654 3.54 0 5.182.192 8.196-2.014 0 0-1.821.423-2.437.526-.616.103-2.103.051-1.667-.077 2.231-.603 4.194-3.4 4.861-4.772-.936.809-2.578 2.194-3.707 3.053-.564.436-1.796.924-1.68.808 1.154-1.064 1.667-1.616 2.078-2.63.526-1.295.564-1.5.564-1.5s-3.284 4.528-6.606 4.707Z"/><path fill="#fff" stroke="#fff" stroke-miterlimit="10" d="M24.968 20.645c.462-.603 1.899-.18 2.617-.282-.641.012-2.232 1.103-2.617.282Zm-2.411.577c.103-.077.141-.231.064-.334a.285.285 0 0 0-.167-.102c-1.09-.116-1.462.885-2.475 1.552.936-.719 1.873-.616 2.578-1.116Z"/><path fill="#fff" stroke="#fff" stroke-miterlimit="10" d="M22.737 21.555c.115-.025.23.039.256.154.026.116-.038.231-.154.257-.372.103-.692.09-1.167-.398.244.231.654.09 1.065-.013Z"/></svg>