<svg xmlns="http://www.w3.org/2000/svg" width="48" height="49" fill="none"><rect width="48" height="48" y=".991" fill="url(#a)" rx="24"/><path fill="#fff" d="M24.494 33.42a7.157 7.157 0 0 1-7.153-7.152c0-3.838 6.475-10.615 6.75-10.899l.339-.357.348.348c.284.284 6.869 7.061 6.869 10.899 0 3.956-3.206 7.162-7.153 7.162Zm-.055-17.025a49.049 49.049 0 0 0-2.94 3.498c-2.097 2.766-3.205 4.964-3.205 6.366a6.21 6.21 0 0 0 6.2 6.2 6.21 6.21 0 0 0 6.2-6.2c0-1.402-1.126-3.6-3.26-6.366a50.907 50.907 0 0 0-2.995-3.498Z"/><path fill="#fff" d="M24.494 35.71c-5.211 0-9.442-4.24-9.442-9.442 0-5.092 7.107-12.2 7.409-12.492a.487.487 0 0 1 .678 0 .487.487 0 0 1 0 .677c-.074.074-7.126 7.126-7.126 11.815 0 4.68 3.81 8.49 8.49 8.49s8.49-3.81 8.49-8.49c0-1.923-1.245-4.58-3.608-7.702a44.794 44.794 0 0 0-3.655-4.222.47.47 0 0 1 0-.678.47.47 0 0 1 .678 0c.311.302 7.547 7.5 7.547 12.602-.019 5.202-4.25 9.442-9.461 9.442Z"/><path fill="#fff" d="M24.494 38C18.156 38 13 32.844 13 26.506c0-2.62 1.319-5.843 3.91-9.57 1.915-2.748 3.792-4.708 3.875-4.79a.478.478 0 1 1 .687.668 42.795 42.795 0 0 0-3.783 4.68c-2.445 3.508-3.736 6.622-3.736 9.012 0 5.806 4.725 10.541 10.541 10.541 5.816 0 10.541-4.725 10.541-10.541 0-2.39-1.3-5.504-3.764-9.012a42.968 42.968 0 0 0-3.819-4.68.478.478 0 1 1 .687-.669c.32.33 7.849 8.152 7.849 14.361C35.988 32.844 30.832 38 24.494 38Z"/><defs><linearGradient id="a" x1="24.022" x2="24.022" y1="48.967" y2="1.016" gradientUnits="userSpaceOnUse"><stop stop-color="#05AAC5"/><stop offset="1" stop-color="#71E0EC"/></linearGradient></defs></svg>