<svg xmlns="http://www.w3.org/2000/svg" width="48" height="48" fill="none"><path fill="#fff" d="M24 48c13.255 0 24-10.745 24-24S37.255 0 24 0 0 10.745 0 24s10.745 24 24 24Z"/><path fill="#8045FF" d="M37.87 10.47a19.53 19.53 0 0 0-5.8-4.042c.294-.59.48-1.23.546-1.886l-.094-.042c-.306.584-.65 1.148-1.028 1.688a21.016 21.016 0 0 1-1.346 1.746l1.11.012a10.06 10.06 0 0 1-5.41 4.238c-.01.912-1.4 2.524-1.4 2.524a14.676 14.676 0 0 0 4.456-2.17c9.582.44 11.92 6.052 12.576 7.112.094.152.02.292 0 .268a8.785 8.785 0 0 0-5.454-4.21l1.014 1.25a22.74 22.74 0 0 0-8.068-2.178 18.384 18.384 0 0 1 10.296 5.926 18.126 18.126 0 0 1 3.534 8.088c.022.16.036.286.042.372.427-1.604.647-3.255.656-4.914a19.298 19.298 0 0 0-5.63-13.782Zm-10.4-5.468-.278-.048-.24-.038h-.034l-.428-.06h-.028l-.236-.028a18.106 18.106 0 0 0-.462-.046h-.056l-.174-.014a18.51 18.51 0 0 0-.552-.036c-.16 0-.322-.014-.482-.018h-.764c-.248 0-.496.01-.742.024l-.244.014a19.512 19.512 0 0 0-17.6 14.366 19.72 19.72 0 0 0-.65 5.07c-.009.376.011.751.06 1.124.025.166.063.33.112.49l.016.054c.33.99.773 1.939 1.322 2.826.33.581.7 1.14 1.104 1.672.168.23.35.452.542.662l.058.066.072.078.2.218.044.046a12.485 12.485 0 0 0 3.426 2.44c1.952.947 4.072 1.5 6.238 1.626.753.051 1.508.046 2.26-.016h.112a9.268 9.268 0 0 0 2.38-.502 5.688 5.688 0 0 0 1.788-.93 6.963 6.963 0 0 0 1.712-1.824 6.52 6.52 0 0 0 1.08-3.432 7.21 7.21 0 0 0-6.9-6.4 8.491 8.491 0 0 0-.4-.028h-.756l-.222.01-.19.014-.166.016a10.24 10.24 0 0 0-1.194.196c-2.67.612-1.742 2.752-1.71 2.824a8.714 8.714 0 0 1-1.856-.374h-.028l-.118-.042a5.077 5.077 0 0 1-1.744-1.028l-.048-.046a4.754 4.754 0 0 1-.836-1.104c-.369.232-.725.483-1.068.752a13.942 13.942 0 0 1-.158-4.154c.324-1.568 2.822-3.456 2.822-3.456s-.312 1.61 1.12 1.626c1.432.016 3.102-2.238 3.166-2.042.064.196 1.37.212 1.37.212s-.588 0-1.098-1.056c-.51-1.056 1.076-2.6 3.702-3.54a13.487 13.487 0 0 0 4.68-3.2c.652.074.828 1.9.828 1.9a20.17 20.17 0 0 0 4.626-3.884 19.32 19.32 0 0 0-3.376-.984l-.002.004Zm-6.784 8.28c-1.336.52-1.168 1.44-1.168 1.44a3.6 3.6 0 0 0 2.18-.432 4.171 4.171 0 0 0 1.638-2.252c-.858.462-1.742.873-2.648 1.232l-.002.012Zm-8.578 5.106c-.4-.134-.924.336-1.168 1.054-.11.303-.146.627-.108.946.021-.143.055-.283.102-.42.246-.718.768-1.19 1.168-1.054a.686.686 0 0 1 .39.6c.084-.552-.062-1.02-.382-1.128l-.002.002Zm8.578-5.106c-1.336.52-1.168 1.44-1.168 1.44a3.593 3.593 0 0 0 2.178-.432 4.175 4.175 0 0 0 1.64-2.252c-.858.462-1.742.873-2.648 1.232l-.002.012Zm-8.578 5.106c-.4-.134-.924.336-1.168 1.054-.11.303-.146.627-.108.946.021-.143.055-.283.102-.42.246-.718.768-1.19 1.168-1.054a.686.686 0 0 1 .39.6c.084-.552-.062-1.02-.382-1.128l-.002.002Zm8.578-5.106c-1.336.52-1.168 1.44-1.168 1.44a3.593 3.593 0 0 0 2.178-.432 4.175 4.175 0 0 0 1.64-2.252c-.858.462-1.742.873-2.648 1.232l-.002.012Zm-8.578 5.106c-.4-.134-.924.336-1.168 1.054-.11.303-.146.627-.108.946.021-.143.055-.283.102-.42.246-.718.768-1.19 1.168-1.054a.686.686 0 0 1 .39.6c.086-.552-.062-1.02-.382-1.128l-.002.002Z"/><path fill="#522F9E" d="M35.618 38.618A12.11 12.11 0 0 1 28.58 43.1c-.492.104-.987.187-1.486.248l-.2.024-.2.02h-.058a22.699 22.699 0 0 1-10.232-1.416c-1.14-.438-2.228-1-3.246-1.674a19.81 19.81 0 0 1-3.018-2.498 21.675 21.675 0 0 1-5.576-12.522c.026.166.063.33.112.49a13.2 13.2 0 0 0 1.338 2.88c.33.58.699 1.14 1.102 1.672.169.23.35.451.542.662l.058.064.072.08.2.218.044.046a12.47 12.47 0 0 0 3.426 2.438 16.5 16.5 0 0 0 6.236 1.628c.753.051 1.508.046 2.26-.016h.112a9.303 9.303 0 0 0 2.38-.502 5.647 5.647 0 0 0 1.788-.93 6.963 6.963 0 0 0 1.712-1.824 6.526 6.526 0 0 0 1.08-3.432c.036-3.038-3.22-6.49-7.786-6.446h-.528l-.214.018c-.118 0-.236.022-.354.038h-.026c-.298.04-.6.094-.908.164-1.56.358-1.892 1.238-1.892 1.922.002.31.064.619.182.906h-.014a8.78 8.78 0 0 1-1.856-.374h-.028l-.118-.042a5.051 5.051 0 0 1-1.742-1.028l-.048-.046a4.456 4.456 0 0 1-.48-.548 5.401 5.401 0 0 1-.356-.556 16.416 16.416 0 0 1 8.15-2.518l.296-.012a20.22 20.22 0 0 1 3.156.154 16.03 16.03 0 0 1 2.884.6h.01a6.673 6.673 0 0 0-.836-1.174c-.4-.462-1.44-1.676-2.13-1.664l.2-.012c.423-.02.849-.02 1.278 0a14.683 14.683 0 0 1 10.852 5.26l.052.056.064.082a15.516 15.516 0 0 1 1.904 3.288c.49 1.39.814 2.832.964 4.298a10.43 10.43 0 0 1-2.084 7.496Z"/><path fill="#391A7D" d="M35.618 38.618A12.11 12.11 0 0 1 28.58 43.1c-.492.104-.987.187-1.486.248l-.2.024-.2.02h-.058l-.4.036a21.697 21.697 0 0 1-3.976-.054 17.188 17.188 0 0 1-5.852-1.4l-.152-.08c.248-.012.506 0 .758 0a13.53 13.53 0 0 0 9-3.556 12.215 12.215 0 0 0 4.284-8.896c0-.346-.016-.698-.048-1.044l-.016-.16-.066.148a6.845 6.845 0 0 1-4.214 3.788l-.044.014a6.01 6.01 0 0 0 .84-1.772 6.49 6.49 0 0 0 .27-1.674 7.256 7.256 0 0 0-7.17-6.428h-1.134l-.214.018a6.49 6.49 0 0 0-.354.038h-.026c-.302.04-.6.094-.92.166-2.668.61-1.74 2.752-1.71 2.824a5.287 5.287 0 0 1-4.65-2.612 16.42 16.42 0 0 1 8.162-2.518l.298-.012c.4-.013.808-.013 1.222 0 .639.021 1.28.073 1.922.154.981.11 1.95.31 2.894.6a6.819 6.819 0 0 0-.836-1.174c-.4-.458-1.428-1.66-2.118-1.664h-.018l.216-.012c.424-.02.85-.02 1.278 0a14.682 14.682 0 0 1 10.84 5.26l.052.056.076.082a9.711 9.711 0 0 1 1.904 3.288c.49 1.39.814 2.832.964 4.298a10.43 10.43 0 0 1-2.08 7.512Z" opacity=".7"/></svg>