<svg width="25" height="24" viewBox="0 0 25 24" fill="none" xmlns="http://www.w3.org/2000/svg">
<path d="M12.0005 24.0011C18.6283 24.0011 24.0011 18.6283 24.0011 12.0005C24.0011 5.37283 18.6283 0 12.0005 0C5.37283 0 0 5.37283 0 12.0005C0 18.6283 5.37283 24.0011 12.0005 24.0011Z" fill="#2D374B"/>
<path d="M13.8796 11.3033L15.1034 9.2268L18.402 14.3645L18.4035 15.3504L18.3928 8.56568C18.385 8.39984 18.2969 8.24811 18.1564 8.15864L12.2177 4.74262C12.0788 4.67436 11.9026 4.67508 11.764 4.74474C11.7453 4.75415 11.7276 4.76434 11.7108 4.77546L11.6901 4.78849L5.92568 8.12896L5.90329 8.13909C5.87454 8.15233 5.84547 8.16914 5.81817 8.18869C5.7089 8.26709 5.63629 8.38298 5.61281 8.51299C5.6093 8.53269 5.60671 8.55275 5.60547 8.57297L5.61452 14.1019L8.687 9.33969C9.07382 8.70821 9.91666 8.50482 10.699 8.51588L11.6173 8.54014L6.2068 17.2171L6.84459 17.5843L12.32 8.54893L14.7401 8.54014L9.27882 17.8035L11.5546 19.1125L11.8266 19.2689C11.9416 19.3156 12.0772 19.318 12.1932 19.2761L18.2153 15.7862L17.0639 16.4534L13.8796 11.3033ZM14.3465 18.0282L12.0479 14.4205L13.4511 12.0395L16.4699 16.7976L14.3465 18.0282Z" fill="#2D374B"/>
<path d="M12.0469 14.4205L14.3455 18.0282L16.4689 16.7976L13.4501 12.0395L12.0469 14.4205Z" fill="#28A0F0"/>
<path d="M18.4028 15.3504L18.4013 14.3645L15.1027 9.22681L13.8789 11.3033L17.0632 16.4534L18.2146 15.7862C18.3276 15.6945 18.3959 15.5599 18.4031 15.4146L18.4028 15.3504Z" fill="#28A0F0"/>
<path d="M4.58013 16.2803L6.20602 17.2171L11.6165 8.54018L10.6983 8.51593C9.91588 8.50486 9.07309 8.70825 8.68622 9.33973L5.61374 14.1019L4.58008 15.6901V16.2803H4.58013Z" fill="white"/>
<path d="M14.7392 8.54016L12.3191 8.54895L6.84375 17.5843L8.75753 18.6862L9.27798 17.8035L14.7392 8.54016Z" fill="white"/>
<path d="M19.4226 8.52767C19.4024 8.02155 19.1284 7.55819 18.6991 7.28845L12.6826 3.82852C12.258 3.61469 11.7275 3.61443 11.3022 3.82837C11.2519 3.85371 5.4512 7.21791 5.4512 7.21791C5.37094 7.25639 5.29363 7.30226 5.22087 7.35428C4.83767 7.62894 4.60407 8.05568 4.58008 8.52457V15.6901L5.61374 14.1019L5.60469 8.57303C5.60593 8.55281 5.60846 8.53295 5.61203 8.5133C5.63535 8.38318 5.70801 8.26714 5.81739 8.18874C5.84469 8.16919 11.7444 4.7542 11.7632 4.74479C11.9019 4.67513 12.0781 4.67441 12.2169 4.74267L18.1556 8.15869C18.2961 8.24816 18.3842 8.39989 18.392 8.56573V15.4147C18.3848 15.56 18.3274 15.6945 18.2145 15.7863L17.0631 16.4534L16.4691 16.7977L14.3457 18.0282L12.1923 19.2762C12.0763 19.3181 11.9407 19.3157 11.8257 19.2689L9.27799 17.8036L8.75754 18.6862L11.0471 20.0045C11.1228 20.0475 11.1903 20.0857 11.2457 20.1168C11.3314 20.1649 11.3898 20.197 11.4104 20.207C11.5732 20.286 11.8073 20.332 12.0183 20.332C12.2117 20.332 12.4003 20.2965 12.5788 20.2266L18.8334 16.6044C19.1924 16.3262 19.4036 15.9068 19.4226 15.4524V8.52767Z" fill="#96BEDC"/>
</svg>
