<svg width="25" height="24" viewBox="0 0 25 24" fill="none" xmlns="http://www.w3.org/2000/svg">
<path d="M12.0005 24.0005C18.6283 24.0005 24.0011 18.6277 24.0011 12C24.0011 5.37228 18.6283 -0.000549316 12.0005 -0.000549316C5.37283 -0.000549316 0 5.37228 0 12C0 18.6277 5.37283 24.0005 12.0005 24.0005Z" fill="#FF0420"/>
<path d="M7.95583 15.2507C7.23252 15.2507 6.63989 15.0822 6.17794 14.7451C5.72207 14.4021 5.49414 13.9146 5.49414 13.2826C5.49414 13.1502 5.50934 12.9876 5.53973 12.795C5.61874 12.3617 5.73119 11.8411 5.87707 11.2332C6.29039 9.57801 7.35712 8.75043 9.07727 8.75043C9.54529 8.75043 9.96469 8.82867 10.3355 8.98516C10.7062 9.13563 10.998 9.36434 11.2107 9.6713C11.4235 9.97224 11.5298 10.3334 11.5298 10.7547C11.5298 10.8811 11.5147 11.0406 11.4843 11.2332C11.3931 11.7689 11.2837 12.2895 11.156 12.795C10.9433 13.6196 10.5756 14.2365 10.0528 14.6458C9.53008 15.0491 8.8311 15.2507 7.95583 15.2507ZM8.08347 13.9507C8.42386 13.9507 8.71257 13.8513 8.94964 13.6527C9.19275 13.4541 9.36598 13.1502 9.4693 12.7409C9.60912 12.1751 9.71547 11.6816 9.78843 11.2603C9.81275 11.1339 9.8249 11.0045 9.8249 10.8721C9.8249 10.3243 9.53616 10.0505 8.95874 10.0505C8.61836 10.0505 8.3266 10.1498 8.08347 10.3484C7.84642 10.547 7.67623 10.851 7.5729 11.2603C7.46349 11.6635 7.35408 12.1571 7.24468 12.7409C7.22036 12.8612 7.20821 12.9876 7.20821 13.1201C7.20821 13.6738 7.49996 13.9507 8.08347 13.9507Z" fill="white"/>
<path d="M12.4552 15.1604C12.3883 15.1604 12.3366 15.1394 12.3002 15.0972C12.2698 15.0491 12.2606 14.9949 12.2728 14.9347L13.531 9.0664C13.5431 9.0002 13.5766 8.94603 13.6313 8.9039C13.686 8.86176 13.7437 8.8407 13.8045 8.8407H16.2297C16.9044 8.8407 17.4454 8.97913 17.8526 9.256C18.2659 9.53286 18.4726 9.93311 18.4726 10.4567C18.4726 10.6072 18.4544 10.7637 18.4179 10.9262C18.2659 11.6184 17.959 12.13 17.497 12.461C17.0412 12.792 16.4151 12.9575 15.6188 12.9575H14.388L13.9686 14.9347C13.9565 15.0009 13.923 15.0551 13.8683 15.0972C13.8136 15.1394 13.7559 15.1604 13.6951 15.1604H12.4552ZM15.6827 11.7117C15.938 11.7117 16.1598 11.6424 16.3482 11.504C16.5428 11.3656 16.6704 11.167 16.7312 10.9082C16.7494 10.8058 16.7585 10.7156 16.7585 10.6373C16.7585 10.4628 16.7069 10.3303 16.6035 10.2401C16.5002 10.1438 16.3239 10.0956 16.0747 10.0956H14.9806L14.6342 11.7117H15.6827Z" fill="white"/>
</svg>
