<svg width="1430" height="1430" viewBox="0 0 1430 1430" fill="none" xmlns="http://www.w3.org/2000/svg">
<g filter="url(#filter0_f_720_1605)">
<circle cx="715" cy="715" r="451" fill="url(#paint0_radial_720_1605)"/>
</g>
<circle cx="715" cy="466" r="267" fill="url(#paint1_linear_720_1605)"/>
<path d="M739 730L763 716L787 730L763 744L739 730Z" fill="#FFB8B4"/>
<path d="M763 767L787 753V730L763 744V767Z" fill="#EA6463"/>
<path d="M739 730V753L763 767V744L739 730Z" fill="#F88887"/>
<path d="M761 728L769.226 723.299C770.598 722.515 772.31 722.646 773.547 723.63C775.679 725.325 775.434 728.636 773.074 729.999L766.9 733.563L761 728Z" fill="#FBA39F"/>
<path fill-rule="evenodd" clip-rule="evenodd" d="M770 724.5H756V730.5C756 732.709 759.134 734.5 763 734.5C766.866 734.5 770 732.709 770 730.5V724.5Z" fill="#F88887"/>
<ellipse cx="763" cy="724.5" rx="7" ry="4" fill="#FFEDEF"/>
<path d="M475 604L499 590L523 604L499 618L475 604Z" fill="#FFB8B4"/>
<path d="M499 641L523 627V604L499 618V641Z" fill="#EA6463"/>
<path d="M475 604V627L499 641V618L475 604Z" fill="#F88887"/>
<path d="M497 602L505.226 597.299C506.598 596.515 508.31 596.646 509.547 597.63C511.679 599.325 511.434 602.636 509.074 603.999L502.9 607.563L497 602Z" fill="#FBA39F"/>
<path fill-rule="evenodd" clip-rule="evenodd" d="M506 598.5H492V604.5C492 606.709 495.134 608.5 499 608.5C502.866 608.5 506 606.709 506 604.5V598.5Z" fill="#F88887"/>
<ellipse cx="499" cy="598.5" rx="7" ry="4" fill="#FFEDEF"/>
<path d="M451 618L475 604L499 618L475 632L451 618Z" fill="#FFB8B4"/>
<path d="M475 655L499 641V618L475 632V655Z" fill="#EA6463"/>
<path d="M451 618V641L475 655V632L451 618Z" fill="#F88887"/>
<path d="M473 616L481.226 611.299C482.598 610.515 484.31 610.646 485.547 611.63C487.679 613.325 487.434 616.636 485.074 617.999L478.9 621.563L473 616Z" fill="#FBA39F"/>
<path fill-rule="evenodd" clip-rule="evenodd" d="M482 612.5H468V618.5C468 620.709 471.134 622.5 475 622.5C478.866 622.5 482 620.709 482 618.5V612.5Z" fill="#F88887"/>
<ellipse cx="475" cy="612.5" rx="7" ry="4" fill="#FFEDEF"/>
<path d="M499 618L523 604L547 618L523 632L499 618Z" fill="#FFB8B4"/>
<path d="M523 655L547 641V618L523 632V655Z" fill="#EA6463"/>
<path d="M499 618V641L523 655V632L499 618Z" fill="#F88887"/>
<path d="M521 616L529.226 611.299C530.598 610.515 532.31 610.646 533.547 611.63C535.679 613.325 535.434 616.636 533.074 617.999L526.9 621.563L521 616Z" fill="#FBA39F"/>
<path fill-rule="evenodd" clip-rule="evenodd" d="M530 612.5H516V618.5C516 620.709 519.134 622.5 523 622.5C526.866 622.5 530 620.709 530 618.5V612.5Z" fill="#F88887"/>
<ellipse cx="523" cy="612.5" rx="7" ry="4" fill="#FFEDEF"/>
<path d="M475 632L499 618L523 632L499 646L475 632Z" fill="#FFB8B4"/>
<path d="M499 669L523 655V632L499 646V669Z" fill="#EA6463"/>
<path d="M475 632V655L499 669V646L475 632Z" fill="#F88887"/>
<path d="M497 630L505.226 625.299C506.598 624.515 508.31 624.646 509.547 625.63C511.679 627.325 511.434 630.636 509.074 631.999L502.9 635.563L497 630Z" fill="#FBA39F"/>
<path fill-rule="evenodd" clip-rule="evenodd" d="M506 626.5H492V632.5C492 634.709 495.134 636.5 499 636.5C502.866 636.5 506 634.709 506 632.5V626.5Z" fill="#F88887"/>
<ellipse cx="499" cy="626.5" rx="7" ry="4" fill="#FFEDEF"/>
<path d="M403 506L427 492L451 506L427 520L403 506Z" fill="#CDBEFF"/>
<path d="M427 543L451 529V506L427 520V543Z" fill="#936DFF"/>
<path d="M403 506V529L427 543V520L403 506Z" fill="#A080FF"/>
<path d="M425 504L433.226 499.299C434.598 498.515 436.31 498.646 437.547 499.63C439.679 501.325 439.434 504.636 437.074 505.999L430.9 509.563L425 504Z" fill="#BCAAFC"/>
<path fill-rule="evenodd" clip-rule="evenodd" d="M434 500.5H420V506.5C420 508.709 423.134 510.5 427 510.5C430.866 510.5 434 508.709 434 506.5V500.5Z" fill="#9573FD"/>
<ellipse cx="427" cy="500.5" rx="7" ry="4" fill="#F7EEFF"/>
<path d="M883 450L907 436L931 450L907 464L883 450Z" fill="#CDBEFF"/>
<path d="M907 487L931 473V450L907 464V487Z" fill="#936DFF"/>
<path d="M883 450V473L907 487V464L883 450Z" fill="#A080FF"/>
<path d="M905 448L913.226 443.299C914.598 442.515 916.31 442.646 917.547 443.63C919.679 445.325 919.434 448.636 917.074 449.999L910.9 453.563L905 448Z" fill="#BCAAFC"/>
<path fill-rule="evenodd" clip-rule="evenodd" d="M914 444.5H900V450.5C900 452.709 903.134 454.5 907 454.5C910.866 454.5 914 452.709 914 450.5V444.5Z" fill="#9573FD"/>
<ellipse cx="907" cy="444.5" rx="7" ry="4" fill="#F7EEFF"/>
<path d="M907 464L931 450L955 464L931 478L907 464Z" fill="#CDBEFF"/>
<path d="M931 501L955 487V464L931 478V501Z" fill="#936DFF"/>
<path d="M907 464V487L931 501V478L907 464Z" fill="#A080FF"/>
<path d="M929 462L937.226 457.299C938.598 456.515 940.31 456.646 941.547 457.63C943.679 459.325 943.434 462.636 941.074 463.999L934.9 467.563L929 462Z" fill="#BCAAFC"/>
<path fill-rule="evenodd" clip-rule="evenodd" d="M938 458.5H924V464.5C924 466.709 927.134 468.5 931 468.5C934.866 468.5 938 466.709 938 464.5V458.5Z" fill="#9573FD"/>
<ellipse cx="931" cy="458.5" rx="7" ry="4" fill="#F7EEFF"/>
<path d="M763 324L787 310L811 324L787 338L763 324Z" fill="#99D4FF"/>
<path d="M787 361L811 347V324L787 338V361Z" fill="#2F83FF"/>
<path d="M763 324V347L787 361V338L763 324Z" fill="#2FA9FF"/>
<path d="M785 322L793.226 317.299C794.598 316.515 796.31 316.646 797.547 317.63C799.679 319.325 799.434 322.636 797.074 323.999L790.9 327.563L785 322Z" fill="#83C0FF"/>
<path fill-rule="evenodd" clip-rule="evenodd" d="M794 318.5H780V324.5C780 326.709 783.134 328.5 787 328.5C790.866 328.5 794 326.709 794 324.5V318.5Z" fill="#2FA9FF"/>
<ellipse cx="787" cy="318.5" rx="7" ry="4" fill="#EFF8FF"/>
<path d="M739 338L763 324L787 338L763 352L739 338Z" fill="#99D4FF"/>
<path d="M763 375L787 361V338L763 352V375Z" fill="#2F83FF"/>
<path d="M739 338V361L763 375V352L739 338Z" fill="#2FA9FF"/>
<path d="M761 336L769.226 331.299C770.598 330.515 772.31 330.646 773.547 331.63C775.679 333.325 775.434 336.636 773.074 337.999L766.9 341.563L761 336Z" fill="#83C0FF"/>
<path fill-rule="evenodd" clip-rule="evenodd" d="M770 332.5H756V338.5C756 340.709 759.134 342.5 763 342.5C766.866 342.5 770 340.709 770 338.5V332.5Z" fill="#2FA9FF"/>
<ellipse cx="763" cy="332.5" rx="7" ry="4" fill="#EFF8FF"/>
<path d="M787 338L811 324L835 338L811 352L787 338Z" fill="#99D4FF"/>
<path d="M811 375L835 361V338L811 352V375Z" fill="#2F83FF"/>
<path d="M787 338V361L811 375V352L787 338Z" fill="#2FA9FF"/>
<path d="M809 336L817.226 331.299C818.598 330.515 820.31 330.646 821.547 331.63C823.679 333.325 823.434 336.636 821.074 337.999L814.9 341.563L809 336Z" fill="#83C0FF"/>
<path fill-rule="evenodd" clip-rule="evenodd" d="M818 332.5H804V338.5C804 340.709 807.134 342.5 811 342.5C814.866 342.5 818 340.709 818 338.5V332.5Z" fill="#2FA9FF"/>
<ellipse cx="811" cy="332.5" rx="7" ry="4" fill="#EFF8FF"/>
<path d="M763 352L787 338L811 352L787 366L763 352Z" fill="#99D4FF"/>
<path d="M787 389L811 375V352L787 366V389Z" fill="#2F83FF"/>
<path d="M763 352V375L787 389V366L763 352Z" fill="#2FA9FF"/>
<path d="M785 350L793.226 345.299C794.598 344.515 796.31 344.646 797.547 345.63C799.679 347.325 799.434 350.636 797.074 351.999L790.9 355.563L785 350Z" fill="#83C0FF"/>
<path fill-rule="evenodd" clip-rule="evenodd" d="M794 346.5H780V352.5C780 354.709 783.134 356.5 787 356.5C790.866 356.5 794 354.709 794 352.5V346.5Z" fill="#2FA9FF"/>
<ellipse cx="787" cy="346.5" rx="7" ry="4" fill="#EFF8FF"/>
<path d="M811 352L835 338L859 352L835 366L811 352Z" fill="#CDBEFF"/>
<path d="M835 389L859 375V352L835 366V389Z" fill="#936DFF"/>
<path d="M811 352V375L835 389V366L811 352Z" fill="#A080FF"/>
<path d="M833 350L841.226 345.299C842.598 344.515 844.31 344.646 845.547 345.63C847.679 347.325 847.434 350.636 845.074 351.999L838.9 355.563L833 350Z" fill="#BCAAFC"/>
<path fill-rule="evenodd" clip-rule="evenodd" d="M842 346.5H828V352.5C828 354.709 831.134 356.5 835 356.5C838.866 356.5 842 354.709 842 352.5V346.5Z" fill="#9573FD"/>
<ellipse cx="835" cy="346.5" rx="7" ry="4" fill="#F7EEFF"/>
<path d="M787 366L811 352L835 366L811 380L787 366Z" fill="#CDBEFF"/>
<path d="M811 403L835 389V366L811 380V403Z" fill="#936DFF"/>
<path d="M787 366V389L811 403V380L787 366Z" fill="#A080FF"/>
<path d="M809 364L817.226 359.299C818.598 358.515 820.31 358.646 821.547 359.63C823.679 361.325 823.434 364.636 821.074 365.999L814.9 369.563L809 364Z" fill="#BCAAFC"/>
<path fill-rule="evenodd" clip-rule="evenodd" d="M818 360.5H804V366.5C804 368.709 807.134 370.5 811 370.5C814.866 370.5 818 368.709 818 366.5V360.5Z" fill="#9573FD"/>
<ellipse cx="811" cy="360.5" rx="7" ry="4" fill="#F7EEFF"/>
<path d="M859 352L883 338L907 352L883 366L859 352Z" fill="#99D4FF"/>
<path d="M883 389L907 375V352L883 366V389Z" fill="#2F83FF"/>
<path d="M859 352V375L883 389V366L859 352Z" fill="#2FA9FF"/>
<path d="M881 350L889.226 345.299C890.598 344.515 892.31 344.646 893.547 345.63C895.679 347.325 895.434 350.636 893.074 351.999L886.9 355.563L881 350Z" fill="#83C0FF"/>
<path fill-rule="evenodd" clip-rule="evenodd" d="M890 346.5H876V352.5C876 354.709 879.134 356.5 883 356.5C886.866 356.5 890 354.709 890 352.5V346.5Z" fill="#2FA9FF"/>
<ellipse cx="883" cy="346.5" rx="7" ry="4" fill="#EEFFF2"/>
<path d="M835 366L859 352L883 366L859 380L835 366Z" fill="#CDBEFF"/>
<path d="M859 403L883 389V366L859 380V403Z" fill="#936DFF"/>
<path d="M835 366V389L859 403V380L835 366Z" fill="#A080FF"/>
<path d="M857 364L865.226 359.299C866.598 358.515 868.31 358.646 869.547 359.63C871.679 361.325 871.434 364.636 869.074 365.999L862.9 369.563L857 364Z" fill="#BCAAFC"/>
<path fill-rule="evenodd" clip-rule="evenodd" d="M866 360.5H852V366.5C852 368.709 855.134 370.5 859 370.5C862.866 370.5 866 368.709 866 366.5V360.5Z" fill="#9573FD"/>
<ellipse cx="859" cy="360.5" rx="7" ry="4" fill="#F7EEFF"/>
<path d="M811 380L835 366L859 380L835 394L811 380Z" fill="#CDBEFF"/>
<path d="M835 417L859 403V380L835 394V417Z" fill="#936DFF"/>
<path d="M811 380V403L835 417V394L811 380Z" fill="#A080FF"/>
<path d="M833 378L841.226 373.299C842.598 372.515 844.31 372.646 845.547 373.63C847.679 375.325 847.434 378.636 845.074 379.999L838.9 383.563L833 378Z" fill="#BCAAFC"/>
<path fill-rule="evenodd" clip-rule="evenodd" d="M842 374.5H828V380.5C828 382.709 831.134 384.5 835 384.5C838.866 384.5 842 382.709 842 380.5V374.5Z" fill="#9573FD"/>
<ellipse cx="835" cy="374.5" rx="7" ry="4" fill="#F7EEFF"/>
<path d="M835 394L859 380L883 394L859 408L835 394Z" fill="#FFB8B4"/>
<path d="M859 431L883 417V394L859 408V431Z" fill="#EA6463"/>
<path d="M835 394V417L859 431V408L835 394Z" fill="#F88887"/>
<path d="M857 392L865.226 387.299C866.598 386.515 868.31 386.646 869.547 387.63C871.679 389.325 871.434 392.636 869.074 393.999L862.9 397.563L857 392Z" fill="#FBA39F"/>
<path fill-rule="evenodd" clip-rule="evenodd" d="M866 388.5H852V394.5C852 396.709 855.134 398.5 859 398.5C862.866 398.5 866 396.709 866 394.5V388.5Z" fill="#F88887"/>
<ellipse cx="859" cy="388.5" rx="7" ry="4" fill="#FFEDEF"/>
<path d="M715 352L739 338L763 352L739 366L715 352Z" fill="#CDBEFF"/>
<path d="M739 389L763 375V352L739 366V389Z" fill="#936DFF"/>
<path d="M715 352V375L739 389V366L715 352Z" fill="#A080FF"/>
<path d="M737 350L745.226 345.299C746.598 344.515 748.31 344.646 749.547 345.63C751.679 347.325 751.434 350.636 749.074 351.999L742.9 355.563L737 350Z" fill="#BCAAFC"/>
<path fill-rule="evenodd" clip-rule="evenodd" d="M746 346.5H732V352.5C732 354.709 735.134 356.5 739 356.5C742.866 356.5 746 354.709 746 352.5V346.5Z" fill="#9573FD"/>
<ellipse cx="739" cy="346.5" rx="7" ry="4" fill="#F7EEFF"/>
<path d="M691 366L715 352L739 366L715 380L691 366Z" fill="#CDBEFF"/>
<path d="M715 403L739 389V366L715 380V403Z" fill="#936DFF"/>
<path d="M691 366V389L715 403V380L691 366Z" fill="#A080FF"/>
<path d="M713 364L721.226 359.299C722.598 358.515 724.31 358.646 725.547 359.63C727.679 361.325 727.434 364.636 725.074 365.999L718.9 369.563L713 364Z" fill="#BCAAFC"/>
<path fill-rule="evenodd" clip-rule="evenodd" d="M722 360.5H708V366.5C708 368.709 711.134 370.5 715 370.5C718.866 370.5 722 368.709 722 366.5V360.5Z" fill="#9573FD"/>
<ellipse cx="715" cy="360.5" rx="7" ry="4" fill="#F7EEFF"/>
<path d="M739 366L763 352L787 366L763 380L739 366Z" fill="#CDBEFF"/>
<path d="M763 403L787 389V366L763 380V403Z" fill="#936DFF"/>
<path d="M739 366V389L763 403V380L739 366Z" fill="#A080FF"/>
<path d="M761 364L769.226 359.299C770.598 358.515 772.31 358.646 773.547 359.63C775.679 361.325 775.434 364.636 773.074 365.999L766.9 369.563L761 364Z" fill="#BCAAFC"/>
<path fill-rule="evenodd" clip-rule="evenodd" d="M770 360.5H756V366.5C756 368.709 759.134 370.5 763 370.5C766.866 370.5 770 368.709 770 366.5V360.5Z" fill="#9573FD"/>
<ellipse cx="763" cy="360.5" rx="7" ry="4" fill="#F7EEFF"/>
<path d="M715 380L739 366L763 380L739 394L715 380Z" fill="#CDBEFF"/>
<path d="M739 417L763 403V380L739 394V417Z" fill="#936DFF"/>
<path d="M715 380V403L739 417V394L715 380Z" fill="#A080FF"/>
<path d="M737 378L745.226 373.299C746.598 372.515 748.31 372.646 749.547 373.63C751.679 375.325 751.434 378.636 749.074 379.999L742.9 383.563L737 378Z" fill="#BCAAFC"/>
<path fill-rule="evenodd" clip-rule="evenodd" d="M746 374.5H732V380.5C732 382.709 735.134 384.5 739 384.5C742.866 384.5 746 382.709 746 380.5V374.5Z" fill="#9573FD"/>
<ellipse cx="739" cy="374.5" rx="7" ry="4" fill="#F7EEFF"/>
<path d="M763 380L787 366L811 380L787 394L763 380Z" fill="#CDBEFF"/>
<path d="M787 417L811 403V380L787 394V417Z" fill="#936DFF"/>
<path d="M763 380V403L787 417V394L763 380Z" fill="#A080FF"/>
<path d="M785 378L793.226 373.299C794.598 372.515 796.31 372.646 797.547 373.63C799.679 375.325 799.434 378.636 797.074 379.999L790.9 383.563L785 378Z" fill="#BCAAFC"/>
<path fill-rule="evenodd" clip-rule="evenodd" d="M794 374.5H780V380.5C780 382.709 783.134 384.5 787 384.5C790.866 384.5 794 382.709 794 380.5V374.5Z" fill="#9573FD"/>
<ellipse cx="787" cy="374.5" rx="7" ry="4" fill="#F7EEFF"/>
<path d="M739 394L763 380L787 394L763 408L739 394Z" fill="#CDBEFF"/>
<path d="M763 431L787 417V394L763 408V431Z" fill="#936DFF"/>
<path d="M739 394V417L763 431V408L739 394Z" fill="#A080FF"/>
<path d="M761 392L769.226 387.299C770.598 386.515 772.31 386.646 773.547 387.63C775.679 389.325 775.434 392.636 773.074 393.999L766.9 397.563L761 392Z" fill="#BCAAFC"/>
<path fill-rule="evenodd" clip-rule="evenodd" d="M770 388.5H756V394.5C756 396.709 759.134 398.5 763 398.5C766.866 398.5 770 396.709 770 394.5V388.5Z" fill="#9573FD"/>
<ellipse cx="763" cy="388.5" rx="7" ry="4" fill="#F7EEFF"/>
<path d="M787 394L811 380L835 394L811 408L787 394Z" fill="#CDBEFF"/>
<path d="M811 431L835 417V394L811 408V431Z" fill="#936DFF"/>
<path d="M787 394V417L811 431V408L787 394Z" fill="#A080FF"/>
<path d="M809 392L817.226 387.299C818.598 386.515 820.31 386.646 821.547 387.63C823.679 389.325 823.434 392.636 821.074 393.999L814.9 397.563L809 392Z" fill="#BCAAFC"/>
<path fill-rule="evenodd" clip-rule="evenodd" d="M818 388.5H804V394.5C804 396.709 807.134 398.5 811 398.5C814.866 398.5 818 396.709 818 394.5V388.5Z" fill="#9573FD"/>
<ellipse cx="811" cy="388.5" rx="7" ry="4" fill="#F7EEFF"/>
<path d="M763 408L787 394L811 408L787 422L763 408Z" fill="#CDBEFF"/>
<path d="M787 445L811 431V408L787 422V445Z" fill="#936DFF"/>
<path d="M763 408V431L787 445V422L763 408Z" fill="#A080FF"/>
<path d="M785 406L793.226 401.299C794.598 400.515 796.31 400.646 797.547 401.63C799.679 403.325 799.434 406.636 797.074 407.999L790.9 411.563L785 406Z" fill="#BCAAFC"/>
<path fill-rule="evenodd" clip-rule="evenodd" d="M794 402.5H780V408.5C780 410.709 783.134 412.5 787 412.5C790.866 412.5 794 410.709 794 408.5V402.5Z" fill="#9573FD"/>
<ellipse cx="787" cy="402.5" rx="7" ry="4" fill="#F7EEFF"/>
<path d="M811 408L835 394L859 408L835 422L811 408Z" fill="#99D4FF"/>
<path d="M835 445L859 431V408L835 422V445Z" fill="#2F83FF"/>
<path d="M811 408V431L835 445V422L811 408Z" fill="#2FA9FF"/>
<path d="M833 406L841.226 401.299C842.598 400.515 844.31 400.646 845.547 401.63C847.679 403.325 847.434 406.636 845.074 407.999L838.9 411.563L833 406Z" fill="#83C0FF"/>
<path fill-rule="evenodd" clip-rule="evenodd" d="M842 402.5H828V408.5C828 410.709 831.134 412.5 835 412.5C838.866 412.5 842 410.709 842 408.5V402.5Z" fill="#2FA9FF"/>
<ellipse cx="835" cy="402.5" rx="7" ry="4" fill="#EEFFF2"/>
<path d="M787 422L811 408L835 422L811 436L787 422Z" fill="#99D4FF"/>
<path d="M811 459L835 445V422L811 436V459Z" fill="#2F83FF"/>
<path d="M787 422V445L811 459V436L787 422Z" fill="#2FA9FF"/>
<path d="M809 420L817.226 415.299C818.598 414.515 820.31 414.646 821.547 415.63C823.679 417.325 823.434 420.636 821.074 421.999L814.9 425.563L809 420Z" fill="#83C0FF"/>
<path fill-rule="evenodd" clip-rule="evenodd" d="M818 416.5H804V422.5C804 424.709 807.134 426.5 811 426.5C814.866 426.5 818 424.709 818 422.5V416.5Z" fill="#2FA9FF"/>
<ellipse cx="811" cy="416.5" rx="7" ry="4" fill="#EEFFF2"/>
<path d="M835 422L859 408L883 422L859 436L835 422Z" fill="#99D4FF"/>
<path d="M859 459L883 445V422L859 436V459Z" fill="#2F83FF"/>
<path d="M835 422V445L859 459V436L835 422Z" fill="#2FA9FF"/>
<path d="M857 420L865.226 415.299C866.598 414.515 868.31 414.646 869.547 415.63C871.679 417.325 871.434 420.636 869.074 421.999L862.9 425.563L857 420Z" fill="#83C0FF"/>
<path fill-rule="evenodd" clip-rule="evenodd" d="M866 416.5H852V422.5C852 424.709 855.134 426.5 859 426.5C862.866 426.5 866 424.709 866 422.5V416.5Z" fill="#2FA9FF"/>
<ellipse cx="859" cy="416.5" rx="7" ry="4" fill="#EEFFF2"/>
<path d="M811 436L835 422L859 436L835 450L811 436Z" fill="#99D4FF"/>
<path d="M835 473L859 459V436L835 450V473Z" fill="#2F83FF"/>
<path d="M811 436V459L835 473V450L811 436Z" fill="#2FA9FF"/>
<path d="M833 434L841.226 429.299C842.598 428.515 844.31 428.646 845.547 429.63C847.679 431.325 847.434 434.636 845.074 435.999L838.9 439.563L833 434Z" fill="#83C0FF"/>
<path fill-rule="evenodd" clip-rule="evenodd" d="M842 430.5H828V436.5C828 438.709 831.134 440.5 835 440.5C838.866 440.5 842 438.709 842 436.5V430.5Z" fill="#2FA9FF"/>
<ellipse cx="835" cy="430.5" rx="7" ry="4" fill="#EEFFF2"/>
<path d="M835 450L859 436L883 450L859 464L835 450Z" fill="#99D4FF"/>
<path d="M859 487L883 473V450L859 464V487Z" fill="#2F83FF"/>
<path d="M835 450V473L859 487V464L835 450Z" fill="#2FA9FF"/>
<path d="M857 448L865.226 443.299C866.598 442.515 868.31 442.646 869.547 443.63C871.679 445.325 871.434 448.636 869.074 449.999L862.9 453.563L857 448Z" fill="#83C0FF"/>
<path fill-rule="evenodd" clip-rule="evenodd" d="M866 444.5H852V450.5C852 452.709 855.134 454.5 859 454.5C862.866 454.5 866 452.709 866 450.5V444.5Z" fill="#2FA9FF"/>
<ellipse cx="859" cy="444.5" rx="7" ry="4" fill="#EFF8FF"/>
<path d="M859 464L883 450L907 464L883 478L859 464Z" fill="#CDBEFF"/>
<path d="M883 501L907 487V464L883 478V501Z" fill="#936DFF"/>
<path d="M859 464V487L883 501V478L859 464Z" fill="#A080FF"/>
<path d="M881 462L889.226 457.299C890.598 456.515 892.31 456.646 893.547 457.63C895.679 459.325 895.434 462.636 893.074 463.999L886.9 467.563L881 462Z" fill="#BCAAFC"/>
<path fill-rule="evenodd" clip-rule="evenodd" d="M890 458.5H876V464.5C876 466.709 879.134 468.5 883 468.5C886.866 468.5 890 466.709 890 464.5V458.5Z" fill="#9573FD"/>
<ellipse cx="883" cy="458.5" rx="7" ry="4" fill="#F7EEFF"/>
<path d="M883 478L907 464L931 478L907 492L883 478Z" fill="#CDBEFF"/>
<path d="M907 515L931 501V478L907 492V515Z" fill="#936DFF"/>
<path d="M883 478V501L907 515V492L883 478Z" fill="#A080FF"/>
<path d="M905 476L913.226 471.299C914.598 470.515 916.31 470.646 917.547 471.63C919.679 473.325 919.434 476.636 917.074 477.999L910.9 481.563L905 476Z" fill="#BCAAFC"/>
<path fill-rule="evenodd" clip-rule="evenodd" d="M914 472.5H900V478.5C900 480.709 903.134 482.5 907 482.5C910.866 482.5 914 480.709 914 478.5V472.5Z" fill="#9573FD"/>
<ellipse cx="907" cy="472.5" rx="7" ry="4" fill="#F7EEFF"/>
<path d="M763 436L787 422L811 436L787 450L763 436Z" fill="#99D4FF"/>
<path d="M787 473L811 459V436L787 450V473Z" fill="#2F83FF"/>
<path d="M763 436V459L787 473V450L763 436Z" fill="#2FA9FF"/>
<path d="M785 434L793.226 429.299C794.598 428.515 796.31 428.646 797.547 429.63C799.679 431.325 799.434 434.636 797.074 435.999L790.9 439.563L785 434Z" fill="#83C0FF"/>
<path fill-rule="evenodd" clip-rule="evenodd" d="M794 430.5H780V436.5C780 438.709 783.134 440.5 787 440.5C790.866 440.5 794 438.709 794 436.5V430.5Z" fill="#2FA9FF"/>
<ellipse cx="787" cy="430.5" rx="7" ry="4" fill="#EFF8FF"/>
<path d="M787 450L811 436L835 450L811 464L787 450Z" fill="#99D4FF"/>
<path d="M811 487L835 473V450L811 464V487Z" fill="#2F83FF"/>
<path d="M787 450V473L811 487V464L787 450Z" fill="#2FA9FF"/>
<path d="M809 448L817.226 443.299C818.598 442.515 820.31 442.646 821.547 443.63C823.679 445.325 823.434 448.636 821.074 449.999L814.9 453.563L809 448Z" fill="#83C0FF"/>
<path fill-rule="evenodd" clip-rule="evenodd" d="M818 444.5H804V450.5C804 452.709 807.134 454.5 811 454.5C814.866 454.5 818 452.709 818 450.5V444.5Z" fill="#2FA9FF"/>
<ellipse cx="811" cy="444.5" rx="7" ry="4" fill="#EFF8FF"/>
<path d="M763 464L787 450L811 464L787 478L763 464Z" fill="#99D4FF"/>
<path d="M787 501L811 487V464L787 478V501Z" fill="#2F83FF"/>
<path d="M763 464V487L787 501V478L763 464Z" fill="#2FA9FF"/>
<path d="M785 462L793.226 457.299C794.598 456.515 796.31 456.646 797.547 457.63C799.679 459.325 799.434 462.636 797.074 463.999L790.9 467.563L785 462Z" fill="#83C0FF"/>
<path fill-rule="evenodd" clip-rule="evenodd" d="M794 458.5H780V464.5C780 466.709 783.134 468.5 787 468.5C790.866 468.5 794 466.709 794 464.5V458.5Z" fill="#2FA9FF"/>
<ellipse cx="787" cy="458.5" rx="7" ry="4" fill="#EFF8FF"/>
<path d="M715 464L739 450L763 464L739 478L715 464Z" fill="#99D4FF"/>
<path d="M739 501L763 487V464L739 478V501Z" fill="#2F83FF"/>
<path d="M715 464V487L739 501V478L715 464Z" fill="#2FA9FF"/>
<path d="M737 462L745.226 457.299C746.598 456.515 748.31 456.646 749.547 457.63C751.679 459.325 751.434 462.636 749.074 463.999L742.9 467.563L737 462Z" fill="#83C0FF"/>
<path fill-rule="evenodd" clip-rule="evenodd" d="M746 458.5H732V464.5C732 466.709 735.134 468.5 739 468.5C742.866 468.5 746 466.709 746 464.5V458.5Z" fill="#2FA9FF"/>
<ellipse cx="739" cy="458.5" rx="7" ry="4" fill="#EFF8FF"/>
<path d="M739 478L763 464L787 478L763 492L739 478Z" fill="#99D4FF"/>
<path d="M763 515L787 501V478L763 492V515Z" fill="#2F83FF"/>
<path d="M739 478V501L763 515V492L739 478Z" fill="#2FA9FF"/>
<path d="M761 476L769.226 471.299C770.598 470.515 772.31 470.646 773.547 471.63C775.679 473.325 775.434 476.636 773.074 477.999L766.9 481.563L761 476Z" fill="#83C0FF"/>
<path fill-rule="evenodd" clip-rule="evenodd" d="M770 472.5H756V478.5C756 480.709 759.134 482.5 763 482.5C766.866 482.5 770 480.709 770 478.5V472.5Z" fill="#2FA9FF"/>
<ellipse cx="763" cy="472.5" rx="7" ry="4" fill="#EFF8FF"/>
<path d="M691 478L715 464L739 478L715 492L691 478Z" fill="#99D4FF"/>
<path d="M715 515L739 501V478L715 492V515Z" fill="#2F83FF"/>
<path d="M691 478V501L715 515V492L691 478Z" fill="#2FA9FF"/>
<path d="M713 476L721.226 471.299C722.598 470.515 724.31 470.646 725.547 471.63C727.679 473.325 727.434 476.636 725.074 477.999L718.9 481.563L713 476Z" fill="#83C0FF"/>
<path fill-rule="evenodd" clip-rule="evenodd" d="M722 472.5H708V478.5C708 480.709 711.134 482.5 715 482.5C718.866 482.5 722 480.709 722 478.5V472.5Z" fill="#2FA9FF"/>
<ellipse cx="715" cy="472.5" rx="7" ry="4" fill="#EFF8FF"/>
<path d="M715 492L739 478L763 492L739 506L715 492Z" fill="#99D4FF"/>
<path d="M739 529L763 515V492L739 506V529Z" fill="#2F83FF"/>
<path d="M715 492V515L739 529V506L715 492Z" fill="#2FA9FF"/>
<path d="M737 490L745.226 485.299C746.598 484.515 748.31 484.646 749.547 485.63C751.679 487.325 751.434 490.636 749.074 491.999L742.9 495.563L737 490Z" fill="#83C0FF"/>
<path fill-rule="evenodd" clip-rule="evenodd" d="M746 486.5H732V492.5C732 494.709 735.134 496.5 739 496.5C742.866 496.5 746 494.709 746 492.5V486.5Z" fill="#2FA9FF"/>
<ellipse cx="739" cy="486.5" rx="7" ry="4" fill="#EFF8FF"/>
<path d="M811 464L835 450L859 464L835 478L811 464Z" fill="#99D4FF"/>
<path d="M835 501L859 487V464L835 478V501Z" fill="#2F83FF"/>
<path d="M811 464V487L835 501V478L811 464Z" fill="#2FA9FF"/>
<path d="M833 462L841.226 457.299C842.598 456.515 844.31 456.646 845.547 457.63C847.679 459.325 847.434 462.636 845.074 463.999L838.9 467.563L833 462Z" fill="#83C0FF"/>
<path fill-rule="evenodd" clip-rule="evenodd" d="M842 458.5H828V464.5C828 466.709 831.134 468.5 835 468.5C838.866 468.5 842 466.709 842 464.5V458.5Z" fill="#2FA9FF"/>
<ellipse cx="835" cy="458.5" rx="7" ry="4" fill="#EFF8FF"/>
<path d="M835 478L859 464L883 478L859 492L835 478Z" fill="#99D4FF"/>
<path d="M859 515L883 501V478L859 492V515Z" fill="#2F83FF"/>
<path d="M835 478V501L859 515V492L835 478Z" fill="#2FA9FF"/>
<path d="M857 476L865.226 471.299C866.598 470.515 868.31 470.646 869.547 471.63C871.679 473.325 871.434 476.636 869.074 477.999L862.9 481.563L857 476Z" fill="#83C0FF"/>
<path fill-rule="evenodd" clip-rule="evenodd" d="M866 472.5H852V478.5C852 480.709 855.134 482.5 859 482.5C862.866 482.5 866 480.709 866 478.5V472.5Z" fill="#2FA9FF"/>
<ellipse cx="859" cy="472.5" rx="7" ry="4" fill="#EFF8FF"/>
<path d="M787 478L811 464L835 478L811 492L787 478Z" fill="#99D4FF"/>
<path d="M811 515L835 501V478L811 492V515Z" fill="#2F83FF"/>
<path d="M787 478V501L811 515V492L787 478Z" fill="#2FA9FF"/>
<path d="M809 476L817.226 471.299C818.598 470.515 820.31 470.646 821.547 471.63C823.679 473.325 823.434 476.636 821.074 477.999L814.9 481.563L809 476Z" fill="#83C0FF"/>
<path fill-rule="evenodd" clip-rule="evenodd" d="M818 472.5H804V478.5C804 480.709 807.134 482.5 811 482.5C814.866 482.5 818 480.709 818 478.5V472.5Z" fill="#2FA9FF"/>
<ellipse cx="811" cy="472.5" rx="7" ry="4" fill="#EFF8FF"/>
<path d="M763 492L787 478L811 492L787 506L763 492Z" fill="#99D4FF"/>
<path d="M787 529L811 515V492L787 506V529Z" fill="#2F83FF"/>
<path d="M763 492V515L787 529V506L763 492Z" fill="#2FA9FF"/>
<path d="M785 490L793.226 485.299C794.598 484.515 796.31 484.646 797.547 485.63C799.679 487.325 799.434 490.636 797.074 491.999L790.9 495.563L785 490Z" fill="#83C0FF"/>
<path fill-rule="evenodd" clip-rule="evenodd" d="M794 486.5H780V492.5C780 494.709 783.134 496.5 787 496.5C790.866 496.5 794 494.709 794 492.5V486.5Z" fill="#2FA9FF"/>
<ellipse cx="787" cy="486.5" rx="7" ry="4" fill="#EFF8FF"/>
<path d="M739 506L763 492L787 506L763 520L739 506Z" fill="#99D4FF"/>
<path d="M763 543L787 529V506L763 520V543Z" fill="#2F83FF"/>
<path d="M739 506V529L763 543V520L739 506Z" fill="#2FA9FF"/>
<path d="M761 504L769.226 499.299C770.598 498.515 772.31 498.646 773.547 499.63C775.679 501.325 775.434 504.636 773.074 505.999L766.9 509.563L761 504Z" fill="#83C0FF"/>
<path fill-rule="evenodd" clip-rule="evenodd" d="M770 500.5H756V506.5C756 508.709 759.134 510.5 763 510.5C766.866 510.5 770 508.709 770 506.5V500.5Z" fill="#2FA9FF"/>
<ellipse cx="763" cy="500.5" rx="7" ry="4" fill="#EFF8FF"/>
<path d="M763 520L787 506L811 520L787 534L763 520Z" fill="#99D4FF"/>
<path d="M787 557L811 543V520L787 534V557Z" fill="#2F83FF"/>
<path d="M763 520V543L787 557V534L763 520Z" fill="#2FA9FF"/>
<path d="M785 518L793.226 513.299C794.598 512.515 796.31 512.646 797.547 513.63C799.679 515.325 799.434 518.636 797.074 519.999L790.9 523.563L785 518Z" fill="#83C0FF"/>
<path fill-rule="evenodd" clip-rule="evenodd" d="M794 514.5H780V520.5C780 522.709 783.134 524.5 787 524.5C790.866 524.5 794 522.709 794 520.5V514.5Z" fill="#2FA9FF"/>
<ellipse cx="787" cy="514.5" rx="7" ry="4" fill="#EFF8FF"/>
<path d="M667 380L691 366L715 380L691 394L667 380Z" fill="#FFB8B4"/>
<path d="M691 417L715 403V380L691 394V417Z" fill="#EA6463"/>
<path d="M667 380V403L691 417V394L667 380Z" fill="#F88887"/>
<path d="M689 378L697.226 373.299C698.598 372.515 700.31 372.646 701.547 373.63C703.679 375.325 703.434 378.636 701.074 379.999L694.9 383.563L689 378Z" fill="#FBA39F"/>
<path fill-rule="evenodd" clip-rule="evenodd" d="M698 374.5H684V380.5C684 382.709 687.134 384.5 691 384.5C694.866 384.5 698 382.709 698 380.5V374.5Z" fill="#F88887"/>
<ellipse cx="691" cy="374.5" rx="7" ry="4" fill="#FFEDEF"/>
<path d="M691 394L715 380L739 394L715 408L691 394Z" fill="#FFB8B4"/>
<path d="M715 431L739 417V394L715 408V431Z" fill="#EA6463"/>
<path d="M691 394V417L715 431V408L691 394Z" fill="#F88887"/>
<path d="M713 392L721.226 387.299C722.598 386.515 724.31 386.646 725.547 387.63C727.679 389.325 727.434 392.636 725.074 393.999L718.9 397.563L713 392Z" fill="#FBA39F"/>
<path fill-rule="evenodd" clip-rule="evenodd" d="M722 388.5H708V394.5C708 396.709 711.134 398.5 715 398.5C718.866 398.5 722 396.709 722 394.5V388.5Z" fill="#F88887"/>
<ellipse cx="715" cy="388.5" rx="7" ry="4" fill="#FFEDEF"/>
<path d="M595 394L619 380L643 394L619 408L595 394Z" fill="#99D4FF"/>
<path d="M619 431L643 417V394L619 408V431Z" fill="#2F83FF"/>
<path d="M595 394V417L619 431V408L595 394Z" fill="#2FA9FF"/>
<path d="M617 392L625.226 387.299C626.598 386.515 628.31 386.646 629.547 387.63C631.679 389.325 631.434 392.636 629.074 393.999L622.9 397.563L617 392Z" fill="#83C0FF"/>
<path fill-rule="evenodd" clip-rule="evenodd" d="M626 388.5H612V394.5C612 396.709 615.134 398.5 619 398.5C622.866 398.5 626 396.709 626 394.5V388.5Z" fill="#2FA9FF"/>
<ellipse cx="619" cy="388.5" rx="7" ry="4" fill="#EEFFF2"/>
<path d="M499 366L523 352L547 366L523 380L499 366Z" fill="#99D4FF"/>
<path d="M523 403L547 389V366L523 380V403Z" fill="#2F83FF"/>
<path d="M499 366V389L523 403V380L499 366Z" fill="#2FA9FF"/>
<path d="M521 364L529.226 359.299C530.598 358.515 532.31 358.646 533.547 359.63C535.679 361.325 535.434 364.636 533.074 365.999L526.9 369.563L521 364Z" fill="#83C0FF"/>
<path fill-rule="evenodd" clip-rule="evenodd" d="M530 360.5H516V366.5C516 368.709 519.134 370.5 523 370.5C526.866 370.5 530 368.709 530 366.5V360.5Z" fill="#2FA9FF"/>
<ellipse cx="523" cy="360.5" rx="7" ry="4" fill="#EEFFF2"/>
<path d="M523 380L547 366L571 380L547 394L523 380Z" fill="#99D4FF"/>
<path d="M547 417L571 403V380L547 394V417Z" fill="#2F83FF"/>
<path d="M523 380V403L547 417V394L523 380Z" fill="#2FA9FF"/>
<path d="M545 378L553.226 373.299C554.598 372.515 556.31 372.646 557.547 373.63C559.679 375.325 559.434 378.636 557.074 379.999L550.9 383.563L545 378Z" fill="#83C0FF"/>
<path fill-rule="evenodd" clip-rule="evenodd" d="M554 374.5H540V380.5C540 382.709 543.134 384.5 547 384.5C550.866 384.5 554 382.709 554 380.5V374.5Z" fill="#2FA9FF"/>
<ellipse cx="547" cy="374.5" rx="7" ry="4" fill="#EEFFF2"/>
<path d="M547 394L571 380L595 394L571 408L547 394Z" fill="#99D4FF"/>
<path d="M571 431L595 417V394L571 408V431Z" fill="#2F83FF"/>
<path d="M547 394V417L571 431V408L547 394Z" fill="#2FA9FF"/>
<path d="M569 392L577.226 387.299C578.598 386.515 580.31 386.646 581.547 387.63C583.679 389.325 583.434 392.636 581.074 393.999L574.9 397.563L569 392Z" fill="#83C0FF"/>
<path fill-rule="evenodd" clip-rule="evenodd" d="M578 388.5H564V394.5C564 396.709 567.134 398.5 571 398.5C574.866 398.5 578 396.709 578 394.5V388.5Z" fill="#2FA9FF"/>
<ellipse cx="571" cy="388.5" rx="7" ry="4" fill="#EEFFF2"/>
<path d="M571 408L595 394L619 408L595 422L571 408Z" fill="#99D4FF"/>
<path d="M595 445L619 431V408L595 422V445Z" fill="#2F83FF"/>
<path d="M571 408V431L595 445V422L571 408Z" fill="#2FA9FF"/>
<path d="M593 406L601.226 401.299C602.598 400.515 604.31 400.646 605.547 401.63C607.679 403.325 607.434 406.636 605.074 407.999L598.9 411.563L593 406Z" fill="#83C0FF"/>
<path fill-rule="evenodd" clip-rule="evenodd" d="M602 402.5H588V408.5C588 410.709 591.134 412.5 595 412.5C598.866 412.5 602 410.709 602 408.5V402.5Z" fill="#2FA9FF"/>
<ellipse cx="595" cy="402.5" rx="7" ry="4" fill="#EEFFF2"/>
<path d="M595 422L619 408L643 422L619 436L595 422Z" fill="#99D4FF"/>
<path d="M619 459L643 445V422L619 436V459Z" fill="#2F83FF"/>
<path d="M595 422V445L619 459V436L595 422Z" fill="#2FA9FF"/>
<path d="M617 420L625.226 415.299C626.598 414.515 628.31 414.646 629.547 415.63C631.679 417.325 631.434 420.636 629.074 421.999L622.9 425.563L617 420Z" fill="#83C0FF"/>
<path fill-rule="evenodd" clip-rule="evenodd" d="M626 416.5H612V422.5C612 424.709 615.134 426.5 619 426.5C622.866 426.5 626 424.709 626 422.5V416.5Z" fill="#2FA9FF"/>
<ellipse cx="619" cy="416.5" rx="7" ry="4" fill="#EEFFF2"/>
<path d="M547 422L571 408L595 422L571 436L547 422Z" fill="#CDBEFF"/>
<path d="M571 459L595 445V422L571 436V459Z" fill="#936DFF"/>
<path d="M547 422V445L571 459V436L547 422Z" fill="#A080FF"/>
<path d="M569 420L577.226 415.299C578.598 414.515 580.31 414.646 581.547 415.63C583.679 417.325 583.434 420.636 581.074 421.999L574.9 425.563L569 420Z" fill="#BCAAFC"/>
<path fill-rule="evenodd" clip-rule="evenodd" d="M578 416.5H564V422.5C564 424.709 567.134 426.5 571 426.5C574.866 426.5 578 424.709 578 422.5V416.5Z" fill="#9573FD"/>
<ellipse cx="571" cy="416.5" rx="7" ry="4" fill="#F7EEFF"/>
<path d="M571 436L595 422L619 436L595 450L571 436Z" fill="#FFB8B4"/>
<path d="M595 473L619 459V436L595 450V473Z" fill="#EA6463"/>
<path d="M571 436V459L595 473V450L571 436Z" fill="#F88887"/>
<path d="M593 434L601.226 429.299C602.598 428.515 604.31 428.646 605.547 429.63C607.679 431.325 607.434 434.636 605.074 435.999L598.9 439.563L593 434Z" fill="#FBA39F"/>
<path fill-rule="evenodd" clip-rule="evenodd" d="M602 430.5H588V436.5C588 438.709 591.134 440.5 595 440.5C598.866 440.5 602 438.709 602 436.5V430.5Z" fill="#F88887"/>
<ellipse cx="595" cy="430.5" rx="7" ry="4" fill="#FFEDEF"/>
<path d="M595 450L619 436L643 450L619 464L595 450Z" fill="#FFB8B4"/>
<path d="M619 487L643 473V450L619 464V487Z" fill="#EA6463"/>
<path d="M595 450V473L619 487V464L595 450Z" fill="#F88887"/>
<path d="M617 448L625.226 443.299C626.598 442.515 628.31 442.646 629.547 443.63C631.679 445.325 631.434 448.636 629.074 449.999L622.9 453.563L617 448Z" fill="#FBA39F"/>
<path fill-rule="evenodd" clip-rule="evenodd" d="M626 444.5H612V450.5C612 452.709 615.134 454.5 619 454.5C622.866 454.5 626 452.709 626 450.5V444.5Z" fill="#F88887"/>
<ellipse cx="619" cy="444.5" rx="7" ry="4" fill="#FFEDEF"/>
<path d="M523 436L547 422L571 436L547 450L523 436Z" fill="#FFB8B4"/>
<path d="M547 473L571 459V436L547 450V473Z" fill="#EA6463"/>
<path d="M523 436V459L547 473V450L523 436Z" fill="#F88887"/>
<path d="M545 434L553.226 429.299C554.598 428.515 556.31 428.646 557.547 429.63C559.679 431.325 559.434 434.636 557.074 435.999L550.9 439.563L545 434Z" fill="#FBA39F"/>
<path fill-rule="evenodd" clip-rule="evenodd" d="M554 430.5H540V436.5C540 438.709 543.134 440.5 547 440.5C550.866 440.5 554 438.709 554 436.5V430.5Z" fill="#F88887"/>
<ellipse cx="547" cy="430.5" rx="7" ry="4" fill="#FFEDEF"/>
<path d="M547 450L571 436L595 450L571 464L547 450Z" fill="#FFB8B4"/>
<path d="M571 487L595 473V450L571 464V487Z" fill="#EA6463"/>
<path d="M547 450V473L571 487V464L547 450Z" fill="#F88887"/>
<path d="M569 448L577.226 443.299C578.598 442.515 580.31 442.646 581.547 443.63C583.679 445.325 583.434 448.636 581.074 449.999L574.9 453.563L569 448Z" fill="#FBA39F"/>
<path fill-rule="evenodd" clip-rule="evenodd" d="M578 444.5H564V450.5C564 452.709 567.134 454.5 571 454.5C574.866 454.5 578 452.709 578 450.5V444.5Z" fill="#F88887"/>
<ellipse cx="571" cy="444.5" rx="7" ry="4" fill="#FFEDEF"/>
<path d="M571 464L595 450L619 464L595 478L571 464Z" fill="#FFB8B4"/>
<path d="M595 501L619 487V464L595 478V501Z" fill="#EA6463"/>
<path d="M571 464V487L595 501V478L571 464Z" fill="#F88887"/>
<path d="M593 462L601.226 457.299C602.598 456.515 604.31 456.646 605.547 457.63C607.679 459.325 607.434 462.636 605.074 463.999L598.9 467.563L593 462Z" fill="#FBA39F"/>
<path fill-rule="evenodd" clip-rule="evenodd" d="M602 458.5H588V464.5C588 466.709 591.134 468.5 595 468.5C598.866 468.5 602 466.709 602 464.5V458.5Z" fill="#F88887"/>
<ellipse cx="595" cy="458.5" rx="7" ry="4" fill="#FFEDEF"/>
<path d="M523 464L547 450L571 464L547 478L523 464Z" fill="#FFB8B4"/>
<path d="M547 501L571 487V464L547 478V501Z" fill="#EA6463"/>
<path d="M523 464V487L547 501V478L523 464Z" fill="#F88887"/>
<path d="M545 462L553.226 457.299C554.598 456.515 556.31 456.646 557.547 457.63C559.679 459.325 559.434 462.636 557.074 463.999L550.9 467.563L545 462Z" fill="#FBA39F"/>
<path fill-rule="evenodd" clip-rule="evenodd" d="M554 458.5H540V464.5C540 466.709 543.134 468.5 547 468.5C550.866 468.5 554 466.709 554 464.5V458.5Z" fill="#F88887"/>
<ellipse cx="547" cy="458.5" rx="7" ry="4" fill="#FFEDEF"/>
<path d="M547 478L571 464L595 478L571 492L547 478Z" fill="#FFB8B4"/>
<path d="M571 515L595 501V478L571 492V515Z" fill="#EA6463"/>
<path d="M547 478V501L571 515V492L547 478Z" fill="#F88887"/>
<path d="M569 476L577.226 471.299C578.598 470.515 580.31 470.646 581.547 471.63C583.679 473.325 583.434 476.636 581.074 477.999L574.9 481.563L569 476Z" fill="#FBA39F"/>
<path fill-rule="evenodd" clip-rule="evenodd" d="M578 472.5H564V478.5C564 480.709 567.134 482.5 571 482.5C574.866 482.5 578 480.709 578 478.5V472.5Z" fill="#F88887"/>
<ellipse cx="571" cy="472.5" rx="7" ry="4" fill="#FFEDEF"/>
<path d="M523 492L547 478L571 492L547 506L523 492Z" fill="#99D4FF"/>
<path d="M547 529L571 515V492L547 506V529Z" fill="#2F83FF"/>
<path d="M523 492V515L547 529V506L523 492Z" fill="#2FA9FF"/>
<path d="M545 490L553.226 485.299C554.598 484.515 556.31 484.646 557.547 485.63C559.679 487.325 559.434 490.636 557.074 491.999L550.9 495.563L545 490Z" fill="#83C0FF"/>
<path fill-rule="evenodd" clip-rule="evenodd" d="M554 486.5H540V492.5C540 494.709 543.134 496.5 547 496.5C550.866 496.5 554 494.709 554 492.5V486.5Z" fill="#2FA9FF"/>
<ellipse cx="547" cy="486.5" rx="7" ry="4" fill="#EFF8FF"/>
<path d="M499 506L523 492L547 506L523 520L499 506Z" fill="#99D4FF"/>
<path d="M523 543L547 529V506L523 520V543Z" fill="#2F83FF"/>
<path d="M499 506V529L523 543V520L499 506Z" fill="#2FA9FF"/>
<path d="M521 504L529.226 499.299C530.598 498.515 532.31 498.646 533.547 499.63C535.679 501.325 535.434 504.636 533.074 505.999L526.9 509.563L521 504Z" fill="#83C0FF"/>
<path fill-rule="evenodd" clip-rule="evenodd" d="M530 500.5H516V506.5C516 508.709 519.134 510.5 523 510.5C526.866 510.5 530 508.709 530 506.5V500.5Z" fill="#2FA9FF"/>
<ellipse cx="523" cy="500.5" rx="7" ry="4" fill="#EFF8FF"/>
<path d="M619 464L643 450L667 464L643 478L619 464Z" fill="#CDBEFF"/>
<path d="M643 501L667 487V464L643 478V501Z" fill="#936DFF"/>
<path d="M619 464V487L643 501V478L619 464Z" fill="#A080FF"/>
<path d="M641 462L649.226 457.299C650.598 456.515 652.31 456.646 653.547 457.63C655.679 459.325 655.434 462.636 653.074 463.999L646.9 467.563L641 462Z" fill="#BCAAFC"/>
<path fill-rule="evenodd" clip-rule="evenodd" d="M650 458.5H636V464.5C636 466.709 639.134 468.5 643 468.5C646.866 468.5 650 466.709 650 464.5V458.5Z" fill="#9573FD"/>
<ellipse cx="643" cy="458.5" rx="7" ry="4" fill="#F7EEFF"/>
<path d="M595 478L619 464L643 478L619 492L595 478Z" fill="#CDBEFF"/>
<path d="M619 515L643 501V478L619 492V515Z" fill="#936DFF"/>
<path d="M595 478V501L619 515V492L595 478Z" fill="#A080FF"/>
<path d="M617 476L625.226 471.299C626.598 470.515 628.31 470.646 629.547 471.63C631.679 473.325 631.434 476.636 629.074 477.999L622.9 481.563L617 476Z" fill="#BCAAFC"/>
<path fill-rule="evenodd" clip-rule="evenodd" d="M626 472.5H612V478.5C612 480.709 615.134 482.5 619 482.5C622.866 482.5 626 480.709 626 478.5V472.5Z" fill="#9573FD"/>
<ellipse cx="619" cy="472.5" rx="7" ry="4" fill="#F7EEFF"/>
<path d="M643 478L667 464L691 478L667 492L643 478Z" fill="#CDBEFF"/>
<path d="M667 515L691 501V478L667 492V515Z" fill="#936DFF"/>
<path d="M643 478V501L667 515V492L643 478Z" fill="#A080FF"/>
<path d="M665 476L673.226 471.299C674.598 470.515 676.31 470.646 677.547 471.63C679.679 473.325 679.434 476.636 677.074 477.999L670.9 481.563L665 476Z" fill="#BCAAFC"/>
<path fill-rule="evenodd" clip-rule="evenodd" d="M674 472.5H660V478.5C660 480.709 663.134 482.5 667 482.5C670.866 482.5 674 480.709 674 478.5V472.5Z" fill="#9573FD"/>
<ellipse cx="667" cy="472.5" rx="7" ry="4" fill="#F7EEFF"/>
<path d="M619 492L643 478L667 492L643 506L619 492Z" fill="#CDBEFF"/>
<path d="M643 529L667 515V492L643 506V529Z" fill="#936DFF"/>
<path d="M619 492V515L643 529V506L619 492Z" fill="#A080FF"/>
<path d="M641 490L649.226 485.299C650.598 484.515 652.31 484.646 653.547 485.63C655.679 487.325 655.434 490.636 653.074 491.999L646.9 495.563L641 490Z" fill="#BCAAFC"/>
<path fill-rule="evenodd" clip-rule="evenodd" d="M650 486.5H636V492.5C636 494.709 639.134 496.5 643 496.5C646.866 496.5 650 494.709 650 492.5V486.5Z" fill="#9573FD"/>
<ellipse cx="643" cy="486.5" rx="7" ry="4" fill="#F7EEFF"/>
<path d="M571 492L595 478L619 492L595 506L571 492Z" fill="#CDBEFF"/>
<path d="M595 529L619 515V492L595 506V529Z" fill="#936DFF"/>
<path d="M571 492V515L595 529V506L571 492Z" fill="#A080FF"/>
<path d="M593 490L601.226 485.299C602.598 484.515 604.31 484.646 605.547 485.63C607.679 487.325 607.434 490.636 605.074 491.999L598.9 495.563L593 490Z" fill="#BCAAFC"/>
<path fill-rule="evenodd" clip-rule="evenodd" d="M602 486.5H588V492.5C588 494.709 591.134 496.5 595 496.5C598.866 496.5 602 494.709 602 492.5V486.5Z" fill="#9573FD"/>
<ellipse cx="595" cy="486.5" rx="7" ry="4" fill="#F7EEFF"/>
<path d="M547 506L571 492L595 506L571 520L547 506Z" fill="#CDBEFF"/>
<path d="M571 543L595 529V506L571 520V543Z" fill="#936DFF"/>
<path d="M547 506V529L571 543V520L547 506Z" fill="#A080FF"/>
<path d="M569 504L577.226 499.299C578.598 498.515 580.31 498.646 581.547 499.63C583.679 501.325 583.434 504.636 581.074 505.999L574.9 509.563L569 504Z" fill="#BCAAFC"/>
<path fill-rule="evenodd" clip-rule="evenodd" d="M578 500.5H564V506.5C564 508.709 567.134 510.5 571 510.5C574.866 510.5 578 508.709 578 506.5V500.5Z" fill="#9573FD"/>
<ellipse cx="571" cy="500.5" rx="7" ry="4" fill="#F7EEFF"/>
<path d="M595 506L619 492L643 506L619 520L595 506Z" fill="#CDBEFF"/>
<path d="M619 543L643 529V506L619 520V543Z" fill="#936DFF"/>
<path d="M595 506V529L619 543V520L595 506Z" fill="#A080FF"/>
<path d="M617 504L625.226 499.299C626.598 498.515 628.31 498.646 629.547 499.63C631.679 501.325 631.434 504.636 629.074 505.999L622.9 509.563L617 504Z" fill="#BCAAFC"/>
<path fill-rule="evenodd" clip-rule="evenodd" d="M626 500.5H612V506.5C612 508.709 615.134 510.5 619 510.5C622.866 510.5 626 508.709 626 506.5V500.5Z" fill="#9573FD"/>
<ellipse cx="619" cy="500.5" rx="7" ry="4" fill="#F7EEFF"/>
<path d="M571 520L595 506L619 520L595 534L571 520Z" fill="#CDBEFF"/>
<path d="M595 557L619 543V520L595 534V557Z" fill="#936DFF"/>
<path d="M571 520V543L595 557V534L571 520Z" fill="#A080FF"/>
<path d="M593 518L601.226 513.299C602.598 512.515 604.31 512.646 605.547 513.63C607.679 515.325 607.434 518.636 605.074 519.999L598.9 523.563L593 518Z" fill="#BCAAFC"/>
<path fill-rule="evenodd" clip-rule="evenodd" d="M602 514.5H588V520.5C588 522.709 591.134 524.5 595 524.5C598.866 524.5 602 522.709 602 520.5V514.5Z" fill="#9573FD"/>
<ellipse cx="595" cy="514.5" rx="7" ry="4" fill="#F7EEFF"/>
<path d="M523 520L547 506L571 520L547 534L523 520Z" fill="#CDBEFF"/>
<path d="M547 557L571 543V520L547 534V557Z" fill="#936DFF"/>
<path d="M523 520V543L547 557V534L523 520Z" fill="#A080FF"/>
<path d="M545 518L553.226 513.299C554.598 512.515 556.31 512.646 557.547 513.63C559.679 515.325 559.434 518.636 557.074 519.999L550.9 523.563L545 518Z" fill="#BCAAFC"/>
<path fill-rule="evenodd" clip-rule="evenodd" d="M554 514.5H540V520.5C540 522.709 543.134 524.5 547 524.5C550.866 524.5 554 522.709 554 520.5V514.5Z" fill="#9573FD"/>
<ellipse cx="547" cy="514.5" rx="7" ry="4" fill="#F7EEFF"/>
<path d="M547 534L571 520L595 534L571 548L547 534Z" fill="#CDBEFF"/>
<path d="M571 571L595 557V534L571 548V571Z" fill="#936DFF"/>
<path d="M547 534V557L571 571V548L547 534Z" fill="#A080FF"/>
<path d="M569 532L577.226 527.299C578.598 526.515 580.31 526.646 581.547 527.63C583.679 529.325 583.434 532.636 581.074 533.999L574.9 537.563L569 532Z" fill="#BCAAFC"/>
<path fill-rule="evenodd" clip-rule="evenodd" d="M578 528.5H564V534.5C564 536.709 567.134 538.5 571 538.5C574.866 538.5 578 536.709 578 534.5V528.5Z" fill="#9573FD"/>
<ellipse cx="571" cy="528.5" rx="7" ry="4" fill="#F7EEFF"/>
<path d="M523 548L547 534L571 548L547 562L523 548Z" fill="#CDBEFF"/>
<path d="M547 585L571 571V548L547 562V585Z" fill="#936DFF"/>
<path d="M523 548V571L547 585V562L523 548Z" fill="#A080FF"/>
<path d="M545 546L553.226 541.299C554.598 540.515 556.31 540.646 557.547 541.63C559.679 543.325 559.434 546.636 557.074 547.999L550.9 551.563L545 546Z" fill="#BCAAFC"/>
<path fill-rule="evenodd" clip-rule="evenodd" d="M554 542.5H540V548.5C540 550.709 543.134 552.5 547 552.5C550.866 552.5 554 550.709 554 548.5V542.5Z" fill="#9573FD"/>
<ellipse cx="547" cy="542.5" rx="7" ry="4" fill="#F7EEFF"/>
<path d="M667 492L691 478L715 492L691 506L667 492Z" fill="#CDBEFF"/>
<path d="M691 529L715 515V492L691 506V529Z" fill="#936DFF"/>
<path d="M667 492V515L691 529V506L667 492Z" fill="#A080FF"/>
<path d="M689 490L697.226 485.299C698.598 484.515 700.31 484.646 701.547 485.63C703.679 487.325 703.434 490.636 701.074 491.999L694.9 495.563L689 490Z" fill="#BCAAFC"/>
<path fill-rule="evenodd" clip-rule="evenodd" d="M698 486.5H684V492.5C684 494.709 687.134 496.5 691 496.5C694.866 496.5 698 494.709 698 492.5V486.5Z" fill="#9573FD"/>
<ellipse cx="691" cy="486.5" rx="7" ry="4" fill="#F7EEFF"/>
<path d="M643 506L667 492L691 506L667 520L643 506Z" fill="#CDBEFF"/>
<path d="M667 543L691 529V506L667 520V543Z" fill="#936DFF"/>
<path d="M643 506V529L667 543V520L643 506Z" fill="#A080FF"/>
<path d="M665 504L673.226 499.299C674.598 498.515 676.31 498.646 677.547 499.63C679.679 501.325 679.434 504.636 677.074 505.999L670.9 509.563L665 504Z" fill="#BCAAFC"/>
<path fill-rule="evenodd" clip-rule="evenodd" d="M674 500.5H660V506.5C660 508.709 663.134 510.5 667 510.5C670.866 510.5 674 508.709 674 506.5V500.5Z" fill="#9573FD"/>
<ellipse cx="667" cy="500.5" rx="7" ry="4" fill="#F7EEFF"/>
<path d="M691 506L715 492L739 506L715 520L691 506Z" fill="#CDBEFF"/>
<path d="M715 543L739 529V506L715 520V543Z" fill="#936DFF"/>
<path d="M691 506V529L715 543V520L691 506Z" fill="#A080FF"/>
<path d="M713 504L721.226 499.299C722.598 498.515 724.31 498.646 725.547 499.63C727.679 501.325 727.434 504.636 725.074 505.999L718.9 509.563L713 504Z" fill="#BCAAFC"/>
<path fill-rule="evenodd" clip-rule="evenodd" d="M722 500.5H708V506.5C708 508.709 711.134 510.5 715 510.5C718.866 510.5 722 508.709 722 506.5V500.5Z" fill="#9573FD"/>
<ellipse cx="715" cy="500.5" rx="7" ry="4" fill="#F7EEFF"/>
<path d="M667 520L691 506L715 520L691 534L667 520Z" fill="#CDBEFF"/>
<path d="M691 557L715 543V520L691 534V557Z" fill="#936DFF"/>
<path d="M667 520V543L691 557V534L667 520Z" fill="#A080FF"/>
<path d="M689 518L697.226 513.299C698.598 512.515 700.31 512.646 701.547 513.63C703.679 515.325 703.434 518.636 701.074 519.999L694.9 523.563L689 518Z" fill="#BCAAFC"/>
<path fill-rule="evenodd" clip-rule="evenodd" d="M698 514.5H684V520.5C684 522.709 687.134 524.5 691 524.5C694.866 524.5 698 522.709 698 520.5V514.5Z" fill="#9573FD"/>
<ellipse cx="691" cy="514.5" rx="7" ry="4" fill="#F7EEFF"/>
<path d="M715 520L739 506L763 520L739 534L715 520Z" fill="#CDBEFF"/>
<path d="M739 557L763 543V520L739 534V557Z" fill="#936DFF"/>
<path d="M715 520V543L739 557V534L715 520Z" fill="#A080FF"/>
<path d="M737 518L745.226 513.299C746.598 512.515 748.31 512.646 749.547 513.63C751.679 515.325 751.434 518.636 749.074 519.999L742.9 523.563L737 518Z" fill="#BCAAFC"/>
<path fill-rule="evenodd" clip-rule="evenodd" d="M746 514.5H732V520.5C732 522.709 735.134 524.5 739 524.5C742.866 524.5 746 522.709 746 520.5V514.5Z" fill="#9573FD"/>
<ellipse cx="739" cy="514.5" rx="7" ry="4" fill="#F7EEFF"/>
<path d="M691 534L715 520L739 534L715 548L691 534Z" fill="#CDBEFF"/>
<path d="M715 571L739 557V534L715 548V571Z" fill="#936DFF"/>
<path d="M691 534V557L715 571V548L691 534Z" fill="#A080FF"/>
<path d="M713 532L721.226 527.299C722.598 526.515 724.31 526.646 725.547 527.63C727.679 529.325 727.434 532.636 725.074 533.999L718.9 537.563L713 532Z" fill="#BCAAFC"/>
<path fill-rule="evenodd" clip-rule="evenodd" d="M722 528.5H708V534.5C708 536.709 711.134 538.5 715 538.5C718.866 538.5 722 536.709 722 534.5V528.5Z" fill="#9573FD"/>
<ellipse cx="715" cy="528.5" rx="7" ry="4" fill="#F7EEFF"/>
<path d="M739 534L763 520L787 534L763 548L739 534Z" fill="#CDBEFF"/>
<path d="M763 571L787 557V534L763 548V571Z" fill="#936DFF"/>
<path d="M739 534V557L763 571V548L739 534Z" fill="#A080FF"/>
<path d="M761 532L769.226 527.299C770.598 526.515 772.31 526.646 773.547 527.63C775.679 529.325 775.434 532.636 773.074 533.999L766.9 537.563L761 532Z" fill="#BCAAFC"/>
<path fill-rule="evenodd" clip-rule="evenodd" d="M770 528.5H756V534.5C756 536.709 759.134 538.5 763 538.5C766.866 538.5 770 536.709 770 534.5V528.5Z" fill="#9573FD"/>
<ellipse cx="763" cy="528.5" rx="7" ry="4" fill="#F7EEFF"/>
<path d="M715 548L739 534L763 548L739 562L715 548Z" fill="#CDBEFF"/>
<path d="M739 585L763 571V548L739 562V585Z" fill="#936DFF"/>
<path d="M715 548V571L739 585V562L715 548Z" fill="#A080FF"/>
<path d="M737 546L745.226 541.299C746.598 540.515 748.31 540.646 749.547 541.63C751.679 543.325 751.434 546.636 749.074 547.999L742.9 551.563L737 546Z" fill="#BCAAFC"/>
<path fill-rule="evenodd" clip-rule="evenodd" d="M746 542.5H732V548.5C732 550.709 735.134 552.5 739 552.5C742.866 552.5 746 550.709 746 548.5V542.5Z" fill="#9573FD"/>
<ellipse cx="739" cy="542.5" rx="7" ry="4" fill="#F7EEFF"/>
<path d="M619 520L643 506L667 520L643 534L619 520Z" fill="#CDBEFF"/>
<path d="M643 557L667 543V520L643 534V557Z" fill="#936DFF"/>
<path d="M619 520V543L643 557V534L619 520Z" fill="#A080FF"/>
<path d="M641 518L649.226 513.299C650.598 512.515 652.31 512.646 653.547 513.63C655.679 515.325 655.434 518.636 653.074 519.999L646.9 523.563L641 518Z" fill="#BCAAFC"/>
<path fill-rule="evenodd" clip-rule="evenodd" d="M650 514.5H636V520.5C636 522.709 639.134 524.5 643 524.5C646.866 524.5 650 522.709 650 520.5V514.5Z" fill="#9573FD"/>
<ellipse cx="643" cy="514.5" rx="7" ry="4" fill="#F7EEFF"/>
<path d="M595 534L619 520L643 534L619 548L595 534Z" fill="#CDBEFF"/>
<path d="M619 571L643 557V534L619 548V571Z" fill="#936DFF"/>
<path d="M595 534V557L619 571V548L595 534Z" fill="#A080FF"/>
<path d="M617 532L625.226 527.299C626.598 526.515 628.31 526.646 629.547 527.63C631.679 529.325 631.434 532.636 629.074 533.999L622.9 537.563L617 532Z" fill="#BCAAFC"/>
<path fill-rule="evenodd" clip-rule="evenodd" d="M626 528.5H612V534.5C612 536.709 615.134 538.5 619 538.5C622.866 538.5 626 536.709 626 534.5V528.5Z" fill="#9573FD"/>
<ellipse cx="619" cy="528.5" rx="7" ry="4" fill="#F7EEFF"/>
<path d="M643 534L667 520L691 534L667 548L643 534Z" fill="#CDBEFF"/>
<path d="M667 571L691 557V534L667 548V571Z" fill="#936DFF"/>
<path d="M643 534V557L667 571V548L643 534Z" fill="#A080FF"/>
<path d="M665 532L673.226 527.299C674.598 526.515 676.31 526.646 677.547 527.63C679.679 529.325 679.434 532.636 677.074 533.999L670.9 537.563L665 532Z" fill="#BCAAFC"/>
<path fill-rule="evenodd" clip-rule="evenodd" d="M674 528.5H660V534.5C660 536.709 663.134 538.5 667 538.5C670.866 538.5 674 536.709 674 534.5V528.5Z" fill="#9573FD"/>
<ellipse cx="667" cy="528.5" rx="7" ry="4" fill="#F7EEFF"/>
<path d="M619 548L643 534L667 548L643 562L619 548Z" fill="#CDBEFF"/>
<path d="M643 585L667 571V548L643 562V585Z" fill="#936DFF"/>
<path d="M619 548V571L643 585V562L619 548Z" fill="#A080FF"/>
<path d="M641 546L649.226 541.299C650.598 540.515 652.31 540.646 653.547 541.63C655.679 543.325 655.434 546.636 653.074 547.999L646.9 551.563L641 546Z" fill="#BCAAFC"/>
<path fill-rule="evenodd" clip-rule="evenodd" d="M650 542.5H636V548.5C636 550.709 639.134 552.5 643 552.5C646.866 552.5 650 550.709 650 548.5V542.5Z" fill="#9573FD"/>
<ellipse cx="643" cy="542.5" rx="7" ry="4" fill="#F7EEFF"/>
<path d="M571 548L595 534L619 548L595 562L571 548Z" fill="#CDBEFF"/>
<path d="M595 585L619 571V548L595 562V585Z" fill="#936DFF"/>
<path d="M571 548V571L595 585V562L571 548Z" fill="#A080FF"/>
<path d="M593 546L601.226 541.299C602.598 540.515 604.31 540.646 605.547 541.63C607.679 543.325 607.434 546.636 605.074 547.999L598.9 551.563L593 546Z" fill="#BCAAFC"/>
<path fill-rule="evenodd" clip-rule="evenodd" d="M602 542.5H588V548.5C588 550.709 591.134 552.5 595 552.5C598.866 552.5 602 550.709 602 548.5V542.5Z" fill="#9573FD"/>
<ellipse cx="595" cy="542.5" rx="7" ry="4" fill="#F7EEFF"/>
<path d="M595 562L619 548L643 562L619 576L595 562Z" fill="#CDBEFF"/>
<path d="M619 599L643 585V562L619 576V599Z" fill="#936DFF"/>
<path d="M595 562V585L619 599V576L595 562Z" fill="#A080FF"/>
<path d="M617 560L625.226 555.299C626.598 554.515 628.31 554.646 629.547 555.63C631.679 557.325 631.434 560.636 629.074 561.999L622.9 565.563L617 560Z" fill="#BCAAFC"/>
<path fill-rule="evenodd" clip-rule="evenodd" d="M626 556.5H612V562.5C612 564.709 615.134 566.5 619 566.5C622.866 566.5 626 564.709 626 562.5V556.5Z" fill="#9573FD"/>
<ellipse cx="619" cy="556.5" rx="7" ry="4" fill="#F7EEFF"/>
<path d="M571 576L595 562L619 576L595 590L571 576Z" fill="#CDBEFF"/>
<path d="M595 613L619 599V576L595 590V613Z" fill="#936DFF"/>
<path d="M571 576V599L595 613V590L571 576Z" fill="#A080FF"/>
<path d="M593 574L601.226 569.299C602.598 568.515 604.31 568.646 605.547 569.63C607.679 571.325 607.434 574.636 605.074 575.999L598.9 579.563L593 574Z" fill="#BCAAFC"/>
<path fill-rule="evenodd" clip-rule="evenodd" d="M602 570.5H588V576.5C588 578.709 591.134 580.5 595 580.5C598.866 580.5 602 578.709 602 576.5V570.5Z" fill="#9573FD"/>
<ellipse cx="595" cy="570.5" rx="7" ry="4" fill="#F7EEFF"/>
<path d="M763 548L787 534L811 548L787 562L763 548Z" fill="#CDBEFF"/>
<path d="M787 585L811 571V548L787 562V585Z" fill="#936DFF"/>
<path d="M763 548V571L787 585V562L763 548Z" fill="#A080FF"/>
<path d="M785 546L793.226 541.299C794.598 540.515 796.31 540.646 797.547 541.63C799.679 543.325 799.434 546.636 797.074 547.999L790.9 551.563L785 546Z" fill="#BCAAFC"/>
<path fill-rule="evenodd" clip-rule="evenodd" d="M794 542.5H780V548.5C780 550.709 783.134 552.5 787 552.5C790.866 552.5 794 550.709 794 548.5V542.5Z" fill="#9573FD"/>
<ellipse cx="787" cy="542.5" rx="7" ry="4" fill="#F7EEFF"/>
<path d="M739 562L763 548L787 562L763 576L739 562Z" fill="#CDBEFF"/>
<path d="M763 599L787 585V562L763 576V599Z" fill="#936DFF"/>
<path d="M739 562V585L763 599V576L739 562Z" fill="#A080FF"/>
<path d="M761 560L769.226 555.299C770.598 554.515 772.31 554.646 773.547 555.63C775.679 557.325 775.434 560.636 773.074 561.999L766.9 565.563L761 560Z" fill="#BCAAFC"/>
<path fill-rule="evenodd" clip-rule="evenodd" d="M770 556.5H756V562.5C756 564.709 759.134 566.5 763 566.5C766.866 566.5 770 564.709 770 562.5V556.5Z" fill="#9573FD"/>
<ellipse cx="763" cy="556.5" rx="7" ry="4" fill="#F7EEFF"/>
<path d="M667 548L691 534L715 548L691 562L667 548Z" fill="#CDBEFF"/>
<path d="M691 585L715 571V548L691 562V585Z" fill="#936DFF"/>
<path d="M667 548V571L691 585V562L667 548Z" fill="#A080FF"/>
<path d="M689 546L697.226 541.299C698.598 540.515 700.31 540.646 701.547 541.63C703.679 543.325 703.434 546.636 701.074 547.999L694.9 551.563L689 546Z" fill="#BCAAFC"/>
<path fill-rule="evenodd" clip-rule="evenodd" d="M698 542.5H684V548.5C684 550.709 687.134 552.5 691 552.5C694.866 552.5 698 550.709 698 548.5V542.5Z" fill="#9573FD"/>
<ellipse cx="691" cy="542.5" rx="7" ry="4" fill="#F7EEFF"/>
<path d="M643 562L667 548L691 562L667 576L643 562Z" fill="#CDBEFF"/>
<path d="M667 599L691 585V562L667 576V599Z" fill="#936DFF"/>
<path d="M643 562V585L667 599V576L643 562Z" fill="#A080FF"/>
<path d="M665 560L673.226 555.299C674.598 554.515 676.31 554.646 677.547 555.63C679.679 557.325 679.434 560.636 677.074 561.999L670.9 565.563L665 560Z" fill="#BCAAFC"/>
<path fill-rule="evenodd" clip-rule="evenodd" d="M674 556.5H660V562.5C660 564.709 663.134 566.5 667 566.5C670.866 566.5 674 564.709 674 562.5V556.5Z" fill="#9573FD"/>
<ellipse cx="667" cy="556.5" rx="7" ry="4" fill="#F7EEFF"/>
<path d="M691 562L715 548L739 562L715 576L691 562Z" fill="#CDBEFF"/>
<path d="M715 599L739 585V562L715 576V599Z" fill="#936DFF"/>
<path d="M691 562V585L715 599V576L691 562Z" fill="#A080FF"/>
<path d="M713 560L721.226 555.299C722.598 554.515 724.31 554.646 725.547 555.63C727.679 557.325 727.434 560.636 725.074 561.999L718.9 565.563L713 560Z" fill="#BCAAFC"/>
<path fill-rule="evenodd" clip-rule="evenodd" d="M722 556.5H708V562.5C708 564.709 711.134 566.5 715 566.5C718.866 566.5 722 564.709 722 562.5V556.5Z" fill="#9573FD"/>
<ellipse cx="715" cy="556.5" rx="7" ry="4" fill="#F7EEFF"/>
<path d="M667 576L691 562L715 576L691 590L667 576Z" fill="#CDBEFF"/>
<path d="M691 613L715 599V576L691 590V613Z" fill="#936DFF"/>
<path d="M667 576V599L691 613V590L667 576Z" fill="#A080FF"/>
<path d="M689 574L697.226 569.299C698.598 568.515 700.31 568.646 701.547 569.63C703.679 571.325 703.434 574.636 701.074 575.999L694.9 579.563L689 574Z" fill="#BCAAFC"/>
<path fill-rule="evenodd" clip-rule="evenodd" d="M698 570.5H684V576.5C684 578.709 687.134 580.5 691 580.5C694.866 580.5 698 578.709 698 576.5V570.5Z" fill="#9573FD"/>
<ellipse cx="691" cy="570.5" rx="7" ry="4" fill="#F7EEFF"/>
<path d="M715 576L739 562L763 576L739 590L715 576Z" fill="#CDBEFF"/>
<path d="M739 613L763 599V576L739 590V613Z" fill="#936DFF"/>
<path d="M715 576V599L739 613V590L715 576Z" fill="#A080FF"/>
<path d="M737 574L745.226 569.299C746.598 568.515 748.31 568.646 749.547 569.63C751.679 571.325 751.434 574.636 749.074 575.999L742.9 579.563L737 574Z" fill="#BCAAFC"/>
<path fill-rule="evenodd" clip-rule="evenodd" d="M746 570.5H732V576.5C732 578.709 735.134 580.5 739 580.5C742.866 580.5 746 578.709 746 576.5V570.5Z" fill="#9573FD"/>
<ellipse cx="739" cy="570.5" rx="7" ry="4" fill="#F7EEFF"/>
<path d="M691 590L715 576L739 590L715 604L691 590Z" fill="#CDBEFF"/>
<path d="M715 627L739 613V590L715 604V627Z" fill="#936DFF"/>
<path d="M691 590V613L715 627V604L691 590Z" fill="#A080FF"/>
<path d="M713 588L721.226 583.299C722.598 582.515 724.31 582.646 725.547 583.63C727.679 585.325 727.434 588.636 725.074 589.999L718.9 593.563L713 588Z" fill="#BCAAFC"/>
<path fill-rule="evenodd" clip-rule="evenodd" d="M722 584.5H708V590.5C708 592.709 711.134 594.5 715 594.5C718.866 594.5 722 592.709 722 590.5V584.5Z" fill="#9573FD"/>
<ellipse cx="715" cy="584.5" rx="7" ry="4" fill="#F7EEFF"/>
<path d="M619 576L643 562L667 576L643 590L619 576Z" fill="#CDBEFF"/>
<path d="M643 613L667 599V576L643 590V613Z" fill="#936DFF"/>
<path d="M619 576V599L643 613V590L619 576Z" fill="#A080FF"/>
<path d="M641 574L649.226 569.299C650.598 568.515 652.31 568.646 653.547 569.63C655.679 571.325 655.434 574.636 653.074 575.999L646.9 579.563L641 574Z" fill="#BCAAFC"/>
<path fill-rule="evenodd" clip-rule="evenodd" d="M650 570.5H636V576.5C636 578.709 639.134 580.5 643 580.5C646.866 580.5 650 578.709 650 576.5V570.5Z" fill="#9573FD"/>
<ellipse cx="643" cy="570.5" rx="7" ry="4" fill="#F7EEFF"/>
<path d="M595 590L619 576L643 590L619 604L595 590Z" fill="#CDBEFF"/>
<path d="M619 627L643 613V590L619 604V627Z" fill="#936DFF"/>
<path d="M595 590V613L619 627V604L595 590Z" fill="#A080FF"/>
<path d="M617 588L625.226 583.299C626.598 582.515 628.31 582.646 629.547 583.63C631.679 585.325 631.434 588.636 629.074 589.999L622.9 593.563L617 588Z" fill="#BCAAFC"/>
<path fill-rule="evenodd" clip-rule="evenodd" d="M626 584.5H612V590.5C612 592.709 615.134 594.5 619 594.5C622.866 594.5 626 592.709 626 590.5V584.5Z" fill="#9573FD"/>
<ellipse cx="619" cy="584.5" rx="7" ry="4" fill="#F7EEFF"/>
<path d="M643 590L667 576L691 590L667 604L643 590Z" fill="#CDBEFF"/>
<path d="M667 627L691 613V590L667 604V627Z" fill="#936DFF"/>
<path d="M643 590V613L667 627V604L643 590Z" fill="#A080FF"/>
<path d="M665 588L673.226 583.299C674.598 582.515 676.31 582.646 677.547 583.63C679.679 585.325 679.434 588.636 677.074 589.999L670.9 593.563L665 588Z" fill="#BCAAFC"/>
<path fill-rule="evenodd" clip-rule="evenodd" d="M674 584.5H660V590.5C660 592.709 663.134 594.5 667 594.5C670.866 594.5 674 592.709 674 590.5V584.5Z" fill="#9573FD"/>
<ellipse cx="667" cy="584.5" rx="7" ry="4" fill="#F7EEFF"/>
<path d="M619 604L643 590L667 604L643 618L619 604Z" fill="#CDBEFF"/>
<path d="M643 641L667 627V604L643 618V641Z" fill="#936DFF"/>
<path d="M619 604V627L643 641V618L619 604Z" fill="#A080FF"/>
<path d="M641 602L649.226 597.299C650.598 596.515 652.31 596.646 653.547 597.63C655.679 599.325 655.434 602.636 653.074 603.999L646.9 607.563L641 602Z" fill="#BCAAFC"/>
<path fill-rule="evenodd" clip-rule="evenodd" d="M650 598.5H636V604.5C636 606.709 639.134 608.5 643 608.5C646.866 608.5 650 606.709 650 604.5V598.5Z" fill="#9573FD"/>
<ellipse cx="643" cy="598.5" rx="7" ry="4" fill="#F7EEFF"/>
<path d="M571 604L595 590L619 604L595 618L571 604Z" fill="#99D4FF"/>
<path d="M595 641L619 627V604L595 618V641Z" fill="#2F83FF"/>
<path d="M571 604V627L595 641V618L571 604Z" fill="#2FA9FF"/>
<path d="M593 602L601.226 597.299C602.598 596.515 604.31 596.646 605.547 597.63C607.679 599.325 607.434 602.636 605.074 603.999L598.9 607.563L593 602Z" fill="#83C0FF"/>
<path fill-rule="evenodd" clip-rule="evenodd" d="M602 598.5H588V604.5C588 606.709 591.134 608.5 595 608.5C598.866 608.5 602 606.709 602 604.5V598.5Z" fill="#2FA9FF"/>
<ellipse cx="595" cy="598.5" rx="7" ry="4" fill="#EFF8FF"/>
<path d="M595 618L619 604L643 618L619 632L595 618Z" fill="#99D4FF"/>
<path d="M619 655L643 641V618L619 632V655Z" fill="#2F83FF"/>
<path d="M595 618V641L619 655V632L595 618Z" fill="#2FA9FF"/>
<path d="M617 616L625.226 611.299C626.598 610.515 628.31 610.646 629.547 611.63C631.679 613.325 631.434 616.636 629.074 617.999L622.9 621.563L617 616Z" fill="#83C0FF"/>
<path fill-rule="evenodd" clip-rule="evenodd" d="M626 612.5H612V618.5C612 620.709 615.134 622.5 619 622.5C622.866 622.5 626 620.709 626 618.5V612.5Z" fill="#2FA9FF"/>
<ellipse cx="619" cy="612.5" rx="7" ry="4" fill="#EFF8FF"/>
<path d="M547 618L571 604L595 618L571 632L547 618Z" fill="#99D4FF"/>
<path d="M571 655L595 641V618L571 632V655Z" fill="#2F83FF"/>
<path d="M547 618V641L571 655V632L547 618Z" fill="#2FA9FF"/>
<path d="M569 616L577.226 611.299C578.598 610.515 580.31 610.646 581.547 611.63C583.679 613.325 583.434 616.636 581.074 617.999L574.9 621.563L569 616Z" fill="#83C0FF"/>
<path fill-rule="evenodd" clip-rule="evenodd" d="M578 612.5H564V618.5C564 620.709 567.134 622.5 571 622.5C574.866 622.5 578 620.709 578 618.5V612.5Z" fill="#2FA9FF"/>
<ellipse cx="571" cy="612.5" rx="7" ry="4" fill="#EFF8FF"/>
<path d="M571 632L595 618L619 632L595 646L571 632Z" fill="#99D4FF"/>
<path d="M595 669L619 655V632L595 646V669Z" fill="#2F83FF"/>
<path d="M571 632V655L595 669V646L571 632Z" fill="#2FA9FF"/>
<path d="M593 630L601.226 625.299C602.598 624.515 604.31 624.646 605.547 625.63C607.679 627.325 607.434 630.636 605.074 631.999L598.9 635.563L593 630Z" fill="#83C0FF"/>
<path fill-rule="evenodd" clip-rule="evenodd" d="M602 626.5H588V632.5C588 634.709 591.134 636.5 595 636.5C598.866 636.5 602 634.709 602 632.5V626.5Z" fill="#2FA9FF"/>
<ellipse cx="595" cy="626.5" rx="7" ry="4" fill="#EEFFF2"/>
<path d="M979 562L1003 548L1027 562L1003 576L979 562Z" fill="#99D4FF"/>
<path d="M1003 599L1027 585V562L1003 576V599Z" fill="#2F83FF"/>
<path d="M979 562V585L1003 599V576L979 562Z" fill="#2FA9FF"/>
<path d="M1001 560L1009.23 555.299C1010.6 554.515 1012.31 554.646 1013.55 555.63C1015.68 557.325 1015.43 560.636 1013.07 561.999L1006.9 565.563L1001 560Z" fill="#83C0FF"/>
<path fill-rule="evenodd" clip-rule="evenodd" d="M1010 556.5H996V562.5C996 564.709 999.134 566.5 1003 566.5C1006.87 566.5 1010 564.709 1010 562.5V556.5Z" fill="#2FA9FF"/>
<ellipse cx="1003" cy="556.5" rx="7" ry="4" fill="#EFF8FF"/>
<path d="M787 562L811 548L835 562L811 576L787 562Z" fill="#FFB8B4"/>
<path d="M811 599L835 585V562L811 576V599Z" fill="#EA6463"/>
<path d="M787 562V585L811 599V576L787 562Z" fill="#F88887"/>
<path d="M809 560L817.226 555.299C818.598 554.515 820.31 554.646 821.547 555.63C823.679 557.325 823.434 560.636 821.074 561.999L814.9 565.563L809 560Z" fill="#FBA39F"/>
<path fill-rule="evenodd" clip-rule="evenodd" d="M818 556.5H804V562.5C804 564.709 807.134 566.5 811 566.5C814.866 566.5 818 564.709 818 562.5V556.5Z" fill="#F88887"/>
<ellipse cx="811" cy="556.5" rx="7" ry="4" fill="#FFEDEF"/>
<path d="M763 576L787 562L811 576L787 590L763 576Z" fill="#CDBEFF"/>
<path d="M787 613L811 599V576L787 590V613Z" fill="#936DFF"/>
<path d="M763 576V599L787 613V590L763 576Z" fill="#A080FF"/>
<path d="M785 574L793.226 569.299C794.598 568.515 796.31 568.646 797.547 569.63C799.679 571.325 799.434 574.636 797.074 575.999L790.9 579.563L785 574Z" fill="#BCAAFC"/>
<path fill-rule="evenodd" clip-rule="evenodd" d="M794 570.5H780V576.5C780 578.709 783.134 580.5 787 580.5C790.866 580.5 794 578.709 794 576.5V570.5Z" fill="#9573FD"/>
<ellipse cx="787" cy="570.5" rx="7" ry="4" fill="#F7EEFF"/>
<path d="M739 590L763 576L787 590L763 604L739 590Z" fill="#CDBEFF"/>
<path d="M763 627L787 613V590L763 604V627Z" fill="#936DFF"/>
<path d="M739 590V613L763 627V604L739 590Z" fill="#A080FF"/>
<path d="M761 588L769.226 583.299C770.598 582.515 772.31 582.646 773.547 583.63C775.679 585.325 775.434 588.636 773.074 589.999L766.9 593.563L761 588Z" fill="#BCAAFC"/>
<path fill-rule="evenodd" clip-rule="evenodd" d="M770 584.5H756V590.5C756 592.709 759.134 594.5 763 594.5C766.866 594.5 770 592.709 770 590.5V584.5Z" fill="#9573FD"/>
<ellipse cx="763" cy="584.5" rx="7" ry="4" fill="#F7EEFF"/>
<path d="M787 590L811 576L835 590L811 604L787 590Z" fill="#99D4FF"/>
<path d="M811 627L835 613V590L811 604V627Z" fill="#2F83FF"/>
<path d="M787 590V613L811 627V604L787 590Z" fill="#2FA9FF"/>
<path d="M809 588L817.226 583.299C818.598 582.515 820.31 582.646 821.547 583.63C823.679 585.325 823.434 588.636 821.074 589.999L814.9 593.563L809 588Z" fill="#83C0FF"/>
<path fill-rule="evenodd" clip-rule="evenodd" d="M818 584.5H804V590.5C804 592.709 807.134 594.5 811 594.5C814.866 594.5 818 592.709 818 590.5V584.5Z" fill="#2FA9FF"/>
<ellipse cx="811" cy="584.5" rx="7" ry="4" fill="#EEFFF2"/>
<path d="M763 604L787 590L811 604L787 618L763 604Z" fill="#99D4FF"/>
<path d="M787 641L811 627V604L787 618V641Z" fill="#2F83FF"/>
<path d="M763 604V627L787 641V618L763 604Z" fill="#2FA9FF"/>
<path d="M785 602L793.226 597.299C794.598 596.515 796.31 596.646 797.547 597.63C799.679 599.325 799.434 602.636 797.074 603.999L790.9 607.563L785 602Z" fill="#83C0FF"/>
<path fill-rule="evenodd" clip-rule="evenodd" d="M794 598.5H780V604.5C780 606.709 783.134 608.5 787 608.5C790.866 608.5 794 606.709 794 604.5V598.5Z" fill="#2FA9FF"/>
<ellipse cx="787" cy="598.5" rx="7" ry="4" fill="#EEFFF2"/>
<path d="M811 604L835 590L859 604L835 618L811 604Z" fill="#99D4FF"/>
<path d="M835 641L859 627V604L835 618V641Z" fill="#2F83FF"/>
<path d="M811 604V627L835 641V618L811 604Z" fill="#2FA9FF"/>
<path d="M833 602L841.226 597.299C842.598 596.515 844.31 596.646 845.547 597.63C847.679 599.325 847.434 602.636 845.074 603.999L838.9 607.563L833 602Z" fill="#83C0FF"/>
<path fill-rule="evenodd" clip-rule="evenodd" d="M842 598.5H828V604.5C828 606.709 831.134 608.5 835 608.5C838.866 608.5 842 606.709 842 604.5V598.5Z" fill="#2FA9FF"/>
<ellipse cx="835" cy="598.5" rx="7" ry="4" fill="#EEFFF2"/>
<path d="M787 618L811 604L835 618L811 632L787 618Z" fill="#99D4FF"/>
<path d="M811 655L835 641V618L811 632V655Z" fill="#2F83FF"/>
<path d="M787 618V641L811 655V632L787 618Z" fill="#2FA9FF"/>
<path d="M809 616L817.226 611.299C818.598 610.515 820.31 610.646 821.547 611.63C823.679 613.325 823.434 616.636 821.074 617.999L814.9 621.563L809 616Z" fill="#83C0FF"/>
<path fill-rule="evenodd" clip-rule="evenodd" d="M818 612.5H804V618.5C804 620.709 807.134 622.5 811 622.5C814.866 622.5 818 620.709 818 618.5V612.5Z" fill="#2FA9FF"/>
<ellipse cx="811" cy="612.5" rx="7" ry="4" fill="#EEFFF2"/>
<path d="M739 618L763 604L787 618L763 632L739 618Z" fill="#CDBEFF"/>
<path d="M763 655L787 641V618L763 632V655Z" fill="#936DFF"/>
<path d="M739 618V641L763 655V632L739 618Z" fill="#A080FF"/>
<path d="M761 616L769.226 611.299C770.598 610.515 772.31 610.646 773.547 611.63C775.679 613.325 775.434 616.636 773.074 617.999L766.9 621.563L761 616Z" fill="#BCAAFC"/>
<path fill-rule="evenodd" clip-rule="evenodd" d="M770 612.5H756V618.5C756 620.709 759.134 622.5 763 622.5C766.866 622.5 770 620.709 770 618.5V612.5Z" fill="#9573FD"/>
<ellipse cx="763" cy="612.5" rx="7" ry="4" fill="#F7EEFF"/>
<path d="M763 632L787 618L811 632L787 646L763 632Z" fill="#FFB8B4"/>
<path d="M787 669L811 655V632L787 646V669Z" fill="#EA6463"/>
<path d="M763 632V655L787 669V646L763 632Z" fill="#F88887"/>
<path d="M785 630L793.226 625.299C794.598 624.515 796.31 624.646 797.547 625.63C799.679 627.325 799.434 630.636 797.074 631.999L790.9 635.563L785 630Z" fill="#FBA39F"/>
<path fill-rule="evenodd" clip-rule="evenodd" d="M794 626.5H780V632.5C780 634.709 783.134 636.5 787 636.5C790.866 636.5 794 634.709 794 632.5V626.5Z" fill="#F88887"/>
<ellipse cx="787" cy="626.5" rx="7" ry="4" fill="#FFEDEF"/>
<path d="M787 646L811 632L835 646L811 660L787 646Z" fill="#FFB8B4"/>
<path d="M811 683L835 669V646L811 660V683Z" fill="#EA6463"/>
<path d="M787 646V669L811 683V660L787 646Z" fill="#F88887"/>
<path d="M809 644L817.226 639.299C818.598 638.515 820.31 638.646 821.547 639.63C823.679 641.325 823.434 644.636 821.074 645.999L814.9 649.563L809 644Z" fill="#FBA39F"/>
<path fill-rule="evenodd" clip-rule="evenodd" d="M818 640.5H804V646.5C804 648.709 807.134 650.5 811 650.5C814.866 650.5 818 648.709 818 646.5V640.5Z" fill="#F88887"/>
<ellipse cx="811" cy="640.5" rx="7" ry="4" fill="#FFEDEF"/>
<path d="M763 660L787 646L811 660L787 674L763 660Z" fill="#FFB8B4"/>
<path d="M787 697L811 683V660L787 674V697Z" fill="#EA6463"/>
<path d="M763 660V683L787 697V674L763 660Z" fill="#F88887"/>
<path d="M785 658L793.226 653.299C794.598 652.515 796.31 652.646 797.547 653.63C799.679 655.325 799.434 658.636 797.074 659.999L790.9 663.563L785 658Z" fill="#FBA39F"/>
<path fill-rule="evenodd" clip-rule="evenodd" d="M794 654.5H780V660.5C780 662.709 783.134 664.5 787 664.5C790.866 664.5 794 662.709 794 660.5V654.5Z" fill="#F88887"/>
<ellipse cx="787" cy="654.5" rx="7" ry="4" fill="#FFEDEF"/>
<path d="M619 632L643 618L667 632L643 646L619 632Z" fill="#FFB8B4"/>
<path d="M643 669L667 655V632L643 646V669Z" fill="#EA6463"/>
<path d="M619 632V655L643 669V646L619 632Z" fill="#F88887"/>
<path d="M641 630L649.226 625.299C650.598 624.515 652.31 624.646 653.547 625.63C655.679 627.325 655.434 630.636 653.074 631.999L646.9 635.563L641 630Z" fill="#FBA39F"/>
<path fill-rule="evenodd" clip-rule="evenodd" d="M650 626.5H636V632.5C636 634.709 639.134 636.5 643 636.5C646.866 636.5 650 634.709 650 632.5V626.5Z" fill="#F88887"/>
<ellipse cx="643" cy="626.5" rx="7" ry="4" fill="#FFEDEF"/>
<path d="M595 646L619 632L643 646L619 660L595 646Z" fill="#FFB8B4"/>
<path d="M619 683L643 669V646L619 660V683Z" fill="#EA6463"/>
<path d="M595 646V669L619 683V660L595 646Z" fill="#F88887"/>
<path d="M617 644L625.226 639.299C626.598 638.515 628.31 638.646 629.547 639.63C631.679 641.325 631.434 644.636 629.074 645.999L622.9 649.563L617 644Z" fill="#FBA39F"/>
<path fill-rule="evenodd" clip-rule="evenodd" d="M626 640.5H612V646.5C612 648.709 615.134 650.5 619 650.5C622.866 650.5 626 648.709 626 646.5V640.5Z" fill="#F88887"/>
<ellipse cx="619" cy="640.5" rx="7" ry="4" fill="#FFEDEF"/>
<path d="M619 660L643 646L667 660L643 674L619 660Z" fill="#FFB8B4"/>
<path d="M643 697L667 683V660L643 674V697Z" fill="#EA6463"/>
<path d="M619 660V683L643 697V674L619 660Z" fill="#F88887"/>
<path d="M641 658L649.226 653.299C650.598 652.515 652.31 652.646 653.547 653.63C655.679 655.325 655.434 658.636 653.074 659.999L646.9 663.563L641 658Z" fill="#FBA39F"/>
<path fill-rule="evenodd" clip-rule="evenodd" d="M650 654.5H636V660.5C636 662.709 639.134 664.5 643 664.5C646.866 664.5 650 662.709 650 660.5V654.5Z" fill="#F88887"/>
<ellipse cx="643" cy="654.5" rx="7" ry="4" fill="#FFEDEF"/>
<path d="M859 492L883 478L907 492L883 506L859 492Z" fill="#99D4FF"/>
<path d="M883 529L907 515V492L883 506V529Z" fill="#2F83FF"/>
<path d="M859 492V515L883 529V506L859 492Z" fill="#2FA9FF"/>
<path d="M881 490L889.226 485.299C890.598 484.515 892.31 484.646 893.547 485.63C895.679 487.325 895.434 490.636 893.074 491.999L886.9 495.563L881 490Z" fill="#83C0FF"/>
<path fill-rule="evenodd" clip-rule="evenodd" d="M890 486.5H876V492.5C876 494.709 879.134 496.5 883 496.5C886.866 496.5 890 494.709 890 492.5V486.5Z" fill="#2FA9FF"/>
<ellipse cx="883" cy="486.5" rx="7" ry="4" fill="#EFF8FF"/>
<path d="M883 506L907 492L931 506L907 520L883 506Z" fill="#99D4FF"/>
<path d="M907 543L931 529V506L907 520V543Z" fill="#2F83FF"/>
<path d="M883 506V529L907 543V520L883 506Z" fill="#2FA9FF"/>
<path d="M905 504L913.226 499.299C914.598 498.515 916.31 498.646 917.547 499.63C919.679 501.325 919.434 504.636 917.074 505.999L910.9 509.563L905 504Z" fill="#83C0FF"/>
<path fill-rule="evenodd" clip-rule="evenodd" d="M914 500.5H900V506.5C900 508.709 903.134 510.5 907 510.5C910.866 510.5 914 508.709 914 506.5V500.5Z" fill="#2FA9FF"/>
<ellipse cx="907" cy="500.5" rx="7" ry="4" fill="#EFF8FF"/>
<path d="M907 520L931 506L955 520L931 534L907 520Z" fill="#99D4FF"/>
<path d="M931 557L955 543V520L931 534V557Z" fill="#2F83FF"/>
<path d="M907 520V543L931 557V534L907 520Z" fill="#2FA9FF"/>
<path d="M929 518L937.226 513.299C938.598 512.515 940.31 512.646 941.547 513.63C943.679 515.325 943.434 518.636 941.074 519.999L934.9 523.563L929 518Z" fill="#83C0FF"/>
<path fill-rule="evenodd" clip-rule="evenodd" d="M938 514.5H924V520.5C924 522.709 927.134 524.5 931 524.5C934.866 524.5 938 522.709 938 520.5V514.5Z" fill="#2FA9FF"/>
<ellipse cx="931" cy="514.5" rx="7" ry="4" fill="#EFF8FF"/>
<path d="M811 492L835 478L859 492L835 506L811 492Z" fill="#CDBEFF"/>
<path d="M835 529L859 515V492L835 506V529Z" fill="#936DFF"/>
<path d="M811 492V515L835 529V506L811 492Z" fill="#A080FF"/>
<path d="M833 490L841.226 485.299C842.598 484.515 844.31 484.646 845.547 485.63C847.679 487.325 847.434 490.636 845.074 491.999L838.9 495.563L833 490Z" fill="#BCAAFC"/>
<path fill-rule="evenodd" clip-rule="evenodd" d="M842 486.5H828V492.5C828 494.709 831.134 496.5 835 496.5C838.866 496.5 842 494.709 842 492.5V486.5Z" fill="#9573FD"/>
<ellipse cx="835" cy="486.5" rx="7" ry="4" fill="#F7EEFF"/>
<path d="M451 366L475 352L499 366L475 380L451 366Z" fill="#99D4FF"/>
<path d="M475 403L499 389V366L475 380V403Z" fill="#2F83FF"/>
<path d="M451 366V389L475 403V380L451 366Z" fill="#2FA9FF"/>
<path d="M473 364L481.226 359.299C482.598 358.515 484.31 358.646 485.547 359.63C487.679 361.325 487.434 364.636 485.074 365.999L478.9 369.563L473 364Z" fill="#83C0FF"/>
<path fill-rule="evenodd" clip-rule="evenodd" d="M482 360.5H468V366.5C468 368.709 471.134 370.5 475 370.5C478.866 370.5 482 368.709 482 366.5V360.5Z" fill="#2FA9FF"/>
<ellipse cx="475" cy="360.5" rx="7" ry="4" fill="#EFF8FF"/>
<path d="M427 380L451 366L475 380L451 394L427 380Z" fill="#99D4FF"/>
<path d="M451 417L475 403V380L451 394V417Z" fill="#2F83FF"/>
<path d="M427 380V403L451 417V394L427 380Z" fill="#2FA9FF"/>
<path d="M449 378L457.226 373.299C458.598 372.515 460.31 372.646 461.547 373.63C463.679 375.325 463.434 378.636 461.074 379.999L454.9 383.563L449 378Z" fill="#83C0FF"/>
<path fill-rule="evenodd" clip-rule="evenodd" d="M458 374.5H444V380.5C444 382.709 447.134 384.5 451 384.5C454.866 384.5 458 382.709 458 380.5V374.5Z" fill="#2FA9FF"/>
<ellipse cx="451" cy="374.5" rx="7" ry="4" fill="#EFF8FF"/>
<path d="M475 380L499 366L523 380L499 394L475 380Z" fill="#99D4FF"/>
<path d="M499 417L523 403V380L499 394V417Z" fill="#2F83FF"/>
<path d="M475 380V403L499 417V394L475 380Z" fill="#2FA9FF"/>
<path d="M497 378L505.226 373.299C506.598 372.515 508.31 372.646 509.547 373.63C511.679 375.325 511.434 378.636 509.074 379.999L502.9 383.563L497 378Z" fill="#83C0FF"/>
<path fill-rule="evenodd" clip-rule="evenodd" d="M506 374.5H492V380.5C492 382.709 495.134 384.5 499 384.5C502.866 384.5 506 382.709 506 380.5V374.5Z" fill="#2FA9FF"/>
<ellipse cx="499" cy="374.5" rx="7" ry="4" fill="#EFF8FF"/>
<path d="M451 394L475 380L499 394L475 408L451 394Z" fill="#99D4FF"/>
<path d="M475 431L499 417V394L475 408V431Z" fill="#2F83FF"/>
<path d="M451 394V417L475 431V408L451 394Z" fill="#2FA9FF"/>
<path d="M473 392L481.226 387.299C482.598 386.515 484.31 386.646 485.547 387.63C487.679 389.325 487.434 392.636 485.074 393.999L478.9 397.563L473 392Z" fill="#83C0FF"/>
<path fill-rule="evenodd" clip-rule="evenodd" d="M482 388.5H468V394.5C468 396.709 471.134 398.5 475 398.5C478.866 398.5 482 396.709 482 394.5V388.5Z" fill="#2FA9FF"/>
<ellipse cx="475" cy="388.5" rx="7" ry="4" fill="#EFF8FF"/>
<path d="M931 310L955 296L979 310L955 324L931 310Z" fill="#99D4FF"/>
<path d="M955 347L979 333V310L955 324V347Z" fill="#2F83FF"/>
<path d="M931 310V333L955 347V324L931 310Z" fill="#2FA9FF"/>
<path d="M953 308L961.226 303.299C962.598 302.515 964.31 302.646 965.547 303.63C967.679 305.325 967.434 308.636 965.074 309.999L958.9 313.563L953 308Z" fill="#83C0FF"/>
<path fill-rule="evenodd" clip-rule="evenodd" d="M962 304.5H948V310.5C948 312.709 951.134 314.5 955 314.5C958.866 314.5 962 312.709 962 310.5V304.5Z" fill="#2FA9FF"/>
<ellipse cx="955" cy="304.5" rx="7" ry="4" fill="#EEFFF2"/>
<path d="M603 281L627 267L651 281L627 295L603 281Z" fill="#99D4FF"/>
<path d="M627 318L651 304V281L627 295V318Z" fill="#2F83FF"/>
<path d="M603 281V304L627 318V295L603 281Z" fill="#2FA9FF"/>
<path d="M625 279L633.226 274.299C634.598 273.515 636.31 273.646 637.547 274.63C639.679 276.325 639.434 279.636 637.074 280.999L630.9 284.563L625 279Z" fill="#83C0FF"/>
<path fill-rule="evenodd" clip-rule="evenodd" d="M634 275.5H620V281.5C620 283.709 623.134 285.5 627 285.5C630.866 285.5 634 283.709 634 281.5V275.5Z" fill="#2FA9FF"/>
<ellipse cx="627" cy="275.5" rx="7" ry="4" fill="#EEFFF2"/>
<defs>
<filter id="filter0_f_720_1605" x="0" y="0" width="1430" height="1430" filterUnits="userSpaceOnUse" color-interpolation-filters="sRGB">
<feFlood flood-opacity="0" result="BackgroundImageFix"/>
<feBlend mode="normal" in="SourceGraphic" in2="BackgroundImageFix" result="shape"/>
<feGaussianBlur stdDeviation="132" result="effect1_foregroundBlur_720_1605"/>
</filter>
<radialGradient id="paint0_radial_720_1605" cx="0" cy="0" r="1" gradientUnits="userSpaceOnUse" gradientTransform="translate(715 715) rotate(-90) scale(451)">
<stop offset="0.648854" stop-color="#FFF8DD"/>
<stop offset="1" stop-color="#FFFCF1" stop-opacity="0"/>
</radialGradient>
<linearGradient id="paint1_linear_720_1605" x1="715" y1="199" x2="715" y2="733" gradientUnits="userSpaceOnUse">
<stop stop-color="#FFBF72"/>
<stop offset="1" stop-color="white" stop-opacity="0"/>
<stop offset="1" stop-color="#FFDBB1" stop-opacity="0"/>
</linearGradient>
</defs>
</svg>
