<svg width="41" height="39" viewBox="0 0 41 39" fill="none" xmlns="http://www.w3.org/2000/svg">
<path d="M20.2451 8.11616C24.0986 8.11616 27.2225 6.29929 27.2225 4.05808C27.2225 1.81686 24.0986 0 20.2451 0C16.3915 0 13.2676 1.81686 13.2676 4.05808C13.2676 6.29929 16.3915 8.11616 20.2451 8.11616Z" fill="#E6007A"/>
<path d="M20.2451 38.6926C24.0986 38.6926 27.2225 36.8757 27.2225 34.6345C27.2225 32.3933 24.0986 30.5764 20.2451 30.5764C16.3915 30.5764 13.2676 32.3933 13.2676 34.6345C13.2676 36.8757 16.3915 38.6926 20.2451 38.6926Z" fill="#E6007A"/>
<path d="M10.5221 13.7337C12.4489 10.3965 12.4364 6.78211 10.4942 5.66075C8.55195 4.53938 5.41552 6.33566 3.48874 9.67283C1.56196 13.01 1.57447 16.6244 3.51667 17.7457C5.45888 18.8671 8.59531 17.0708 10.5221 13.7337Z" fill="#E6007A"/>
<path d="M36.9998 29.0197C38.9265 25.6826 38.9151 22.0688 36.9742 20.9482C35.0333 19.8276 31.8979 21.6245 29.9712 24.9617C28.0444 28.2988 28.0558 31.9126 29.9967 33.0332C31.9376 34.1538 35.073 32.3569 36.9998 29.0197Z" fill="#E6007A"/>
<path d="M10.4946 33.0324C12.4368 31.911 12.4494 28.2966 10.5226 24.9595C8.59579 21.6223 5.45937 19.826 3.51716 20.9474C1.57496 22.0687 1.56245 25.6831 3.48923 29.0203C5.41601 32.3575 8.55244 34.1537 10.4946 33.0324Z" fill="#E6007A"/>
<path d="M36.9757 17.7464C38.9166 16.6258 38.928 13.012 37.0012 9.67485C35.0744 6.33767 31.9391 4.54078 29.9982 5.66139C28.0573 6.782 28.0458 10.3957 29.9726 13.7329C31.8994 17.0701 35.0348 18.867 36.9757 17.7464Z" fill="#E6007A"/>
</svg>
