<svg width="924" height="700" viewBox="0 0 924 700" fill="none" xmlns="http://www.w3.org/2000/svg">
<mask id="mask0" mask-type="alpha" maskUnits="userSpaceOnUse" x="0" y="0" width="924" height="700">
<rect width="924" height="700" fill="url(#paint0_linear)"/>
</mask>
<g mask="url(#mask0)">
<mask id="mask1" mask-type="alpha" maskUnits="userSpaceOnUse" x="0" y="0" width="924" height="700">
<path d="M924 0H0V700H924V0Z" fill="url(#paint1_linear)"/>
</mask>
<g mask="url(#mask1)">
<g filter="url(#filter0_f)">
<mask id="mask2" mask-type="alpha" maskUnits="userSpaceOnUse" x="0" y="0" width="924" height="700">
<path d="M924 0H0V700H924V0Z" fill="url(#paint2_linear)"/>
</mask>
<g mask="url(#mask2)">
<path d="M462 805C665.241 805 830 640.241 830 437C830 233.759 665.241 69 462 69C258.759 69 94 233.759 94 437C94 640.241 258.759 805 462 805Z" fill="url(#paint3_radial)"/>
</g>
</g>
<path d="M462 502C629.342 502 765 440.439 765 364.5C765 288.561 629.342 227 462 227C294.658 227 159 288.561 159 364.5C159 440.439 294.658 502 462 502Z" fill="url(#paint4_linear)"/>
<path d="M462 494C619.401 494 747 436.021 747 364.5C747 292.979 619.401 235 462 235C304.599 235 177 292.979 177 364.5C177 436.021 304.599 494 462 494Z" fill="url(#paint5_linear)"/>
<g style="mix-blend-mode:overlay" opacity="0.6">
<path style="mix-blend-mode:overlay" opacity="0.6" d="M462 494C619.401 494 747 436.021 747 364.5C747 292.979 619.401 235 462 235C304.599 235 177 292.979 177 364.5C177 436.021 304.599 494 462 494Z" fill="url(#paint6_linear)"/>
</g>
<path opacity="0.5" fill-rule="evenodd" clip-rule="evenodd" d="M451.941 473.887C432.593 478.167 344.717 476.788 344.717 476.788L343.389 476.542C343.389 476.542 456.793 476.455 448.317 472.189C439.841 467.923 403.441 465.616 389.117 466.081C375.299 466.53 319.492 473.335 319.492 473.335L316.056 472.943C316.056 472.943 372.483 467.793 364.629 465.181C356.774 462.569 296 460.422 296 460.422L299.884 460.233C312.475 460.785 352.933 459.058 352.933 459.058H354.926C384.901 463.28 477.08 467.604 476.661 466.066C476.242 464.528 467.911 459 467.911 459H469.687C469.687 459 480.227 468.01 491.981 468.286C503.734 468.562 614.958 465.573 614.958 465.573L623 466.066C623 466.066 471.289 469.592 451.941 473.887ZM461.644 467.053C449.949 466.922 432.434 466.139 432.434 466.139C434.484 467.923 452.057 473.176 465.081 471.841C479.188 470.39 484.487 469.316 484.761 469.287C477.125 467.936 469.396 467.189 461.644 467.053Z" fill="white"/>
<path opacity="0.3" d="M462 591C586.264 591 687 490.264 687 366C687 241.736 586.264 141 462 141C337.736 141 237 241.736 237 366C237 490.264 337.736 591 462 591Z" fill="url(#paint7_linear)"/>
<g opacity="0.8" filter="url(#filter1_d)">
<path opacity="0.8" fill-rule="evenodd" clip-rule="evenodd" d="M534.382 313.392L461.77 200L389.16 313.391L461.767 355.611L534.382 313.392ZM461.77 229.35L411.388 308.029L461.767 337.323L512.154 308.029L461.77 229.35Z" fill="url(#paint8_linear)"/>
<path opacity="0.8" d="M377.449 331.559L461.681 380.538L461.684 380.54L545.933 331.558L548.233 335.151C574.176 375.664 568.383 428.722 534.304 462.714C494.201 502.715 429.182 502.715 389.079 462.714C355 428.722 349.206 375.664 375.149 335.151L377.449 331.559Z" fill="url(#paint9_linear)"/>
</g>
<path opacity="0.67" d="M305 510.016C257.205 532.058 234.5 544.936 213.969 553.802C193.438 562.669 184.206 575.413 202.103 581.815C220 588.216 249.5 581.815 268.5 609.364C287.5 636.913 382 535.591 464 537.558C546 539.526 566.282 569.431 637.5 604.446C708.718 639.461 693.081 587.72 716 581.815C738.919 575.909 771.911 581.165 764 566.576C756.089 551.986 647.218 518.392 603 504.115C558.782 489.837 517.5 515.441 460 515.441C402.5 515.441 352.795 487.975 305 510.016Z" fill="url(#paint10_radial)"/>
<path d="M622.312 513.187C621.856 513.18 621.411 513.05 621.025 512.811C620.639 512.572 620.326 512.234 620.122 511.833C619.918 511.431 619.83 510.983 619.868 510.535C619.905 510.088 620.067 509.66 620.335 509.297L686.012 426.525C686.212 426.269 686.461 426.055 686.745 425.894C687.03 425.734 687.343 425.629 687.668 425.588C687.993 425.546 688.323 425.568 688.64 425.652C688.956 425.736 689.253 425.881 689.512 426.077C689.772 426.274 689.99 426.519 690.153 426.798C690.317 427.078 690.423 427.386 690.465 427.706C690.507 428.026 690.485 428.351 690.4 428.662C690.314 428.973 690.167 429.265 689.967 429.52L624.29 512.292C624.052 512.58 623.749 512.81 623.407 512.965C623.064 513.12 622.69 513.196 622.312 513.187Z" fill="#82471B"/>
<path d="M691.846 561.975C691.336 561.974 690.838 561.817 690.422 561.527L570.399 477.88C570.063 477.729 569.766 477.507 569.528 477.229C569.291 476.952 569.119 476.626 569.025 476.275C568.931 475.924 568.917 475.556 568.985 475.2C569.053 474.843 569.2 474.505 569.417 474.212C569.633 473.918 569.914 473.675 570.237 473.501C570.561 473.326 570.92 473.225 571.288 473.203C571.657 473.182 572.025 473.242 572.367 473.378C572.709 473.513 573.017 473.722 573.267 473.989L693.29 557.637C693.715 557.94 694.031 558.367 694.195 558.857C694.358 559.348 694.36 559.877 694.2 560.368C694.04 560.86 693.726 561.289 693.304 561.595C692.881 561.901 692.371 562.068 691.846 562.072V561.975Z" fill="#82471B"/>
<path d="M680.811 554.194C680.262 554.193 679.73 554.013 679.296 553.682C678.863 553.351 678.554 552.888 678.418 552.365L655.517 466.85C655.403 466.243 655.527 465.615 655.864 465.093C656.2 464.571 656.725 464.193 657.333 464.036C657.941 463.878 658.586 463.953 659.141 464.244C659.695 464.535 660.117 465.021 660.323 465.605L683.224 551.101C683.32 551.462 683.331 551.84 683.257 552.206C683.182 552.573 683.023 552.917 682.792 553.214C682.561 553.51 682.264 553.751 681.924 553.917C681.585 554.084 681.21 554.172 680.831 554.174L680.811 554.194Z" fill="#82471B"/>
<path d="M555.269 526.221C554.776 526.216 554.296 526.068 553.888 525.795C553.481 525.521 553.165 525.135 552.981 524.685C552.797 524.236 552.753 523.742 552.854 523.267C552.955 522.793 553.197 522.358 553.549 522.019L589.72 488.054C589.949 487.8 590.229 487.596 590.543 487.455C590.856 487.313 591.196 487.237 591.541 487.231C591.886 487.226 592.228 487.29 592.546 487.422C592.864 487.553 593.151 487.747 593.389 487.993C593.626 488.239 593.81 488.531 593.927 488.85C594.044 489.169 594.092 489.509 594.069 489.847C594.046 490.186 593.951 490.516 593.791 490.817C593.632 491.117 593.41 491.382 593.141 491.595L556.99 525.52C556.531 525.965 555.914 526.217 555.269 526.221Z" fill="#82471B"/>
<path d="M586.379 470.041L585.291 471.033L541.961 510.464L514.768 491.458L494.221 477.082L586.379 470.041Z" fill="#E6E6E6"/>
<path d="M586.379 470.041L585.291 471.033L514.768 491.458L494.221 477.082L586.379 470.041Z" fill="#ED917C"/>
<path d="M686.823 431.485L680.633 439.266L665.425 458.233L658.167 467.298L653.539 473.133L637.718 492.82L634.514 496.71C628.737 500.415 622.674 503.667 616.379 506.437C603.893 512.281 590.443 515.878 576.668 517.058C564.691 518.098 552.657 515.806 541.94 510.444L555.013 494.668L566.879 480.37L579.832 464.71L587.743 455.237L592.291 449.751L602.694 437.165L607.341 431.563C607.341 431.563 611.296 432.321 617.585 433.177C633.466 435.259 664.515 438.099 686.823 431.485Z" fill="white"/>
<path d="M680.692 439.208L665.483 458.174C648.95 460.236 623.538 463.096 592.311 449.673L602.713 437.087C612.661 440.083 648.258 449.284 680.692 439.208Z" fill="#ED917C"/>
<path d="M653.519 473.017L637.698 492.703C624.171 493.189 588.85 493.112 566.819 480.389L579.832 464.71C590.65 467.959 628.799 478.736 653.519 473.017Z" fill="#ED917C"/>
<path d="M616.398 506.456C597.69 514.899 567.669 523.789 541.96 510.464L555.032 494.688C563.674 497.781 593.24 507.643 616.398 506.456Z" fill="#ED917C"/>
<g style="mix-blend-mode:multiply" opacity="0.21">
<g style="mix-blend-mode:multiply" opacity="0.21">
<path d="M576.687 517.078C564.71 518.118 552.677 515.826 541.96 510.464L555.032 494.688L566.898 480.39L579.832 464.711L587.742 455.237L592.291 449.751L602.693 437.165L607.341 431.563C607.341 431.563 611.296 432.322 617.585 433.178C604.453 452.65 574.275 499.726 576.687 517.078Z" fill="#9E9E9E"/>
</g>
</g>
<path d="M543.067 513.187C542.611 513.18 542.166 513.05 541.78 512.811C541.393 512.572 541.081 512.234 540.877 511.833C540.673 511.431 540.585 510.983 540.623 510.535C540.66 510.088 540.822 509.66 541.089 509.297L606.767 426.525C607.171 426.009 607.767 425.672 608.423 425.588C609.08 425.504 609.743 425.68 610.268 426.077C610.792 426.475 611.135 427.06 611.22 427.706C611.305 428.352 611.126 429.004 610.722 429.52L545.025 512.253C544.793 512.546 544.495 512.782 544.156 512.944C543.817 513.105 543.444 513.189 543.067 513.187Z" fill="#C27034"/>
<path d="M612.601 561.975C612.091 561.974 611.593 561.817 611.177 561.527L491.154 477.88C490.818 477.729 490.521 477.507 490.283 477.229C490.045 476.952 489.873 476.626 489.779 476.275C489.685 475.924 489.672 475.556 489.74 475.2C489.808 474.843 489.955 474.505 490.172 474.212C490.388 473.918 490.668 473.675 490.992 473.501C491.316 473.326 491.675 473.225 492.043 473.203C492.411 473.182 492.78 473.242 493.122 473.378C493.464 473.513 493.771 473.722 494.021 473.989L614.045 557.637C614.469 557.94 614.786 558.367 614.95 558.857C615.113 559.348 615.115 559.877 614.955 560.368C614.795 560.86 614.481 561.289 614.059 561.595C613.636 561.901 613.126 562.068 612.601 562.072V561.975Z" fill="#C27034"/>
<path d="M601.586 554.193C601.037 554.193 600.504 554.013 600.071 553.682C599.638 553.351 599.329 552.887 599.193 552.365L576.252 466.85C576.14 466.531 576.096 466.193 576.123 465.856C576.15 465.52 576.247 465.193 576.409 464.895C576.57 464.597 576.792 464.336 577.062 464.127C577.331 463.917 577.641 463.765 577.972 463.679C578.304 463.593 578.65 463.575 578.989 463.627C579.328 463.679 579.653 463.799 579.942 463.98C580.232 464.161 580.48 464.398 580.672 464.678C580.864 464.958 580.995 465.273 581.058 465.605L603.959 551.1C604.058 551.461 604.073 551.84 604.001 552.207C603.929 552.574 603.772 552.92 603.543 553.219C603.314 553.517 603.018 553.76 602.679 553.929C602.34 554.098 601.966 554.188 601.586 554.193Z" fill="#C27034"/>
<path d="M476.026 526.221C475.533 526.216 475.053 526.068 474.645 525.795C474.238 525.521 473.922 525.135 473.738 524.685C473.554 524.236 473.509 523.742 473.611 523.267C473.712 522.793 473.953 522.358 474.306 522.019L510.457 488.054C510.944 487.67 511.56 487.48 512.184 487.521C512.807 487.563 513.391 487.833 513.821 488.278C514.252 488.723 514.496 489.311 514.507 489.925C514.517 490.54 514.293 491.135 513.878 491.595L477.727 525.52C477.273 525.961 476.664 526.212 476.026 526.221Z" fill="#C27034"/>
<path d="M298.353 513.187C298.809 513.18 299.255 513.05 299.641 512.811C300.027 512.572 300.339 512.234 300.543 511.833C300.747 511.431 300.835 510.983 300.798 510.535C300.76 510.088 300.599 509.66 300.331 509.297L234.653 426.525C234.249 426.009 233.654 425.672 232.997 425.588C232.341 425.504 231.677 425.68 231.153 426.077C230.628 426.475 230.286 427.06 230.201 427.706C230.115 428.352 230.294 429.004 230.698 429.52L296.376 512.292C296.614 512.58 296.916 512.81 297.259 512.965C297.602 513.121 297.976 513.196 298.353 513.187Z" fill="#82471B"/>
<path d="M228.821 561.975C229.332 561.974 229.829 561.817 230.245 561.527L350.269 477.88C350.604 477.729 350.902 477.507 351.139 477.229C351.377 476.952 351.549 476.626 351.643 476.275C351.737 475.924 351.75 475.556 351.683 475.2C351.615 474.843 351.467 474.505 351.251 474.212C351.034 473.918 350.754 473.675 350.43 473.501C350.107 473.326 349.748 473.225 349.379 473.203C349.011 473.182 348.642 473.242 348.3 473.378C347.958 473.513 347.651 473.722 347.401 473.989L227.378 557.637C226.953 557.94 226.636 558.367 226.473 558.857C226.309 559.348 226.307 559.877 226.467 560.368C226.627 560.86 226.941 561.289 227.364 561.595C227.786 561.901 228.297 562.068 228.821 562.072V561.975Z" fill="#82471B"/>
<path d="M365.397 526.221C365.89 526.216 366.37 526.068 366.778 525.795C367.185 525.521 367.501 525.135 367.685 524.685C367.869 524.236 367.914 523.742 367.812 523.267C367.711 522.793 367.47 522.358 367.117 522.019L330.966 488.054C330.737 487.8 330.457 487.596 330.143 487.455C329.83 487.313 329.49 487.237 329.145 487.231C328.8 487.226 328.458 487.29 328.14 487.422C327.822 487.553 327.535 487.747 327.297 487.993C327.059 488.239 326.876 488.531 326.759 488.85C326.642 489.169 326.594 489.509 326.617 489.847C326.64 490.186 326.735 490.516 326.894 490.817C327.054 491.117 327.276 491.382 327.545 491.595L363.696 525.52C364.15 525.961 364.759 526.212 365.397 526.221Z" fill="#82471B"/>
<path d="M334.288 470.041L335.376 471.033L378.706 510.464L405.899 491.458L426.446 477.082L334.288 470.041Z" fill="#E6E6E6"/>
<path d="M334.288 470.041L335.376 471.033L405.899 491.458L426.446 477.082L334.288 470.041Z" fill="#ED917C"/>
<path d="M233.844 431.485L240.034 439.266L255.242 458.232L262.5 467.297L267.128 473.133L282.949 492.82L286.152 496.71C291.929 500.415 297.993 503.667 304.287 506.437C316.774 512.281 330.223 515.878 343.999 517.058C355.976 518.098 368.009 515.806 378.726 510.444L365.654 494.668L353.788 480.37L340.735 464.613L332.825 455.139L328.276 449.654L317.874 437.068L313.226 431.465C313.226 431.465 309.271 432.224 302.982 433.08C287.141 435.259 256.152 438.099 233.844 431.485Z" fill="white"/>
<path d="M240.033 439.208L255.241 458.174C271.774 460.236 297.187 463.096 328.414 449.673L318.012 437.087C308.005 440.083 272.407 449.284 240.033 439.208Z" fill="#ED917C"/>
<path d="M267.146 473.017L282.968 492.703C296.495 493.19 331.815 493.112 353.846 480.39L340.794 464.633C330.016 467.959 291.867 478.736 267.146 473.017Z" fill="#ED917C"/>
<path d="M304.269 506.456C322.977 514.899 352.998 523.789 378.707 510.464L365.635 494.688C356.993 497.781 327.427 507.643 304.269 506.456Z" fill="#ED917C"/>
<g style="mix-blend-mode:multiply" opacity="0.21">
<g style="mix-blend-mode:multiply" opacity="0.21">
<path d="M343.979 517.077C355.956 518.117 367.99 515.826 378.707 510.463L365.634 494.687L353.769 480.389L340.716 464.632L332.805 455.159L328.257 449.673L317.855 437.087L313.207 431.485C313.207 431.485 309.252 432.243 302.963 433.099C316.213 452.65 346.471 499.726 343.979 517.077Z" fill="#9E9E9E"/>
</g>
</g>
<path d="M377.598 513.187C378.054 513.18 378.5 513.05 378.886 512.811C379.272 512.572 379.584 512.234 379.788 511.833C379.992 511.431 380.08 510.983 380.043 510.535C380.005 510.088 379.844 509.66 379.576 509.297L313.898 426.525C313.698 426.269 313.449 426.055 313.165 425.894C312.881 425.734 312.567 425.629 312.242 425.588C311.917 425.546 311.587 425.568 311.271 425.652C310.954 425.736 310.658 425.881 310.398 426.077C310.138 426.274 309.921 426.519 309.757 426.798C309.594 427.078 309.488 427.386 309.446 427.706C309.403 428.026 309.426 428.351 309.511 428.662C309.596 428.973 309.743 429.265 309.943 429.52L375.621 512.292C375.859 512.58 376.161 512.81 376.504 512.965C376.847 513.12 377.221 513.196 377.598 513.187Z" fill="#C27034"/>
<path d="M308.063 561.974C308.574 561.973 309.071 561.817 309.487 561.527L429.511 477.88C429.901 477.463 430.132 476.927 430.166 476.362C430.2 475.797 430.033 475.238 429.696 474.78C429.358 474.322 428.869 473.993 428.313 473.848C427.756 473.704 427.166 473.754 426.643 473.989L306.62 557.636C306.195 557.939 305.878 558.367 305.715 558.857C305.551 559.348 305.549 559.876 305.709 560.368C305.87 560.86 306.183 561.289 306.606 561.595C307.029 561.901 307.539 562.068 308.063 562.072V561.974Z" fill="#C27034"/>
<path d="M319.1 554.193C319.648 554.193 320.181 554.013 320.614 553.682C321.048 553.351 321.357 552.887 321.493 552.365L344.493 466.85C344.605 466.531 344.649 466.193 344.622 465.856C344.595 465.52 344.497 465.193 344.336 464.895C344.174 464.597 343.952 464.336 343.683 464.127C343.414 463.917 343.104 463.765 342.772 463.679C342.44 463.593 342.094 463.575 341.755 463.627C341.416 463.679 341.092 463.799 340.802 463.98C340.513 464.161 340.264 464.398 340.072 464.678C339.88 464.958 339.749 465.273 339.687 465.605L316.786 551.1C316.689 551.461 316.678 551.84 316.753 552.206C316.828 552.572 316.987 552.917 317.218 553.213C317.449 553.51 317.745 553.75 318.085 553.917C318.425 554.083 318.799 554.171 319.179 554.174L319.1 554.193Z" fill="#C27034"/>
<path d="M444.66 526.221C445.153 526.216 445.634 526.068 446.041 525.795C446.448 525.521 446.764 525.135 446.948 524.685C447.132 524.236 447.177 523.742 447.076 523.267C446.975 522.793 446.733 522.358 446.381 522.019L410.21 488.054C409.722 487.67 409.106 487.48 408.483 487.521C407.86 487.563 407.275 487.833 406.845 488.278C406.415 488.723 406.17 489.311 406.16 489.925C406.149 490.54 406.373 491.135 406.788 491.595L442.94 525.52C443.398 525.965 444.016 526.217 444.66 526.221Z" fill="#C27034"/>
</g>
</g>
<defs>
<filter id="filter0_f" x="-90" y="-115" width="1104" height="999" filterUnits="userSpaceOnUse" color-interpolation-filters="sRGB">
<feFlood flood-opacity="0" result="BackgroundImageFix"/>
<feBlend mode="normal" in="SourceGraphic" in2="BackgroundImageFix" result="shape"/>
<feGaussianBlur stdDeviation="92" result="effect1_foregroundBlur"/>
</filter>
<filter id="filter1_d" x="295" y="136" width="333.382" height="420.715" filterUnits="userSpaceOnUse" color-interpolation-filters="sRGB">
<feFlood flood-opacity="0" result="BackgroundImageFix"/>
<feColorMatrix in="SourceAlpha" type="matrix" values="0 0 0 0 0 0 0 0 0 0 0 0 0 0 0 0 0 0 127 0"/>
<feOffset/>
<feGaussianBlur stdDeviation="32"/>
<feColorMatrix type="matrix" values="0 0 0 0 1 0 0 0 0 1 0 0 0 0 1 0 0 0 0.8 0"/>
<feBlend mode="normal" in2="BackgroundImageFix" result="effect1_dropShadow"/>
<feBlend mode="normal" in="SourceGraphic" in2="effect1_dropShadow" result="shape"/>
</filter>
<linearGradient id="paint0_linear" x1="0" y1="350" x2="924" y2="350" gradientUnits="userSpaceOnUse">
<stop stop-color="#C4C4C4" stop-opacity="0"/>
<stop offset="0.109838" stop-color="#C4C4C4"/>
<stop offset="0.876046" stop-color="#C4C4C4"/>
<stop offset="1" stop-color="#C4C4C4" stop-opacity="0"/>
</linearGradient>
<linearGradient id="paint1_linear" x1="462" y1="0" x2="462" y2="700" gradientUnits="userSpaceOnUse">
<stop stop-color="#C4C4C4" stop-opacity="0"/>
<stop offset="0.156815" stop-color="#C4C4C4"/>
<stop offset="0.862559" stop-color="#C4C4C4"/>
<stop offset="1" stop-color="#C4C4C4" stop-opacity="0"/>
</linearGradient>
<linearGradient id="paint2_linear" x1="462" y1="0" x2="462" y2="700" gradientUnits="userSpaceOnUse">
<stop stop-color="#C4C4C4" stop-opacity="0"/>
<stop offset="0.130394" stop-color="#C4C4C4"/>
<stop offset="0.619046" stop-color="#C4C4C4"/>
<stop offset="0.81548" stop-color="#C4C4C4" stop-opacity="0"/>
</linearGradient>
<radialGradient id="paint3_radial" cx="0" cy="0" r="1" gradientUnits="userSpaceOnUse" gradientTransform="translate(462 437) rotate(-90) scale(368)">
<stop offset="0.648854" stop-color="#FFBEBE"/>
<stop offset="1" stop-color="#FFD2BE" stop-opacity="0"/>
</radialGradient>
<linearGradient id="paint4_linear" x1="462" y1="258.015" x2="462" y2="502" gradientUnits="userSpaceOnUse">
<stop stop-color="white" stop-opacity="0"/>
<stop offset="0.560597" stop-color="white" stop-opacity="0.28"/>
<stop offset="1" stop-color="white"/>
</linearGradient>
<linearGradient id="paint5_linear" x1="462" y1="264.211" x2="462" y2="494" gradientUnits="userSpaceOnUse">
<stop stop-color="#6562FF" stop-opacity="0"/>
<stop offset="0.560597" stop-color="#00A3FF" stop-opacity="0.28"/>
<stop offset="1" stop-color="#63D6D2"/>
</linearGradient>
<linearGradient id="paint6_linear" x1="462" y1="264.211" x2="462" y2="494" gradientUnits="userSpaceOnUse">
<stop stop-color="#6562FF" stop-opacity="0"/>
<stop offset="0.560597" stop-color="#00A3FF" stop-opacity="0.28"/>
<stop offset="1" stop-color="#63D6D2"/>
</linearGradient>
<linearGradient id="paint7_linear" x1="462" y1="141" x2="462" y2="591" gradientUnits="userSpaceOnUse">
<stop stop-color="white"/>
<stop offset="1" stop-color="white" stop-opacity="0"/>
</linearGradient>
<linearGradient id="paint8_linear" x1="461.691" y1="200" x2="461.691" y2="492.715" gradientUnits="userSpaceOnUse">
<stop offset="0.513959" stop-color="white"/>
<stop offset="1" stop-color="white" stop-opacity="0"/>
</linearGradient>
<linearGradient id="paint9_linear" x1="461.691" y1="200" x2="461.691" y2="492.715" gradientUnits="userSpaceOnUse">
<stop offset="0.513959" stop-color="white"/>
<stop offset="1" stop-color="white" stop-opacity="0"/>
</linearGradient>
<radialGradient id="paint10_radial" cx="0" cy="0" r="1" gradientUnits="userSpaceOnUse" gradientTransform="translate(480 514.935) rotate(90) scale(98.8556 348.795)">
<stop stop-opacity="0"/>
<stop offset="1" stop-opacity="0.13"/>
</radialGradient>
</defs>
</svg>
