<svg width="45" height="44" viewBox="0 0 45 44" fill="none" xmlns="http://www.w3.org/2000/svg">
<path fill-rule="evenodd" clip-rule="evenodd" d="M32.0738 17.1792C32.2919 16.9611 32.6456 16.9611 32.8637 17.1792L35.313 19.6285C35.5311 19.8466 35.5311 20.2003 35.313 20.4184C35.0948 20.6366 34.7411 20.6366 34.523 20.4184L32.0738 17.9692C31.8556 17.7511 31.8556 17.3974 32.0738 17.1792Z" fill="#34CDFA"/>
<path fill-rule="evenodd" clip-rule="evenodd" d="M41.5005 17.2652C41.7186 17.4833 41.7186 17.837 41.5005 18.0551L39.2231 20.3325C39.005 20.5506 38.6513 20.5506 38.4331 20.3325C38.215 20.1143 38.215 19.7607 38.4331 19.5425L40.7105 17.2652C40.9286 17.047 41.2823 17.047 41.5005 17.2652Z" fill="#34CDFA"/>
<path fill-rule="evenodd" clip-rule="evenodd" d="M36.8516 15.2539C37.1601 15.2539 37.4102 15.504 37.4102 15.8125V19.3359C37.4102 19.6444 37.1601 19.8945 36.8516 19.8945C36.5431 19.8945 36.293 19.6444 36.293 19.3359V15.8125C36.293 15.504 36.5431 15.2539 36.8516 15.2539Z" fill="#34CDFA"/>
<path fill-rule="evenodd" clip-rule="evenodd" d="M42.0938 6.27344V6.44531H42.0896C41.9796 8.73873 39.6765 10.5703 36.8516 10.5703C34.0266 10.5703 31.7236 8.73873 31.6135 6.44531H31.6094V6.27344V4.29688H32.1957C33.0685 2.91835 34.8259 1.97656 36.8516 1.97656C38.8773 1.97656 40.6346 2.91835 41.5074 4.29688H42.0938V6.27344Z" fill="#E7AD27"/>
<ellipse cx="36.8516" cy="4.29688" rx="5.24219" ry="4.29688" fill="#FEDE3A"/>
<ellipse cx="36.8516" cy="4.29688" rx="2.83594" ry="2.32031" fill="#F7CB15"/>
<path d="M14.9805 21.7852H0.5V39.4883H14.4219C15.582 39.4883 17 39.3594 18.418 40.4766C19.8359 41.5938 23.4023 44 26.668 44H38.7422C39.5586 44 41.0195 43.0977 41.0195 41.3789C41.0195 39.6602 39.6016 38.6719 38.6133 38.6719H41.3633C42.7812 38.6719 43.7695 36.9531 43.7695 36.0938C43.7695 35.2344 43.2109 33.3867 41.3633 33.3867C43.2539 33.3867 44.5 32.2266 44.5 30.6367C44.5 29.0469 42.9961 28.0156 41.1484 28.0156C42.9961 28.0156 43.5117 25.9102 43.5117 25.1797C43.5117 24.4492 42.8672 22.6875 41.0195 22.6875H30.9648C30.2344 22.6875 29.5469 22.7734 29.5469 21.3984V11.9023C29.5612 11.1576 29.057 9.66797 26.9258 9.66797C24.7945 9.66797 24.319 11.1576 24.3477 11.9023C24.3906 12.4896 24.3563 14.1109 23.875 15.8984C23.2734 18.1328 19.4922 21.7852 14.9805 21.7852Z" fill="#FFCCBC"/>
<mask id="mask0_16889_116195" style="mask-type:alpha" maskUnits="userSpaceOnUse" x="0" y="9" width="45" height="35">
<path d="M14.9805 21.7852H0.5V39.4883H14.4219C15.582 39.4883 17 39.3594 18.418 40.4766C19.8359 41.5938 23.4023 44 26.668 44H38.7422C39.5586 44 41.0195 43.0977 41.0195 41.3789C41.0195 39.6602 39.6016 38.6719 38.6133 38.6719H41.3633C42.7812 38.6719 43.7695 36.9531 43.7695 36.0938C43.7695 35.2344 43.2109 33.3867 41.3633 33.3867C43.2539 33.3867 44.5 32.2266 44.5 30.6367C44.5 29.0469 42.9961 28.0156 41.1484 28.0156C42.9961 28.0156 43.5117 25.9102 43.5117 25.1797C43.5117 24.4492 42.8672 22.6875 41.0195 22.6875H30.9648C30.2344 22.6875 29.5469 22.7734 29.5469 21.3984V11.9023C29.5612 11.1576 29.057 9.66797 26.9258 9.66797C24.7945 9.66797 24.319 11.1576 24.3477 11.9023C24.3906 12.4896 24.3563 14.1109 23.875 15.8984C23.2734 18.1328 19.4922 21.7852 14.9805 21.7852Z" fill="#FFCCBC"/>
</mask>
<g mask="url(#mask0_16889_116195)">
<path d="M38.4414 26.6406C40.6328 26.6406 40.2891 22.9023 39.2148 22.2578H45.832V46.1055H21.7695V43.1406H34.3594C35.9492 43.1406 37.625 42.4961 37.625 40.7344C37.625 38.9727 36.25 38.6289 35.3906 38.6289C34.5313 38.6289 34.5742 37.3828 35.3906 37.3828H38.7851C39.8164 37.3828 40.289 36.2656 40.289 35.4062C40.289 34.5469 40.0742 33.3008 38.7851 33.3008H35.3906C34.5312 33.3008 34.2734 32.0547 35.3906 32.0547H39.2148C40.6758 32.0547 41.1055 30.7656 41.1055 29.9492C41.1055 29.1328 40.5039 27.9727 39.1289 27.9727H35.3906C34.6172 27.9727 34.6172 26.6406 35.3906 26.6406H38.4414Z" fill="#FF8A65"/>
</g>
<path d="M5.74219 21.3984C5.74219 20.9238 6.12694 20.5391 6.60156 20.5391H10.9844C11.459 20.5391 11.8438 20.9238 11.8438 21.3984V39.7031C11.8438 40.1777 11.459 40.5625 10.9844 40.5625H6.60156C6.12694 40.5625 5.74219 40.1777 5.74219 39.7031V21.3984Z" fill="#6853BA"/>
<path d="M5.74219 21.3984C5.74219 20.9238 6.12694 20.5391 6.60156 20.5391H9.26562V21.9141C9.26562 23.3379 8.11136 24.4922 6.6875 24.4922H5.74219V21.3984Z" fill="#927EDF"/>
<path d="M5.74219 34.8047H9.26562V36.5234C9.26562 37.9473 8.11136 39.1016 6.6875 39.1016H5.74219V34.8047Z" fill="#927EDF"/>
<path d="M4.36719 27.1562C4.36719 26.6816 4.75194 26.2969 5.22656 26.2969H12.3594C12.834 26.2969 13.2188 26.6816 13.2188 27.1562V33.9453C13.2188 34.4199 12.834 34.8047 12.3594 34.8047H5.22656C4.75194 34.8047 4.36719 34.4199 4.36719 33.9453V27.1562Z" fill="#9789CE"/>
<path d="M4.36719 27.1562C4.36719 26.6816 4.75194 26.2969 5.22656 26.2969H9.69531V32.4844C9.69531 32.959 9.31056 33.3438 8.83594 33.3438H4.36719V27.1562Z" fill="#B8ADE4"/>
<path d="M6.34375 29.0469C6.34375 28.5723 6.72851 28.1875 7.20312 28.1875H10.3828C10.8574 28.1875 11.2422 28.5723 11.2422 29.0469V32.0547C11.2422 32.5293 10.8574 32.9141 10.3828 32.9141H7.20312C6.72851 32.9141 6.34375 32.5293 6.34375 32.0547V29.0469Z" fill="#DBD6F2"/>
</svg>
