<svg width="44" height="44" viewBox="0 0 44 44" fill="none" xmlns="http://www.w3.org/2000/svg">
<path d="M20.2525 8.28619V8.26185C20.2525 7.94193 19.9125 7.7354 19.6293 7.8842C18.7372 8.35275 17.864 8.8946 17.0479 9.5201C16.3641 10.0442 15.7828 10.5538 15.3097 10.9857L15.3068 10.0746C15.3068 10.0443 15.3246 7.02543 16.8635 5.48652C17.0387 5.31131 17.0387 5.02735 16.8635 4.85214C16.6883 4.67705 16.4044 4.67705 16.2292 4.85214C14.9534 6.12798 14.5722 8.15085 14.4582 9.26957C14.1277 8.90203 13.7512 8.48183 13.3832 8.13081C11.9665 6.77904 10.388 5.71342 8.85903 4.88732C8.57602 4.73439 8.23242 4.9412 8.23242 5.26285C8.23242 5.41282 8.31154 5.55117 8.44006 5.62844C9.81098 6.45309 11.2832 7.48282 12.7517 8.76786C13.4057 9.3402 14.0587 10.1649 14.4113 10.574L14.4157 11.958C14.4071 12.0091 14.4071 12.0615 14.4162 12.1126L14.4536 21.5277C14.4544 21.7749 14.655 21.9748 14.9021 21.9748C14.9025 21.9748 14.9031 21.9748 14.9035 21.9748C15.1513 21.9739 15.3514 21.7725 15.3506 21.5247L15.3136 12.214C15.83 11.7115 16.6007 10.9834 17.5988 10.2281C18.3759 9.63991 19.197 9.12011 20.0305 8.65999C20.1669 8.58467 20.2525 8.44202 20.2525 8.28619Z" fill="#4D984E"/>
<path d="M1.28906 2.38493C3.49859 4.06784 5.39193 6.29366 7.72496 7.7729C9.28632 8.76281 11.3032 9.08759 13.0671 8.44987C13.8188 6.32878 12.4564 4.13216 10.683 3.02175C8.02657 1.35855 4.20119 1.4514 1.28906 2.38493Z" fill="#80C56E"/>
<path d="M29.8749 5.16945C27.4495 6.59408 25.2762 8.60294 22.7513 9.80781C21.0615 10.6141 18.9942 10.6965 17.2977 9.8417C16.7987 7.61794 18.4345 5.57418 20.3522 4.67242C23.2246 3.32161 27.0598 3.87815 29.8749 5.16945Z" fill="#80C56E"/>
<path d="M10.683 3.02175C8.02657 1.35855 4.20119 1.4514 1.28906 2.38493C5.84842 3.28087 9.85129 5.26216 13.0671 8.44981C13.8188 6.32873 12.4564 4.13216 10.683 3.02175Z" fill="#66AD66"/>
<path d="M17.3398 9.8621C19.0286 10.6951 21.0759 10.6081 22.7522 9.80828C25.2771 8.60341 27.4503 6.59455 29.8757 5.16992C25.1899 5.51826 20.9557 7.05439 17.3398 9.8621Z" fill="#66AD66"/>
<path d="M2.32031 22.8594C2.32031 22.0051 3.01287 21.3125 3.86719 21.3125H25.6953C26.5496 21.3125 27.2422 22.0051 27.2422 22.8594V24.0625C27.2422 24.9168 26.5496 25.6094 25.6953 25.6094H3.86719C3.01287 25.6094 2.32031 24.9168 2.32031 24.0625V22.8594Z" fill="#FEDE3A"/>
<path d="M2.32031 31.4531C2.32031 30.5988 3.01287 29.9062 3.86719 29.9062H25.6953C26.5496 29.9062 27.2422 30.5988 27.2422 31.4531V32.6562C27.2422 33.5106 26.5496 34.2031 25.6953 34.2031H3.86719C3.01287 34.2031 2.32031 33.5106 2.32031 32.6562V31.4531Z" fill="#FEDE3A"/>
<path d="M2.32031 40.0469C2.32031 39.1926 3.01287 38.5 3.86719 38.5H25.6953C26.5496 38.5 27.2422 39.1926 27.2422 40.0469V41.25C27.2422 42.1043 26.5496 42.7969 25.6953 42.7969H3.86719C3.01287 42.7969 2.32031 42.1043 2.32031 41.25V40.0469Z" fill="#FEDE3A"/>
<path d="M0.773438 27.1562C0.773438 26.3019 1.466 25.6094 2.32031 25.6094H25.0078C25.8621 25.6094 26.5547 26.3019 26.5547 27.1562V28.3594C26.5547 29.2137 25.8621 29.9062 25.0078 29.9062H2.32031C1.466 29.9062 0.773438 29.2137 0.773438 28.3594V27.1562Z" fill="#E7AD27"/>
<path d="M3.78125 35.75C3.78125 34.8957 4.47381 34.2031 5.32812 34.2031H28.0156C28.8699 34.2031 29.5625 34.8957 29.5625 35.75V36.9531C29.5625 37.8074 28.8699 38.5 28.0156 38.5H5.32812C4.47381 38.5 3.78125 37.8074 3.78125 36.9531V35.75Z" fill="#E7AD27"/>
<circle cx="32.0547" cy="32.3125" r="11.2578" fill="#34CDFA"/>
<path d="M28.5689 32.1191C27.9906 32.1191 27.4565 31.9775 26.9668 31.6942C26.4829 31.411 26.0964 31.0245 25.8072 30.5347C25.5239 30.0449 25.3823 29.5108 25.3823 28.9325C25.3823 28.366 25.5269 27.8379 25.8161 27.3481C26.1111 26.8583 26.5035 26.4688 26.9933 26.1797C27.4831 25.8905 28.0083 25.746 28.5689 25.746C29.1472 25.746 29.6783 25.8876 30.1622 26.1708C30.652 26.4541 31.0385 26.8406 31.3217 27.3304C31.6109 27.8202 31.7554 28.3542 31.7554 28.9325C31.7554 29.5108 31.6109 30.0449 31.3217 30.5347C31.0385 31.0245 30.652 31.411 30.1622 31.6942C29.6783 31.9775 29.1472 32.1191 28.5689 32.1191ZM37.9622 26.7259C38.3526 27.1187 38.3513 27.7533 37.9594 28.1446L28.0379 38.0506C27.6467 38.4413 27.0129 38.441 26.622 38.0501C26.2307 37.6588 26.2308 37.0244 26.6222 36.6333L36.5399 26.7234C36.933 26.3305 37.5704 26.3317 37.9622 26.7259ZM28.5689 30.2957C28.8108 30.2957 29.0351 30.2337 29.2416 30.1098C29.454 29.9859 29.6222 29.8206 29.7461 29.6141C29.8701 29.4017 29.932 29.1745 29.932 28.9325C29.932 28.6906 29.8701 28.4664 29.7461 28.2598C29.6222 28.0474 29.454 27.8792 29.2416 27.7553C29.0351 27.6314 28.8108 27.5694 28.5689 27.5694C28.3269 27.5694 28.0998 27.6314 27.8873 27.7553C27.6808 27.8792 27.5156 28.0474 27.3916 28.2598C27.2677 28.4664 27.2057 28.6906 27.2057 28.9325C27.2057 29.1745 27.2677 29.4017 27.3916 29.6141C27.5156 29.8206 27.6808 29.9859 27.8873 30.1098C28.0998 30.2337 28.3269 30.2957 28.5689 30.2957ZM36.0131 39.0233C35.4347 39.0233 34.9007 38.8817 34.4109 38.5984C33.927 38.3152 33.5405 37.9287 33.2514 37.4389C32.9681 36.9491 32.8265 36.4151 32.8265 35.8368C32.8265 35.2703 32.9711 34.7421 33.2602 34.2523C33.5553 33.7625 33.9477 33.3731 34.4375 33.0839C34.9273 32.7948 35.4525 32.6502 36.0131 32.6502C36.5914 32.6502 37.1224 32.7918 37.6063 33.0751C38.0961 33.3583 38.4826 33.7448 38.7659 34.2346C39.055 34.7244 39.1996 35.2585 39.1996 35.8368C39.1996 36.4151 39.055 36.9491 38.7659 37.4389C38.4826 37.9287 38.0961 38.3152 37.6063 38.5984C37.1224 38.8817 36.5914 39.0233 36.0131 39.0233ZM36.0131 37.1999C36.255 37.1999 36.4792 37.1379 36.6858 37.014C36.8982 36.8901 37.0664 36.7249 37.1903 36.5183C37.3142 36.3059 37.3762 36.0787 37.3762 35.8368C37.3762 35.5948 37.3142 35.3706 37.1903 35.164C37.0664 34.9516 36.8982 34.7834 36.6858 34.6595C36.4792 34.5356 36.255 34.4736 36.0131 34.4736C35.7711 34.4736 35.5439 34.5356 35.3315 34.6595C35.119 34.7834 34.9509 34.9516 34.8269 35.164C34.703 35.3706 34.6411 35.5948 34.6411 35.8368C34.6411 36.0787 34.703 36.3059 34.8269 36.5183C34.9509 36.7249 35.119 36.8901 35.3315 37.014C35.5439 37.1379 35.7711 37.1999 36.0131 37.1999Z" fill="white"/>
</svg>
