<svg width="44" height="44" viewBox="0 0 44 44" fill="none" xmlns="http://www.w3.org/2000/svg">
<path d="M5.36573 33.1296C5.7813 32.3207 6.9376 32.3207 7.35317 33.1296L8.22221 34.8212C8.38442 35.1369 8.68704 35.3568 9.03746 35.4135L10.9148 35.7173C11.8125 35.8625 12.1698 36.9623 11.5289 37.6074L10.1887 38.9567C9.93854 39.2085 9.82295 39.5643 9.87731 39.9151L10.1685 41.7944C10.3078 42.693 9.3723 43.3727 8.56065 42.9625L6.86331 42.1049C6.54648 41.9448 6.17242 41.9448 5.85559 42.1049L4.15826 42.9625C3.34661 43.3727 2.41114 42.693 2.55039 41.7944L2.84159 39.9151C2.89595 39.5643 2.78036 39.2085 2.53019 38.9567L1.18998 37.6074C0.549096 36.9623 0.906412 35.8625 1.80413 35.7173L3.68144 35.4135C4.03186 35.3568 4.33448 35.1369 4.4967 34.8212L5.36573 33.1296Z" fill="#FEDE3A"/>
<path d="M36.7329 33.1296C37.1485 32.3207 38.3048 32.3207 38.7204 33.1296L39.5894 34.8212C39.7516 35.1369 40.0542 35.3568 40.4047 35.4135L42.282 35.7173C43.1797 35.8625 43.537 36.9623 42.8961 37.6074L41.5559 38.9567C41.3057 39.2085 41.1901 39.5643 41.2445 39.9151L41.5357 41.7944C41.675 42.693 40.7395 43.3727 39.9278 42.9625L38.2305 42.1049C37.9137 41.9448 37.5396 41.9448 37.2228 42.1049L35.5254 42.9625C34.7138 43.3727 33.7783 42.693 33.9176 41.7944L34.2088 39.9151C34.2631 39.5643 34.1475 39.2085 33.8974 38.9567L32.5572 37.6074C31.9163 36.9623 32.2736 35.8625 33.1713 35.7173L35.0486 35.4135C35.399 35.3568 35.7017 35.1369 35.8639 34.8212L36.7329 33.1296Z" fill="#FEDE3A"/>
<path d="M21.0061 29.0046C21.4216 28.1957 22.5779 28.1957 22.9935 29.0046L24.5608 32.0554C24.7231 32.3711 25.0257 32.591 25.3761 32.6477L28.7619 33.1956C29.6596 33.3408 30.0169 34.4405 29.376 35.0857L26.9589 37.5191C26.7087 37.7709 26.5931 38.1267 26.6475 38.4775L27.1727 41.8668C27.312 42.7655 26.3765 43.4452 25.5648 43.035L22.5036 41.4882C22.1868 41.3281 21.8128 41.3281 21.4959 41.4882L18.4348 43.035C17.6231 43.4452 16.6876 42.7655 16.8269 41.8668L17.3521 38.4775C17.4064 38.1267 17.2908 37.7709 17.0407 37.5191L14.6236 35.0857C13.9827 34.4405 14.34 33.3408 15.2377 33.1956L18.6235 32.6477C18.9739 32.591 19.2765 32.3711 19.4388 32.0554L21.0061 29.0046Z" fill="#FEDE3A"/>
<path d="M22.0002 0.945312C39.9263 0.945313 42.6961 16.3782 43.0906 22.4807C43.1792 23.8515 42.0624 24.9219 40.6888 24.9219H3.31153C1.93789 24.9219 0.821103 23.8515 0.909719 22.4807C1.30423 16.3782 4.07403 0.945312 22.0002 0.945312Z" fill="#EFF2F6"/>
<path d="M7.77241 21.2266C8.68141 21.2266 9.42067 20.5143 9.5908 19.6214C10.7035 13.7816 15.8362 9.36719 22 9.36719C28.1638 9.36719 33.2966 13.7816 34.4092 19.6214C34.5794 20.5143 35.3186 21.2266 36.2276 21.2266H38.3242C39.3018 21.2266 40.0905 20.41 39.9538 19.4421C38.7109 10.6389 31.1463 3.86719 22 3.86719C12.8538 3.86719 5.28913 10.6389 4.04621 19.4421C3.90955 20.41 4.69827 21.2266 5.67578 21.2266H7.77241Z" fill="#EC8600"/>
<path d="M34.8304 9.18652L30.8828 13.0174C32.6626 14.7774 33.9219 17.0625 34.4095 19.6214C34.5796 20.5143 35.3189 21.2266 36.2279 21.2266H38.3245C39.302 21.2266 40.0907 20.41 39.9541 19.4421C39.3922 15.4624 37.5383 11.8979 34.8304 9.18652Z" fill="#00FFD1"/>
<path d="M11.1535 15.5203C13.3601 11.8346 17.392 9.36719 22.0002 9.36719C22.0288 9.36719 22.0574 9.36728 22.086 9.36747V3.86739C22.0574 3.86725 22.0288 3.86719 22.0002 3.86719C15.528 3.86719 9.84775 7.25809 6.63916 12.3602L11.1535 15.5203Z" fill="#FFA276"/>
<path d="M9.5908 19.6214C9.42067 20.5143 8.68141 21.2266 7.77241 21.2266H5.67578C4.69827 21.2266 3.90955 20.4101 4.04621 19.4421C4.61544 15.4104 6.51062 11.8048 9.27642 9.08069L13.0877 13.0469C11.3237 14.8029 10.0756 17.0768 9.5908 19.6214Z" fill="#FF4E78"/>
<path d="M21.2485 7.3017C21.2848 6.91375 21.6104 6.61719 22 6.61719C22.3896 6.61719 22.7152 6.91375 22.7515 7.3017L24.0625 21.3125H19.9375L21.2485 7.3017Z" fill="#6853BA"/>
<circle cx="22" cy="22" r="2.92188" fill="#927EDF"/>
</svg>
