<svg width="45" height="44" viewBox="0 0 45 44" fill="none" xmlns="http://www.w3.org/2000/svg">
<path d="M22.5 19.25C27.7683 19.25 32.0391 14.9792 32.0391 9.71094C32.0391 4.44266 27.7683 0.171875 22.5 0.171875C17.2317 0.171875 12.9609 4.44266 12.9609 9.71094C12.9609 14.9792 17.2317 19.25 22.5 19.25Z" fill="#FEDE3A"/>
<path d="M22.4997 16.6042C26.3068 16.6042 29.3931 13.518 29.3931 9.71087C29.3931 5.90377 26.3068 2.8175 22.4997 2.8175C18.6927 2.8175 15.6064 5.90377 15.6064 9.71087C15.6064 13.518 18.6927 16.6042 22.4997 16.6042Z" fill="#F7CB15"/>
<path fill-rule="evenodd" clip-rule="evenodd" d="M15.6199 10.1452C15.8433 6.53973 18.8381 3.68466 22.4998 3.68466C26.161 3.68466 29.1556 6.53895 29.3797 10.1437C29.3886 10.0006 29.3931 9.85624 29.3931 9.71087C29.3931 5.90377 26.3068 2.8175 22.4997 2.8175C18.6927 2.8175 15.6064 5.90377 15.6064 9.71087C15.6064 9.85674 15.611 10.0016 15.6199 10.1452Z" fill="#E7AD27"/>
<path opacity="0.25" d="M18.6293 17.7864C15.5409 16.3038 13.5449 13.1329 13.5449 9.70838C13.5449 4.77082 17.5624 0.753296 22.5007 0.753296C24.7086 0.753296 26.8292 1.56387 28.4725 3.03467C28.758 3.28962 28.7815 3.72816 28.5266 4.0129C28.2709 4.29764 27.8338 4.32189 27.5483 4.06694C26.16 2.82337 24.367 2.13889 22.5007 2.13889C18.3266 2.13889 14.9305 5.53428 14.9305 9.70838C14.9305 12.6036 16.6182 15.284 19.2293 16.5373C19.5743 16.7028 19.7198 17.1164 19.5542 17.4615C19.3872 17.8086 18.9709 17.9513 18.6293 17.7864Z" fill="white"/>
<path d="M6.87695 8.95433C6.99841 8.54403 7.57952 8.54403 7.70098 8.95433L8.06938 10.1988C8.10446 10.3173 8.18885 10.4149 8.30101 10.4668L9.53957 11.0397C9.87197 11.1935 9.87197 11.6659 9.53957 11.8197L8.30101 12.3926C8.18885 12.4445 8.10446 12.5421 8.06938 12.6606L7.70098 13.9051C7.57952 14.3154 6.99841 14.3154 6.87695 13.9051L6.50856 12.6606C6.47348 12.5421 6.38909 12.4445 6.27693 12.3926L5.03836 11.8197C4.70596 11.6659 4.70596 11.1935 5.03836 11.0397L6.27693 10.4668C6.38909 10.4149 6.47348 10.3173 6.50856 10.1988L6.87695 8.95433Z" fill="#CCF2FE"/>
<path d="M37.2988 8.95433C37.4203 8.54403 38.0014 8.54403 38.1229 8.95433L38.4913 10.1988C38.5263 10.3173 38.6107 10.4149 38.7229 10.4668L39.9614 11.0397C40.2938 11.1935 40.2938 11.6659 39.9614 11.8197L38.7229 12.3926C38.6107 12.4445 38.5263 12.5421 38.4913 12.6606L38.1229 13.9051C38.0014 14.3154 37.4203 14.3154 37.2988 13.9051L36.9304 12.6606C36.8954 12.5421 36.811 12.4445 36.6988 12.3926L35.4602 11.8197C35.1278 11.6659 35.1278 11.1935 35.4602 11.0397L36.6988 10.4668C36.811 10.4149 36.8954 10.3173 36.9304 10.1988L37.2988 8.95433Z" fill="#CCF2FE"/>
<path d="M6.34375 17.875H22.5V44L7.76535 41.4136C6.94332 41.2693 6.34375 40.5553 6.34375 39.7207V17.875Z" fill="#D0CEE7"/>
<path opacity="0.12" d="M21.125 43.7586L22.5 44V17.875H21.4688C21.2789 17.875 21.125 18.0289 21.125 18.2187V19.25C21.125 19.4398 20.9711 19.5938 20.7813 19.5938H6.53648C6.46666 19.5938 6.39977 19.6149 6.34375 19.6529V26.3398H18.4045C18.8377 26.3398 19.2375 26.1069 19.4512 25.73L20.4822 23.9112C20.6564 23.604 21.125 23.7276 21.125 24.0807V43.7586Z" fill="black"/>
<path d="M6.34357 17.875H22.4998L18.9225 24.1855C18.7699 24.4547 18.4844 24.6211 18.1749 24.6211H3.75135C3.08014 24.6211 2.66803 23.8861 3.01818 23.3134L6.34357 17.875Z" fill="#D0CEE7"/>
<path d="M38.6562 17.875H22.5V44L37.2347 41.4136C38.0567 41.2693 38.6562 40.5553 38.6562 39.7207V17.875Z" fill="#BEB9DD"/>
<path opacity="0.2" d="M38.6563 17.875H36.9375V19.4109L22.5 17.875L22.5 19.5938L25.9538 25.6865C26.1828 26.0903 26.6111 26.3398 27.0753 26.3398H35.6484C36.3604 26.3398 36.9375 26.917 36.9375 27.6289V41.4658L37.2347 41.4136C38.0567 41.2693 38.6563 40.5553 38.6563 39.7207V17.875Z" fill="black"/>
<path d="M38.6562 17.875H22.5L26.0032 24.0548C26.2016 24.4048 26.5728 24.6211 26.9751 24.6211H41.2485C41.9197 24.6211 42.3318 23.8861 41.9816 23.3134L38.6562 17.875Z" fill="#BEB9DD"/>
</svg>
