<svg width="44" height="44" viewBox="0 0 44 44" fill="none" xmlns="http://www.w3.org/2000/svg">
<g clip-path="url(#clip0)">
<path d="M37.6423 37.5566C31.7133 43.4856 23.2404 45.3232 15.736 43.0677C12.366 42.0549 9.19098 40.2183 6.52926 37.5566C4.45803 35.4854 2.88631 33.104 1.81411 30.5625C-1.56263 22.5585 0.00908531 12.9637 6.52926 6.44356C8.72168 4.25148 11.2615 2.61867 13.9719 1.54478C21.8829 -1.58858 31.2437 0.0449069 37.6423 6.44356C39.3745 8.17574 40.7576 10.1251 41.7915 12.2044C45.8843 20.4356 44.5012 30.6977 37.6423 37.5566Z" fill="#9F8A8A"/>
<path d="M37.6419 37.5559C32.7925 42.406 26.2391 44.5189 19.9073 43.8918C24.7916 43.4091 29.5454 41.2962 33.2846 37.5559C40.1439 30.6977 41.5266 20.4349 37.4338 12.2044C36.4002 10.1244 35.0165 8.17569 33.2846 6.44385C29.544 2.70322 24.7906 0.590367 19.9062 0.10764C26.2391 -0.519435 32.7925 1.59342 37.6419 6.44385C39.3748 8.17536 40.7575 10.1244 41.7911 12.2044C45.8849 20.4345 44.5012 30.6977 37.6419 37.5559Z" fill="#83727A"/>
<path d="M17.8121 40.9916L15.7358 43.0678C12.3658 42.0551 9.19083 40.2185 6.52911 37.5568C4.45789 35.4855 2.88617 33.1041 1.81396 30.5626L7.96051 24.4157C8.92596 23.4506 10.5044 23.4707 11.4427 24.4792C12.3376 25.4396 12.2691 26.9509 11.3416 27.8784L11.1298 28.0902C9.81555 29.4041 9.15826 31.1276 9.15759 32.8507C9.15759 34.5735 9.81421 36.2959 11.1291 37.6105C11.5732 38.0546 12.157 38.2775 12.7394 38.2775C13.3219 38.2775 13.9056 38.0546 14.3498 37.6105C15.2773 36.683 16.7879 36.6138 17.749 37.5078C18.7564 38.447 18.7776 40.0261 17.8121 40.9916Z" fill="#FDB659"/>
<path d="M38.2652 20.3132C39.0145 21.0624 39.3871 22.0433 39.3878 23.0232C39.3878 24.0041 39.0135 24.985 38.2646 25.7343C37.5173 26.4815 36.5364 26.8568 35.5545 26.8568C34.5743 26.8548 33.5934 26.4822 32.8455 25.7343C31.5792 24.468 29.5278 24.468 28.2609 25.7343L24.8825 29.1134C24.1335 29.8616 23.1526 30.2353 22.1718 30.2363C21.1909 30.2353 20.21 29.8616 19.4617 29.1134C17.9645 27.6165 17.9655 25.1905 19.4624 23.6933L24.1329 19.0231C24.6602 18.4937 24.9251 17.7995 24.9251 17.1073C24.9251 16.4141 24.6596 15.7209 24.1319 15.1932C23.0738 14.1344 21.359 14.1334 20.3019 15.1925L19.2022 16.2919L18.6906 16.8038C17.8581 17.635 16.7674 18.0513 15.6778 18.0513C14.5871 18.0513 13.4971 17.635 12.6649 16.8038C11.8334 15.9706 11.4175 14.8806 11.4175 13.791C11.4175 12.6993 11.8334 11.6103 12.6649 10.7781C15.1658 8.27722 15.6022 4.49127 13.9718 1.54422C15.8856 0.786225 17.8849 0.30719 19.9062 0.108124C21.644 -0.0647578 23.3987 -0.0301814 25.1306 0.210846C29.7077 0.846314 34.1228 2.92426 37.6418 6.44367C39.3747 8.17517 40.7574 10.1249 41.7907 12.2045L38.2652 15.73C36.9993 16.9958 36.9993 19.0483 38.2652 20.3132Z" fill="#7CFCCE"/>
<path d="M41.7911 12.2044L38.69 15.3055C38.3533 14.2481 37.9343 13.2111 37.4338 12.2044C36.4002 10.1244 35.0165 8.17537 33.2846 6.44353C29.5443 2.70323 24.7906 0.59038 19.9062 0.107653C26.2394 -0.519423 32.7925 1.5931 37.6419 6.44353C39.3748 8.17537 40.7575 10.1244 41.7911 12.2044Z" fill="#34E8B1"/>
<path d="M28.37 8.81C27.7466 9.43338 26.9302 9.7449 26.1131 9.7449C25.296 9.7449 24.4796 9.43338 23.8563 8.81C23.3927 8.34607 22.7834 8.11343 22.1744 8.11343C21.5651 8.11343 20.9559 8.34607 20.4923 8.81L17.9981 11.3042C16.9524 12.3495 16.9524 14.0451 17.9981 15.0905L19.2022 16.2939L18.6906 16.8055C17.8581 17.6371 16.7674 18.053 15.6778 18.053C14.5871 18.053 13.4971 17.6371 12.6649 16.8055C11.8334 15.9727 11.4175 14.8827 11.4175 13.7927C11.4175 12.701 11.8334 11.6124 12.6649 10.7802C15.1658 8.27893 15.6022 4.49332 13.9718 1.54593C15.8856 0.787933 17.8849 0.309234 19.9062 0.109833C21.644 -0.0627139 23.3987 -0.0281374 25.1305 0.212555L28.37 3.452C29.8494 4.9314 29.8494 7.3306 28.37 8.81Z" fill="#FDB659"/>
<path d="M26.9313 2.01151C24.6922 0.980256 22.3145 0.346131 19.9062 0.108124C21.6441 -0.0647578 23.3988 -0.0301814 25.1306 0.210846L26.9313 2.01151Z" fill="#FD9E28"/>
<path d="M32.4089 32.5238L31.0447 31.1599C30.4864 30.6013 30.4864 29.6959 31.0447 29.1377C31.6033 28.5791 32.5086 28.5791 33.0669 29.1377L34.4311 30.5019C34.9897 31.0602 34.9897 31.9656 34.4311 32.5238C33.8729 33.0824 32.9675 33.0824 32.4089 32.5238Z" fill="#7CFCCE"/>
<path d="M4.53686 19.7576L5.90112 18.3933C6.45971 17.835 7.36507 17.835 7.92333 18.3933C8.48193 18.9519 8.48193 19.8573 7.92333 20.4155L6.55907 21.7798C6.00082 22.3384 5.09545 22.3384 4.53686 21.7798C3.9786 21.2215 3.9786 20.3162 4.53686 19.7576Z" fill="#FDB659"/>
<path d="M35.9937 23.4374C35.6268 23.4374 35.3257 23.14 35.3257 22.7734C35.3257 22.4065 35.6187 22.1094 35.9857 22.1094H35.9937C36.3603 22.1094 36.6577 22.4065 36.6577 22.7734C36.6577 23.14 36.3603 23.4374 35.9937 23.4374Z" fill="#9F8A8A"/>
<path d="M33.8687 23.4374C33.5021 23.4374 33.2007 23.14 33.2007 22.7734C33.2007 22.4065 33.4941 22.1094 33.8607 22.1094H33.8687C34.2356 22.1094 34.5327 22.4065 34.5327 22.7734C34.5327 23.14 34.2356 23.4374 33.8687 23.4374Z" fill="#34E8B1"/>
<path d="M24.6006 6.30032C24.2341 6.30032 23.9326 6.00323 23.9326 5.63632C23.9326 5.26974 24.226 4.97266 24.5926 4.97266H24.6006C24.9676 4.97266 25.2646 5.26974 25.2646 5.63632C25.2646 6.00323 24.9676 6.30032 24.6006 6.30032Z" fill="#FD9E28"/>
<path d="M22.8825 5.02917C22.5177 5.02917 22.2165 4.73444 22.2149 4.36887C22.2128 4.00195 22.5042 3.70319 22.8711 3.70117H22.8792H22.8829C23.2478 3.70117 23.5445 3.99625 23.5466 4.36148C23.5486 4.72839 23.2528 5.02716 22.8862 5.02917C22.8849 5.02917 22.8839 5.02917 22.8825 5.02917Z" fill="#9F8A8A"/>
<path d="M18.525 4.16003C18.1581 4.16003 17.8569 3.86261 17.8569 3.49603C17.8569 3.12946 18.1503 2.83203 18.5169 2.83203H18.525C18.8919 2.83203 19.189 3.12946 19.189 3.49603C19.189 3.86261 18.8915 4.16003 18.525 4.16003Z" fill="#FD9E28"/>
<path d="M7.07005 31.494C6.70515 31.494 6.40403 31.1993 6.40235 30.8337C6.40034 30.4671 6.69172 30.1684 7.05864 30.166H7.06669H7.07039C7.43528 30.166 7.73204 30.4611 7.73405 30.8267C7.73607 31.1932 7.44032 31.492 7.07374 31.494C7.0724 31.494 7.07139 31.494 7.07005 31.494Z" fill="#9F8A8A"/>
<path d="M28.4651 15.44L27.7864 14.7612C27.2281 14.203 27.2281 13.2976 27.7864 12.739C28.345 12.1807 29.2503 12.1807 29.8086 12.739L30.4874 13.4178C31.0456 13.9764 31.0456 14.8817 30.4874 15.44C29.9288 15.9983 29.0234 15.9983 28.4651 15.44Z" fill="#FDB659"/>
</g>
<defs>
<clipPath id="clip0">
<rect width="44" height="44" fill="white"/>
</clipPath>
</defs>
</svg>
