<svg width="44" height="44" viewBox="0 0 44 44" fill="none" xmlns="http://www.w3.org/2000/svg">
<g clip-path="url(#clip0)">
<path d="M29.1882 13.9038V13.8663C29.1882 13.3739 28.665 13.056 28.229 13.2851C26.8559 14.0063 25.5118 14.8403 24.2558 15.803C23.2032 16.6097 22.3085 17.3941 21.5803 18.0588L21.5758 16.6565C21.5758 16.6098 21.6032 11.9633 23.972 9.59456C24.2416 9.32489 24.2416 8.88781 23.972 8.61814C23.7023 8.34864 23.2653 8.34864 22.9956 8.61814C21.0319 10.5819 20.4451 13.6955 20.2697 15.4174C19.7611 14.8517 19.1814 14.2049 18.6151 13.6646C16.4345 11.584 14.0049 9.94381 11.6515 8.67228C11.2159 8.4369 10.687 8.75521 10.687 9.2503C10.687 9.48113 10.8088 9.69408 11.0066 9.81302C13.1167 11.0823 15.3828 12.6673 17.6431 14.6452C18.6497 15.5261 19.6548 16.7954 20.1975 17.4252L20.2043 19.5554C20.191 19.6341 20.191 19.7147 20.2051 19.7934L20.2626 34.2851C20.2638 34.6656 20.5727 34.9732 20.9529 34.9732C20.9536 34.9732 20.9545 34.9732 20.9552 34.9732C21.3365 34.9719 21.6446 34.6619 21.6434 34.2805L21.5864 19.9494C22.3811 19.176 23.5674 18.0554 25.1036 16.8928C26.2999 15.9875 27.5637 15.1874 28.8465 14.4792C29.0566 14.3632 29.1882 14.1437 29.1882 13.9038Z" fill="#4D984E"/>
<path d="M0 4.8203C3.40089 7.41063 6.31512 10.8366 9.9061 13.1134C12.3093 14.6371 15.4137 15.137 18.1288 14.1554C19.2857 10.8907 17.1888 7.50963 14.4591 5.8005C10.3703 3.24051 4.48233 3.38342 0 4.8203Z" fill="#80C56E"/>
<path d="M43.9998 9.1071C40.2666 11.2999 36.9215 14.3919 33.0352 16.2465C30.4343 17.4876 27.2523 17.6143 24.641 16.2986C23.873 12.8758 26.3908 9.73006 29.3425 8.34209C33.7637 6.26291 39.6668 7.11954 43.9998 9.1071Z" fill="#80C56E"/>
<path d="M14.4591 5.8005C10.3703 3.24051 4.48233 3.38342 0 4.8203C7.01774 6.19934 13.1789 9.24892 18.1288 14.1553C19.2857 10.8906 17.1888 7.50963 14.4591 5.8005Z" fill="#66AD66"/>
<path d="M24.7051 16.3296C27.3043 17.6117 30.4557 17.4779 33.0357 16.2468C36.922 14.3922 40.2671 11.3002 44.0003 9.10742C36.7879 9.64359 30.2706 12.008 24.7051 16.3296Z" fill="#66AD66"/>
<path d="M41.0727 40.2043C41.0727 38.4182 39.3081 36.4399 35.9179 36.2381C34.9036 33.4298 32.2052 31.1777 28.436 31.5392C25.4231 23.8001 9.17722 25.2864 6.79821 36.0766C6.64095 36.0613 6.4817 36.0526 6.32048 36.0523C3.8521 36.0475 2.29388 37.8452 1.90527 40.2043H41.0727Z" fill="#BA7D60"/>
<path d="M24.6158 32.7194C28.1128 32.3578 30.6164 34.6098 31.5575 37.4183C34.0155 37.5759 35.5525 38.8185 36.1069 40.2064H41.0732C41.0732 38.4203 39.3086 36.442 35.9184 36.2402C34.904 33.4319 32.2057 31.1798 28.4366 31.5413C27.2736 28.554 24.1385 26.9426 20.5908 26.709C22.3047 27.3142 24.216 28.9624 24.6158 32.7194Z" fill="#A56A58"/>
</g>
<defs>
<clipPath id="clip0">
<rect width="44" height="44" fill="white"/>
</clipPath>
</defs>
</svg>
