<svg width="532" height="454" viewBox="0 0 532 454" fill="none" xmlns="http://www.w3.org/2000/svg">
<path opacity="0.3" d="M305 454C430.369 454 532 352.369 532 227C532 101.631 430.369 0 305 0C179.631 0 78 101.631 78 227C78 352.369 179.631 454 305 454Z" fill="url(#paint0_linear_14770_75004)"/>
<path d="M145.057 245H168.057L176.557 165H155.057L145.057 181V245Z" fill="#E9F3FF"/>
<path d="M154.557 253.5L171.057 248L184.557 384H165.557L150.057 363L147.557 347L154.557 344V253.5Z" fill="#E9F3FF"/>
<path d="M454.557 253.5L438.057 248L424.557 384H443.557L459.057 363L461.557 347L454.557 344V253.5Z" fill="#E9F3FF"/>
<path d="M165.557 203C165.557 92.6 264.557 72.5 304.557 72.5V438.5H268.557L165.557 376.5V203Z" fill="#21D7AB"/>
<path d="M165.557 203C165.557 92.6001 264.557 72.5 304.557 72.5C234.557 72.5 209.057 153.5 211.557 210.5C202.281 223.254 173.557 220 165.557 203Z" fill="#02BE91"/>
<path d="M443.557 203C443.557 92.6 344.557 72.5 304.557 72.5V438.5H340.557L443.557 376.5V203Z" fill="#21D7AB"/>
<path d="M443.557 203C443.557 92.6001 344.557 72.5 304.557 72.5001C374.557 72.5001 400.057 153.5 397.557 210.5C406.832 223.254 435.557 220 443.557 203Z" fill="#02BE91"/>
<path d="M165.557 236H304.557V438.5H268.557L264.557 436C258.9 365.844 259.152 324.399 165.557 308.5V236Z" fill="#02BE91"/>
<path d="M443.557 236H304.557V438.5H340.557L344.557 436C350.213 365.844 349.961 324.399 443.557 308.5V236Z" fill="#02BE91"/>
<path d="M165.558 248.738V203C198.058 208 271.057 211.5 304.557 211.5V438.5H268.558C262.557 382.5 282.057 320.238 165.558 248.738Z" fill="#F13D5E"/>
<path d="M443.557 248.738V203C411.057 208 338.057 211.5 304.557 211.5V438.5H340.557C346.557 382.5 327.057 320.238 443.557 248.738Z" fill="#F13D5E"/>
<path d="M173.057 234.5V220C205.557 225 271.057 228.5 304.557 228.5V438.5H282.057C279.89 398.333 274.757 308 271.557 268C227.957 260.4 187.723 242.5 173.057 234.5Z" fill="#363636"/>
<path d="M436.057 234.5V220C403.557 225 338.057 228.5 304.557 228.5V438.5H327.057C329.223 398.333 334.357 308 337.557 268C381.157 260.4 421.39 242.5 436.057 234.5Z" fill="#363636"/>
<path d="M165.557 51V167.5H157.057V51H154.057L141.057 27L158.557 15L235.557 17L234.057 27L188.557 35L168.557 51H165.557Z" fill="#E9F3FF"/>
<path d="M230.057 20.5L160.057 19L146.557 28L156.057 45.5H166.057L184.057 31.5L230.057 24V20.5Z" fill="#AAB3FF"/>
<ellipse rx="8.04945" ry="12.8636" transform="matrix(0.510309 -0.859991 0.721057 0.692876 359.808 101.852)" fill="white"/>
<ellipse rx="3.37884" ry="5.3177" transform="matrix(0.859176 -0.51168 0.363144 0.931733 378.891 128.684)" fill="white"/>
<path d="M330.057 409.5L339.557 291C340.39 298.833 341.557 318.8 339.557 336C337.557 353.2 332.39 392.167 330.057 409.5Z" fill="white"/>
<path d="M270.358 293L273.43 342.493C272.083 339.472 269.399 331.609 269.439 324.318C269.48 317.028 270.068 300.402 270.358 293Z" fill="white"/>
<rect x="414.057" y="172.105" width="6" height="26" rx="2" transform="rotate(-10.6099 414.057 172.105)" fill="#F13D5E"/>
<rect x="426.057" y="172.105" width="6" height="26" rx="2" transform="rotate(-10.6099 426.057 172.105)" fill="#F13D5E"/>
<path d="M384.436 78.8355L373.443 79.3741C371.711 79.459 370.071 80.1845 368.843 81.4098L364.12 86.1208" stroke="#363636" stroke-width="4" stroke-linecap="round" stroke-linejoin="round"/>
<path d="M433.235 114.236L430.202 124.241C429.912 125.199 429.419 126.084 428.757 126.836L424.096 132.131" stroke="#363636" stroke-width="4" stroke-linecap="round" stroke-linejoin="round"/>
<path d="M402.172 89.1365L392.695 96.1891C391.823 96.8379 391.114 97.6808 390.625 98.651L388.656 102.552" stroke="#363636" stroke-width="4" stroke-linecap="round" stroke-linejoin="round"/>
<path d="M438.528 122.517C441.659 117.992 443.868 112.896 445.029 107.518C446.19 102.14 446.281 96.5858 445.296 91.1728C444.311 85.7597 442.269 80.5938 439.287 75.9698C436.306 71.3458 432.442 67.3544 427.918 64.2234C423.394 61.0925 418.297 58.8833 412.919 57.722C407.541 56.5607 401.987 56.4701 396.574 57.4553C391.161 58.4404 385.995 60.4821 381.371 63.4638C376.747 66.4455 372.756 70.3087 369.625 74.8329L438.528 122.517Z" fill="#F13D5E"/>
<path d="M428.274 108.363L418.85 110.277C416.507 110.753 414.568 112.392 413.71 114.624L409.759 124.895" stroke="#363636" stroke-width="4" stroke-linecap="round" stroke-linejoin="round"/>
<path d="M408.436 94.5463L400.482 101.102C399.541 101.877 398.82 102.884 398.388 104.023L394.719 113.707" stroke="#363636" stroke-width="4" stroke-linecap="round" stroke-linejoin="round"/>
<path d="M386.78 81.7458L384.014 90.1284C383.456 91.8197 382.275 93.2347 380.71 94.0852L371.991 98.8239" stroke="#363636" stroke-width="4" stroke-linecap="round" stroke-linejoin="round"/>
<path d="M372.21 35.3387L377.332 35.7066C382.691 36.0916 385.636 42.1197 382.647 46.5836L381.137 48.8384" stroke="#363636" stroke-width="2" stroke-linecap="round" stroke-linejoin="round"/>
<circle cx="375.526" cy="60.8471" r="15.2352" transform="rotate(8.34515 375.526 60.8471)" fill="#F13D5E"/>
<ellipse cx="375.36" cy="58.8361" rx="8.46866" ry="7.27822" transform="rotate(-27.2392 375.36 58.8361)" fill="#363636"/>
<ellipse cx="366.651" cy="50.9152" rx="2.12978" ry="5.90213" transform="rotate(49.526 366.651 50.9152)" fill="#363636"/>
<path d="M388.633 37.1061L391.933 39.7229C395.679 42.6939 395.411 48.4635 391.404 51.0732L387.493 53.6203" stroke="#363636" stroke-width="2" stroke-linecap="round" stroke-linejoin="round"/>
<ellipse cx="98.5993" cy="143.623" rx="10.3381" ry="28.5" transform="rotate(81.1002 98.5993 143.623)" fill="#E9F3FF" fill-opacity="0.6"/>
<ellipse cx="99.9668" cy="151.355" rx="10.3381" ry="28.5" transform="rotate(98.475 99.9668 151.355)" fill="#E9F3FF" fill-opacity="0.6"/>
<ellipse cx="97.7088" cy="160.193" rx="10.3381" ry="28.5" transform="rotate(121.436 97.7088 160.193)" fill="#E9F3FF" fill-opacity="0.6"/>
<ellipse rx="10.3381" ry="28.5" transform="matrix(-0.154707 0.98796 0.98796 0.154707 31.0799 143.623)" fill="#E9F3FF" fill-opacity="0.6"/>
<ellipse rx="10.3381" ry="28.5" transform="matrix(0.147378 0.98908 0.98908 -0.147378 29.7124 151.355)" fill="#E9F3FF" fill-opacity="0.6"/>
<ellipse rx="10.3381" ry="28.5" transform="matrix(0.521542 0.853226 0.853226 -0.521542 31.9704 160.193)" fill="#E9F3FF" fill-opacity="0.6"/>
<ellipse cx="64.0308" cy="158.5" rx="22" ry="28.5" fill="#363636"/>
<path d="M64.1073 147.059C65.5194 143.047 66.1273 138.796 65.8965 134.548C65.6656 130.301 64.6004 126.141 62.7617 122.305C60.923 118.469 58.3468 115.033 55.1802 112.193C52.0136 109.353 48.3186 107.165 44.3063 105.753C40.2939 104.341 36.0426 103.733 31.7953 103.964C27.548 104.195 23.3877 105.26 19.552 107.098C15.7164 108.937 12.2804 111.513 9.44035 114.68C6.6003 117.846 4.41175 121.541 2.99968 125.554L64.1073 147.059Z" fill="#F13D5E"/>
<path d="M63.406 147.226C62.1843 143.152 61.7771 138.876 62.2077 134.645C62.6382 130.413 63.898 126.307 65.9152 122.563C67.9324 118.818 70.6675 115.507 73.9642 112.819C77.2609 110.131 81.0548 108.119 85.1292 106.897C89.2036 105.675 93.4788 105.268 97.7105 105.699C101.942 106.129 106.048 107.389 109.793 109.406C113.538 111.424 116.848 114.159 119.536 117.455C122.224 120.752 124.236 124.546 125.458 128.62L63.406 147.226Z" fill="#F13D5E"/>
<circle cx="64" cy="140" r="13" fill="#363636"/>
<circle cx="69.5308" cy="137.5" r="4.5" fill="#21D7AB"/>
<circle cx="58.5308" cy="137.5" r="4.5" fill="#21D7AB"/>
<path d="M28.0002 150.631L36.0435 146.994C37.6664 146.26 39.5079 146.173 41.1931 146.749L50.5822 149.961" stroke="#363636" stroke-width="4" stroke-linecap="round" stroke-linejoin="round"/>
<path d="M28.0261 164.024L35.0453 158.671C36.4615 157.591 38.2362 157.092 40.0078 157.274L49.8788 158.292" stroke="#363636" stroke-width="4" stroke-linecap="round" stroke-linejoin="round"/>
<path d="M35.0001 178.844L39.2595 171.334C40.1152 169.826 41.5006 168.688 43.1471 168.143L50.8244 165.6" stroke="#363636" stroke-width="4" stroke-linecap="round" stroke-linejoin="round"/>
<path d="M47.0771 187.447L46.4137 178.645C46.2799 176.869 46.828 175.108 47.9465 173.722L54.1785 166" stroke="#363636" stroke-width="4" stroke-linecap="round" stroke-linejoin="round"/>
<path d="M100.255 150.631L92.2113 146.994C90.5885 146.26 88.747 146.173 87.0618 146.749L77.6727 149.961" stroke="#363636" stroke-width="4" stroke-linecap="round" stroke-linejoin="round"/>
<path d="M100.229 164.024L93.2096 158.671C91.7933 157.591 90.0187 157.092 88.2471 157.274L78.3761 158.292" stroke="#363636" stroke-width="4" stroke-linecap="round" stroke-linejoin="round"/>
<path d="M93.2548 178.844L88.9954 171.334C88.1397 169.826 86.7543 168.688 85.1078 168.143L77.4305 165.6" stroke="#363636" stroke-width="4" stroke-linecap="round" stroke-linejoin="round"/>
<path d="M81.1777 187.447L81.8412 178.645C81.975 176.869 81.4269 175.108 80.3084 173.722L74.0764 166" stroke="#363636" stroke-width="4" stroke-linecap="round" stroke-linejoin="round"/>
<path d="M49.2711 128.195L50.0819 127.258C53.2115 123.643 58.9641 124.16 61.399 128.275L62.2122 129.65" stroke="#363636" stroke-width="2" stroke-linecap="round" stroke-linejoin="round"/>
<path d="M79.2226 128.29L78.4117 127.353C75.2822 123.738 69.5295 124.254 67.0947 128.37L66.2814 129.744" stroke="#363636" stroke-width="2" stroke-linecap="round" stroke-linejoin="round"/>
<defs>
<linearGradient id="paint0_linear_14770_75004" x1="305" y1="0.000386014" x2="305" y2="454" gradientUnits="userSpaceOnUse">
<stop stop-color="white"/>
<stop offset="1" stop-color="white" stop-opacity="0"/>
</linearGradient>
</defs>
</svg>
