<svg width="60" height="60" viewBox="0 0 60 60" fill="none" xmlns="http://www.w3.org/2000/svg">
<circle cx="30" cy="30" r="30" fill="#00A3FF"/>
<path d="M29.7095 38.27C28.9895 38.27 28.3095 38.13 27.6695 37.85C27.0295 37.57 26.4728 37.1733 25.9995 36.66C25.5328 36.1467 25.1961 35.54 24.9895 34.84L27.3195 34.21C27.4861 34.7833 27.7895 35.2267 28.2295 35.54C28.6761 35.8467 29.1661 35.9967 29.6995 35.99C30.1728 35.99 30.5961 35.88 30.9695 35.66C31.3428 35.44 31.6361 35.1433 31.8495 34.77C32.0628 34.39 32.1695 33.9667 32.1695 33.5C32.1695 32.7867 31.9395 32.19 31.4795 31.71C31.0195 31.23 30.4261 30.99 29.6995 30.99C29.4795 30.99 29.2628 31.02 29.0495 31.08C28.8428 31.14 28.6428 31.2233 28.4495 31.33L27.3495 29.43L32.1895 25.29L32.3995 25.87H25.5495V23.6H34.3795V25.88L30.4895 29.62L30.4695 28.91C31.3428 28.97 32.0861 29.2133 32.6995 29.64C33.3195 30.0667 33.7928 30.6167 34.1195 31.29C34.4528 31.9633 34.6195 32.7 34.6195 33.5C34.6195 34.4067 34.3961 35.22 33.9495 35.94C33.5095 36.66 32.9161 37.23 32.1695 37.65C31.4295 38.0633 30.6095 38.27 29.7095 38.27Z" fill="white"/>
<path d="M30 60C46.5685 60 60 46.5685 60 30C60 13.4315 46.5685 0 30 0C13.4315 0 0 13.4315 0 30C0 46.5685 13.4315 60 30 60Z" fill="white"/>
<path d="M59.5 30C59.5 46.2924 46.2924 59.5 30 59.5C13.7076 59.5 0.5 46.2924 0.5 30C0.5 13.7076 13.7076 0.5 30 0.5C46.2924 0.5 59.5 13.7076 59.5 30Z" stroke="#000A3D" stroke-opacity="0.12"/>
<path d="M49.3827 26.9281C49.556 23.3293 47.0424 20.9417 44.2056 19.3026L42.3618 30.1351C43.6384 30.0638 44.2624 30.5483 44.4895 30.7766C44.7731 31.0614 45.4822 31.9168 44.6311 33.2708C46.4042 32.9857 49.1734 31.2753 49.3827 26.9281Z" fill="url(#paint0_linear_13246_73776)"/>
<path fill-rule="evenodd" clip-rule="evenodd" d="M25.1957 14.3165L22.9973 12.1073C26.3067 11.7034 35.0392 12.2213 43.4924 17.5236C43.6344 18.0936 43.4924 18.9489 43.4924 18.9489L44.2019 19.305C44.8164 20.1841 45.8613 22.6832 45.1236 25.6478C44.3862 28.6124 43.1142 29.8764 42.5707 30.1376C41.436 30.1376 39.5069 30.7932 38.8828 33.701C38.2588 36.6085 37.0627 37.2405 36.5426 37.1928L24.061 37.3354L15.8345 32.4892L14.6289 22.4408L16.9692 19.305L21.1533 15.8844L24.132 14.6729L25.1957 14.3165ZM39.937 18.4675C39.3867 19.0408 38.8721 19.3158 38.7252 19.3904C35.5111 18.7068 34.3534 17.044 34.3534 17.044C37.385 17.0253 40.121 17.7464 42.1227 18.9661C42.1227 18.9661 41.0394 18.615 39.937 18.4675Z" fill="url(#paint1_linear_13246_73776)"/>
<path fill-rule="evenodd" clip-rule="evenodd" d="M38.7727 33.7016C36.5694 34.7828 33.9572 35.409 31.1567 35.409C23.2841 35.409 16.902 30.4632 16.902 24.3626C16.902 19.8562 20.3843 15.9801 25.3774 14.262C15.8811 14.8093 8.25 22.438 8.25 31.8514C8.25 42.7153 17.9341 51.692 29.8801 51.692C38.8003 51.692 46.2255 46.5202 50.1082 39.6004C44.7658 40.802 38.4418 38.5177 38.7727 33.7016Z" fill="url(#paint2_linear_13246_73776)"/>
<defs>
<linearGradient id="paint0_linear_13246_73776" x1="45.9065" y1="23.2534" x2="46.8547" y2="35.491" gradientUnits="userSpaceOnUse">
<stop stop-color="#01E8F7"/>
<stop offset="1" stop-color="#00C2FF"/>
</linearGradient>
<linearGradient id="paint1_linear_13246_73776" x1="24.5778" y1="14.7171" x2="37.4455" y2="35.1398" gradientUnits="userSpaceOnUse">
<stop stop-color="#01E8F7"/>
<stop offset="1" stop-color="#00B3EC"/>
</linearGradient>
<linearGradient id="paint2_linear_13246_73776" x1="29.358" y1="24.8486" x2="30.5068" y2="57.7982" gradientUnits="userSpaceOnUse">
<stop stop-color="#01E8F7"/>
<stop offset="1" stop-color="#00C2FF"/>
</linearGradient>
</defs>
</svg>
