<svg width="500" height="501" viewBox="0 0 500 501" fill="none" xmlns="http://www.w3.org/2000/svg">
<rect y="0.5" width="500" height="500" rx="250" fill="white"/>
<path d="M145.352 223.837L171.514 208.576L197.676 223.837L171.514 239.098L145.352 223.837Z" fill="#54A0D8"/>
<path d="M171.514 239.01L197.675 223.749L223.837 239.01L197.675 254.271L171.514 239.01Z" fill="#54A0D8"/>
<path d="M223.837 239.01L249.999 223.749L276.16 239.01L249.999 254.271L223.837 239.01Z" fill="#54A0D8"/>
<path d="M197.675 254.185L223.837 238.924L249.998 254.185L223.837 269.446L197.675 254.185Z" fill="#54A0D8"/>
<path d="M302.322 223.837L328.484 208.576L354.646 223.837L328.484 239.098L302.322 223.837Z" fill="#54A0D8"/>
<path d="M276.161 239.01L302.323 223.749L328.485 239.01L302.323 254.271L276.161 239.01Z" fill="#54A0D8"/>
<path d="M249.999 254.185L276.16 238.924L302.322 254.185L276.16 269.446L249.999 254.185Z" fill="#54A0D8"/>
<path d="M223.837 269.358L249.999 254.097L276.16 269.358L249.999 284.619L223.837 269.358Z" fill="#71C3FF"/>
<path d="M249.999 440.5L276.161 425.239V400.167L249.999 415.428V440.5Z" fill="#23CFCF"/>
<path d="M223.837 400.167V425.239L249.999 440.5V415.428L223.837 400.167Z" fill="#49F1F1"/>
<path d="M197.675 440.5L223.837 425.239V400.167L197.675 415.428V440.5Z" fill="#23CFCF"/>
<path d="M171.514 400.167V425.239L197.676 440.5V415.428L171.514 400.167Z" fill="#49F1F1"/>
<path d="M302.322 440.5L328.484 425.239V400.167L302.322 415.428V440.5Z" fill="#23CFCF"/>
<path d="M276.161 400.167V425.239L302.323 440.5V415.428L276.161 400.167Z" fill="#49F1F1"/>
<path d="M145.352 359.878V384.95L171.514 400.211V375.139L145.352 359.878Z" fill="#49F1F1"/>
<path d="M249.999 415.385L276.161 400.124V375.052L249.999 390.313V415.385Z" fill="#2F83FF"/>
<path d="M223.837 375.052V400.124L249.999 415.385V390.313L223.837 375.052Z" fill="#2FA9FF"/>
<path d="M145.352 334.762V359.834L171.514 375.095V350.023L145.352 334.762Z" fill="#49F1F1"/>
<path d="M354.647 334.806L380.809 319.545V294.474L354.647 309.735V334.806Z" fill="#23CFCF"/>
<path d="M119.19 294.474V319.545L145.352 334.806V309.735L119.19 294.474Z" fill="#49F1F1"/>
<path d="M145.352 309.647V334.719L171.514 349.98V324.909L145.352 309.647Z" fill="#2FA9FF"/>
<path d="M328.485 400.211L354.647 384.95V359.878L328.485 375.139V400.211Z" fill="#23CFCF"/>
<path d="M328.485 375.095L354.647 359.834V334.762L328.485 350.023V375.095Z" fill="#23CFCF"/>
<path d="M328.485 349.98L354.647 334.719V309.647L328.485 324.909V349.98Z" fill="#2F83FF"/>
<path d="M249.999 390.27L276.161 375.008V349.937L249.999 365.198V390.27Z" fill="#2F83FF"/>
<path d="M223.837 349.937V375.008L249.999 390.27V365.198L223.837 349.937Z" fill="#2FA9FF"/>
<path d="M249.999 365.154L276.161 349.893V324.821L249.999 340.082V365.154Z" fill="#2F83FF"/>
<path d="M223.837 324.821V349.893L249.999 365.154V340.082L223.837 324.821Z" fill="#2FA9FF"/>
<path d="M119.19 264.126V289.197L145.352 304.458V279.387L119.19 264.126Z" fill="#2FA9FF"/>
<path d="M119.19 239.011L145.352 223.75L171.514 239.011L145.352 254.272L119.19 239.011Z" fill="#71C3FF"/>
<path d="M119.19 239.01V264.082L145.352 279.343V254.272L119.19 239.01Z" fill="#2FA9FF"/>
<path d="M197.675 415.385L223.837 400.124V375.052L197.675 390.313V415.385Z" fill="#23CFCF"/>
<path d="M171.514 375.052V400.124L197.676 415.385V390.313L171.514 375.052Z" fill="#49F1F1"/>
<path d="M302.322 415.385L328.484 400.124V375.052L302.322 390.313V415.385Z" fill="#23CFCF"/>
<path d="M276.161 375.052V400.124L302.323 415.385V390.313L276.161 375.052Z" fill="#49F1F1"/>
<path d="M197.675 390.27L223.837 375.008V349.937L197.675 365.198V390.27Z" fill="#2F83FF"/>
<path d="M171.514 349.937V375.008L197.676 390.27V365.198L171.514 349.937Z" fill="#2FA9FF"/>
<path d="M197.675 365.154L223.837 349.893V324.821L197.675 340.082V365.154Z" fill="#2F83FF"/>
<path d="M171.514 324.821V349.893L197.676 365.154V340.082L171.514 324.821Z" fill="#2FA9FF"/>
<path d="M354.647 304.458L380.809 289.197V264.126L354.647 279.387V304.458Z" fill="#2F83FF"/>
<path d="M328.485 239.011L354.647 223.75L380.808 239.011L354.647 254.272L328.485 239.011Z" fill="#71C3FF"/>
<path d="M354.647 279.343L380.809 264.082V239.01L354.647 254.272V279.343Z" fill="#2F83FF"/>
<path d="M302.322 390.27L328.484 375.008V349.937L302.322 365.198V390.27Z" fill="#2F83FF"/>
<path d="M276.161 349.937V375.008L302.323 390.27V365.198L276.161 349.937Z" fill="#2FA9FF"/>
<path d="M302.322 365.154L328.484 349.893V324.821L302.322 340.082V365.154Z" fill="#2F83FF"/>
<path d="M276.161 324.821V349.893L302.323 365.154V340.082L276.161 324.821Z" fill="#2FA9FF"/>
<path d="M145.352 254.185L171.514 238.924L197.676 254.185L171.514 269.446L145.352 254.185Z" fill="#71C3FF"/>
<path d="M119.19 269.358L145.352 254.097L171.514 269.358L145.352 284.619L119.19 269.358Z" fill="#71C3FF"/>
<path d="M119.19 269.358V294.43L145.352 309.691V284.619L119.19 269.358Z" fill="#2FA9FF"/>
<path d="M171.514 269.358L197.676 254.097L223.838 269.358L197.676 284.619L171.514 269.358Z" fill="#71C3FF"/>
<path d="M145.352 284.532L171.514 269.271L197.676 284.532L171.514 299.793L145.352 284.532Z" fill="#71C3FF"/>
<path d="M145.352 284.532V309.604L171.514 324.865V299.793L145.352 284.532Z" fill="#2FA9FF"/>
<path d="M197.676 284.532L223.838 269.271L249.999 284.532L223.838 299.793L197.676 284.532Z" fill="#71C3FF"/>
<path d="M171.514 299.706L197.676 284.445L223.838 299.706L197.676 314.967L171.514 299.706Z" fill="#71C3FF"/>
<path d="M197.675 340.039L223.837 324.778V299.706L197.675 314.967V340.039Z" fill="#2F83FF"/>
<path d="M171.514 299.706V324.778L197.676 340.039V314.967L171.514 299.706Z" fill="#2FA9FF"/>
<path d="M302.323 254.185L328.485 238.924L354.646 254.185L328.485 269.446L302.323 254.185Z" fill="#71C3FF"/>
<path d="M276.161 269.358L302.323 254.097L328.485 269.358L302.323 284.619L276.161 269.358Z" fill="#71C3FF"/>
<path d="M249.999 284.532L276.161 269.271L302.323 284.532L276.161 299.793L249.999 284.532Z" fill="#71C3FF"/>
<path d="M223.837 299.706L249.999 284.445L276.16 299.706L249.999 314.967L223.837 299.706Z" fill="#71C3FF"/>
<path d="M249.999 340.039L276.161 324.778V299.706L249.999 314.967V340.039Z" fill="#2F83FF"/>
<path d="M223.837 299.706V324.778L249.999 340.039V314.967L223.837 299.706Z" fill="#2FA9FF"/>
<path d="M328.485 269.358L354.647 254.097L380.808 269.358L354.647 284.619L328.485 269.358Z" fill="#71C3FF"/>
<path d="M354.647 309.691L380.809 294.43V269.358L354.647 284.619V309.691Z" fill="#2F83FF"/>
<path d="M302.323 284.532L328.485 269.271L354.646 284.532L328.485 299.793L302.323 284.532Z" fill="#71C3FF"/>
<path d="M328.485 324.865L354.647 309.604V284.532L328.485 299.793V324.865Z" fill="#2F83FF"/>
<path d="M276.161 299.706L302.323 284.445L328.485 299.706L302.323 314.967L276.161 299.706Z" fill="#71C3FF"/>
<path d="M302.322 340.039L328.484 324.778V299.706L302.322 314.967V340.039Z" fill="#2F83FF"/>
<path d="M276.161 299.706V324.778L302.323 340.039V314.967L276.161 299.706Z" fill="#2FA9FF"/>
<path d="M179.144 217.841H163.883V224.374C163.883 224.376 163.883 224.379 163.883 224.381C163.883 226.79 167.299 228.742 171.513 228.742C175.727 228.742 179.144 226.79 179.144 224.382V217.841Z" fill="#2FA9FF"/>
<path d="M205.305 233.015H190.044V239.536C190.044 239.542 190.044 239.549 190.044 239.555C190.044 241.963 193.46 243.916 197.675 243.916C201.889 243.916 205.305 241.963 205.305 239.555L205.305 233.015Z" fill="#2FA9FF"/>
<path d="M257.629 233.015H242.368V239.523C242.368 239.534 242.368 239.545 242.368 239.555C242.368 241.963 245.784 243.916 249.999 243.916C254.213 243.916 257.629 241.963 257.629 239.555L257.629 233.015Z" fill="#2FA9FF"/>
<path d="M231.468 248.189H216.206V254.702C216.206 254.711 216.206 254.72 216.206 254.729C216.206 257.137 219.623 259.09 223.837 259.09C228.051 259.09 231.467 257.137 231.467 254.729L231.468 248.189Z" fill="#2FA9FF"/>
<path d="M336.114 217.841H320.853V224.382C320.853 226.79 324.27 228.742 328.484 228.742C332.698 228.742 336.114 226.79 336.114 224.381C336.114 224.377 336.114 224.373 336.114 224.368V217.841Z" fill="#2FA9FF"/>
<path d="M309.953 233.015H294.691V239.555C294.691 241.963 298.108 243.916 302.322 243.916C306.536 243.916 309.953 241.963 309.953 239.555C309.953 239.548 309.953 239.54 309.953 239.533V233.015Z" fill="#2FA9FF"/>
<path d="M283.791 248.189H268.53V254.729C268.53 257.137 271.946 259.09 276.16 259.09C280.375 259.09 283.791 257.137 283.791 254.729C283.791 254.72 283.791 254.71 283.791 254.7V248.189Z" fill="#2FA9FF"/>
<path d="M257.629 263.363H242.368V269.871C242.368 269.882 242.368 269.892 242.368 269.903C242.368 272.311 245.784 274.263 249.999 274.263C254.213 274.263 257.629 272.311 257.629 269.903L257.629 263.363Z" fill="#2FA9FF"/>
<path d="M152.982 233.015H137.721V239.555C137.721 241.964 141.138 243.916 145.352 243.916C149.566 243.916 152.982 241.964 152.982 239.555C152.982 239.548 152.982 239.541 152.982 239.533V233.015Z" fill="#2FA9FF"/>
<path d="M362.277 233.015H347.016V239.555C347.016 241.964 350.432 243.916 354.646 243.916C358.86 243.916 362.277 241.964 362.277 239.555C362.277 239.553 362.277 239.551 362.277 239.548V233.015Z" fill="#2FA9FF"/>
<path d="M179.144 248.189H163.883V254.721C163.883 254.724 163.883 254.727 163.883 254.729C163.883 257.137 167.299 259.09 171.513 259.09C175.727 259.09 179.144 257.137 179.144 254.729V248.189Z" fill="#2FA9FF"/>
<path d="M152.982 263.363H137.721V269.903C137.721 272.311 141.138 274.263 145.352 274.263C149.566 274.263 152.982 272.311 152.982 269.903C152.982 269.896 152.982 269.888 152.982 269.881V263.363Z" fill="#2FA9FF"/>
<path d="M205.306 263.363H190.045V269.89C190.045 269.894 190.045 269.899 190.045 269.903C190.045 272.311 193.461 274.263 197.675 274.263C201.89 274.263 205.306 272.311 205.306 269.903L205.306 263.363Z" fill="#2FA9FF"/>
<path d="M179.144 278.536H163.883V285.069C163.883 285.072 163.883 285.074 163.883 285.077C163.883 287.485 167.299 289.437 171.513 289.437C175.727 289.437 179.144 287.485 179.144 285.077L179.144 278.536Z" fill="#2FA9FF"/>
<path d="M231.467 278.536H216.206V285.054C216.206 285.062 216.206 285.069 216.206 285.077C216.206 287.485 219.623 289.437 223.837 289.437C228.051 289.437 231.467 287.485 231.467 285.077L231.467 278.536Z" fill="#2FA9FF"/>
<path d="M205.306 293.71H190.045V300.237C190.045 300.242 190.045 300.246 190.045 300.251C190.045 302.659 193.461 304.611 197.675 304.611C201.89 304.611 205.306 302.659 205.306 300.251L205.306 293.71Z" fill="#2FA9FF"/>
<path d="M336.115 248.189H320.854V254.729C320.854 257.137 324.27 259.09 328.484 259.09C332.699 259.09 336.115 257.137 336.115 254.729C336.115 254.723 336.115 254.716 336.115 254.709V248.189Z" fill="#2FA9FF"/>
<path d="M309.953 263.363H294.691V269.903C294.692 272.311 298.108 274.263 302.322 274.263C306.536 274.263 309.953 272.311 309.953 269.903C309.953 269.896 309.953 269.888 309.953 269.881V263.363Z" fill="#2FA9FF"/>
<path d="M283.792 278.536H268.53V285.077C268.53 287.485 271.947 289.437 276.161 289.437C280.375 289.437 283.792 287.485 283.792 285.077C283.792 285.066 283.792 285.055 283.792 285.045V278.536Z" fill="#2FA9FF"/>
<path d="M257.629 293.71H242.368V300.218C242.368 300.229 242.368 300.24 242.368 300.251C242.368 302.659 245.784 304.611 249.999 304.611C254.213 304.611 257.629 302.659 257.629 300.251L257.629 293.71Z" fill="#2FA9FF"/>
<path d="M362.277 263.363H347.016V269.903C347.016 272.311 350.432 274.263 354.646 274.263C358.86 274.263 362.277 272.311 362.277 269.903C362.277 269.901 362.277 269.898 362.277 269.896V263.363Z" fill="#2FA9FF"/>
<path d="M336.115 278.536H320.854V285.077C320.854 287.485 324.27 289.437 328.484 289.437C332.699 289.437 336.115 287.485 336.115 285.077C336.115 285.07 336.115 285.064 336.115 285.057V278.536Z" fill="#2FA9FF"/>
<path d="M309.953 293.71H294.691V300.251C294.692 302.659 298.108 304.611 302.322 304.611C306.536 304.611 309.953 302.659 309.953 300.251C309.953 300.243 309.953 300.236 309.953 300.228V293.71Z" fill="#2FA9FF"/>
<path d="M179.144 217.841H163.883V224.374C163.883 224.376 163.883 224.379 163.883 224.381C163.883 226.79 167.299 228.742 171.513 228.742C175.728 228.742 179.144 226.79 179.144 224.382V217.841Z" fill="#1884CF"/>
<path d="M205.305 233.015H190.044V239.536C190.044 239.542 190.044 239.549 190.044 239.555C190.044 241.963 193.461 243.916 197.675 243.916C201.889 243.916 205.305 241.963 205.305 239.555L205.305 233.015Z" fill="#1884CF"/>
<path d="M257.63 233.015H242.369V239.523C242.368 239.534 242.368 239.545 242.368 239.555C242.368 241.963 245.785 243.916 249.999 243.916C254.213 243.916 257.629 241.963 257.629 239.555L257.63 233.015Z" fill="#1884CF"/>
<path d="M231.468 248.189H216.207V254.702C216.207 254.711 216.207 254.72 216.207 254.729C216.207 257.137 219.623 259.09 223.837 259.09C228.051 259.09 231.468 257.137 231.468 254.729L231.468 248.189Z" fill="#1884CF"/>
<path d="M336.115 217.841H320.854V224.382C320.854 226.79 324.27 228.742 328.484 228.742C332.698 228.742 336.115 226.79 336.115 224.381C336.115 224.377 336.115 224.373 336.115 224.368V217.841Z" fill="#1884CF"/>
<path d="M309.953 233.015H294.692V239.555C294.692 241.963 298.108 243.916 302.322 243.916C306.537 243.916 309.953 241.963 309.953 239.555C309.953 239.548 309.953 239.54 309.953 239.533V233.015Z" fill="#1884CF"/>
<path d="M283.791 248.189H268.53V254.729C268.53 257.137 271.946 259.09 276.16 259.09C280.375 259.09 283.791 257.137 283.791 254.729C283.791 254.72 283.791 254.71 283.791 254.7V248.189Z" fill="#1884CF"/>
<path d="M179.144 217.841C179.144 220.249 175.727 222.201 171.513 222.201C167.299 222.201 163.883 220.249 163.883 217.841C163.883 215.433 167.299 213.481 171.513 213.481C175.727 213.481 179.144 215.433 179.144 217.841Z" fill="#EFF8FF"/>
<path d="M205.305 233.015C205.305 235.423 201.889 237.375 197.675 237.375C193.46 237.375 190.044 235.423 190.044 233.015C190.044 230.607 193.46 228.655 197.675 228.655C201.889 228.655 205.305 230.607 205.305 233.015Z" fill="#EFF8FF"/>
<path d="M257.629 233.015C257.629 235.423 254.213 237.375 249.999 237.375C245.784 237.375 242.368 235.423 242.368 233.015C242.368 230.607 245.784 228.655 249.999 228.655C254.213 228.655 257.629 230.607 257.629 233.015Z" fill="#EFF8FF"/>
<path d="M231.467 248.189C231.467 250.597 228.051 252.549 223.837 252.549C219.623 252.549 216.206 250.597 216.206 248.189C216.206 245.781 219.623 243.829 223.837 243.829C228.051 243.829 231.467 245.781 231.467 248.189Z" fill="#EFF8FF"/>
<path d="M336.114 217.841C336.114 220.249 332.698 222.201 328.484 222.201C324.27 222.201 320.853 220.249 320.853 217.841C320.853 215.433 324.27 213.481 328.484 213.481C332.698 213.481 336.114 215.433 336.114 217.841Z" fill="#EFF8FF"/>
<path d="M309.953 233.015C309.953 235.423 306.536 237.375 302.322 237.375C298.108 237.375 294.691 235.423 294.691 233.015C294.691 230.607 298.108 228.655 302.322 228.655C306.536 228.655 309.953 230.607 309.953 233.015Z" fill="#EFF8FF"/>
<path d="M283.791 248.189C283.791 250.597 280.374 252.549 276.16 252.549C271.946 252.549 268.53 250.597 268.53 248.189C268.53 245.781 271.946 243.829 276.16 243.829C280.374 243.829 283.791 245.781 283.791 248.189Z" fill="#EFF8FF"/>
<path d="M257.629 263.363C257.629 265.771 254.213 267.723 249.999 267.723C245.784 267.723 242.368 265.771 242.368 263.363C242.368 260.955 245.784 259.002 249.999 259.002C254.213 259.002 257.629 260.955 257.629 263.363Z" fill="#EFF8FF"/>
<path d="M152.982 233.015C152.982 235.423 149.566 237.375 145.352 237.375C141.137 237.375 137.721 235.423 137.721 233.015C137.721 230.607 141.137 228.655 145.352 228.655C149.566 228.655 152.982 230.607 152.982 233.015Z" fill="#EFF8FF"/>
<path d="M362.277 233.015C362.277 235.423 358.86 237.375 354.646 237.375C350.432 237.375 347.016 235.423 347.016 233.015C347.016 230.607 350.432 228.655 354.646 228.655C358.86 228.655 362.277 230.607 362.277 233.015Z" fill="#EFF8FF"/>
<path d="M179.144 248.189C179.144 250.597 175.727 252.549 171.513 252.549C167.299 252.549 163.883 250.597 163.883 248.189C163.883 245.781 167.299 243.829 171.513 243.829C175.727 243.829 179.144 245.781 179.144 248.189Z" fill="#EFF8FF"/>
<path d="M152.982 263.363C152.982 265.771 149.566 267.723 145.352 267.723C141.137 267.723 137.721 265.771 137.721 263.363C137.721 260.954 141.137 259.002 145.352 259.002C149.566 259.002 152.982 260.954 152.982 263.363Z" fill="#EFF8FF"/>
<path d="M205.306 263.363C205.306 265.771 201.89 267.723 197.675 267.723C193.461 267.723 190.045 265.771 190.045 263.363C190.045 260.954 193.461 259.002 197.675 259.002C201.89 259.002 205.306 260.954 205.306 263.363Z" fill="#EFF8FF"/>
<path d="M179.144 278.536C179.144 280.944 175.727 282.897 171.513 282.897C167.299 282.897 163.883 280.944 163.883 278.536C163.883 276.128 167.299 274.176 171.513 274.176C175.727 274.176 179.144 276.128 179.144 278.536Z" fill="#EFF8FF"/>
<path d="M231.467 278.536C231.467 280.944 228.051 282.897 223.837 282.897C219.623 282.897 216.206 280.944 216.206 278.536C216.206 276.128 219.623 274.176 223.837 274.176C228.051 274.176 231.467 276.128 231.467 278.536Z" fill="#EFF8FF"/>
<path d="M205.306 293.71C205.306 296.118 201.89 298.071 197.675 298.071C193.461 298.071 190.045 296.118 190.045 293.71C190.045 291.302 193.461 289.35 197.675 289.35C201.89 289.35 205.306 291.302 205.306 293.71Z" fill="#EFF8FF"/>
<path d="M336.115 248.189C336.115 250.597 332.698 252.549 328.484 252.549C324.27 252.549 320.854 250.597 320.854 248.189C320.854 245.781 324.27 243.829 328.484 243.829C332.698 243.829 336.115 245.781 336.115 248.189Z" fill="#EFF8FF"/>
<path d="M309.953 263.363C309.953 265.771 306.536 267.723 302.322 267.723C298.108 267.723 294.691 265.771 294.691 263.363C294.691 260.954 298.108 259.002 302.322 259.002C306.536 259.002 309.953 260.954 309.953 263.363Z" fill="#EFF8FF"/>
<path d="M283.792 278.536C283.792 280.944 280.375 282.897 276.161 282.897C271.947 282.897 268.53 280.944 268.53 278.536C268.53 276.128 271.947 274.176 276.161 274.176C280.375 274.176 283.792 276.128 283.792 278.536Z" fill="#EFF8FF"/>
<path d="M257.629 293.71C257.629 296.118 254.213 298.071 249.999 298.071C245.784 298.071 242.368 296.118 242.368 293.71C242.368 291.302 245.784 289.35 249.999 289.35C254.213 289.35 257.629 291.302 257.629 293.71Z" fill="#EFF8FF"/>
<path d="M362.277 263.363C362.277 265.771 358.86 267.723 354.646 267.723C350.432 267.723 347.016 265.771 347.016 263.363C347.016 260.954 350.432 259.002 354.646 259.002C358.86 259.002 362.277 260.954 362.277 263.363Z" fill="#EFF8FF"/>
<path d="M336.115 278.536C336.115 280.944 332.698 282.897 328.484 282.897C324.27 282.897 320.854 280.944 320.854 278.536C320.854 276.128 324.27 274.176 328.484 274.176C332.698 274.176 336.115 276.128 336.115 278.536Z" fill="#EFF8FF"/>
<path d="M309.953 293.71C309.953 296.118 306.536 298.071 302.322 298.071C298.108 298.071 294.691 296.118 294.691 293.71C294.691 291.302 298.108 289.35 302.322 289.35C306.536 289.35 309.953 291.302 309.953 293.71Z" fill="#EFF8FF"/>
<path d="M179.144 217.841C179.144 220.249 175.728 222.201 171.513 222.201C167.299 222.201 163.883 220.249 163.883 217.841C163.883 215.433 167.299 213.481 171.513 213.481C175.728 213.481 179.144 215.433 179.144 217.841Z" fill="#B5C7D6"/>
<path d="M205.305 233.015C205.305 235.423 201.889 237.375 197.675 237.375C193.461 237.375 190.044 235.423 190.044 233.015C190.044 230.607 193.461 228.655 197.675 228.655C201.889 228.655 205.305 230.607 205.305 233.015Z" fill="#B5C7D6"/>
<path d="M257.629 233.015C257.629 235.423 254.213 237.375 249.999 237.375C245.785 237.375 242.368 235.423 242.368 233.015C242.368 230.607 245.785 228.655 249.999 228.655C254.213 228.655 257.629 230.607 257.629 233.015Z" fill="#B5C7D6"/>
<path d="M231.468 248.189C231.468 250.597 228.051 252.549 223.837 252.549C219.623 252.549 216.207 250.597 216.207 248.189C216.207 245.781 219.623 243.829 223.837 243.829C228.051 243.829 231.468 245.781 231.468 248.189Z" fill="#B5C7D6"/>
<path d="M336.115 217.841C336.115 220.249 332.698 222.201 328.484 222.201C324.27 222.201 320.854 220.249 320.854 217.841C320.854 215.433 324.27 213.481 328.484 213.481C332.698 213.481 336.115 215.433 336.115 217.841Z" fill="#B5C7D6"/>
<path d="M309.953 233.015C309.953 235.423 306.536 237.375 302.322 237.375C298.108 237.375 294.692 235.423 294.692 233.015C294.692 230.607 298.108 228.655 302.322 228.655C306.536 228.655 309.953 230.607 309.953 233.015Z" fill="#B5C7D6"/>
<path d="M283.791 248.189C283.791 250.597 280.375 252.549 276.16 252.549C271.946 252.549 268.53 250.597 268.53 248.189C268.53 245.781 271.946 243.829 276.16 243.829C280.375 243.829 283.791 245.781 283.791 248.189Z" fill="#B5C7D6"/>
<path d="M328.485 211.323L354.647 196.062V170.99L328.485 186.251V211.323Z" fill="#2F83FF"/>
<path d="M302.323 145.875L328.485 130.614L354.646 145.875L328.485 161.136L302.323 145.875Z" fill="#71C3FF"/>
<path fill-rule="evenodd" clip-rule="evenodd" d="M336.115 139.88H320.854V146.42H320.854C320.854 148.828 324.27 150.78 328.484 150.78C332.698 150.78 336.115 148.828 336.115 146.42C336.115 146.409 336.115 146.399 336.115 146.388V139.88Z" fill="#2FA9FF"/>
<ellipse cx="328.484" cy="139.88" rx="7.63052" ry="4.3603" fill="#EFF8FF"/>
<path d="M328.485 186.208L354.647 170.946V145.875L328.485 161.136V186.208Z" fill="#2F83FF"/>
<path d="M302.322 226.497L328.484 211.236V186.164L302.322 201.425V226.497Z" fill="#2F83FF"/>
<path d="M302.322 201.381L328.484 186.12V161.049L302.322 176.31V201.381Z" fill="#2F83FF"/>
<path d="M302.322 176.266L328.484 161.005V135.933L302.322 151.194V176.266Z" fill="#2F83FF"/>
<path d="M276.162 241.671L302.323 226.41V201.338L276.162 216.599V241.671Z" fill="#2F83FF"/>
<path d="M250 201.338V226.41L276.161 241.671V216.599L250 201.338Z" fill="#2FA9FF"/>
<path d="M276.162 216.555L302.323 201.294V176.222L276.162 191.483V216.555Z" fill="#2F83FF"/>
<path d="M250 176.222V201.294L276.161 216.555V191.483L250 176.222Z" fill="#2FA9FF"/>
<path d="M276.161 110.818L302.323 95.5566L328.485 110.818L302.323 126.079L276.161 110.818Z" fill="#FFB8B4"/>
<path d="M302.322 151.151L328.484 135.89V110.818L302.322 126.079V151.151Z" fill="#EA6463"/>
<path fill-rule="evenodd" clip-rule="evenodd" d="M309.952 104.823H294.691V111.363H294.692C294.692 113.771 298.108 115.723 302.322 115.723C306.536 115.723 309.953 113.771 309.953 111.363C309.953 111.352 309.953 111.342 309.952 111.331V104.823Z" fill="#F88887"/>
<ellipse cx="302.322" cy="104.822" rx="7.63052" ry="4.3603" fill="#FFEDEF"/>
<path d="M276.162 191.44L302.323 176.179V151.107L276.162 166.368V191.44Z" fill="#EA6463"/>
<path d="M276.162 141.209L302.323 125.948V100.876L276.162 116.138V141.209Z" fill="#EA6463"/>
<path d="M250 151.107V176.179L276.161 191.44V166.368L250 151.107Z" fill="#F88887"/>
<path d="M276.162 166.325L302.323 151.064V125.992L276.162 141.253V166.325Z" fill="#EA6463"/>
<path d="M250 125.992V151.064L276.161 166.325V141.253L250 125.992Z" fill="#F88887"/>
<path d="M250 100.876V125.948L276.161 141.209V116.138L250 100.876Z" fill="#F88887"/>
<path d="M249.999 75.761L276.161 60.5L302.323 75.761L276.161 91.0221L249.999 75.761Z" fill="#FFB8B4"/>
<path d="M276.162 116.094L302.323 100.833V75.761L276.162 91.022V116.094Z" fill="#EA6463"/>
<path d="M250 75.761V100.833L276.161 116.094V91.022L250 75.761Z" fill="#F88887"/>
<path fill-rule="evenodd" clip-rule="evenodd" d="M283.791 69.7654H268.53V76.3058H268.53C268.53 76.3059 268.53 76.3059 268.53 76.3059C268.53 78.7141 271.947 80.6662 276.161 80.6662C280.375 80.6662 283.791 78.7141 283.791 76.3059C283.791 76.296 283.791 76.286 283.791 76.276V69.7654Z" fill="#F88887"/>
<ellipse cx="276.161" cy="69.7656" rx="7.63052" ry="4.3603" fill="#FFEDEF"/>
<path d="M145.352 170.99V196.062L171.514 211.323V186.251L145.352 170.99Z" fill="#35C16D"/>
<path d="M145.352 145.875L171.514 130.614L197.676 145.875L171.514 161.136L145.352 145.875Z" fill="#6EFAA6"/>
<path d="M145.352 145.875V170.946L171.514 186.208V161.136L145.352 145.875Z" fill="#35C16D"/>
<path fill-rule="evenodd" clip-rule="evenodd" d="M179.144 139.88H163.883V146.42H163.883C163.883 148.828 167.299 150.78 171.513 150.78C175.728 150.78 179.144 148.828 179.144 146.42C179.144 146.411 179.144 146.402 179.144 146.392V139.88Z" fill="#35C16D"/>
<ellipse cx="171.513" cy="139.88" rx="7.63052" ry="4.3603" fill="#E7FFF0"/>
<path d="M171.514 186.164V211.236L197.676 226.497V201.425L171.514 186.164Z" fill="#35C16D"/>
<path d="M171.514 161.049V186.12L197.676 201.381V176.31L171.514 161.049Z" fill="#35C16D"/>
<path d="M171.514 135.933V161.005L197.676 176.266V151.194L171.514 135.933Z" fill="#35C16D"/>
<path d="M223.838 241.671L250 226.41V201.338L223.838 216.599V241.671Z" fill="#1FAB57"/>
<path d="M197.675 201.338V226.41L223.837 241.671V216.599L197.675 201.338Z" fill="#35C16D"/>
<path d="M223.838 216.555L250 201.294V176.222L223.838 191.483V216.555Z" fill="#1FAB57"/>
<path d="M197.675 176.222V201.294L223.837 216.555V191.483L197.675 176.222Z" fill="#35C16D"/>
<path d="M171.514 110.818L197.676 95.5566L223.838 110.818L197.676 126.079L171.514 110.818Z" fill="#FFEE92"/>
<path d="M171.514 110.818V135.89L197.676 151.151V126.079L171.514 110.818Z" fill="#FFDE2E"/>
<path fill-rule="evenodd" clip-rule="evenodd" d="M205.306 104.823H190.045V111.363H190.045C190.045 113.771 193.461 115.723 197.676 115.723C201.89 115.723 205.306 113.771 205.306 111.363C205.306 111.354 205.306 111.344 205.306 111.335V104.823Z" fill="#FFDE2E"/>
<ellipse cx="197.675" cy="104.822" rx="7.63052" ry="4.3603" fill="#FFF6DF"/>
<path d="M223.838 191.44L250 176.179V151.107L223.838 166.368V191.44Z" fill="#DBBA0E"/>
<path d="M197.675 151.107V176.179L223.837 191.44V166.368L197.675 151.107Z" fill="#FFDE2E"/>
<path d="M223.838 166.325L250 151.064V125.992L223.838 141.253V166.325Z" fill="#DBBA0E"/>
<path d="M197.675 125.992V151.064L223.837 166.325V141.253L197.675 125.992Z" fill="#FFDE2E"/>
<path d="M223.838 141.209L250 125.948V100.876L223.838 116.138V141.209Z" fill="#DBBA0E"/>
<path d="M197.675 100.876V125.948L223.837 141.209V116.138L197.675 100.876Z" fill="#FFDE2E"/>
<path d="M197.676 75.761L223.838 60.5L249.999 75.761L223.838 91.0221L197.676 75.761Z" fill="#FFEE92"/>
<path d="M223.838 116.094L250 100.833V75.761L223.838 91.022V116.094Z" fill="#DBBA0E"/>
<path d="M197.675 75.761V100.833L223.837 116.094V91.022L197.675 75.761Z" fill="#FFDE2E"/>
<path fill-rule="evenodd" clip-rule="evenodd" d="M231.468 69.7654H216.207V76.3058H216.207C216.207 76.3059 216.207 76.3059 216.207 76.3059C216.207 78.7141 219.623 80.6662 223.837 80.6662C228.051 80.6662 231.468 78.7141 231.468 76.3059C231.468 76.2963 231.468 76.2867 231.468 76.2771V69.7654Z" fill="#FFDE2E"/>
<ellipse cx="223.837" cy="69.7656" rx="7.63052" ry="4.3603" fill="#FFF6DF"/>
</svg>
