<svg width="60" height="60" viewBox="0 0 60 60" fill="none" xmlns="http://www.w3.org/2000/svg">
<circle cx="30" cy="30" r="30" fill="#00A3FF"/>
<path d="M32.4752 38H30.0152V26.23L27.3152 27.88V25.22L30.0152 23.6H32.4752V38Z" fill="white"/>
<circle cx="30" cy="30" r="30" fill="white"/>
<circle cx="30" cy="30" r="29.5" stroke="#000A3D" stroke-opacity="0.12"/>
<path fill-rule="evenodd" clip-rule="evenodd" d="M30.0115 12.5L38.6733 26.0585L30.011 31.1067L21.3498 26.0583L30.0115 12.5ZM24.0014 25.4172L30.0115 16.0094L36.0217 25.4172L30.0111 28.9201L24.0014 25.4172Z" fill="#00A3FF"/>
<path d="M29.9987 34.0868L19.9508 28.2303L19.6764 28.6598C16.5817 33.504 17.2728 39.8483 21.3381 43.9128C26.1219 48.6957 33.8781 48.6957 38.6619 43.9128C42.7272 39.8483 43.4183 33.504 40.3236 28.6598L40.0491 28.2301L29.9987 34.0868Z" fill="#00A3FF"/>
</svg>
