<svg width="500" height="501" viewBox="0 0 500 501" fill="none" xmlns="http://www.w3.org/2000/svg">
<rect y="0.5" width="500" height="500" rx="250" fill="white"/>
<path d="M248.455 74.1951L169.859 195.952L248.455 244.102L327.054 195.952L248.455 74.1951Z" fill="#FFF86C"/>
<path d="M356.695 239.309L248.465 303.354L139.918 239.309C139.918 239.309 112.321 283.715 126.12 333.397C139.918 383.08 180.063 417.463 223.699 426.777C267.334 436.092 313.433 416.284 333.399 396.315C353.365 376.346 370.314 354.425 373.86 315.228C377.406 276.032 356.695 239.309 356.695 239.309Z" fill="#98FFFF"/>
<path d="M337.083 186.579C335.597 184.982 333.752 183.764 331.7 183.026C329.648 182.288 327.449 182.051 325.287 182.336L261.222 82.1284C260.988 81.7773 260.846 81.3735 260.808 80.9536C260.769 80.5337 260.836 80.1109 261.002 79.7233C261.877 77.7563 262.272 75.6093 262.153 73.4597C262.042 71.4547 261.493 69.4985 260.543 67.7292C259.593 65.9599 258.267 64.4208 256.657 63.2204C255.047 62.02 253.193 61.1878 251.227 60.7824C249.26 60.377 247.228 60.4084 245.275 60.8744C243.322 61.3403 241.495 62.2294 239.923 63.4789C238.351 64.7285 237.073 66.3079 236.178 68.1056C235.284 69.9034 234.795 71.8757 234.746 73.8831C234.697 75.8905 235.09 77.8842 235.896 79.7233C236.061 80.1107 236.128 80.533 236.091 80.9525C236.054 81.3721 235.914 81.7759 235.683 82.1284L171.827 182.026C171.753 182.127 171.653 182.206 171.537 182.253C171.421 182.301 171.295 182.317 171.171 182.298C170.738 182.257 170.295 182.233 169.859 182.233C167.979 182.234 166.119 182.62 164.394 183.367C162.669 184.115 161.115 185.208 159.829 186.579C158.052 188.483 156.854 190.853 156.375 193.412C155.895 195.972 156.154 198.615 157.121 201.033C158.089 203.45 159.724 205.543 161.837 207.065C163.949 208.588 166.452 209.477 169.051 209.63V209.63C171.542 209.777 174.025 209.242 176.236 208.084C176.593 207.886 176.995 207.786 177.403 207.792C177.811 207.798 178.211 207.91 178.562 208.118L233.536 241.79C233.902 242.012 234.205 242.326 234.414 242.699C234.624 243.073 234.733 243.495 234.731 243.924C234.727 244.425 234.749 244.926 234.797 245.425C235.134 248.672 236.612 251.694 238.967 253.954C241.322 256.215 244.402 257.567 247.66 257.77C247.928 257.77 248.193 257.791 248.458 257.791C250.261 257.79 252.046 257.434 253.711 256.742C255.376 256.051 256.888 255.038 258.162 253.761C259.435 252.485 260.444 250.97 261.131 249.303C261.818 247.636 262.17 245.85 262.167 244.047C262.168 243.584 262.287 243.128 262.513 242.724C262.739 242.319 263.064 241.979 263.459 241.735L319.515 207.397C322.319 209.236 325.699 209.984 329.017 209.5C332.335 209.016 335.361 207.335 337.523 204.772C339.686 202.21 340.835 198.944 340.753 195.592C340.672 192.24 339.366 189.034 337.083 186.579V186.579ZM311.849 198.402L256.092 232.575C256.062 232.592 256.027 232.601 255.992 232.601C255.958 232.601 255.923 232.592 255.893 232.575L255.858 232.554C255.83 232.535 255.807 232.508 255.792 232.476C255.777 232.445 255.77 232.41 255.773 232.376L261.363 186.679L311.849 198.402ZM262.497 177.409L265.101 156.086L266.723 159.058C265.883 160.093 265.262 161.289 264.899 162.572C264.536 163.855 264.437 165.198 264.61 166.52C264.898 168.7 265.895 170.725 267.447 172.283C268.999 173.841 271.02 174.845 273.199 175.141C275.418 175.436 277.672 174.968 279.59 173.815C279.768 173.697 279.974 173.631 280.187 173.623C280.4 173.616 280.611 173.668 280.796 173.773L297.398 184.218L262.497 177.409ZM285.067 166.63C284.867 166.52 284.702 166.357 284.589 166.159C284.476 165.96 284.42 165.735 284.428 165.507V165.277C284.423 162.686 283.411 160.199 281.604 158.343C279.797 156.487 277.338 155.407 274.749 155.333L271.437 146.774C273.877 144.228 275.233 140.832 275.216 137.305C275.209 134.317 274.23 131.413 272.427 129.031C270.624 126.649 268.095 124.919 265.221 124.101C265.089 124.071 264.968 124.005 264.871 123.911C264.773 123.818 264.703 123.699 264.668 123.568L260.421 102.572L309.98 180.089L285.067 166.63ZM216.037 162.586C213.601 162.86 211.353 164.022 209.72 165.849C208.087 167.676 207.185 170.041 207.186 172.492C207.186 172.581 207.186 172.667 207.186 172.756L185.337 182.593L231.285 110.711L216.037 162.586ZM183.575 195.914C183.567 195.686 183.621 195.461 183.731 195.261C183.841 195.062 184.003 194.895 184.2 194.78L210.917 180.226C212.655 181.619 214.809 182.39 217.037 182.415L236.339 229.83L184.114 197.838C183.926 197.717 183.774 197.548 183.674 197.348C183.574 197.148 183.53 196.924 183.547 196.701C183.568 196.454 183.575 196.199 183.575 195.925V195.914ZM254.075 150.035L251.014 175.168L226.877 170.458C226.853 170.351 226.829 170.241 226.801 170.131L254.075 150.035ZM253.044 126.51C251.403 127.789 250.076 129.427 249.166 131.298C248.255 133.169 247.785 135.224 247.791 137.305C247.79 138.521 247.949 139.732 248.265 140.906L225.169 160.576L247.063 95.4871L253.247 125.898C253.273 126.008 253.268 126.122 253.234 126.23C253.2 126.338 253.138 126.434 253.055 126.51H253.044ZM225.197 178.292L249.918 184.033L245.125 223.202L224.51 179.14C224.754 178.87 224.984 178.587 225.197 178.292V178.292Z" fill="url(#paint0_linear_13693_71946)"/>
<path d="M380.832 303.148C380.641 303.029 380.483 302.864 380.373 302.668C380.263 302.471 380.204 302.25 380.203 302.025C380.203 301.361 380.203 300.743 380.203 300.386C379.835 282.091 375.642 264.075 367.896 247.497C367.877 247.447 367.87 247.394 367.878 247.341C367.885 247.288 367.905 247.238 367.937 247.195C369.769 244.616 370.643 241.478 370.408 238.323C370.169 235.031 368.753 231.934 366.418 229.6C364.084 227.266 360.987 225.85 357.695 225.611C355.817 225.474 353.932 225.728 352.158 226.357C350.383 226.987 348.759 227.977 347.387 229.266C346.012 230.557 344.916 232.115 344.166 233.845C343.416 235.576 343.028 237.441 343.027 239.327C343.027 239.722 342.925 240.11 342.73 240.453C342.534 240.797 342.253 241.083 341.914 241.285L257.886 290.982C257.408 291.272 256.865 291.439 256.307 291.466C255.748 291.494 255.192 291.382 254.687 291.14C252.757 290.144 250.616 289.628 248.444 289.635C246.88 289.634 245.328 289.902 243.854 290.425C242.676 290.827 241.423 290.964 240.186 290.827C238.948 290.691 237.756 290.284 236.694 289.635L153.576 240.588C153.75 238.759 153.554 236.915 153.001 235.164C152.447 233.413 151.548 231.791 150.355 230.394C149.162 228.998 147.701 227.856 146.058 227.035C144.415 226.214 142.624 225.732 140.792 225.618C138.919 225.493 137.04 225.756 135.274 226.392C133.508 227.027 131.892 228.021 130.529 229.311C128.178 231.523 126.683 234.492 126.306 237.697C125.929 240.902 126.694 244.137 128.467 246.834C128.576 246.993 128.641 247.178 128.657 247.37C128.673 247.562 128.638 247.755 128.556 247.93C118.062 270.736 114.259 296.053 117.589 320.936C117.649 321.391 117.598 321.855 117.443 322.287C117.288 322.72 117.032 323.109 116.696 323.423C115.336 324.701 114.254 326.245 113.517 327.959C112.78 329.674 112.403 331.521 112.411 333.387C112.414 336.396 113.403 339.321 115.228 341.713C117.052 344.105 119.612 345.832 122.513 346.629C122.922 346.744 123.298 346.955 123.608 347.245C123.919 347.535 124.156 347.895 124.299 348.295C125.066 350.409 125.9 352.532 126.78 354.607C131.739 366.341 138.378 377.291 146.488 387.114C146.672 387.324 146.811 387.569 146.897 387.834C146.983 388.099 147.015 388.379 146.99 388.657C146.81 390.111 146.953 391.588 147.409 392.98C147.865 394.373 148.623 395.648 149.629 396.715C150.634 397.781 151.862 398.613 153.226 399.15C154.589 399.687 156.055 399.917 157.517 399.823C157.804 399.807 158.09 399.85 158.359 399.95C158.628 400.049 158.874 400.202 159.081 400.4C170.21 410.653 183.026 418.906 196.965 424.795C200.806 426.42 204.768 427.888 208.739 429.128C209.191 429.277 209.6 429.532 209.933 429.871C210.266 430.209 210.514 430.622 210.657 431.076C211.41 433.363 212.752 435.411 214.548 437.015C216.344 438.618 218.53 439.721 220.887 440.212C223.244 440.703 225.689 440.565 227.975 439.812C230.262 439.058 232.31 437.716 233.914 435.921C234.318 435.484 234.817 435.147 235.372 434.935C235.928 434.722 236.524 434.641 237.116 434.697C240.81 435.007 244.576 435.165 248.307 435.165C276.866 435.202 304.66 425.937 327.483 408.77C327.495 408.759 327.509 408.751 327.525 408.747C327.54 408.743 327.557 408.742 327.573 408.746C330.006 409.883 332.719 410.281 335.376 409.891C338.034 409.501 340.518 408.339 342.521 406.55C344.525 404.762 345.959 402.424 346.647 399.828C347.335 397.232 347.246 394.491 346.391 391.945C346.352 391.827 346.345 391.701 346.372 391.58C346.398 391.459 346.457 391.348 346.542 391.258C362.403 373.601 373.191 351.981 377.76 328.69C377.795 328.506 377.877 328.333 377.997 328.189C378.117 328.045 378.272 327.933 378.448 327.866C380.908 326.996 383.069 325.442 384.676 323.386C386.284 321.331 387.272 318.86 387.525 316.262C387.777 313.665 387.284 311.05 386.102 308.723C384.92 306.396 383.099 304.455 380.853 303.127L380.832 303.148ZM346.851 318.321L331.644 323.705C331.56 323.726 331.472 323.721 331.39 323.693C331.308 323.664 331.236 323.612 331.184 323.543L331.156 323.516C331.092 323.46 331.045 323.387 331.02 323.306C330.995 323.225 330.993 323.138 331.015 323.056L333.317 317.067L346.851 318.321ZM362.412 307.374C362.286 307.563 362.11 307.713 361.904 307.809C361.698 307.904 361.47 307.942 361.244 307.917L337.671 305.739L357.757 253.493C364.401 268.071 368.045 283.837 368.473 299.853C368.473 300.241 368.473 300.846 368.497 301.482C368.497 301.722 368.43 301.958 368.305 302.164C368.179 302.369 368 302.536 367.786 302.646C365.609 303.72 363.755 305.351 362.412 307.374V307.374ZM333.475 333.607C333.63 333.097 333.734 332.574 333.788 332.044C333.797 331.971 333.829 331.903 333.878 331.848C333.927 331.793 333.991 331.755 334.063 331.738L362.718 324.014C362.923 323.964 363.137 323.969 363.339 324.03C363.54 324.09 363.722 324.203 363.866 324.358C364.427 324.954 365.041 325.498 365.7 325.983C365.876 326.1 366.015 326.265 366.098 326.459C366.182 326.653 366.207 326.867 366.171 327.076C361.991 347.869 352.355 367.177 338.251 383.018C338.153 383.124 338.026 383.199 337.885 383.234C337.745 383.27 337.598 383.264 337.461 383.218H337.42C337.298 383.178 337.189 383.105 337.107 383.006C337.024 382.908 336.971 382.788 336.953 382.661L329.394 338.871C331.321 337.64 332.763 335.78 333.475 333.607V333.607ZM266.95 299.197L346.449 252.156L328.631 304.904L266.95 299.197ZM166.698 388.43C166.689 388.34 166.706 388.25 166.747 388.169C166.787 388.089 166.85 388.022 166.928 387.976L189.316 373.546C189.602 373.359 189.937 373.258 190.278 373.257C190.537 373.255 190.792 373.318 191.021 373.439C193.765 374.905 196.926 375.395 199.986 374.827C203.045 374.26 205.821 372.669 207.856 370.316C208.197 369.904 208.636 369.585 209.133 369.389C209.63 369.193 210.168 369.125 210.698 369.192L278.663 379.239L230.743 414.378C230.598 414.49 230.425 414.56 230.242 414.578C230.06 414.596 229.876 414.562 229.712 414.481C227.165 413.232 224.294 412.803 221.493 413.253C218.692 413.703 216.1 415.009 214.072 416.992C213.7 417.36 213.234 417.618 212.725 417.739C212.216 417.86 211.684 417.84 211.186 417.68C194.953 412.441 180.037 403.77 167.454 392.254C167.211 392.019 167.023 391.732 166.904 391.416C166.786 391.099 166.739 390.76 166.767 390.423C166.767 390.251 166.767 390.079 166.767 389.9C166.78 389.409 166.757 388.918 166.698 388.43V388.43ZM138.768 253.685C138.877 253.477 139.043 253.304 139.247 253.187C139.451 253.071 139.684 253.014 139.919 253.026C140.293 253.026 140.668 253.026 141.036 252.981L169.117 299.637C169.256 299.856 169.334 300.109 169.343 300.369C169.351 300.629 169.29 300.886 169.165 301.114V301.114C168.026 302.947 167.519 305.102 167.722 307.251C167.906 309.081 168.587 310.826 169.693 312.296C170.798 313.766 172.285 314.905 173.992 315.589L136.985 324.66C136.917 324.677 136.847 324.676 136.78 324.658C136.713 324.639 136.652 324.603 136.603 324.554C134.766 322.356 132.284 320.794 129.508 320.087C129.43 320.066 129.36 320.023 129.307 319.961C129.254 319.9 129.221 319.824 129.213 319.743C128.467 314.278 128.091 308.768 128.089 303.251C128.112 286.161 131.751 269.269 138.768 253.685V253.685ZM250.128 317.957L263.067 340.414L210.128 352.467C209.601 352.59 209.051 352.578 208.531 352.431C208.01 352.283 207.536 352.006 207.152 351.625C204.742 349.218 201.522 347.795 198.119 347.634C194.717 347.473 191.377 348.584 188.75 350.752C188.504 350.942 188.212 351.064 187.905 351.104C187.597 351.145 187.283 351.103 186.997 350.982L145.214 334.665L233.347 313.064C234.579 312.78 235.858 312.765 237.097 313.019C238.335 313.273 239.504 313.791 240.525 314.538C242.85 316.189 245.634 317.072 248.486 317.063V317.063C248.814 317.055 249.138 317.133 249.427 317.289C249.715 317.446 249.957 317.676 250.128 317.957ZM186.564 310.707C186.68 310.502 186.848 310.332 187.052 310.214C187.255 310.096 187.487 310.035 187.722 310.037L197.181 309.906L185.156 312.854C185.714 312.202 186.187 311.48 186.561 310.707H186.564ZM229.169 298.857L187.379 301.801C187.114 301.809 186.852 301.745 186.621 301.617C186.39 301.488 186.198 301.299 186.066 301.069C185.172 299.631 183.925 298.446 182.443 297.626C180.961 296.807 179.294 296.381 177.6 296.39C177.323 296.39 177.05 296.315 176.812 296.172C176.574 296.029 176.38 295.824 176.25 295.579L154.425 254.651L229.186 298.767C229.196 298.772 229.203 298.779 229.208 298.789C229.212 298.798 229.213 298.809 229.21 298.819C229.207 298.829 229.201 298.838 229.193 298.844C229.186 298.851 229.176 298.855 229.166 298.857H229.169ZM135.225 343.657L135.267 343.623C135.354 343.536 135.47 343.486 135.593 343.482C135.638 343.483 135.682 343.491 135.724 343.506L182.733 361.853C183.025 361.96 183.281 362.145 183.475 362.387C183.669 362.629 183.793 362.92 183.833 363.228V363.303C183.869 363.61 183.825 363.92 183.704 364.204C183.584 364.488 183.391 364.735 183.146 364.922L162.053 381.07C161.99 381.126 161.912 381.163 161.829 381.178C161.746 381.193 161.66 381.184 161.582 381.153C160.117 380.359 158.476 379.944 156.81 379.947C156.461 379.948 156.117 379.87 155.802 379.721C155.487 379.572 155.209 379.354 154.989 379.084C146.431 368.614 139.72 356.763 135.143 344.038C135.122 343.973 135.119 343.904 135.133 343.837C135.148 343.77 135.18 343.708 135.225 343.657ZM313.747 337.129L291.214 366.444C291.079 366.634 290.895 366.784 290.681 366.879C290.468 366.974 290.233 367.01 290.001 366.983C289.49 366.901 288.973 366.859 288.455 366.86C288.194 366.86 287.929 366.859 287.675 366.89L277.251 346.619L313.747 337.129ZM323.797 319.204C323.651 319.621 323.392 319.99 323.051 320.27C322.709 320.55 322.296 320.73 321.859 320.791C321.588 320.831 321.32 320.892 321.058 320.973C319.565 321.445 318.205 322.262 317.087 323.358C315.968 324.454 315.124 325.799 314.623 327.282C314.473 327.756 314.368 328.244 314.31 328.738L272.922 338.173L259.817 312.676C259.672 312.406 259.601 312.102 259.612 311.796C259.624 311.49 259.717 311.192 259.882 310.934L259.92 310.879C260.019 310.724 260.155 310.596 260.316 310.506C260.477 310.417 260.657 310.369 260.841 310.367H260.937L324.789 316.273L323.797 319.204ZM223.953 360.483L268.022 349.017L280.563 370.78C280.432 370.952 280.309 371.123 280.188 371.306L223.953 360.483ZM283.738 385.564C283.752 385.562 283.768 385.562 283.782 385.564C285.22 386.33 286.823 386.731 288.452 386.733C290.629 386.739 292.747 386.023 294.475 384.699C294.671 384.564 294.901 384.486 295.139 384.471C295.376 384.457 295.614 384.507 295.825 384.616L319.533 396.088C319.569 396.108 319.599 396.138 319.62 396.173C319.64 396.209 319.651 396.25 319.649 396.291C319.656 397.409 319.799 398.521 320.075 399.603C320.084 399.631 320.086 399.66 320.079 399.688C320.072 399.716 320.058 399.741 320.038 399.761C299.254 415.278 274.454 423.469 248.314 423.469C244.785 423.469 241.191 423.307 237.615 422.995L283.738 385.564ZM297.825 373.456C297.763 373.285 297.698 373.113 297.625 372.948C297.512 372.711 297.464 372.448 297.487 372.186C297.51 371.924 297.603 371.674 297.756 371.46L321.326 340.771L326.154 384.173C326.172 384.298 326.154 384.427 326.104 384.543C326.054 384.659 325.972 384.76 325.868 384.833C325.282 385.217 324.726 385.645 324.205 386.114C324.109 386.198 323.99 386.252 323.864 386.273C323.738 386.293 323.609 386.277 323.491 386.228L299.096 376.803C298.851 376.709 298.636 376.548 298.476 376.34C298.316 376.131 298.216 375.882 298.189 375.621C298.168 374.889 298.048 374.163 297.832 373.463L297.825 373.456Z" fill="url(#paint1_linear_13693_71946)"/>
<path d="M327.07 200.353C329.493 200.353 331.458 198.389 331.458 195.966C331.458 193.543 329.493 191.578 327.07 191.578C324.647 191.578 322.683 193.543 322.683 195.966C322.683 198.389 324.647 200.353 327.07 200.353Z" fill="white"/>
<path d="M169.875 200.353C172.298 200.353 174.263 198.389 174.263 195.966C174.263 193.543 172.298 191.578 169.875 191.578C167.452 191.578 165.487 193.543 165.487 195.966C165.487 198.389 167.452 200.353 169.875 200.353Z" fill="white"/>
<path d="M248.472 248.503C250.895 248.503 252.859 246.539 252.859 244.116C252.859 241.693 250.895 239.728 248.472 239.728C246.048 239.728 244.084 241.693 244.084 244.116C244.084 246.539 246.048 248.503 248.472 248.503Z" fill="white"/>
<path d="M248.472 78.596C250.895 78.596 252.859 76.6316 252.859 74.2084C252.859 71.7852 250.895 69.8208 248.472 69.8208C246.048 69.8208 244.084 71.7852 244.084 74.2084C244.084 76.6316 246.048 78.596 248.472 78.596Z" fill="white"/>
<path d="M261.534 141.707C263.957 141.707 265.922 139.742 265.922 137.319C265.922 134.896 263.957 132.931 261.534 132.931C259.111 132.931 257.146 134.896 257.146 137.319C257.146 139.742 259.111 141.707 261.534 141.707Z" fill="white"/>
<path d="M248.472 307.755C250.895 307.755 252.859 305.791 252.859 303.367C252.859 300.944 250.895 298.98 248.472 298.98C246.048 298.98 244.084 300.944 244.084 303.367C244.084 305.791 246.048 307.755 248.472 307.755Z" fill="white"/>
<path d="M356.711 243.711C359.135 243.711 361.099 241.746 361.099 239.323C361.099 236.9 359.135 234.936 356.711 234.936C354.288 234.936 352.324 236.9 352.324 239.323C352.324 241.746 354.288 243.711 356.711 243.711Z" fill="white"/>
<path d="M373.864 319.637C376.287 319.637 378.251 317.672 378.251 315.249C378.251 312.826 376.287 310.861 373.864 310.861C371.44 310.861 369.476 312.826 369.476 315.249C369.476 317.672 371.44 319.637 373.864 319.637Z" fill="white"/>
<path d="M126.137 337.799C128.56 337.799 130.525 335.834 130.525 333.411C130.525 330.988 128.56 329.023 126.137 329.023C123.714 329.023 121.75 330.988 121.75 333.411C121.75 335.834 123.714 337.799 126.137 337.799Z" fill="white"/>
<path d="M333.403 400.716C335.826 400.716 337.79 398.752 337.79 396.329C337.79 393.906 335.826 391.941 333.403 391.941C330.98 391.941 329.015 393.906 329.015 396.329C329.015 398.752 330.98 400.716 333.403 400.716Z" fill="white"/>
<path d="M223.702 431.179C226.125 431.179 228.089 429.215 228.089 426.791C228.089 424.368 226.125 422.404 223.702 422.404C221.278 422.404 219.314 424.368 219.314 426.791C219.314 429.215 221.278 431.179 223.702 431.179Z" fill="white"/>
<path d="M197.496 365.739C199.92 365.739 201.884 363.774 201.884 361.351C201.884 358.928 199.92 356.964 197.496 356.964C195.073 356.964 193.109 358.928 193.109 361.351C193.109 363.774 195.073 365.739 197.496 365.739Z" fill="white"/>
<path d="M139.935 243.711C142.359 243.711 144.323 241.746 144.323 239.323C144.323 236.9 142.359 234.936 139.935 234.936C137.512 234.936 135.548 236.9 135.548 239.323C135.548 241.746 137.512 243.711 139.935 243.711Z" fill="white"/>
<defs>
<linearGradient id="paint0_linear_13693_71946" x1="156.139" y1="159.147" x2="340.773" y2="159.147" gradientUnits="userSpaceOnUse">
<stop stop-color="#FF7F72"/>
<stop offset="1" stop-color="#FF7F72"/>
</linearGradient>
<linearGradient id="paint1_linear_13693_71946" x1="112.404" y1="333.044" x2="387.563" y2="333.044" gradientUnits="userSpaceOnUse">
<stop stop-color="#4C8AED"/>
<stop offset="1" stop-color="#4C8AED"/>
</linearGradient>
</defs>
</svg>
