<svg width="500" height="501" viewBox="0 0 500 501" fill="none" xmlns="http://www.w3.org/2000/svg">
<rect y="0.5" width="500" height="500" rx="250" fill="white"/>
<path d="M216.999 250.335C237.15 261.91 261.927 261.932 282.099 250.394L349.335 211.935C353.121 209.77 357.699 209.489 361.722 211.175L368.57 214.046C375.547 216.97 379.716 224.19 378.76 231.695L375.929 253.926C375.371 258.305 376.556 262.728 379.229 266.242L392.796 284.079C397.376 290.1 397.376 298.437 392.796 304.458L379.229 322.295C376.556 325.809 375.371 330.232 375.929 334.611L378.76 356.842C379.716 364.347 375.547 371.567 368.57 374.491L347.902 383.155C343.831 384.862 340.593 388.099 338.886 392.171L330.223 412.839C327.298 419.816 320.078 423.984 312.574 423.029L290.343 420.198C285.963 419.64 281.54 420.825 278.027 423.498L260.19 437.065C254.168 441.645 245.831 441.645 239.81 437.065L221.973 423.498C218.46 420.825 214.036 419.64 209.657 420.198L187.426 423.029C179.922 423.984 172.702 419.816 169.777 412.839L161.114 392.171C159.407 388.099 156.169 384.862 152.098 383.155L131.429 374.491C124.453 371.567 120.284 364.347 121.24 356.842L124.071 334.611C124.629 330.232 123.443 325.809 120.771 322.295L107.203 304.458C102.624 298.437 102.624 290.1 107.203 284.079L120.771 266.242C123.443 262.728 124.629 258.305 124.071 253.926L121.24 231.695C120.284 224.19 124.453 216.97 131.429 214.046L137.978 211.301C142.008 209.611 146.596 209.897 150.386 212.074L216.999 250.335Z" fill="url(#paint0_radial_13693_72134)"/>
<path d="M282.098 250.393C261.926 261.932 237.149 261.909 216.998 250.335L147.875 210.891L225.989 240.288C241.14 246.142 257.927 246.154 273.087 240.321L351.624 210.891L282.098 250.393Z" fill="url(#paint1_radial_13693_72134)"/>
<path d="M285.531 60.5H215.403L285.534 213.852L350.521 188.605L285.531 60.5Z" fill="url(#paint2_linear_13693_72134)"/>
<path d="M214.938 60.5H285.066L214.467 213.852L149.947 188.605L214.938 60.5Z" fill="url(#paint3_linear_13693_72134)"/>
<defs>
<radialGradient id="paint0_radial_13693_72134" cx="0" cy="0" r="1" gradientUnits="userSpaceOnUse" gradientTransform="translate(249.869 440.606) rotate(-90) scale(198.942 254.379)">
<stop offset="0.203695" stop-color="#56F2FF"/>
<stop offset="1" stop-color="#4A8CEA"/>
</radialGradient>
<radialGradient id="paint1_radial_13693_72134" cx="0" cy="0" r="1" gradientUnits="userSpaceOnUse" gradientTransform="translate(249.656 259.054) rotate(-90) scale(43.1794 182.097)">
<stop stop-color="#6BF1FC"/>
<stop offset="1" stop-color="#3B85EF"/>
</radialGradient>
<linearGradient id="paint2_linear_13693_72134" x1="282.962" y1="60.5" x2="282.962" y2="213.852" gradientUnits="userSpaceOnUse">
<stop offset="0.180683" stop-color="#FF7F72"/>
<stop offset="1" stop-color="#2978EF" stop-opacity="0.7"/>
</linearGradient>
<linearGradient id="paint3_linear_13693_72134" x1="217.506" y1="60.5" x2="217.506" y2="213.852" gradientUnits="userSpaceOnUse">
<stop offset="0.140498" stop-color="#FFE336"/>
<stop offset="1" stop-color="#13C0B6" stop-opacity="0.7"/>
</linearGradient>
</defs>
</svg>
