<svg width="60" height="60" viewBox="0 0 60 60" fill="none" xmlns="http://www.w3.org/2000/svg">
<circle cx="30" cy="30" r="30" fill="#00A3FF"/>
<path d="M28.773 35.71H34.953V37.98H25.043V35.88L31.203 30.39C31.6563 29.9833 31.983 29.59 32.183 29.21C32.383 28.83 32.483 28.4533 32.483 28.08C32.483 27.6067 32.3796 27.18 32.173 26.8C31.973 26.4133 31.6863 26.1133 31.313 25.9C30.9463 25.68 30.5296 25.57 30.063 25.57C29.5763 25.57 29.1363 25.6867 28.743 25.92C28.3563 26.1467 28.0563 26.45 27.843 26.83C27.6296 27.21 27.5296 27.62 27.543 28.06H25.063C25.063 27.1133 25.2763 26.28 25.703 25.56C26.1296 24.84 26.723 24.2833 27.483 23.89C28.2496 23.4967 29.1263 23.3 30.113 23.3C31.0263 23.3 31.8496 23.5067 32.583 23.92C33.323 24.3267 33.903 24.8967 34.323 25.63C34.743 26.3567 34.953 27.1833 34.953 28.11C34.953 28.77 34.863 29.3333 34.683 29.8C34.503 30.26 34.2496 30.6733 33.923 31.04C33.5963 31.4067 33.1096 31.8733 32.463 32.44L28.773 35.71Z" fill="white"/>
<circle cx="30" cy="30" r="30" fill="white"/>
<circle cx="30" cy="30" r="29.5" stroke="#000A3D" stroke-opacity="0.12"/>
<path d="M36.046 12.6585L15.2155 30.8184C14.7801 31.198 15.0486 31.9145 15.6263 31.9145H27.0832L20.7775 45.5769C20.4966 46.1856 21.2409 46.7495 21.7508 46.3142L43.9193 27.3899C44.3611 27.0127 44.0943 26.2895 43.5135 26.2895H30.8332L37.0202 13.4001C37.3141 12.7878 36.558 12.2122 36.046 12.6585Z" fill="#E9B260"/>
</svg>
