<svg width="40" height="24" viewBox="0 0 40 24" fill="none" xmlns="http://www.w3.org/2000/svg">
<path d="M37.1109 1.30403C36.3736 0.662418 35.5544 0.18121 34.5713 0.0208074C33.3425 -0.139595 32.1137 0.662418 31.2944 1.22383C30.4752 1.78524 28.8368 3.22886 28.1814 3.79027C27.526 4.35168 25.8875 4.67248 23.1841 6.27651C20.4807 7.88054 9.99456 14.457 9.99456 14.457H12.698L0.491528 20.6326H1.72037L0 21.9158C0.983071 22.1564 1.96614 21.996 2.86729 21.5148V21.9158C2.86729 21.9158 17.3676 16.3017 20.153 17.7453L18.4326 18.2265C18.5964 18.2265 21.2999 18.3869 21.2999 18.3869C21.4637 19.5097 22.1191 20.5523 23.1022 21.1138C24.7406 22.1564 24.8226 22.798 24.8226 22.798C24.8226 22.798 24.0033 23.1188 24.0033 23.6C25.5599 23.1188 27.1983 23.1188 28.6729 23.6C28.6729 23.6 28.591 23.1188 27.4441 22.798C26.2971 22.3168 25.3141 21.595 24.5768 20.5524C23.9214 19.6701 23.6756 18.5473 24.0853 17.5047C24.4949 16.4621 25.8875 15.9007 28.7548 14.457C32.1137 12.7728 32.9329 11.4896 33.3425 10.447C33.7521 9.40436 34.5713 7.47953 34.899 6.51712C35.2267 5.6349 35.8002 4.91309 36.5375 4.27148C37.4386 3.79027 38.4217 3.38926 39.3228 3.06846C39.4867 3.14866 37.6844 1.70504 37.1109 1.30403Z" fill="black"/>
</svg>
